<?xml version="1.0" encoding="utf-8"?>
<!-- Generator: Adobe Illustrator 27.9.0, SVG Export Plug-In . SVG Version: 6.00 Build 0)  -->
<svg version="1.1" xmlns="http://www.w3.org/2000/svg" xmlns:xlink="http://www.w3.org/1999/xlink" x="0px" y="0px"
	 viewBox="0 0 105.191 99.064" enable-background="new 0 0 105.191 99.064" xml:space="preserve">
<g id="OBJECTS">
	<g>
		<path fill="#FFFFFF" d="M86.063,32.322v35.801c0,7.475-6.116,13.591-13.591,13.591H36.671c-7.475,0-13.591-6.116-13.591-13.591
			V32.322c0-7.475,6.116-13.591,13.591-13.591h35.801C79.947,18.731,86.063,24.847,86.063,32.322z"/>
		<path fill="#2E3D70" d="M67.743,59.227l1.29-9.998H59.13v-6.384c0-2.895,0.81-4.868,4.958-4.868l5.291-0.003V29.03
			c-0.912-0.121-4.054-0.394-7.713-0.394c-7.637,0-12.86,4.66-12.86,13.219v7.374H40.17v9.998h8.636v22.328H59.13V59.227H67.743z"/>
	</g>
</g>
<g id="Layer_2">
</g>
<g id="Layer_3">
</g>
</svg>
