<?xml version="1.0" encoding="utf-8"?>
<!-- Generator: Adobe Illustrator 27.9.0, SVG Export Plug-In . SVG Version: 6.00 Build 0)  -->
<svg version="1.1" xmlns="http://www.w3.org/2000/svg" xmlns:xlink="http://www.w3.org/1999/xlink" x="0px" y="0px"
	 viewBox="0 0 105.191 99.064" enable-background="new 0 0 105.191 99.064" xml:space="preserve">
<g id="OBJECTS">
	<g>
		<path fill="#FFFFFF" d="M85.534,33.343v35.801c0,7.475-6.116,13.591-13.591,13.591H36.142c-7.475,0-13.591-6.116-13.591-13.591
			V33.343c0-7.475,6.116-13.591,13.591-13.591h35.801C79.418,19.752,85.534,25.868,85.534,33.343z"/>
		<path fill="#2E3D70" d="M62.872,28.968H43.839c-6.912,0-12.535,5.623-12.535,12.535v19.032c0,6.912,5.623,12.535,12.535,12.535
			h19.033c6.912,0,12.535-5.623,12.535-12.535V41.503C75.407,34.591,69.784,28.968,62.872,28.968z M72.182,60.869
			c0,5.011-4.077,9.087-9.087,9.087H43.616c-5.011,0-9.087-4.076-9.087-9.087V41.392c0-5.011,4.076-9.087,9.087-9.087h19.478
			c5.011,0,9.087,4.077,9.087,9.087V60.869z"/>
		<path fill="#2E3D70" d="M53.355,39.909c-6.187,0-11.221,5.034-11.221,11.221c0,6.187,5.034,11.221,11.221,11.221
			c6.188,0,11.222-5.034,11.222-11.221C64.577,44.943,59.543,39.909,53.355,39.909z M53.355,59.163c-4.43,0-8.033-3.603-8.033-8.033
			c0-4.43,3.604-8.033,8.033-8.033c4.43,0,8.034,3.604,8.034,8.033C61.389,55.56,57.785,59.163,53.355,59.163z"/>
		<path fill="#2E3D70" d="M65.427,36.743c-1.247,0-2.261,1.014-2.261,2.26c0,1.247,1.014,2.261,2.261,2.261
			c1.246,0,2.26-1.014,2.26-2.261C67.687,37.758,66.674,36.743,65.427,36.743z"/>
	</g>
</g>
<g id="Layer_2">
</g>
<g id="Layer_3">
</g>
</svg>
