<?xml version="1.0" encoding="utf-8"?>
<!-- Generator: Adobe Illustrator 27.9.0, SVG Export Plug-In . SVG Version: 6.00 Build 0)  -->
<svg version="1.1" xmlns="http://www.w3.org/2000/svg" xmlns:xlink="http://www.w3.org/1999/xlink" x="0px" y="0px"
	 viewBox="0 0 1930.213 530.043" enable-background="new 0 0 1930.213 530.043" xml:space="preserve">
<g id="OBJECTS">
	<path opacity="0.2" fill="#325588" d="M-90.074,697.223c8.925-27.07,19.19-53.651,31.447-79.368
		c0.787-1.11,1.562-2.228,2.308-3.366c0.818-1.248,1.621-2.508,2.384-3.791c0.357-0.601,0.692-1.216,1.023-1.831
		c0.386-0.715,0.593-1.471,0.918-2.207c0.043-0.097,0.006-0.177-0.052-0.239c0.318-0.894,0.672-1.768,1.066-2.618
		c1.756-2.411,4.295-4.272,7.073-5.435c1.214-0.508,2.464-0.898,3.732-1.225c0.202-0.053,0.403-0.106,0.605-0.159
		c4.229-1.006,8.679-1.236,12.955-1.777c10.993-1.392,21.886-3.574,32.574-6.498c10.676-2.921,21.143-6.575,31.312-10.947
		c10.171-4.373,20.029-9.456,29.5-15.187c8.771-5.307,17.192-11.189,25.196-17.594c0.676-0.472,1.358-0.935,2.023-1.422
		c1.126-0.825,2.215-1.666,3.265-2.585c0.235-0.206,0.222-0.542,0.078-0.773c0.004-0.49-0.434-0.956-0.92-0.903
		c-0.172-0.118-0.39-0.159-0.639-0.03c-2.684,1.388-5.485,2.556-8.359,3.507c-0.045,0.011-0.089,0.024-0.134,0.035
		c-3.079,0.744-6.206,1.287-9.346,1.696c-4.081,0.532-8.185,0.839-12.293,1.098c-0.352-0.021-0.704-0.039-1.055-0.063
		c-0.146-0.01-0.248,0.058-0.309,0.152c-1.742,0.106-3.485,0.207-5.226,0.313c-12.636,0.766-25.177,2.374-37.453,5.531
		c-12.168,3.129-24.011,7.637-34.955,13.836c-9.677,5.481-18.589,12.261-26.347,20.235c-0.535,0.549-1.047,1.119-1.569,1.68
		c-0.432,0.315-0.868,0.625-1.295,0.945c-0.491,0.368-0.958,0.758-1.417,1.16c13.134-23.824,28.074-46.662,45.067-67.914
		c2.721-3.402,5.496-6.76,8.32-10.077l0.164-0.042c7.694-4.031,15.259-8.326,22.806-12.643c0.089,0.103,0.229,0.164,0.376,0.102
		c3.675-1.545,7.284-3.149,11.135-4.225c3.802-1.063,7.694-1.784,11.623-2.165c7.06-0.685,14.188-0.302,21.174,0.888
		c0.005,0.116,0.031,0.232,0.094,0.332c0.232,0.368,0.628,0.502,1.047,0.454c0.077-0.009,0.138-0.037,0.192-0.073
		c1.923,1.513,3.731,3.158,5.388,4.965c1.936,2.112,3.682,4.383,5.412,6.663c3.448,4.545,6.858,9.065,11.198,12.813
		c8.313,7.178,18.861,11.704,29.748,13.025c6.089,0.739,12.308,0.458,18.29-0.909l0.082,0.053c0.64,0.416,1.295-0.421,0.763-0.933
		l-0.045-0.268c-4.15-10.122-10.987-19.093-19.586-25.848c-9.218-7.241-20.419-11.725-32.067-12.973
		c-6.788-0.727-13.692-0.368-20.359,1.105l-0.205,0.091c-6.126-1.006-12.361-1.384-18.554-0.977
		c-6.658,0.437-13.318,1.823-19.514,4.34c0.818-0.468,1.637-0.937,2.455-1.404c1.88-0.723,3.693-1.62,5.455-2.62
		c1.061-0.407,2.128-0.798,3.189-1.191c0.674-0.25,1.356-0.478,2.037-0.712c0.11,0.025,0.232,0.025,0.371-0.044
		c0.181-0.09,0.36-0.185,0.541-0.275c1.187-0.395,2.38-0.772,3.58-1.128c0.513-0.152,1.031-0.288,1.547-0.432
		c0.108,0.096,0.249,0.148,0.418,0.1c1.652-0.469,3.294-0.975,4.934-1.489c2.187-0.518,4.383-0.993,6.585-1.445
		c9.069-1.859,18.234-3.248,27.24-5.414c9.548-2.297,18.832-5.514,28.117-8.68c9.267-3.16,18.583-6.256,28.187-8.234
		c9.524-1.962,19.353-2.859,29.028-1.538c1.204,0.164,2.402,0.365,3.594,0.595c0.534,0.103,1.052-0.46,0.948-0.979
		c-0.121-0.605-0.243-1.21-0.364-1.815c-0.083-0.413-0.382-0.621-0.706-0.669c-2.079-1.569-4.258-2.993-6.51-4.29
		c-7.143-5.007-15.036-8.964-23.358-11.557c-11.063-3.447-22.827-4.465-34.296-2.716c-11.211,1.71-21.713,6.088-30.907,12.703
		c-8.38,6.028-15.642,13.422-23.103,20.512c-5.174,4.917-10.509,9.689-16.34,13.777c-1.27,0.735-2.541,1.469-3.813,2.2
		c-11.436,6.568-22.898,13.093-34.255,19.796c-0.697,0.411-1.385,0.835-2.078,1.251c18.177-21.091,38.452-40.361,60.804-56.999
		c18.86-14.039,39.118-26.236,60.423-36.189c6.25-1.805,12.645-3.073,19.148-3.696c5.675-0.544,11.397-0.586,17.085-0.173
		l0.063,0.108c2.506,2.75,5.109,5.322,7.934,7.747c2.843,2.441,5.797,4.756,8.859,6.915c6.096,4.299,12.581,8.054,19.334,11.224
		c6.761,3.174,13.797,5.759,21.004,7.717c7.205,1.958,14.572,3.313,22.008,3.994c7.398,0.677,14.863,0.694,22.262,0.024
		c0.943-0.085,1.884-0.183,2.824-0.29c0.234-0.026,0.395-0.136,0.501-0.28l0.224-0.018c0.414-0.048,0.507-0.57,0.278-0.826
		l0.256,0.03c0.399,0.03,0.613-0.596,0.186-0.721c-1.828-0.537-3.682-0.989-5.491-1.595c-1.779-0.595-3.519-1.306-5.215-2.107
		c-3.513-1.658-6.83-3.7-10.005-5.933c-6.475-4.554-12.332-9.904-18.494-14.858c-6.065-4.875-12.483-9.297-19.742-12.203
		c-6.95-2.782-14.412-4.303-21.893-4.514c-7.485-0.21-14.989,0.874-22.084,3.28c-0.752,0.255-1.495,0.533-2.237,0.817
		c-4.811-0.354-9.647-0.379-14.462-0.049c-5.254,0.36-10.468,1.142-15.586,2.337c6.342-2.791,12.767-5.395,19.277-7.776
		c0.133-0.049,0.267-0.093,0.399-0.141c0.167,0.003,0.333-0.004,0.527-0.035c0.412-0.065,0.824-0.134,1.234-0.208
		c0.822-0.148,1.637-0.328,2.449-0.523c0.8-0.191,1.605-0.385,2.388-0.635c0.804-0.257,1.531-0.596,2.284-0.972
		c0.143-0.072,0.165-0.226,0.112-0.344c0.731-0.25,1.461-0.501,2.204-0.721c1.619-0.481,3.266-0.868,4.925-1.186
		c3.324-0.638,6.7-0.983,10.08-1.135c7.021-0.317,14.041,0.231,21.04,0.73c7.338,0.523,14.721,0.983,22.071,0.408
		c6.962-0.545,13.758-2.225,20.335-4.536c3.642-1.28,7.211-2.75,10.738-4.316c1.803-0.801,3.605-1.61,5.381-2.471
		c1.159-0.562,2.357-1.088,3.478-1.733l0.034-0.007c0.174-0.035,0.292-0.121,0.369-0.227l0.093-0.054l0.05-0.034
		c0.35-0.222,0.695-0.452,1.019-0.713c0.171-0.138,0.055-0.45-0.175-0.405c-0.184,0.037-0.359,0.096-0.539,0.143
		c-0.056-0.115-0.137-0.225-0.276-0.313c-0.889-0.565-1.784-1.121-2.683-1.672l-0.072-0.101c-0.373-0.217-0.753-0.415-1.13-0.623
		c-5.379-3.233-10.941-6.168-16.772-8.496c-7.098-2.833-14.646-4.801-22.309-5.083c-7.841-0.289-15.548,1.327-22.802,4.258
		c-7.482,3.023-14.37,7.326-20.903,12.025c-3.342,2.404-6.621,4.901-9.851,7.453c-1.695,1.34-3.389,2.682-5.084,4.022
		c-1.429,1.131-2.882,2.251-4.278,3.429c-0.139-0.034-0.294-0.005-0.415,0.134c-0.184,0.212-0.383,0.41-0.588,0.602
		c-0.326,0.088-0.653,0.177-0.975,0.281c-0.35,0.113-0.408,0.433-0.306,0.709c-0.096,0.063-0.189,0.132-0.287,0.191
		c-10.87,3.865-21.525,8.319-31.925,13.313c-1.078,0.393-2.153,0.8-3.217,1.234c-1.179,0.481-2.332,1.029-3.482,1.577
		c-0.248,0.118-0.234,0.398-0.088,0.546c-8.684,4.412-17.182,9.192-25.464,14.319c1.98-1.549,3.949-3.112,5.909-4.686
		c4.153-2.661,8.398-5.174,12.663-7.65c9.161-5.32,18.413-10.544,26.903-16.911c8.205-6.153,15.653-13.402,21.052-22.178
		c5.301-8.616,8.63-18.247,10.834-28.08c2.234-9.966,3.352-20.156,4.204-30.322c0.048-0.571,0.083-1.144,0.121-1.716
		c-0.343-0.197-0.683-0.399-1.009-0.623l-0.004,0.038c-1.165,1.649-2.327,3.301-3.563,4.897c-0.112,0.14-0.225,0.28-0.336,0.421
		c-1.599,2.036-3.285,4.003-5.041,5.904c-3.686,3.99-7.65,7.716-11.671,11.365c-8.069,7.323-16.464,14.366-23.603,22.636
		c-3.712,4.299-6.951,8.924-9.739,13.873c-2.972,5.278-5.467,10.803-7.957,16.32c-2.49,5.517-4.976,11.049-7.936,16.335
		c-2.936,5.244-6.436,10.13-10.417,14.631c-7.914,8.949-17.421,16.337-26.94,23.485c-1.162,0.873-2.306,1.75-3.418,2.687
		c-0.197,0.166-0.281,0.361-0.288,0.551c-20.894,16.141-39.981,34.548-57.163,54.616c1.704-3.762,3.696-7.363,6.1-10.75
		c2.968-4.182,6.362-8.049,9.856-11.795c2.129-2.283,4.299-4.536,6.463-6.796c0.145-0.08,0.287-0.161,0.425-0.238
		c0.691-0.387,1.354-0.822,1.983-1.304c1.295-0.993,2.446-2.161,3.523-3.382c0.038-0.043,0.073-0.088,0.11-0.131
		c0.176-0.063,0.322-0.192,0.379-0.413c0.005-0.018,0.009-0.036,0.014-0.055c1.038-1.218,2.039-2.475,3.06-3.713
		c2.071-1.737,4.048-3.591,5.923-5.543c0.504-0.302,1.012-0.596,1.489-0.935c0.205-0.146,0.06-0.462-0.171-0.455
		c1.947-2.128,3.778-4.356,5.487-6.657c5.288-7.122,9.494-15.057,12.381-23.446c2.959-8.599,4.526-17.651,4.554-26.748
		c0.028-9.362-1.485-18.689-4.423-27.577c-2.943-8.903-7.335-17.343-13.005-24.815c-0.696-0.917-1.413-1.819-2.146-2.707
		c-0.564-0.682-1.569-0.041-1.412,0.656c-0.33-0.17-0.839,0.028-0.721,0.472c0.159,0.594,0.34,1.181,0.508,1.772
		c-4.199,6.062-7.63,12.756-10.241,19.632c-2.94,7.743-4.642,15.861-4.837,24.149c-0.21,8.932,1.027,17.808,2.269,26.631
		c1.165,8.274,2.339,16.583,2.286,24.958c-0.05,7.86-1.139,15.815-4.295,23.068c-0.291,0.667-0.597,1.329-0.901,1.991
		c-1.161,1.264-2.337,2.515-3.515,3.764c-0.316,0.141-0.619,0.297-0.82,0.602c-0.067,0.101-0.091,0.235-0.089,0.367
		c-1.184,1.253-2.37,2.503-3.548,3.759c-6.882,7.336-13.92,15.22-17.599,24.738c-0.396,1.025-0.705,2.075-0.986,3.135
		c-20.62,24.427-38.422,51.145-53.705,79.205c0.44-1.456,0.877-2.912,1.322-4.361c1.934-6.296,3.833-12.602,5.638-18.935
		c2.406-8.445,4.657-16.936,6.705-25.475c1.564-4.495,3.045-9.019,4.449-13.56c3.027-9.786,5.656-19.709,7.541-29.782
		c1.793-9.584,2.904-19.3,3.015-29.056c0.107-9.39-0.66-18.807-2.561-28.01c-1.871-9.059-4.831-17.915-9.052-26.155
		c-0.065-0.22-0.118-0.444-0.185-0.664c-0.459-1.508-0.928-3.012-1.419-4.509c-0.233-0.71-1.473-0.366-1.273,0.367l0.057,0.216
		c-5.032,8.086-8.775,16.929-11.42,26.072c-2.659,9.194-4.21,18.703-4.549,28.269c-0.353,9.942,0.695,19.788,2.487,29.558
		c1.657,9.028,3.769,17.967,5.371,27.004c0.33,3.851,0.636,7.705,0.864,11.564c0.285,4.824,0.401,9.648,0.54,14.478
		c0.024,0.849,0.074,1.695,0.127,2.542c-1.027,7.68-2.41,15.321-4.182,22.835c-0.287,1.22-0.597,2.435-0.911,3.648
		c-0.472,1.624-0.939,3.249-1.416,4.87c-0.629,2.136-1.278,4.268-1.925,6.4c-1.863,5.547-4.026,10.989-6.546,16.274
		c-1.526,2.571-2.942,5.209-4.212,7.926c-0.592,1.266-1.145,2.544-1.658,3.843c-0.079,0.199-0.067,0.375-0.019,0.534
		c-0.199,0.414-0.388,0.833-0.586,1.248c-0.191,0.258-0.379,0.518-0.572,0.774c-0.427,0.568-0.994,1.126-1.109,1.847
		c-0.034,0.214,0.055,0.404,0.199,0.538c-9.63,20.555-18.085,41.664-25.431,63.135c-1.357,3.966-2.669,7.944-3.932,11.941
		C-92.078,697.636-90.436,698.322-90.074,697.223z M89.274,499.811c3.866,3.721,7.69,7.472,11.768,10.964
		c8.193,7.017,17.25,13.102,27.493,16.672c0.151,0.053,0.304,0.099,0.455,0.15c-0.148-0.037-0.298-0.065-0.446-0.103
		c-4.796-1.247-9.466-2.983-13.896-5.205c-4.424-2.219-8.619-4.896-12.491-7.979c-4.005-3.189-7.51-6.886-10.958-10.655
		c-1.872-2.046-3.805-4.063-5.866-5.921c-0.392-0.353-0.794-0.7-1.197-1.046c0.158,0.06,0.31,0.131,0.471,0.186
		c0.832,0.286,1.651,0.607,2.471,0.927C87.831,498.449,88.562,499.125,89.274,499.811z M89.557,498.819
		c1.628,0.699,3.241,1.432,4.823,2.23c4.299,2.167,8.416,4.669,12.468,7.262c8.069,5.162,15.902,10.743,24.366,15.259
		c4.298,2.293,8.773,4.323,13.458,5.682c-4.912-0.177-9.725-0.901-14.446-2.358c-5.169-1.596-10.102-3.929-14.727-6.726
		c-9.312-5.631-17.256-13.028-25.072-20.524C90.143,499.371,89.851,499.095,89.557,498.819z M102.001,518.084
		c-4.342-3.553-7.815-7.862-11.217-12.29c-1.465-1.906-2.971-3.874-4.588-5.742c1.182,1.167,2.349,2.351,3.509,3.543
		c3.524,3.62,6.965,7.32,10.858,10.553c7.668,6.368,16.713,11.121,26.264,13.952c2.673,0.792,5.392,1.435,8.139,1.914
		c0.532,0.093,1.071,0.183,1.611,0.272c-7.043,0.03-14.088-1.343-20.637-3.984C110.914,524.276,106.197,521.516,102.001,518.084z
		 M145.912,529.175c-4.47-1.439-8.804-3.254-12.96-5.439c-4.286-2.253-8.382-4.834-12.412-7.514
		c-7.991-5.315-15.714-11.05-24.17-15.629c-2.339-1.266-4.728-2.454-7.184-3.477c-0.695-0.289-1.402-0.547-2.108-0.808l-0.053-0.041
		c-0.399-0.201-0.799-0.401-1.198-0.602c-0.233-0.173-0.47-0.341-0.708-0.506c6.018,1.625,11.867,3.839,17.524,6.468
		c7.671,3.565,14.977,7.869,22.037,12.515c7.098,4.67,13.886,9.761,20.777,14.724C145.607,528.973,145.76,529.073,145.912,529.175z
		 M112.073,495.742c10.255,3.827,19.332,10.462,26.206,18.967c3.188,3.944,5.876,8.266,8.005,12.862
		c-2.523-1.983-5.131-3.856-7.731-5.739c-3.501-2.535-7.032-5.03-10.619-7.442c-7.101-4.774-14.435-9.228-22.132-12.979
		c-7.525-3.667-15.384-6.635-23.553-8.5c-0.526-0.12-1.056-0.224-1.584-0.335C91.184,490.927,102.086,492.015,112.073,495.742z
		 M151.025,455.4c-8.512,0.253-16.996,1.399-25.315,3.203c-8.24,1.787-16.33,4.214-24.269,7.046
		c-7.986,2.849-15.823,6.11-23.568,9.558c-6.888,3.067-13.683,6.349-20.393,9.791c0.839-0.62,1.664-1.257,2.47-1.908
		c0.129-0.104,0.252-0.215,0.38-0.32c5.405-3.068,10.827-6.107,16.302-9.043c10.67-5.722,21.646-10.943,33.311-14.305
		c11.303-3.259,23.087-4.946,34.849-5.012c6.112-0.034,12.187,0.404,18.211,1.233C159.02,455.352,155.017,455.281,151.025,455.4z
		 M63.573,483.365c3.856-1.907,7.739-3.757,11.648-5.55c7.695-3.53,15.468-6.895,23.38-9.908c7.871-2.998,15.888-5.643,24.064-7.678
		c8.216-2.044,16.585-3.465,25.038-4.015c8.527-0.554,17.04-0.124,25.47,1.257c0.458,0.075,0.914,0.166,1.37,0.248
		c1.179,0.263,2.357,0.534,3.53,0.825c-0.05-0.004-0.099-0.004-0.148-0.008c-7.233-1.259-14.604-1.548-21.932-1.097
		c-8.262,0.509-16.43,1.879-24.467,3.84c-8.005,1.953-15.859,4.469-23.619,7.228c-7.856,2.793-15.629,5.813-23.425,8.769
		c-5.794,2.197-11.609,4.359-17.493,6.306c-2.503,0.559-4.996,1.164-7.47,1.84C60.868,484.732,62.214,484.037,63.573,483.365z
		 M128.365,467.501c-9.399,3.156-18.734,6.556-28.319,9.117c-8.209,2.193-16.582,3.651-24.916,5.277
		c2.163-0.783,4.321-1.578,6.472-2.383c7.77-2.906,15.48-5.969,23.26-8.848c7.775-2.877,15.623-5.582,23.63-7.744
		c7.911-2.136,15.975-3.763,24.136-4.566c6.572-0.647,13.21-0.669,19.78,0.007c-5.17,0.016-10.345,0.525-15.439,1.396
		C147.21,461.423,137.732,464.355,128.365,467.501z M184.547,458.965c-1.368-0.49-2.721-1.076-4.113-1.485
		c-1.389-0.408-2.788-0.778-4.192-1.13c-2.919-0.731-5.877-1.323-8.844-1.824c-5.886-0.994-11.84-1.579-17.807-1.755
		c-11.852-0.35-23.75,0.879-35.264,3.724c-11.848,2.927-23.065,7.685-33.876,13.293c-4.74,2.459-9.415,5.047-14.063,7.687
		c1.625-1.482,3.242-2.971,4.891-4.426c7.636-6.741,16.021-12.641,25.051-17.366c8.962-4.69,18.567-8.212,28.534-10.008
		c9.837-1.772,19.973-1.863,29.823-0.136c6.719,1.178,13.254,3.239,19.411,6.129c2.586,1.557,5.103,3.231,7.531,5.028
		C182.62,457.431,183.588,458.193,184.547,458.965z M185.045,457.949c-0.002,0.001-0.005,0.002-0.007,0.004
		c-0.023-0.02-0.048-0.037-0.072-0.057C184.992,457.914,185.019,457.932,185.045,457.949z M87.644,456.103
		c4.008-3.206,8.247-6.143,12.802-8.521c5.164-2.695,10.682-4.699,16.361-5.989c11.342-2.576,23.203-2.343,34.476,0.474
		c5.875,1.468,11.531,3.641,16.92,6.356c-3.041-1.109-6.147-2.043-9.296-2.77c-9.753-2.251-19.927-2.699-29.853-1.453
		c-10.086,1.267-19.977,4.252-29.202,8.495c-9.308,4.281-18.018,9.866-25.932,16.363c-4.299,3.53-8.312,7.508-12.577,11.137
		c1.267-1.106,2.528-2.221,3.763-3.361C72.605,469.911,79.663,462.489,87.644,456.103z M228.739,445.362
		c-7.147-1.776-14.142-4.188-20.877-7.166c-6.769-2.993-13.275-6.569-19.416-10.702c-3.052-2.054-6.021-4.236-8.885-6.545
		c-2.867-2.312-5.545-4.825-8.316-7.246c-0.433-0.379-0.852-0.772-1.275-1.161c0.167,0.014,0.334,0.036,0.501,0.051
		c9.6,6.102,19.348,11.969,29.301,17.478c5.17,2.862,10.409,5.599,15.743,8.142c5.328,2.54,10.687,4.982,16.209,7.076
		c1.53,0.58,3.069,1.153,4.617,1.695C233.792,446.516,231.254,445.987,228.739,445.362z M246.91,448.487
		c-0.697-0.068-1.392-0.158-2.088-0.238c-0.984-0.161-1.96-0.375-2.924-0.636c-2.828-0.764-5.608-1.739-8.363-2.73
		c-5.463-1.964-10.902-4.118-16.168-6.564c-10.565-4.906-20.735-10.594-30.727-16.569c-5.013-2.998-10.002-6.037-15.013-9.039
		c0.534,0.055,1.068,0.102,1.601,0.164c1.876,0.47,3.724,1.029,5.54,1.741c2.959,1.16,5.809,2.582,8.604,4.089
		c5.916,3.189,11.693,6.623,17.632,9.774c6.103,3.238,12.267,6.363,18.487,9.371c6.173,2.986,12.385,5.937,18.674,8.671
		c1.623,0.706,3.307,1.385,5.03,1.981C247.1,448.499,247.005,448.492,246.91,448.487z M262.04,448.999l-0.22,0.04
		c-3.03,0.075-6.062,0.036-9.091-0.116c-2.952-0.562-5.858-1.534-8.677-2.631c-6.367-2.478-12.562-5.435-18.722-8.383
		c-6.158-2.946-12.262-6.006-18.307-9.177c-5.991-3.142-11.894-6.44-17.842-9.661c-3.13-1.695-6.286-3.346-9.592-4.677
		c-0.909-0.366-1.836-0.712-2.773-1.032c1.707,0.261,3.408,0.557,5.098,0.911c10.348,2.166,20.047,6.151,29.332,11.15
		c9.484,5.106,18.551,10.978,28.234,15.714C246.55,444.596,254.184,447.645,262.04,448.999z M177.887,409.81
		c4.335-0.986,8.775-1.51,13.222-1.541c7.433-0.051,14.878,1.185,21.869,3.719c7.276,2.638,13.762,6.76,19.848,11.49
		c6.203,4.822,12,10.154,18.367,14.768c1.567,1.135,3.184,2.245,4.844,3.299c-7.442-3.491-14.628-7.569-21.761-11.615
		c-12.395-7.03-25.028-14.073-38.916-17.685C189.71,410.777,183.778,409.82,177.887,409.81z M175.509,410.4
		c2.436-0.091,4.882-0.071,7.299,0.153c3.502,0.325,6.97,0.945,10.386,1.778c6.978,1.703,13.714,4.312,20.208,7.359
		c12.794,6.004,24.628,13.802,37.163,20.298c6.369,3.301,12.928,6.231,19.774,8.382c-4.234-0.332-8.415-0.857-12.565-1.92
		c-5.196-1.331-10.227-3.271-15.092-5.515c-9.823-4.531-18.951-10.38-28.397-15.617c-9.237-5.12-18.804-9.413-29.103-11.89
		c-4.147-0.997-8.358-1.709-12.596-2.169C173.551,410.945,174.528,410.665,175.509,410.4z M259.893,390.072
		c-3.179,1.386-6.388,2.709-9.642,3.913c-6.521,2.412-13.262,4.272-20.192,5.001c-13.554,1.426-27.097-1.051-40.66-1.093
		c0.73-0.133,1.459-0.274,2.189-0.404c2.776-0.311,5.564-0.481,8.355-0.587c5.606-0.214,11.217-0.259,16.824-0.437
		c11.097-0.352,22.347-0.843,33.085-3.916c2.961-0.847,5.877-1.842,8.825-2.731c1.543-0.465,3.089-0.916,4.658-1.286l0.095-0.019
		C262.251,389.032,261.074,389.557,259.893,390.072z M259.759,388.15c-2.713,0.791-5.373,1.753-8.057,2.634
		c-5.328,1.749-10.766,3.017-16.325,3.757c-11.15,1.483-22.399,1.157-33.61,1.646c-1.286,0.056-2.572,0.126-3.857,0.198
		c1.225-0.212,2.45-0.432,3.676-0.641c6.765-1.155,13.537-2.242,20.333-3.201c6.789-0.958,13.584-1.949,20.391-2.772
		c3.82-0.461,7.652-0.842,11.481-1.222c2.21-0.219,4.431-0.391,6.647-0.595C260.211,388.02,259.983,388.084,259.759,388.15z
		 M262.601,387.253c-2.548,0.175-5.095,0.465-7.632,0.709c-3.415,0.329-6.828,0.676-10.239,1.045
		c-6.868,0.744-13.736,1.409-20.588,2.296c-13.61,1.762-27.176,3.839-40.678,6.29c-0.501,0.091-1.001,0.187-1.502,0.279
		c23.653-6.567,48.096-10.303,72.65-10.619C257.275,387.219,259.938,387.224,262.601,387.253z M179.836,389.553
		c6.406-4.755,13.075-9.227,20.344-12.563c7.015-3.22,14.552-5.341,22.302-5.516c7.581-0.171,15.097,1.462,22.181,4.079
		c2.1,0.776,4.164,1.643,6.201,2.571c-8.334-2.211-17.115-2.797-25.723-2.089c-14.756,1.214-28.822,6.409-41.869,13.212
		c-3.686,1.922-7.293,3.987-10.842,6.152c-0.473,0.288-0.945,0.581-1.418,0.872C173.946,394.023,176.868,391.756,179.836,389.553z
		 M171.749,397.104c3.127-1.95,6.301-3.827,9.522-5.619c6.432-3.578,13.088-6.739,20.007-9.26c13.377-4.874,27.8-7.223,41.982-5.17
		c3.495,0.506,6.947,1.295,10.313,2.348c3.593,1.762,7.094,3.714,10.51,5.792c-2.529-1.05-5.221-1.791-7.869-2.374
		c-3.348-0.738-6.752-1.214-10.17-1.471c-6.863-0.517-13.774-0.176-20.6,0.645c-13.903,1.674-27.677,5.062-40.797,9.949
		c-5.024,1.871-9.948,4.015-14.771,6.364C170.501,397.908,171.119,397.497,171.749,397.104z M202.307,387.479
		c13.276-3.609,27.207-6.085,41.01-5.508c3.81,0.159,7.613,0.566,11.359,1.293c3.845,0.745,7.521,1.933,11.256,3.08l0.012-0.001
		l0.094,0.059c-32.492-1.454-65.13,3.542-96.075,13.397c-0.165,0.052-0.327,0.11-0.492,0.163
		C179.981,394.771,191.011,390.55,202.307,387.479z M172.679,350.715c-1.948,9.772-4.896,19.428-9.728,28.184
		c-4.949,8.968-11.967,16.454-19.975,22.77c-8.227,6.49-17.299,11.781-26.349,17.02c-2.044,1.183-4.089,2.368-6.129,3.565
		c6.995-5.959,13.794-12.151,20.238-18.704c7.38-7.504,14.314-15.449,20.534-23.945c6.017-8.219,11.397-16.934,15.826-26.111
		c3.443-7.133,6.342-14.557,8.449-22.198C174.8,337.798,173.961,344.285,172.679,350.715z M114.184,402.765
		c4.979-10.886,9.553-21.992,16.992-31.495c6.756-8.631,15.048-15.868,23.136-23.205c2.965-2.69,5.932-5.413,8.801-8.234
		c-0.759,0.997-1.52,1.993-2.28,2.989c-4.55,5.972-9.117,11.931-13.688,17.886c-9.141,11.91-18.143,23.931-27.203,35.902
		c-2.51,3.317-5.021,6.634-7.531,9.951C113.012,405.3,113.603,404.034,114.184,402.765z M110.056,411.304
		c0.726-0.958,1.452-1.917,2.177-2.876c2.266-2.992,4.532-5.985,6.798-8.978c4.532-5.985,9.067-11.968,13.595-17.957
		c9.055-11.978,18.059-23.992,27.082-35.994c2.369-3.151,4.742-6.3,7.109-9.453c3.249-3.434,6.297-7.046,8.986-10.938
		c-4.363,7.583-8.53,15.276-12.966,22.818c-4.654,7.913-9.558,15.685-14.96,23.111c-5.322,7.317-11.141,14.192-17.403,20.719
		c-6.158,6.418-12.578,12.589-18.494,19.236c-1.818,2.042-3.578,4.137-5.273,6.282C107.885,415.319,109.006,413.331,110.056,411.304
		z M102.353,425.197c2.441-3.685,5.088-7.213,7.932-10.597c5.769-6.864,12.169-13.155,18.413-19.578
		c6.331-6.514,12.375-13.243,17.831-20.516c5.554-7.403,10.569-15.205,15.302-23.153c4.705-7.901,9.151-15.961,13.412-24.11
		c0.252-0.482,0.496-0.968,0.743-1.453c-2.156,8.185-5.006,16.189-8.557,23.872c-4.269,9.236-9.476,18.024-15.366,26.316
		c-6.015,8.468-12.743,16.41-19.941,23.894c-7.514,7.813-15.544,15.119-23.842,22.088c-2.644,2.221-5.323,4.398-8.018,6.556
		c-0.148,0.096-0.293,0.198-0.442,0.294C100.725,427.647,101.55,426.41,102.353,425.197z M49.346,356.765
		c1.488,5.047,3.192,10.034,4.553,15.121c1.652,6.176,2.976,12.442,3.878,18.773c1.727,12.13,1.859,24.489-0.207,36.586
		c-1.942,11.369-5.786,22.5-11.84,32.35c-1.723,2.802-3.648,5.444-5.681,8.001c-0.097,0.084-0.192,0.17-0.289,0.253
		c0.577-1.874,1.125-3.757,1.645-5.647c1.046-3.807,1.986-7.645,2.8-11.508c1.617-7.674,2.716-15.469,3.387-23.282
		c0.669-7.787,0.875-15.609,0.603-23.421c-0.266-7.661-1.138-15.268-1.57-22.917c-0.457-8.099-0.071-16.168,2.475-23.903
		C49.182,357.036,49.262,356.899,49.346,356.765z M42.794,467.054c-0.104,0.09-0.207,0.181-0.309,0.273
		c0.102-0.132,0.2-0.267,0.301-0.399c0.431-0.384,0.853-0.776,1.277-1.167C43.641,466.193,43.225,466.63,42.794,467.054z
		 M47.437,359.935c-1.743,5.726-2.047,11.865-1.881,17.815c0.212,7.612,1.194,15.178,1.554,22.783
		c0.743,15.699-0.57,31.536-3.685,46.933c-0.877,4.333-1.871,8.642-3.024,12.91c-0.032,0.12-0.07,0.237-0.103,0.357
		c0.488-3.025,0.904-6.061,1.266-9.092c0.933-7.816,1.286-15.689,1.34-23.557c0.055-7.948-0.477-15.852-1.062-23.773
		c-0.578-7.84-1.006-15.754-0.26-23.597c0.621-6.524,2.113-13.024,4.83-18.999C46.749,361.118,47.092,360.526,47.437,359.935z
		 M68.441,404.05c0.331,8.954-0.845,17.961-3.451,26.533c-2.209,7.265-5.401,14.23-9.439,20.661
		c3.241-6.182,5.273-12.99,6.828-19.763c2.043-8.898,3.219-18.031,3.234-27.166c0.015-8.61-1.025-17.24-3.269-25.558
		c-1.296-4.803-3.008-9.49-5.14-13.979c2.259,3.933,4.21,8.044,5.81,12.298C66.259,385.699,68.101,394.843,68.441,404.05z
		 M50.486,354.802c0.696,0.886,1.372,1.787,2.031,2.7c1.438,2.352,2.794,4.751,3.987,7.247c1.745,3.648,3.212,7.428,4.404,11.291
		c2.502,8.107,3.763,16.578,3.898,25.056c0.142,8.966-0.863,17.906-2.757,26.665c-1.781,8.232-4.073,16.61-8.198,24.008
		c-1.972,3.535-4.445,6.665-7.183,9.563c5.789-9.162,9.73-19.416,11.961-30.009c2.512-11.927,2.822-24.236,1.505-36.333
		c-0.696-6.401-1.848-12.75-3.353-19.009c-1.499-6.235-3.259-12.465-5.581-18.447c-0.304-0.782-0.618-1.555-0.946-2.323
		C50.329,355.073,50.409,354.939,50.486,354.802z M38.298,430.058c-1.235-8.856-2.726-17.71-2.989-26.665
		c-0.249-8.469,0.882-16.827,3.55-24.874c1.295-3.908,2.892-7.711,4.709-11.407c-3.505,10.548-3.4,22.272-2.736,33.251
		c0.489,8.091,1.147,16.166,1.167,24.277c0.02,7.916-0.555,15.785-1.451,23.646c-0.172,1.509-0.378,3.011-0.589,4.512
		C40.165,445.185,39.348,437.591,38.298,430.058z M-53.945,608.258c-0.002,0.019-0.003,0.038-0.005,0.056
		c-0.028,0.04-0.055,0.081-0.083,0.122C-54.003,608.377-53.975,608.317-53.945,608.258z M-48.236,599.079
		c0.046,0.011,0.095,0.014,0.149,0.005c0.101-0.017,0.201-0.041,0.302-0.059c-0.277,0.19-0.562,0.37-0.827,0.574
		C-48.493,599.422-48.358,599.255-48.236,599.079z M39.298,575.101c-10.211,4.555-20.746,8.411-31.492,11.502
		c-10.732,3.088-21.685,5.409-32.748,6.933c-1.018,0.14-2.045,0.259-3.074,0.374c1.592-0.428,3.187-0.849,4.778-1.281
		c8.27-2.243,16.523-4.55,24.73-7.013c8.189-2.457,16.333-5.072,24.41-7.875c8.098-2.81,16.121-5.837,24.03-9.14
		c4.664-1.948,9.28-4.008,13.85-6.166C55.873,567.123,47.693,571.356,39.298,575.101z M68.985,559.27
		c-0.169,0.106-0.34,0.208-0.509,0.314c-5.23,2.526-10.523,4.922-15.873,7.181c-7.86,3.318-15.839,6.352-23.889,9.177
		c-8.07,2.832-16.218,5.435-24.411,7.887c-8.243,2.468-16.525,4.805-24.83,7.053c-4.852,1.313-9.712,2.593-14.574,3.865
		c-2.395,0.346-4.766,0.802-7.064,1.539c-0.799,0.256-1.587,0.575-2.364,0.922c-0.279,0.072-0.557,0.145-0.836,0.218
		c-0.719,0.188-1.422,0.396-2.122,0.621c3.726-4.948,8.782-8.892,14.335-11.737c10.239-5.246,21.846-6.752,33.117-8.163
		c5.758-0.721,11.509-1.463,17.215-2.527c5.509-1.028,10.973-2.294,16.374-3.788c10.753-2.975,21.258-6.827,31.373-11.536
		c3.671-1.709,7.289-3.533,10.85-5.462C73.538,556.351,71.275,557.831,68.985,559.27z M91.229,543.404
		c-2.922,1.884-5.82,3.811-8.801,5.598c-4.853,2.909-9.835,5.605-14.918,8.089c-10.11,4.939-20.638,9.025-31.433,12.199
		c-11.045,3.248-22.314,5.362-33.724,6.819c-11.46,1.463-23.315,2.722-33.915,7.644c-0.499,0.231-0.992,0.487-1.486,0.736
		c0.349-0.216,0.695-0.437,1.044-0.652c4.186-2.572,8.486-4.96,12.876-7.166c8.773-4.409,17.916-8.059,27.312-10.909
		c9.167-2.782,18.563-4.672,27.964-6.463c9.333-1.779,18.698-3.544,27.88-6.009c8.423-2.262,16.787-5.171,24.439-9.408
		c0.404-0.133,0.813-0.25,1.214-0.392c0.546-0.194,1.088-0.399,1.627-0.61c0.321-0.105,0.645-0.202,0.965-0.312
		C91.927,542.848,91.577,543.125,91.229,543.404z M85.455,544.781c-6.047,2.906-12.386,5.187-18.856,6.995
		c-9.146,2.556-18.492,4.27-27.824,5.98c-9.429,1.727-18.871,3.528-28.103,6.138c-9.414,2.662-18.604,6.111-27.453,10.283
		c-0.994,0.469-1.984,0.949-2.971,1.436c6.726-3.48,13.648-6.584,20.699-9.343c8.378-3.278,16.935-6.07,25.595-8.502
		c9.126-2.563,18.356-4.797,27.621-6.798c7.581-1.638,15.203-3.066,22.806-4.59C79.836,546.074,82.674,545.528,85.455,544.781z
		 M-15.5,568.58c10.589-6.439,22.178-11.242,34.088-14.617c12.027-3.408,24.417-5.381,36.875-6.293
		c4.936-0.361,9.92-0.601,14.881-1.016c0.669,0.011,1.338,0.01,2.006-0.003c-5.034,0.928-10.062,1.888-15.08,2.907
		c-9.373,1.903-18.712,3.958-27.951,6.436c-8.707,2.335-17.337,4.989-25.799,8.101c-8.19,3.011-16.211,6.467-23.963,10.477
		c-4.427,2.29-8.783,4.752-13.009,7.415C-27.917,576.954-21.883,572.463-15.5,568.58z M-45.434,591.997
		c0.083-0.152,0.169-0.301,0.252-0.453c0.003,0.046,0.008,0.091,0.023,0.133C-45.248,591.786-45.344,591.889-45.434,591.997z
		 M-44.788,590.973l-0.138,0.113c0.025-0.045,0.05-0.089,0.075-0.134C-44.829,590.957-44.811,590.972-44.788,590.973z
		 M-30.146,426.018c0.591,4.403,1.087,8.818,1.489,13.241c0.808,8.901,1.218,17.832,1.237,26.77
		c0.018,8.885-0.341,17.771-1.076,26.626c-0.735,8.857-1.856,17.673-3.319,26.439c-1.355,8.125-3.067,16.174-5.046,24.167
		c-0.027-1.751-0.101-3.5-0.218-5.247c0.864-11.887,1.224-23.781,1.269-35.703c0.053-14.154-0.197-28.308,0.014-42.462
		c0.21-14.039,0.87-28.098,2.729-42.025c0.128-0.961,0.257-1.922,0.383-2.884c0.072-0.152,0.146-0.303,0.218-0.455
		c0.237,0.436,0.475,0.872,0.705,1.312C-31.172,419.197-30.605,422.598-30.146,426.018z M-37.749,531.069
		c0.013-2.472,0.029-4.944,0.015-7.415c-0.051-9.244-0.302-18.486-0.76-27.719c-0.461-9.275-1.256-18.525-1.828-27.792
		c-0.559-9.054-0.823-18.143,0.206-27.175c0.927-8.138,2.869-16.232,6.339-23.676c-1.822,12.284-2.492,24.761-2.802,37.154
		c-0.351,14.016-0.155,28.037-0.154,42.055c0,11.836-0.157,23.678-0.902,35.492C-37.673,531.684-37.711,531.377-37.749,531.069z
		 M-33.375,414.601c-0.056,0.343-0.1,0.688-0.154,1.031c-3.587,6.664-5.606,14.167-6.748,21.607
		c-1.345,8.758-1.438,17.689-1.083,26.526c0.376,9.374,1.187,18.726,1.646,28.096c0.46,9.405,0.716,18.821,0.765,28.237
		c0.005,0.987-0.001,1.973-0.001,2.96c-0.475-2.742-0.998-5.476-1.55-8.205c-0.669-6.733-1.383-13.462-1.985-20.201
		c-0.81-9.06-1.378-18.15-1.338-27.249c0.037-8.593,0.607-17.2,2.077-25.674c1.478-8.517,3.857-16.78,7.282-24.72
		C-34.115,416.2-33.747,415.4-33.375,414.601z M-35.52,543.903c-0.473,1.384-0.94,2.771-1.411,4.156
		c0.037-0.802,0.061-1.605,0.077-2.408c2.134-7.578,3.73-15.333,5.159-23.063c1.622-8.778,2.822-17.638,3.659-26.524
		c0.841-8.931,1.292-17.899,1.361-26.869c0.069-8.876-0.241-17.756-0.897-26.608c-0.377-5.083-0.897-10.157-1.516-15.219
		c1.365,6.949,2.393,13.96,3.008,21.024c1.109,12.728,1.042,25.543,0.088,38.279c-0.958,12.789-2.823,25.496-5.3,38.076
		C-32.555,531.164-33.979,537.547-35.52,543.903z M-23.173,439.049c2.139,9.041,3.163,18.343,3.261,27.629
		c0.1,9.572-0.779,19.13-2.359,28.566c-1.678,10.019-4.135,19.892-7.03,29.625c-0.237,0.795-0.497,1.582-0.741,2.375
		c2.434-11.954,4.34-24.019,5.443-36.171c1.153-12.7,1.448-25.491,0.619-38.22c-0.418-6.421-1.124-12.824-2.155-19.176
		c-0.515-3.172-1.09-6.347-1.771-9.499C-25.956,429.003-24.373,433.979-23.173,439.049z M-47.302,469.9
		c-0.052-9.538,1.145-19.092,3.46-28.343c1.172-4.686,2.652-9.3,4.4-13.803c0.591-1.523,1.236-3.017,1.899-4.502
		c-1.781,4.864-3.165,9.881-4.2,14.941c-1.727,8.447-2.565,17.072-2.819,25.683c-0.263,8.918,0.126,17.837,0.787,26.73
		c0.361,4.849,0.796,9.692,1.249,14.533c-0.388-1.85-0.774-3.701-1.144-5.553C-45.631,489.796-47.248,479.908-47.302,469.9z"/>
	<path opacity="0.2" fill="#325588" d="M2051.55,698.626c-1.262-3.997-2.575-7.976-3.932-11.941
		c-7.346-21.471-15.801-42.58-25.431-63.135c0.144-0.134,0.232-0.324,0.198-0.538c-0.115-0.721-0.682-1.279-1.109-1.847
		c-0.193-0.256-0.381-0.516-0.572-0.774c-0.198-0.415-0.387-0.834-0.586-1.248c0.048-0.159,0.059-0.335-0.019-0.534
		c-0.513-1.299-1.066-2.578-1.658-3.843c-1.27-2.717-2.686-5.355-4.213-7.926c-2.52-5.285-4.683-10.727-6.546-16.274
		c-0.647-2.132-1.296-4.264-1.925-6.4c-0.477-1.622-0.944-3.247-1.416-4.87c-0.313-1.213-0.623-2.428-0.911-3.648
		c-1.772-7.514-3.155-15.155-4.182-22.835c0.053-0.847,0.103-1.693,0.127-2.542c0.139-4.83,0.255-9.653,0.54-14.478
		c0.228-3.859,0.534-7.712,0.864-11.564c1.603-9.037,3.715-17.977,5.371-27.004c1.792-9.769,2.84-19.616,2.487-29.557
		c-0.339-9.566-1.89-19.075-4.549-28.269c-2.644-9.143-6.388-17.987-11.42-26.072l0.057-0.216c0.201-0.733-1.04-1.077-1.273-0.367
		c-0.491,1.497-0.96,3.002-1.419,4.509c-0.067,0.219-0.12,0.443-0.185,0.664c-4.221,8.241-7.181,17.096-9.052,26.155
		c-1.901,9.203-2.668,18.62-2.561,28.01c0.111,9.755,1.221,19.472,3.015,29.056c1.885,10.073,4.514,19.996,7.541,29.782
		c1.405,4.542,2.886,9.066,4.449,13.561c2.048,8.539,4.3,17.03,6.705,25.475c1.805,6.334,3.704,12.64,5.638,18.935
		c0.445,1.45,0.883,2.905,1.323,4.361c-15.283-28.06-33.085-54.778-53.705-79.205c-0.281-1.06-0.59-2.11-0.986-3.135
		c-3.679-9.518-10.717-17.402-17.599-24.738c-1.178-1.255-2.364-2.506-3.548-3.758c0.002-0.132-0.022-0.266-0.089-0.367
		c-0.202-0.304-0.504-0.461-0.82-0.602c-1.178-1.249-2.354-2.5-3.515-3.764c-0.304-0.662-0.61-1.324-0.901-1.991
		c-3.156-7.253-4.245-15.208-4.295-23.067c-0.053-8.375,1.121-16.684,2.286-24.958c1.242-8.823,2.479-17.699,2.269-26.631
		c-0.195-8.288-1.897-16.406-4.837-24.149c-2.611-6.876-6.042-13.57-10.241-19.632c0.167-0.591,0.349-1.178,0.508-1.772
		c0.118-0.444-0.39-0.642-0.721-0.472c0.156-0.697-0.849-1.338-1.412-0.656c-0.733,0.888-1.45,1.789-2.146,2.707
		c-5.671,7.472-10.062,15.912-13.005,24.815c-2.938,8.888-4.451,18.215-4.423,27.577c0.028,9.096,1.595,18.148,4.554,26.748
		c2.887,8.389,7.092,16.324,12.38,23.446c1.708,2.3,3.54,4.529,5.487,6.657c-0.231-0.007-0.376,0.309-0.171,0.455
		c0.477,0.339,0.985,0.633,1.489,0.935c1.875,1.952,3.852,3.806,5.923,5.543c1.021,1.238,2.022,2.494,3.06,3.713
		c0.005,0.018,0.009,0.036,0.014,0.055c0.058,0.221,0.204,0.35,0.379,0.413c0.037,0.043,0.073,0.088,0.11,0.131
		c1.077,1.221,2.229,2.389,3.523,3.382c0.628,0.482,1.291,0.918,1.983,1.304c0.138,0.077,0.28,0.159,0.425,0.238
		c2.164,2.26,4.334,4.513,6.463,6.796c3.494,3.746,6.888,7.613,9.856,11.795c2.403,3.387,4.396,6.988,6.1,10.75
		c-17.182-20.068-36.269-38.476-57.163-54.616c-0.007-0.19-0.091-0.385-0.288-0.551c-1.112-0.937-2.255-1.814-3.418-2.687
		c-9.519-7.148-19.026-14.535-26.94-23.485c-3.981-4.501-7.481-9.387-10.417-14.631c-2.96-5.286-5.446-10.817-7.936-16.335
		c-2.49-5.516-4.984-11.042-7.957-16.319c-2.788-4.949-6.027-9.574-9.739-13.873c-7.139-8.27-15.534-15.313-23.603-22.636
		c-4.021-3.649-7.985-7.376-11.671-11.365c-1.757-1.901-3.442-3.868-5.041-5.904c-0.111-0.142-0.224-0.281-0.336-0.421
		c-1.236-1.597-2.399-3.249-3.563-4.897l-0.004-0.038c-0.325,0.223-0.666,0.426-1.009,0.623c0.038,0.572,0.073,1.145,0.121,1.716
		c0.851,10.166,1.969,20.355,4.204,30.322c2.205,9.833,5.533,19.464,10.834,28.08c5.399,8.776,12.847,16.026,21.052,22.178
		c8.49,6.367,17.742,11.591,26.903,16.911c4.265,2.477,8.51,4.989,12.663,7.65c1.96,1.574,3.929,3.137,5.909,4.686
		c-8.282-5.126-16.78-9.906-25.464-14.319c0.146-0.148,0.16-0.428-0.088-0.546c-1.149-0.548-2.303-1.096-3.482-1.577
		c-1.064-0.434-2.139-0.841-3.217-1.234c-10.4-4.994-21.056-9.448-31.925-13.313c-0.098-0.06-0.191-0.129-0.287-0.191
		c0.102-0.276,0.044-0.596-0.306-0.709c-0.322-0.104-0.648-0.193-0.975-0.281c-0.205-0.191-0.404-0.389-0.588-0.602
		c-0.12-0.139-0.276-0.168-0.415-0.134c-1.396-1.177-2.849-2.297-4.278-3.429c-1.694-1.341-3.389-2.683-5.084-4.022
		c-3.229-2.552-6.51-5.049-9.851-7.453c-6.533-4.7-13.42-9.002-20.903-12.025c-7.254-2.931-14.961-4.547-22.802-4.258
		c-7.663,0.282-15.212,2.25-22.309,5.083c-5.831,2.327-11.394,5.263-16.772,8.496c-0.377,0.208-0.758,0.406-1.13,0.623l-0.072,0.102
		c-0.899,0.55-1.794,1.107-2.683,1.672c-0.14,0.089-0.221,0.198-0.276,0.313c-0.18-0.047-0.355-0.106-0.539-0.143
		c-0.23-0.046-0.346,0.267-0.175,0.405c0.324,0.261,0.669,0.491,1.019,0.713l0.05,0.034l0.093,0.054
		c0.077,0.106,0.195,0.191,0.369,0.227l0.034,0.007c1.12,0.645,2.319,1.17,3.478,1.733c1.776,0.861,3.577,1.671,5.38,2.471
		c3.527,1.566,7.097,3.036,10.738,4.316c6.576,2.311,13.372,3.991,20.335,4.536c7.35,0.576,14.733,0.115,22.071-0.408
		c7-0.498,14.019-1.047,21.04-0.73c3.38,0.153,6.755,0.497,10.08,1.135c1.658,0.318,3.306,0.705,4.925,1.186
		c0.742,0.22,1.473,0.471,2.203,0.721c-0.053,0.118-0.032,0.272,0.112,0.344c0.753,0.377,1.48,0.715,2.284,0.972
		c0.784,0.25,1.589,0.444,2.388,0.635c0.812,0.194,1.628,0.375,2.449,0.523c0.411,0.074,0.822,0.143,1.234,0.208
		c0.194,0.031,0.36,0.038,0.527,0.035c0.132,0.048,0.267,0.093,0.399,0.141c6.51,2.381,12.935,4.985,19.277,7.776
		c-5.118-1.195-10.333-1.977-15.586-2.337c-4.814-0.33-9.65-0.305-14.461,0.049c-0.741-0.284-1.485-0.562-2.237-0.817
		c-7.095-2.406-14.599-3.49-22.084-3.28c-7.481,0.211-14.943,1.732-21.893,4.514c-7.258,2.905-13.677,7.328-19.742,12.203
		c-6.162,4.953-12.02,10.303-18.495,14.858c-3.175,2.233-6.492,4.275-10.005,5.933c-1.696,0.801-3.436,1.511-5.215,2.107
		c-1.809,0.606-3.663,1.059-5.491,1.595c-0.427,0.125-0.213,0.751,0.186,0.721l0.256-0.03c-0.229,0.256-0.136,0.778,0.278,0.826
		l0.224,0.018c0.107,0.144,0.267,0.253,0.502,0.28c0.94,0.107,1.882,0.205,2.824,0.29c7.399,0.67,14.865,0.653,22.262-0.024
		c7.436-0.681,14.803-2.036,22.008-3.994c7.207-1.958,14.244-4.544,21.004-7.717c6.752-3.17,13.237-6.925,19.334-11.224
		c3.062-2.159,6.016-4.475,8.859-6.915c2.825-2.425,5.428-4.997,7.934-7.747l0.063-0.108c5.689-0.413,11.411-0.371,17.085,0.173
		c6.502,0.623,12.897,1.891,19.148,3.696c21.305,9.953,41.563,22.15,60.423,36.189c22.352,16.638,42.626,35.908,60.803,56.999
		c-0.693-0.417-1.382-0.84-2.078-1.251c-11.357-6.703-22.819-13.228-34.255-19.796c-1.272-0.731-2.543-1.465-3.813-2.2
		c-5.83-4.088-11.165-8.86-16.34-13.777c-7.461-7.09-14.723-14.483-23.103-20.512c-9.194-6.614-19.696-10.993-30.907-12.703
		c-11.469-1.749-23.233-0.732-34.296,2.716c-8.322,2.593-16.215,6.55-23.358,11.557c-2.252,1.297-4.431,2.72-6.51,4.29
		c-0.325,0.047-0.624,0.256-0.706,0.669c-0.121,0.605-0.243,1.21-0.364,1.815c-0.104,0.519,0.414,1.082,0.948,0.979
		c1.192-0.23,2.391-0.431,3.594-0.595c9.675-1.321,19.504-0.424,29.028,1.538c9.604,1.978,18.92,5.074,28.187,8.234
		c9.285,3.166,18.569,6.384,28.117,8.68c9.005,2.166,18.171,3.555,27.24,5.414c2.201,0.451,4.398,0.927,6.585,1.445
		c1.64,0.514,3.282,1.02,4.934,1.489c0.169,0.048,0.309-0.004,0.418-0.1c0.515,0.145,1.033,0.28,1.547,0.432
		c1.199,0.355,2.392,0.733,3.579,1.128c0.181,0.09,0.36,0.186,0.541,0.275c0.139,0.069,0.261,0.069,0.371,0.044
		c0.68,0.234,1.362,0.461,2.037,0.712c1.061,0.393,2.128,0.784,3.189,1.191c1.762,0.999,3.576,1.897,5.455,2.62
		c0.819,0.467,1.637,0.936,2.455,1.404c-6.197-2.517-12.857-3.903-19.515-4.34c-6.194-0.407-12.428-0.028-18.554,0.977l-0.205-0.091
		c-6.667-1.473-13.571-1.833-20.359-1.105c-11.648,1.248-22.849,5.732-32.067,12.973c-8.6,6.756-15.436,15.726-19.586,25.848
		l-0.045,0.268c-0.531,0.512,0.123,1.349,0.763,0.933l0.082-0.053c5.982,1.366,12.201,1.647,18.29,0.909
		c10.887-1.321,21.436-5.847,29.748-13.025c4.34-3.748,7.749-8.268,11.198-12.813c1.73-2.28,3.476-4.552,5.412-6.663
		c1.657-1.807,3.465-3.453,5.388-4.965c0.054,0.036,0.114,0.064,0.192,0.073c0.418,0.047,0.814-0.086,1.047-0.454
		c0.063-0.101,0.089-0.217,0.094-0.332c6.986-1.19,14.115-1.573,21.174-0.888c3.929,0.381,7.821,1.102,11.623,2.165
		c3.851,1.076,7.46,2.68,11.135,4.225c0.146,0.061,0.287,0.001,0.376-0.102c7.547,4.317,15.112,8.612,22.806,12.643l0.164,0.042
		c2.824,3.317,5.599,6.675,8.32,10.077c16.994,21.251,31.933,44.09,45.067,67.913c-0.459-0.401-0.926-0.792-1.417-1.16
		c-0.428-0.321-0.864-0.63-1.295-0.945c-0.522-0.561-1.034-1.13-1.569-1.68c-7.758-7.974-16.67-14.754-26.347-20.235
		c-10.944-6.199-22.787-10.708-34.955-13.836c-12.277-3.157-24.817-4.765-37.453-5.531c-1.742-0.106-3.484-0.207-5.226-0.313
		c-0.061-0.094-0.163-0.162-0.309-0.152c-0.351,0.025-0.703,0.043-1.055,0.063c-4.107-0.26-8.211-0.566-12.292-1.098
		c-3.14-0.409-6.267-0.953-9.346-1.696c-0.045-0.011-0.089-0.024-0.134-0.035c-2.874-0.951-5.675-2.119-8.359-3.507
		c-0.249-0.129-0.468-0.088-0.639,0.03c-0.485-0.054-0.924,0.413-0.92,0.903c-0.144,0.231-0.157,0.567,0.078,0.773
		c1.05,0.92,2.14,1.761,3.265,2.585c0.665,0.487,1.347,0.951,2.023,1.422c8.004,6.405,16.425,12.287,25.196,17.594
		c9.472,5.731,19.33,10.813,29.5,15.187c10.169,4.372,20.636,8.027,31.312,10.947c10.688,2.924,21.581,5.106,32.574,6.498
		c4.276,0.542,8.726,0.771,12.955,1.777c0.202,0.053,0.403,0.106,0.605,0.159c1.268,0.327,2.518,0.717,3.733,1.225
		c2.778,1.163,5.318,3.024,7.073,5.435c0.394,0.85,0.748,1.724,1.066,2.618c-0.058,0.062-0.095,0.142-0.052,0.239
		c0.325,0.736,0.532,1.492,0.918,2.207c0.332,0.615,0.666,1.231,1.023,1.831c0.763,1.283,1.566,2.543,2.384,3.791
		c0.746,1.139,1.521,2.256,2.308,3.366c12.257,25.717,22.522,52.299,31.447,79.368
		C2050.253,700.402,2051.895,699.717,2051.55,698.626z M1872.738,499.882c0.82-0.32,1.639-0.64,2.471-0.927
		c0.161-0.055,0.313-0.126,0.471-0.186c-0.403,0.346-0.805,0.693-1.197,1.046c-2.061,1.858-3.994,3.874-5.866,5.921
		c-3.448,3.769-6.953,7.466-10.958,10.655c-3.872,3.084-8.066,5.76-12.491,7.979c-4.43,2.222-9.1,3.958-13.896,5.205
		c-0.147,0.038-0.298,0.066-0.446,0.103c0.151-0.051,0.305-0.097,0.455-0.15c10.243-3.57,19.3-9.655,27.493-16.672
		c4.078-3.492,7.902-7.243,11.768-10.964C1871.256,501.206,1871.986,500.53,1872.738,499.882z M1869.39,501.724
		c-7.816,7.496-15.76,14.894-25.072,20.524c-4.625,2.796-9.558,5.13-14.727,6.726c-4.721,1.458-9.535,2.181-14.446,2.358
		c4.685-1.359,9.16-3.39,13.458-5.682c8.464-4.515,16.297-10.097,24.366-15.259c4.053-2.593,8.169-5.095,12.468-7.262
		c1.582-0.797,3.195-1.53,4.823-2.23C1869.966,501.176,1869.674,501.451,1869.39,501.724z M1843.878,528.383
		c-6.549,2.641-13.594,4.014-20.637,3.984c0.54-0.089,1.08-0.18,1.611-0.272c2.747-0.479,5.465-1.122,8.139-1.914
		c9.552-2.831,18.596-7.584,26.264-13.952c3.893-3.233,7.334-6.933,10.858-10.553c1.161-1.192,2.327-2.376,3.509-3.543
		c-1.617,1.868-3.124,3.835-4.588,5.742c-3.402,4.428-6.875,8.737-11.217,12.29C1853.62,523.597,1848.903,526.356,1843.878,528.383z
		 M1814.359,530.947c6.891-4.963,13.679-10.054,20.777-14.724c7.061-4.646,14.366-8.95,22.037-12.515
		c5.657-2.629,11.506-4.843,17.524-6.468c-0.239,0.164-0.475,0.333-0.708,0.506c-0.399,0.201-0.799,0.401-1.198,0.602l-0.053,0.041
		c-0.706,0.262-1.413,0.519-2.108,0.808c-2.456,1.023-4.845,2.21-7.183,3.477c-8.456,4.579-16.179,10.314-24.17,15.629
		c-4.03,2.68-8.125,5.261-12.412,7.514c-4.156,2.185-8.49,4-12.96,5.439C1814.057,531.154,1814.211,531.054,1814.359,530.947z
		 M1879.152,494.658c-0.528,0.111-1.058,0.215-1.584,0.335c-8.169,1.865-16.028,4.833-23.553,8.5
		c-7.697,3.751-15.031,8.205-22.132,12.979c-3.587,2.412-7.118,4.906-10.619,7.442c-2.6,1.883-5.208,3.756-7.731,5.739
		c2.129-4.596,4.817-8.918,8.005-12.862c6.875-8.506,15.952-15.141,26.206-18.968
		C1857.731,494.095,1868.633,493.008,1879.152,494.658z M1796.812,457.723c6.024-0.829,12.099-1.267,18.211-1.233
		c11.763,0.066,23.546,1.753,34.849,5.012c11.665,3.363,22.64,8.583,33.311,14.305c5.475,2.936,10.896,5.975,16.302,9.043
		c0.128,0.105,0.251,0.216,0.38,0.32c0.806,0.651,1.631,1.288,2.47,1.908c-6.71-3.442-13.505-6.724-20.393-9.791
		c-7.745-3.448-15.582-6.709-23.568-9.558c-7.938-2.832-16.029-5.259-24.269-7.046c-8.319-1.804-16.802-2.95-25.315-3.203
		C1804.8,457.362,1800.797,457.433,1796.812,457.723z M1900.298,487.504c-2.474-0.676-4.967-1.281-7.47-1.84
		c-5.884-1.948-11.699-4.11-17.493-6.306c-7.796-2.956-15.569-5.975-23.425-8.769c-7.76-2.759-15.615-5.275-23.619-7.228
		c-8.037-1.961-16.205-3.332-24.467-3.84c-7.328-0.451-14.698-0.162-21.932,1.097c-0.049,0.003-0.099,0.004-0.148,0.008
		c1.174-0.291,2.352-0.562,3.531-0.825c0.457-0.082,0.912-0.173,1.37-0.248c8.43-1.381,16.943-1.811,25.47-1.257
		c8.453,0.55,16.822,1.971,25.038,4.015c8.177,2.035,16.193,4.68,24.064,7.678c7.912,3.014,15.685,6.379,23.38,9.908
		c3.909,1.793,7.792,3.644,11.648,5.55C1897.603,486.117,1898.949,486.812,1900.298,487.504z M1802.849,461.836
		c-5.094-0.87-10.269-1.379-15.439-1.396c6.57-0.676,13.208-0.654,19.78-0.007c8.16,0.803,16.225,2.43,24.136,4.566
		c8.007,2.162,15.855,4.868,23.63,7.744c7.78,2.879,15.49,5.942,23.26,8.848c2.151,0.805,4.309,1.599,6.472,2.383
		c-8.334-1.625-16.707-3.083-24.916-5.277c-9.585-2.561-18.92-5.961-28.319-9.117
		C1822.085,466.436,1812.607,463.503,1802.849,461.836z M1778.188,458.778c2.427-1.797,4.944-3.472,7.531-5.028
		c6.157-2.89,12.692-4.951,19.411-6.129c9.85-1.727,19.986-1.637,29.823,0.136c9.968,1.796,19.572,5.318,28.534,10.008
		c9.03,4.725,17.415,10.625,25.051,17.366c1.648,1.455,3.266,2.945,4.891,4.426c-4.647-2.64-9.322-5.228-14.063-7.687
		c-10.811-5.608-22.028-10.365-33.876-13.293c-11.513-2.845-23.411-4.074-35.264-3.724c-5.967,0.176-11.921,0.761-17.807,1.755
		c-2.967,0.501-5.925,1.093-8.844,1.824c-1.404,0.351-2.803,0.722-4.192,1.13c-1.392,0.409-2.745,0.994-4.113,1.485
		C1776.229,460.273,1777.198,459.511,1778.188,458.778z M1774.851,459.977c-0.023,0.019-0.048,0.037-0.072,0.057
		c-0.002-0.002-0.005-0.002-0.007-0.004C1774.798,460.012,1774.825,459.995,1774.851,459.977z M1894.71,478.915
		c1.236,1.141,2.496,2.255,3.763,3.361c-4.265-3.63-8.278-7.607-12.577-11.137c-7.914-6.497-16.624-12.083-25.932-16.363
		c-9.225-4.243-19.116-7.228-29.202-8.495c-9.927-1.246-20.1-0.798-29.853,1.453c-3.149,0.727-6.255,1.661-9.296,2.77
		c5.389-2.715,11.044-4.887,16.92-6.356c11.273-2.817,23.134-3.05,34.476-0.475c5.679,1.289,11.197,3.294,16.361,5.989
		c4.555,2.378,8.795,5.314,12.802,8.521C1880.154,464.569,1887.213,471.991,1894.71,478.915z M1723.476,449.065
		c1.549-0.542,3.087-1.115,4.617-1.695c5.522-2.094,10.881-4.537,16.209-7.076c5.334-2.543,10.574-5.28,15.743-8.142
		c9.953-5.509,19.702-11.376,29.301-17.479c0.167-0.016,0.334-0.037,0.501-0.051c-0.423,0.389-0.842,0.783-1.275,1.161
		c-2.771,2.422-5.449,4.934-8.316,7.247c-2.864,2.309-5.833,4.491-8.885,6.545c-6.14,4.133-12.647,7.71-19.416,10.702
		c-6.735,2.978-13.73,5.39-20.877,7.166C1728.563,448.068,1726.025,448.596,1723.476,449.065z M1712.622,450.583
		c1.723-0.596,3.408-1.275,5.03-1.981c6.288-2.734,12.501-5.685,18.674-8.671c6.22-3.009,12.384-6.133,18.487-9.371
		c5.939-3.151,11.716-6.584,17.632-9.774c2.796-1.507,5.645-2.929,8.604-4.089c1.816-0.712,3.665-1.271,5.541-1.741
		c0.533-0.062,1.068-0.109,1.601-0.164c-5.011,3.002-10,6.041-15.013,9.039c-9.992,5.975-20.162,11.663-30.727,16.569
		c-5.266,2.445-10.704,4.6-16.167,6.564c-2.756,0.991-5.535,1.966-8.364,2.73c-0.964,0.26-1.939,0.475-2.924,0.636
		c-0.696,0.08-1.391,0.17-2.088,0.238C1712.812,450.573,1712.717,450.579,1712.622,450.583z M1720.337,443.218
		c9.684-4.736,18.75-10.608,28.234-15.714c9.285-4.999,18.984-8.984,29.332-11.15c1.69-0.354,3.392-0.65,5.098-0.911
		c-0.938,0.32-1.864,0.666-2.773,1.032c-3.306,1.33-6.461,2.982-9.592,4.677c-5.948,3.22-11.851,6.519-17.842,9.661
		c-6.046,3.171-12.149,6.23-18.307,9.177c-6.16,2.947-12.354,5.904-18.721,8.383c-2.82,1.097-5.726,2.07-8.677,2.631
		c-3.029,0.152-6.061,0.191-9.091,0.116l-0.22-0.04C1705.633,449.726,1713.267,446.676,1720.337,443.218z M1764.457,414.327
		c-13.888,3.612-26.521,10.655-38.916,17.685c-7.133,4.046-14.319,8.124-21.761,11.615c1.66-1.054,3.277-2.164,4.844-3.299
		c6.367-4.614,12.164-9.946,18.367-14.768c6.086-4.73,12.572-8.852,19.848-11.49c6.99-2.534,14.436-3.77,21.869-3.719
		c4.447,0.031,8.887,0.555,13.222,1.541C1776.04,411.9,1770.107,412.858,1764.457,414.327z M1787.233,413.339
		c-4.238,0.46-8.449,1.172-12.596,2.169c-10.299,2.477-19.866,6.77-29.103,11.89c-9.447,5.237-18.574,11.086-28.397,15.617
		c-4.865,2.245-9.897,4.184-15.092,5.515c-4.149,1.063-8.331,1.588-12.565,1.92c6.846-2.151,13.404-5.081,19.774-8.382
		c12.535-6.496,24.368-14.295,37.163-20.298c6.494-3.047,13.23-5.656,20.208-7.359c3.416-0.834,6.884-1.454,10.386-1.778
		c2.417-0.224,4.863-0.244,7.299-0.153C1785.289,412.746,1786.266,413.026,1787.233,413.339z M1696.387,390.592l0.095,0.019
		c1.569,0.369,3.115,0.82,4.658,1.286c2.948,0.889,5.864,1.884,8.825,2.731c10.738,3.073,21.988,3.563,33.085,3.916
		c5.607,0.178,11.218,0.223,16.823,0.437c2.79,0.106,5.579,0.276,8.355,0.587c0.73,0.131,1.459,0.272,2.189,0.404
		c-13.563,0.042-27.106,2.519-40.66,1.093c-6.929-0.729-13.67-2.589-20.192-5.001c-3.253-1.203-6.462-2.526-9.642-3.913
		C1698.743,391.637,1697.566,391.113,1696.387,390.592z M1699.38,390.035c2.216,0.204,4.437,0.376,6.647,0.595
		c3.829,0.379,7.661,0.761,11.481,1.222c6.807,0.822,13.602,1.813,20.391,2.772c6.796,0.959,13.568,2.046,20.333,3.201
		c1.226,0.209,2.45,0.429,3.676,0.641c-1.285-0.072-2.571-0.142-3.857-0.198c-11.211-0.489-22.46-0.163-33.61-1.646
		c-5.559-0.74-10.998-2.008-16.325-3.757c-2.684-0.881-5.344-1.843-8.057-2.634C1699.834,390.165,1699.606,390.101,1699.38,390.035z
		 M1705.207,389.333c24.554,0.315,48.998,4.051,72.65,10.619c-0.501-0.092-1.001-0.188-1.502-0.279
		c-13.502-2.451-27.068-4.528-40.678-6.29c-6.852-0.887-13.72-1.552-20.588-2.296c-3.411-0.369-6.824-0.716-10.239-1.045
		c-2.537-0.244-5.084-0.534-7.632-0.709C1699.88,389.305,1702.543,389.3,1705.207,389.333z M1788.806,398.352
		c-0.473-0.291-0.945-0.583-1.418-0.872c-3.549-2.165-7.156-4.229-10.842-6.152c-13.047-6.803-27.112-11.999-41.869-13.212
		c-8.609-0.708-17.389-0.123-25.723,2.089c2.037-0.927,4.101-1.795,6.201-2.571c7.084-2.617,14.6-4.25,22.181-4.079
		c7.75,0.174,15.286,2.296,22.302,5.516c7.269,3.336,13.938,7.808,20.344,12.563
		C1782.949,393.837,1785.871,396.103,1788.806,398.352z M1789.94,400.39c-4.823-2.35-9.747-4.493-14.771-6.364
		c-13.12-4.887-26.894-8.275-40.797-9.949c-6.825-0.822-13.737-1.162-20.6-0.645c-3.418,0.257-6.822,0.733-10.17,1.471
		c-2.648,0.583-5.339,1.325-7.869,2.374c3.416-2.077,6.917-4.03,10.51-5.792c3.366-1.054,6.818-1.843,10.313-2.348
		c14.182-2.053,28.605,0.296,41.982,5.17c6.919,2.521,13.575,5.681,20.007,9.26c3.221,1.792,6.394,3.669,9.522,5.619
		C1788.698,399.578,1789.316,399.989,1789.94,400.39z M1790.347,402.041c-0.165-0.052-0.327-0.111-0.492-0.163
		c-30.945-9.855-63.583-14.85-96.075-13.397l0.094-0.059l0.012,0.001c3.735-1.147,7.411-2.334,11.256-3.08
		c3.745-0.726,7.548-1.133,11.359-1.293c13.803-0.577,27.734,1.899,41.01,5.508C1768.807,392.63,1779.836,396.851,1790.347,402.041z
		 M1784.272,333.376c2.108,7.641,5.006,15.065,8.449,22.198c4.43,9.178,9.809,17.893,15.826,26.111
		c6.22,8.496,13.154,16.441,20.534,23.945c6.444,6.552,13.243,12.744,20.238,18.704c-2.04-1.197-4.085-2.382-6.129-3.565
		c-9.05-5.238-18.122-10.53-26.349-17.02c-8.008-6.316-15.026-13.802-19.975-22.77c-4.832-8.755-7.78-18.412-9.728-28.184
		C1785.856,346.366,1785.017,339.878,1784.272,333.376z M1847.406,408.641c-2.51-3.317-5.021-6.634-7.531-9.951
		c-9.06-11.972-18.062-23.992-27.203-35.902c-4.571-5.956-9.137-11.915-13.688-17.886c-0.759-0.997-1.521-1.992-2.28-2.989
		c2.869,2.821,5.836,5.544,8.801,8.234c8.088,7.337,16.38,14.574,23.136,23.205c7.438,9.503,12.013,20.608,16.992,31.495
		C1846.214,406.115,1846.805,407.381,1847.406,408.641z M1853.11,419.355c-1.694-2.146-3.455-4.24-5.273-6.282
		c-5.916-6.648-12.336-12.818-18.494-19.236c-6.262-6.527-12.08-13.403-17.403-20.719c-5.402-7.426-10.306-15.198-14.96-23.111
		c-4.436-7.541-8.603-15.235-12.966-22.818c2.69,3.892,5.737,7.504,8.986,10.938c2.367,3.153,4.74,6.302,7.109,9.453
		c9.023,12.002,18.027,24.016,27.082,35.994c4.527,5.989,9.063,11.972,13.595,17.957c2.266,2.993,4.532,5.986,6.798,8.978
		c0.726,0.959,1.451,1.917,2.177,2.876C1850.811,415.411,1851.933,417.4,1853.11,419.355z M1859.999,430.89
		c-0.149-0.096-0.294-0.198-0.442-0.294c-2.695-2.158-5.374-4.335-8.018-6.556c-8.298-6.969-16.328-14.275-23.842-22.088
		c-7.198-7.484-13.926-15.426-19.941-23.894c-5.89-8.292-11.097-17.08-15.366-26.316c-3.552-7.683-6.401-15.686-8.557-23.872
		c0.247,0.485,0.49,0.971,0.743,1.453c4.26,8.149,8.707,16.208,13.411,24.11c4.733,7.948,9.748,15.75,15.302,23.153
		c5.455,7.272,11.499,14.001,17.831,20.516c6.244,6.423,12.644,12.714,18.413,19.578c2.844,3.384,5.491,6.912,7.932,10.597
		C1858.268,428.491,1859.092,429.728,1859.999,430.89z M1910.718,359.251c2.546,7.735,2.932,15.804,2.475,23.903
		c-0.432,7.649-1.304,15.256-1.57,22.917c-0.271,7.811-0.065,15.633,0.604,23.421c0.671,7.812,1.77,15.608,3.387,23.282
		c0.814,3.863,1.754,7.702,2.8,11.508c0.52,1.891,1.068,3.773,1.645,5.648c-0.097-0.084-0.192-0.169-0.289-0.253
		c-2.033-2.557-3.959-5.199-5.681-8.001c-6.055-9.849-9.899-20.98-11.84-32.35c-2.066-12.097-1.935-24.456-0.207-36.586
		c0.901-6.33,2.226-12.597,3.878-18.773c1.361-5.087,3.064-10.074,4.553-15.121C1910.555,358.98,1910.635,359.117,1910.718,359.251z
		 M1915.754,467.841c0.423,0.391,0.846,0.783,1.277,1.167c0.101,0.132,0.199,0.267,0.301,0.399
		c-0.102-0.092-0.205-0.182-0.309-0.273C1916.593,468.711,1916.176,468.273,1915.754,467.841z M1913.404,363.795
		c2.718,5.975,4.21,12.475,4.83,18.999c0.747,7.844,0.318,15.757-0.26,23.597c-0.584,7.921-1.116,15.826-1.062,23.773
		c0.054,7.869,0.407,15.741,1.34,23.557c0.361,3.031,0.778,6.066,1.266,9.092c-0.033-0.12-0.071-0.237-0.103-0.357
		c-1.153-4.268-2.147-8.577-3.023-12.91c-3.116-15.398-4.428-31.234-3.685-46.933c0.359-7.604,1.341-15.17,1.554-22.783
		c0.166-5.95-0.138-12.089-1.881-17.815C1912.725,362.606,1913.068,363.198,1913.404,363.795z M1896.802,379.157
		c1.6-4.253,3.55-8.364,5.81-12.298c-2.131,4.489-3.844,9.176-5.14,13.979c-2.244,8.318-3.284,16.948-3.269,25.558
		c0.016,9.136,1.191,18.269,3.234,27.166c1.556,6.773,3.587,13.581,6.828,19.763c-4.038-6.431-7.23-13.396-9.439-20.661
		c-2.606-8.572-3.781-17.579-3.451-26.533C1891.716,396.924,1893.559,387.779,1896.802,379.157z M1909.565,357.291
		c-0.328,0.767-0.643,1.541-0.946,2.323c-2.323,5.982-4.083,12.212-5.581,18.447c-1.505,6.259-2.656,12.608-3.353,19.009
		c-1.317,12.097-1.007,24.406,1.505,36.333c2.231,10.594,6.172,20.847,11.961,30.009c-2.738-2.897-5.212-6.027-7.183-9.563
		c-4.126-7.398-6.417-15.775-8.198-24.008c-1.895-8.758-2.899-17.699-2.757-26.664c0.135-8.479,1.396-16.949,3.898-25.056
		c1.192-3.863,2.66-7.643,4.404-11.291c1.193-2.495,2.549-4.894,3.987-7.247c0.659-0.913,1.335-1.814,2.031-2.7
		C1909.408,357.019,1909.488,357.154,1909.565,357.291z M1919.858,454.879c-0.211-1.501-0.417-3.002-0.589-4.512
		c-0.896-7.862-1.471-15.73-1.451-23.646c0.02-8.111,0.678-16.186,1.167-24.277c0.664-10.979,0.769-22.703-2.736-33.251
		c1.817,3.696,3.414,7.499,4.709,11.407c2.668,8.047,3.799,16.405,3.55,24.874c-0.264,8.955-1.754,17.809-2.989,26.665
		C1920.469,439.671,1919.652,447.265,1919.858,454.879z M2013.85,610.516c-0.028-0.04-0.055-0.081-0.083-0.122
		c-0.002-0.018-0.003-0.037-0.005-0.056C2013.792,610.398,2013.82,610.457,2013.85,610.516z M2008.43,601.68
		c-0.266-0.204-0.55-0.384-0.827-0.574c0.101,0.018,0.201,0.042,0.302,0.059c0.053,0.009,0.103,0.005,0.149-0.005
		C2008.175,601.336,2008.31,601.502,2008.43,601.68z M1896.036,564.516c4.57,2.158,9.187,4.217,13.85,6.166
		c7.909,3.304,15.932,6.33,24.03,9.14c8.077,2.803,16.221,5.418,24.41,7.875c8.207,2.462,16.461,4.77,24.73,7.013
		c1.591,0.432,3.186,0.853,4.778,1.281c-1.029-0.115-2.056-0.233-3.074-0.374c-11.063-1.523-22.016-3.845-32.748-6.933
		c-10.746-3.091-21.281-6.947-31.492-11.502C1912.124,573.436,1903.944,569.203,1896.036,564.516z M1884.04,556.914
		c3.561,1.929,7.178,3.753,10.85,5.462c10.115,4.709,20.62,8.561,31.373,11.536c5.401,1.494,10.865,2.76,16.374,3.788
		c5.707,1.065,11.458,1.806,17.215,2.527c11.271,1.412,22.878,2.917,33.117,8.163c5.554,2.845,10.61,6.789,14.335,11.737
		c-0.701-0.225-1.403-0.434-2.122-0.621c-0.279-0.073-0.557-0.146-0.836-0.218c-0.777-0.347-1.564-0.666-2.364-0.922
		c-2.299-0.737-4.669-1.193-7.064-1.539c-4.862-1.272-9.723-2.551-14.574-3.865c-8.306-2.248-16.587-4.586-24.83-7.053
		c-8.193-2.452-16.341-5.055-24.411-7.887c-8.05-2.825-16.029-5.859-23.889-9.177c-5.35-2.259-10.643-4.655-15.873-7.181
		c-0.169-0.106-0.341-0.208-0.509-0.314C1888.543,559.911,1886.279,558.431,1884.04,556.914z M1867.544,544.646
		c0.321,0.111,0.644,0.207,0.965,0.312c0.539,0.212,1.081,0.417,1.627,0.61c0.401,0.142,0.81,0.259,1.214,0.392
		c7.653,4.238,16.016,7.146,24.439,9.408c9.181,2.465,18.547,4.23,27.88,6.009c9.401,1.792,18.797,3.682,27.964,6.463
		c9.396,2.851,18.539,6.501,27.312,10.909c4.39,2.206,8.689,4.594,12.876,7.166c0.35,0.215,0.695,0.435,1.044,0.652
		c-0.495-0.249-0.988-0.504-1.486-0.736c-10.6-4.923-22.455-6.181-33.915-7.644c-11.41-1.457-22.679-3.571-33.724-6.819
		c-10.795-3.174-21.322-7.26-31.433-12.199c-5.084-2.483-10.065-5.179-14.918-8.089c-2.982-1.787-5.879-3.714-8.801-5.598
		C1868.24,545.205,1867.891,544.928,1867.544,544.646z M1882.848,548.46c7.603,1.525,15.225,2.953,22.806,4.59
		c9.265,2.002,18.495,4.235,27.621,6.798c8.66,2.432,17.217,5.225,25.595,8.502c7.051,2.758,13.973,5.863,20.699,9.343
		c-0.987-0.487-1.977-0.967-2.971-1.436c-8.849-4.172-18.039-7.621-27.453-10.283c-9.231-2.61-18.674-4.411-28.103-6.138
		c-9.333-1.71-18.679-3.424-27.824-5.98c-6.47-1.808-12.809-4.088-18.856-6.995C1877.144,547.609,1879.981,548.155,1882.848,548.46z
		 M1993.268,584.069c-4.226-2.663-8.582-5.125-13.009-7.415c-7.752-4.01-15.773-7.466-23.963-10.477
		c-8.462-3.111-17.092-5.765-25.799-8.101c-9.24-2.478-18.578-4.533-27.951-6.436c-5.018-1.019-10.046-1.979-15.079-2.907
		c0.669,0.013,1.338,0.013,2.006,0.003c4.961,0.414,9.945,0.655,14.881,1.016c12.458,0.912,24.848,2.885,36.875,6.293
		c11.91,3.375,23.499,8.177,34.088,14.617C1981.7,574.543,1987.734,579.035,1993.268,584.069z M2004.976,593.758
		c0.016-0.042,0.021-0.087,0.023-0.133c0.083,0.152,0.17,0.301,0.252,0.453C2005.161,593.97,2005.066,593.866,2004.976,593.758z
		 M2004.669,593.033c0.025,0.045,0.05,0.089,0.074,0.134l-0.138-0.113C2004.629,593.053,2004.646,593.037,2004.669,593.033z
		 M1991.579,417.879c0.23-0.44,0.467-0.876,0.705-1.312c0.072,0.152,0.146,0.303,0.218,0.455c0.126,0.962,0.255,1.923,0.383,2.884
		c1.859,13.926,2.519,27.986,2.729,42.025c0.212,14.153-0.038,28.308,0.015,42.462c0.045,11.922,0.405,23.816,1.269,35.703
		c-0.117,1.746-0.191,3.495-0.218,5.247c-1.979-7.993-3.691-16.043-5.046-24.167c-1.462-8.766-2.583-17.582-3.319-26.439
		c-0.735-8.855-1.094-17.741-1.076-26.626c0.018-8.938,0.429-17.868,1.237-26.769c0.402-4.424,0.898-8.839,1.489-13.241
		C1990.422,424.678,1990.989,421.278,1991.579,417.879z M1997.453,534.073c-0.746-11.814-0.903-23.656-0.902-35.492
		c0.001-14.018,0.197-28.039-0.154-42.055c-0.31-12.393-0.98-24.87-2.802-37.154c3.47,7.445,5.413,15.539,6.339,23.676
		c1.029,9.031,0.765,18.121,0.206,27.175c-0.572,9.267-1.367,18.517-1.828,27.792c-0.458,9.233-0.709,18.475-0.76,27.719
		c-0.014,2.471,0.002,4.943,0.015,7.415C1997.528,533.457,1997.49,533.765,1997.453,534.073z M1994.281,419.09
		c3.425,7.939,5.805,16.203,7.282,24.72c1.471,8.473,2.04,17.08,2.077,25.674c0.04,9.1-0.528,18.189-1.338,27.249
		c-0.602,6.739-1.316,13.468-1.985,20.201c-0.553,2.729-1.075,5.463-1.55,8.205c0-0.987-0.006-1.973-0.001-2.96
		c0.049-9.416,0.305-18.832,0.765-28.237c0.459-9.37,1.27-18.722,1.646-28.096c0.354-8.837,0.261-17.768-1.083-26.526
		c-1.143-7.44-3.161-14.943-6.748-21.607c-0.054-0.343-0.099-0.688-0.154-1.031C1993.564,417.48,1993.933,418.281,1994.281,419.09z
		 M1991.108,526.827c-2.477-12.58-4.342-25.287-5.3-38.076c-0.954-12.736-1.02-25.551,0.088-38.279
		c0.615-7.063,1.643-14.075,3.008-21.024c-0.619,5.062-1.139,10.136-1.516,15.219c-0.657,8.852-0.966,17.732-0.897,26.608
		c0.07,8.97,0.52,17.938,1.361,26.869c0.837,8.887,2.037,17.746,3.659,26.524c1.429,7.731,3.025,15.485,5.159,23.063
		c0.016,0.803,0.04,1.606,0.077,2.408c-0.47-1.385-0.938-2.772-1.411-4.156C1993.797,539.628,1992.372,533.244,1991.108,526.827z
		 M1987.724,426.258c-0.681,3.152-1.257,6.327-1.771,9.499c-1.031,6.352-1.737,12.755-2.155,19.176
		c-0.829,12.729-0.534,25.52,0.619,38.22c1.103,12.151,3.009,24.217,5.443,36.171c-0.244-0.793-0.504-1.58-0.74-2.375
		c-2.896-9.732-5.353-19.605-7.03-29.625c-1.58-9.436-2.459-18.994-2.359-28.566c0.098-9.285,1.122-18.588,3.261-27.629
		C1984.191,436.06,1985.773,431.084,1987.724,426.258z M2003.487,501.666c-0.371,1.852-0.756,3.703-1.144,5.553
		c0.453-4.841,0.888-9.684,1.249-14.533c0.661-8.893,1.05-17.813,0.787-26.73c-0.254-8.612-1.092-17.237-2.819-25.683
		c-1.035-5.06-2.419-10.076-4.2-14.94c0.663,1.485,1.308,2.979,1.899,4.502c1.749,4.502,3.228,9.117,4.4,13.803
		c2.315,9.251,3.512,18.805,3.46,28.343C2007.065,481.989,2005.448,491.877,2003.487,501.666z"/>
</g>
<g id="Layer_2">
</g>
<g id="Layer_3">
</g>
</svg>
