<?xml version="1.0" encoding="utf-8"?>
<!-- Generator: Adobe Illustrator 27.9.0, SVG Export Plug-In . SVG Version: 6.00 Build 0)  -->
<svg version="1.1" xmlns="http://www.w3.org/2000/svg" xmlns:xlink="http://www.w3.org/1999/xlink" x="0px" y="0px"
	 viewBox="0 0 1920 1295.83" enable-background="new 0 0 1920 1295.83" xml:space="preserve">
<g id="OBJECTS">
	<g opacity="0.2">
		<g>
			<path fill="#325588" d="M1770.375,656.447c22.372,22.89,39.216,54.066,51.476,83.426c16.047,38.431,14.188,82.341,23.605,122.555
				c20.03,85.532,71.877,159.903,136.954,217.638c37.698,33.444,76.609,62.471,105.959,104.11c1.366,1.938,4.468,0.335,3.284-1.842
				c-19.672-36.178-54.701-62.417-85.745-88.278c-35.204-29.326-67.733-61.361-94.489-98.713
				c-27.86-38.892-49.352-82.482-61.26-128.904c-10.245-39.937-8.401-84.038-23.809-122.472
				c-12.542-31.285-30.936-64.52-54.947-88.519C1770.751,654.798,1769.728,655.785,1770.375,656.447L1770.375,656.447z"/>
		</g>
		<g>
			<path fill="#325588" d="M1817.193,1103.898c77.162,24.323,164.668-5.472,236.92,38.156c2.438,1.472,4.72-2.306,2.285-3.784
				c-71.96-43.658-160.793-16.058-239.007-35.04C1816.956,1103.125,1816.764,1103.762,1817.193,1103.898L1817.193,1103.898z"/>
		</g>
		<g>
			<path fill="#325588" d="M1817.369,1103.881c27.934,1.966,55.685-4.027,83.738-1.829c29.194,2.288,57.844,8.859,86.039,16.524
				c1.73,0.47,2.517-2.198,0.787-2.67c-26.845-7.328-54.126-13.729-81.894-16.262c-29.794-2.718-58.97,1.83-88.654,3.624
				C1816.994,1103.291,1816.97,1103.853,1817.369,1103.881L1817.369,1103.881z"/>
		</g>
		<g>
			<path fill="#325588" d="M1815.416,1103.443c20.198,15.674,50.252,19.667,75.062,20.234c30.616,0.7,60.734-8.016,91.215-6.294
				c1.9,0.108,1.966-2.824,0.079-2.946c-28.125-1.815-55.97,6.288-84.118,6.586c-14.384,0.152-28.82-0.99-42.874-4.135
				c-13.791-3.086-25.988-9.037-39.086-14.076C1815.294,1102.658,1815.131,1103.222,1815.416,1103.443L1815.416,1103.443z"/>
		</g>
		<g>
			<path fill="#325588" d="M1816.888,1103.445c31.321-4.514,61.731-12.679,93.706-9.199c31.413,3.419,61.759,16.446,91.523,26.434
				c1.778,0.597,2.593-2.195,0.822-2.787c-29.954-10.018-60.59-23.339-92.273-26.357c-30.915-2.945-64.355,2.206-94.024,10.916
				C1816.001,1102.64,1816.245,1103.538,1816.888,1103.445L1816.888,1103.445z"/>
		</g>
		<g>
			<path fill="#325588" d="M1999.796,1118.545c-23.643-15.41-44.751-34.02-67.53-50.589c-22.166-16.124-48.319-25.114-70.416-41.51
				c-1.377-1.021-2.989,1.125-1.835,2.309c9.355,9.595,14.399,22.4,24.1,32.016c8.358,8.285,18.03,15.173,28.167,21.099
				c25.378,14.836,53.74,23.604,79.874,36.928c1.938,0.988,3.706-1.906,1.756-2.908c-24.896-12.791-51.813-21.291-76.313-34.856
				c-11.821-6.545-23.105-14.287-32.606-23.949c-9.038-9.192-13.925-21.362-22.844-30.402c-0.612,0.77-1.223,1.539-1.834,2.309
				c22.186,16.26,48.26,25.387,70.496,41.378c22.281,16.024,42.988,38.163,68.12,49.612
				C1999.89,1120.42,2000.724,1119.15,1999.796,1118.545L1999.796,1118.545z"/>
		</g>
		<g>
			<path fill="#325588" d="M1959.869,1054.787c-10.887-12.626-27.789-19.245-43.129-24.735
				c-19.215-6.876-38.919-12.347-58.479-18.132c-19.728-5.835-39.445-11.941-58.386-20.032
				c-23.173-9.899-39.872-24.835-56.527-43.379c-0.838,0.815-1.676,1.63-2.515,2.444c22.614,20.698,51.451,28.694,79.848,38.272
				c35.432,11.95,69.214,26.39,101.207,45.821c1.812,1.101,3.436-1.634,1.692-2.802c-27.242-18.266-58.152-30.974-88.947-41.88
				c-31.038-10.992-67.25-17.74-91.286-41.855c-1.597-1.603-4.016,0.762-2.515,2.444c13.335,14.937,26.806,28.861,44.765,38.171
				c17.63,9.14,36.83,15.476,55.734,21.361c40.64,12.653,82.274,20.829,117.829,45.192
				C1959.722,1056.061,1960.277,1055.259,1959.869,1054.787L1959.869,1054.787z"/>
		</g>
		<g>
			<path fill="#325588" d="M1741.476,948.731c6.761,32.038,38.967,55.618,68.646,64.429c35.895,10.657,74.352,8.755,109.8,21.287
				c1.818,0.643,2.652-2.226,0.845-2.866c-31.163-11.034-64.623-10.997-96.679-18.004c-16.267-3.556-31.996-9.053-45.585-18.921
				c-16.892-12.266-26.048-28.638-36.422-46.164C1741.891,948.172,1741.4,948.368,1741.476,948.731L1741.476,948.731z"/>
		</g>
		<g>
			<path fill="#325588" d="M1741.848,948.154c6.573,9.319,20.552,10.869,30.853,13.602c17.087,4.534,34.329,8.402,50.852,14.807
				c31.991,12.402,60.483,32.095,88.015,52.227c1.426,1.044,2.831-1.31,1.417-2.347c-24.659-18.085-50.002-35.581-78.05-48.044
				c-12.987-5.77-26.403-10.101-40.132-13.73c-15.444-4.082-39.925-5.838-51.914-17.292
				C1742.38,946.892,1741.401,947.52,1741.848,948.154L1741.848,948.154z"/>
		</g>
		<g>
			<path fill="#325588" d="M1842.4,983.129c-12.88-14.185-19.748-29.377-22.448-48.178c-0.102-0.712-0.92-23.052-2.679-24.181
				c0.247,0.159,2.065,6.259,2.822,7.858c2.072,4.375,4.302,8.642,6.767,12.809c16.463,27.824,37.582,55.821,59.536,79.569
				c1.288,1.392,3.405-0.661,2.113-2.054c-13.431-14.488-24.877-30.559-36.639-46.393c-13.37-18-25.705-35.791-35.198-56.183
				c-0.479-1.028-1.864-0.287-1.727,0.683c4.06,28.674,3.047,56.199,27.13,76.383C1842.295,983.625,1842.599,983.348,1842.4,983.129
				L1842.4,983.129z"/>
		</g>
		<g>
			<path fill="#325588" d="M1993.293,800.902c-22.871,34.426-51.652,64.178-69.031,102.159
				c-13.928,30.439-19.205,62.485-14.821,95.714c0.227,1.721,3.251,1.411,3.065-0.331c-3.815-35.648,2.782-70.006,18.84-102.02
				c17.19-34.269,43.621-62.059,63.523-94.571C1995.491,800.837,1993.946,799.917,1993.293,800.902L1993.293,800.902z"/>
		</g>
		<g>
			<path fill="#325588" d="M1991.641,804.122c-23.139,18.058-44.885,38.611-59.016,64.668
				c-14.151,26.094-18.221,54.706-23.112,83.593c-0.287,1.695,2.296,2.477,2.591,0.764c4.943-28.646,8.988-56.915,23.068-82.819
				c14.251-26.219,35.922-45.16,57.154-65.501C1992.792,804.38,1992.128,803.741,1991.641,804.122L1991.641,804.122z"/>
		</g>
		<g>
			<path fill="#325588" d="M1993.826,801.302c-9.94,26.873-27.557,48.324-43.221,71.878c-15.387,23.139-29.397,47.093-40.061,72.802
				c-0.608,1.467,1.888,2.584,2.563,1.129c12.546-27.026,25.798-52.715,42.372-77.575c14.634-21.949,30.745-42.626,38.857-68.084
				C1994.441,801.123,1993.943,800.985,1993.826,801.302L1993.826,801.302z"/>
		</g>
		<g>
			<path fill="#325588" d="M1993.355,801.164c-5.551,25.883-19.811,49.208-33.564,71.552
				c-14.445,23.467-34.851,42.902-46.977,67.925c-0.384,0.792,0.626,1.383,1.156,0.698c8.585-11.104,15.45-23.466,23.826-34.744
				c9.018-12.143,18.237-23.554,25.976-36.631c12.83-21.68,26.195-43.353,31.036-68.371
				C1994.99,800.646,1993.56,800.204,1993.355,801.164L1993.355,801.164z"/>
		</g>
		<g>
			<path fill="#325588" d="M1913.684,940.526c-1.128-21.953-3.312-43.426,0.462-65.284c3.602-20.861,8.27-42.231,15.341-62.206
				c1.557-4.397,3.26-8.752,5.059-13.055c5.935-14.189,3.212-9.334,2.592-4.626c-1.209,9.183-3.821,18.051-4.484,27.332
				c-0.637,8.913,0.539,17.803,0.217,26.702c-0.396,10.932-4.233,21.673-6.324,32.349c-0.311,1.592,2.119,2.321,2.434,0.718
				c2.824-14.351,6.741-27.173,6.235-41.905c-0.624-18.18,1.773-35.46,5.091-53.328c0.142-0.764-0.962-1.432-1.362-0.6
				c-23.015,47.88-34.531,101.251-26.109,153.994C1912.913,941.092,1913.709,941.01,1913.684,940.526L1913.684,940.526z"/>
		</g>
		<g>
			<path fill="#325588" d="M1694.421,800.508c19.516,30.358,46.447,50.603,77.706,67.767c15.622,8.577,31.641,16.411,47.181,25.14
				c17.227,9.676,32.282,21.395,48.31,32.8c1.558,1.108,3.238-1.214,2.02-2.543c-22.567-24.614-57.396-38.938-86.602-53.862
				c-34.294-17.524-65.254-37.777-87.794-69.762C1694.901,799.563,1694.089,799.991,1694.421,800.508L1694.421,800.508z"/>
		</g>
		<g>
			<path fill="#325588" d="M1693.455,800.617c9.473,21.764,25.012,41.518,44.714,54.819c22.143,14.948,48.044,22.988,72.634,32.84
				c2.078,0.833,3.054-2.52,0.984-3.337c-23.054-9.102-47.141-16.572-68.324-29.733c-21.782-13.533-36.252-33.272-48.616-55.37
				C1694.337,798.924,1693.052,799.692,1693.455,800.617L1693.455,800.617z"/>
		</g>
		<g>
			<path fill="#325588" d="M1693.453,800.301c10.69,7.943,22.612,14.064,33.581,21.61c11.141,7.666,21.327,16.663,31.797,25.202
				c17.308,14.116,34.46,28.54,53.323,40.564c1.669,1.063,3.26-1.574,1.587-2.628c-41.678-26.254-75.08-63.869-119.652-85.799
				C1693.373,798.899,1692.818,799.829,1693.453,800.301L1693.453,800.301z"/>
		</g>
		<g>
			<path fill="#325588" d="M1693.927,800.387c24.976,11.26,49.65,20.559,70.397,39.174c9.782,8.777,17.894,19.199,27.494,28.172
				c9.416,8.801,19.534,16.961,29.924,24.583c1.296,0.951,3.027-1.187,1.768-2.225c-11.035-9.088-22.499-17.614-32.801-27.561
				c-10.449-10.088-19.498-21.337-30.925-30.414c-18.732-14.879-42.09-27.204-65.546-32.435
				C1693.837,799.592,1693.501,800.195,1693.927,800.387L1693.927,800.387z"/>
		</g>
		<g>
			<path fill="#325588" d="M1832.279,899.93c-22.089-10.561-43.127-8.946-67.012-10.338c-27.547-1.606-54.26-7.485-78.254-21.5
				c-0.382,0.867-0.764,1.733-1.146,2.6c18.842,5.597,37.826,2.903,57.146,3.337c22.584,0.508,44.402,6.132,65.45,14.021
				c1.73,0.649,2.528-2.104,0.81-2.748c-18.433-6.909-37.494-12.164-57.184-13.694c-21.926-1.703-43.952,2.71-65.411-3.664
				c-1.548-0.46-2.565,1.771-1.145,2.6c19.861,11.601,42.015,17.545,64.782,20.008c12.05,1.304,24.122,1.471,36.228,1.526
				c16.283,0.073,30.056,3.055,44.968,9.598C1832.501,902.111,1833.264,900.401,1832.279,899.93L1832.279,899.93z"/>
		</g>
		<g>
			<path fill="#325588" d="M1931.022,693.769c-13.245,30.975-34.617,55.182-51.921,83.626c-15.505,25.487-25.781,54-33.446,82.72
				c-0.408,1.527,1.902,2.212,2.355,0.695c9.356-31.311,20.653-61.814,38.276-89.527c16.179-25.441,34.421-48.934,45.246-77.364
				C1931.656,693.595,1931.154,693.461,1931.022,693.769L1931.022,693.769z"/>
		</g>
		<g>
			<path fill="#325588" d="M1930.242,692.925c-11.573,19.913-25.678,37.057-38.863,55.844
				c-12.28,17.497-20.845,36.793-25.977,57.517c-0.424,1.711,2.208,2.491,2.63,0.775c5.583-22.675,15.411-43.413,29.437-62.076
				c12.149-16.165,28.01-31.748,34.333-51.373C1932.101,692.684,1930.733,692.079,1930.242,692.925L1930.242,692.925z"/>
		</g>
		<g>
			<path fill="#325588" d="M1930.172,695.954c-8.337,21.003-15.055,43.771-28.807,62.011c-12.95,17.176-27.624,31.95-37.612,51.317
				c-0.852,1.652,1.468,3.092,2.487,1.502c12.396-19.332,27.565-36.251,40.399-55.157c11.901-17.531,18.727-39.237,24.474-59.395
				C1931.291,695.613,1930.402,695.376,1930.172,695.954L1930.172,695.954z"/>
		</g>
		<g>
			<path fill="#325588" d="M1930.043,694.182c-16.353,21.184-40.832,33.442-53.342,57.9c-4.925,9.63-8.38,19.988-10.767,30.52
				c-2.852,12.585-2.801,25.89-6.79,38.15c-0.353,1.085,1.326,1.869,1.857,0.818c4.726-9.356,4.457-20.039,6.24-30.205
				c2.399-13.675,6.371-27.221,12.928-39.507c12.468-23.359,36.349-35.554,50.398-57.36
				C1930.787,694.16,1930.278,693.877,1930.043,694.182L1930.043,694.182z"/>
		</g>
		<g>
			<path fill="#325588" d="M1866.131,787.559c2.483-14.127,0.969-26.905-1.705-40.876c-3.885-20.3-4.024-37.027,5.464-55.803
				c0.518-1.025,4.61-9.237,4.981-9.135c-1.369-0.374-1.127,1.916-1.142,2.636c-0.181,8.49-1.661,16.827-1.434,25.396
				c0.426,16.008,4.066,31.549,2.323,47.61c-0.185,1.703,2.371,1.694,2.619,0.07c1.666-10.908,0.076-21.457-1.175-32.31
				c-1.836-15.925-1.753-31.444,1-47.266c0.213-1.221-1.387-2.152-2.11-0.93c-8.714,14.723-17.05,29.86-16.502,47.49
				c0.665,21.407,8.263,41.189,6.76,62.973C1865.173,787.935,1866.037,788.09,1866.131,787.559L1866.131,787.559z"/>
		</g>
		<g>
			<path fill="#325588" d="M1770.601,656.477c7.743,17.586,20.675,32.382,29.127,49.637c6.676,13.63,14.979,26.31,19.332,40.97
				c3.935,13.252,9.227,25.326,14.696,38.026c0.613,1.424,2.714,0.236,2.107-1.182c-6.258-14.594-11.063-29.252-16.482-44.097
				c-4.463-12.228-11.839-23.244-17.601-34.867c-8.563-17.274-20.702-32.323-30.393-48.926
				C1771.089,655.528,1770.371,655.955,1770.601,656.477L1770.601,656.477z"/>
		</g>
		<g>
			<path fill="#325588" d="M1770.208,655.989c14.119,14.739,29.805,28.567,41.42,45.49c16.255,23.682,21.844,54.357,22.34,82.582
				c0.025,1.417,2.181,1.488,2.21,0.059c1.028-51.953-23.741-98.174-65.439-128.798
				C1770.338,655.027,1769.879,655.645,1770.208,655.989L1770.208,655.989z"/>
		</g>
		<g>
			<path fill="#325588" d="M1770.625,657.477c5.157,12.231,7.255,25.707,12.06,38.161c4.107,10.645,8.78,21.089,13.883,31.292
				c11.237,22.465,25.87,42.84,38.166,64.707c0.659,1.173,2.436,0.173,1.821-1.021c-11.51-22.34-26.692-42.324-37.956-64.825
				c-6.136-12.258-11.858-24.783-16.53-37.678c-3.725-10.283-5.494-21.391-10.73-31.035
				C1771.082,656.603,1770.425,657.003,1770.625,657.477L1770.625,657.477z"/>
		</g>
		<g>
			<path fill="#325588" d="M1776.674,668.179c4.92,15.749,13.972,30.648,20.431,45.863c4.957,11.678,9.877,23.513,16.138,34.563
				c6.714,11.85,15.26,22.273,21.016,34.698c0.47,1.014,2.213,0.343,1.848-0.731c-3.741-11.017-11.121-19.75-17.224-29.498
				c-7.116-11.366-12.425-23.73-17.773-35.991c-7.3-16.736-17.18-32.281-24.36-48.934
				C1776.731,668.107,1776.66,668.135,1776.674,668.179L1776.674,668.179z"/>
		</g>
		<g>
			<path fill="#325588" d="M1829.621,780.184c-20.779-30.674-63.382-36.355-84.932-65.768c-1.759-2.315-3.383-4.722-4.871-7.221
				c-1.784,0.102-1.701,0.662,0.251,1.682c2.087,1.831,4.153,3.659,6.353,5.354c5.574,4.293,11.531,7.769,17.942,10.628
				c19.457,8.678,36.354,15.975,49.85,33.324c1.049,1.348,2.953-0.514,1.908-1.854c-8.733-11.198-20.049-20.428-32.917-26.5
				c-16.588-7.827-33.06-12.713-45.924-26.648c-0.893-0.967-2.486,0.233-1.841,1.374c9.59,16.979,21.528,26.914,38.127,36.827
				c20.05,11.974,38.29,23.068,55.177,39.458C1829.172,781.256,1829.987,780.724,1829.621,780.184L1829.621,780.184z"/>
		</g>
		<g>
			<path fill="#325588" d="M1815.712,885.746c-4.164-17.702-10.772-36.312-20.385-51.855c-3.983-6.44-8.916-11.626-13.939-17.249
				c-8.854-9.913-13.714-19.719-18.907-31.827c-0.349-0.813-1.755-0.452-1.7,0.42c1.215,19.109,6.854,36.321,17.874,52.085
				c10.788,15.431,19.602,32.562,32.467,46.447c0.837,0.904,2.094-0.382,1.35-1.312c-10.551-13.203-17.85-27.84-28.063-41.123
				c-6.305-8.199-11.607-16.749-15.467-26.351c-1.915-4.764-3.548-9.571-4.659-14.594c-0.828-3.743-4.777-14.654-1.161-8.15
				c3.541,6.37,5.562,13.221,10.152,19.156c5.493,7.103,12.602,12.585,17.797,19.992c11.431,16.297,17.161,36,23.37,54.676
				C1814.703,886.85,1815.908,886.577,1815.712,885.746L1815.712,885.746z"/>
		</g>
	</g>
	<path opacity="0.2" fill="#325588" d="M2135.947-127.478c-16.154,38.518-34.209,76.169-55.075,112.327
		c-1.278,1.531-2.539,3.075-3.759,4.652c-1.339,1.73-2.657,3.478-3.919,5.264c-0.591,0.836-1.15,1.697-1.706,2.557
		c-0.646,1-1.035,2.08-1.595,3.119c-0.074,0.136-0.029,0.258,0.049,0.355c-0.568,1.269-1.185,2.506-1.859,3.702
		c-2.842,3.321-6.766,5.746-10.958,7.126c-1.832,0.603-3.703,1.028-5.594,1.36c-0.301,0.054-0.601,0.108-0.902,0.162
		c-6.294,0.983-12.821,0.807-19.13,1.105c-16.22,0.768-32.384,2.702-48.334,5.743c-15.933,3.038-31.645,7.172-47.004,12.389
		c-15.361,5.218-30.348,11.509-44.844,18.79c-13.424,6.742-26.404,14.366-38.833,22.802c-1.042,0.611-2.092,1.21-3.118,1.845
		c-1.74,1.075-3.428,2.178-5.068,3.401c-0.367,0.274-0.387,0.766-0.203,1.119c-0.062,0.715,0.525,1.447,1.24,1.425
		c0.237,0.192,0.552,0.277,0.93,0.117c4.081-1.72,8.307-3.102,12.615-4.161c0.067-0.011,0.133-0.025,0.2-0.036
		c4.583-0.732,9.214-1.166,13.848-1.402c6.023-0.307,12.054-0.284,18.084-0.19c0.512,0.07,1.024,0.137,1.534,0.214
		c0.212,0.032,0.369-0.056,0.469-0.186c2.557,0.046,5.115,0.098,7.671,0.145c18.547,0.336,37.053-0.571,55.351-3.769
		c18.136-3.17,35.956-8.394,52.658-16.189c14.767-6.893,28.567-15.772,40.818-26.528c0.844-0.741,1.658-1.515,2.485-2.274
		c0.667-0.41,1.339-0.813,2.001-1.231c0.759-0.481,1.487-0.998,2.203-1.532c-21.929,33.292-46.383,64.937-73.655,94.026
		c-4.366,4.657-8.808,9.243-13.315,13.764l-0.244,0.043c-11.704,5.003-23.25,10.406-34.772,15.845
		c-0.119-0.161-0.316-0.266-0.537-0.193c-5.546,1.835-11.003,3.762-16.753,4.891c-5.677,1.115-11.445,1.72-17.229,1.824
		c-10.392,0.188-20.762-1.191-30.83-3.734c0.006-0.169-0.018-0.342-0.099-0.496c-0.297-0.565-0.86-0.806-1.477-0.784
		c-0.114,0.004-0.206,0.039-0.288,0.084c-2.636-2.431-5.088-5.043-7.3-7.874c-2.585-3.308-4.874-6.827-7.139-10.357
		c-4.515-7.037-8.975-14.033-14.884-20.007c-11.318-11.443-26.207-19.269-41.959-22.452c-8.81-1.78-17.928-2.085-26.824-0.778
		l-0.114-0.087c-0.888-0.682-1.94,0.465-1.223,1.275l0.035,0.397c4.898,15.265,13.853,29.157,25.638,40.016
		c12.632,11.639,28.479,19.479,45.353,22.643c9.833,1.844,19.961,2.113,29.87,0.729l0.31-0.109
		c8.834,2.174,17.898,3.445,26.993,3.564c9.776,0.127,19.666-1.131,29.008-4.094c-1.25,0.589-2.498,1.181-3.748,1.768
		c-2.829,0.84-5.582,1.942-8.271,3.199c-1.596,0.472-3.2,0.92-4.796,1.373c-1.013,0.288-2.036,0.542-3.057,0.805
		c-0.158-0.05-0.337-0.063-0.548,0.021c-0.275,0.11-0.547,0.228-0.822,0.339c-1.78,0.44-3.566,0.855-5.359,1.235
		c-0.768,0.163-1.54,0.302-2.309,0.454c-0.147-0.153-0.346-0.245-0.598-0.194c-2.467,0.495-4.925,1.045-7.38,1.607
		c-3.254,0.505-6.518,0.947-9.785,1.353c-13.463,1.672-27.012,2.646-40.417,4.775c-14.213,2.256-28.147,5.888-42.075,9.444
		c-13.902,3.549-27.868,7-42.126,8.785c-14.14,1.77-28.602,1.949-42.584-1.094c-1.74-0.379-3.466-0.809-5.182-1.283
		c-0.767-0.212-1.589,0.55-1.497,1.321c0.107,0.897,0.215,1.796,0.322,2.693c0.074,0.613,0.486,0.952,0.955,1.058
		c2.857,2.533,5.876,4.862,9.017,7.016c9.859,8.137,20.935,14.826,32.793,19.572c15.765,6.31,32.834,9.15,49.79,7.915
		c16.574-1.207,32.421-6.395,46.613-14.999c12.936-7.842,24.395-17.807,36.111-27.306c8.125-6.588,16.468-12.945,25.456-18.245
		c1.94-0.928,3.881-1.854,5.823-2.775c17.462-8.278,34.958-16.492,52.321-24.976c1.066-0.521,2.12-1.06,3.181-1.589
		c-28.983,28.719-60.819,54.537-95.387,76.27c-29.168,18.338-60.166,33.825-92.436,45.913c-9.339,1.917-18.827,3.033-28.397,3.195
		c-8.353,0.141-16.717-0.457-24.979-1.715l-0.079-0.165c-3.345-4.306-6.851-8.363-10.699-12.231
		c-3.872-3.893-7.921-7.615-12.146-11.123c-8.411-6.982-17.453-13.214-26.952-18.621c-9.511-5.415-19.492-10.002-29.796-13.692
		c-10.3-3.69-20.906-6.517-31.692-8.368c-10.729-1.84-21.633-2.725-32.52-2.598c-1.387,0.016-2.773,0.05-4.16,0.099
		c-0.345,0.012-0.593,0.154-0.765,0.351l-0.329,0c-0.61,0.022-0.806,0.774-0.501,1.174l-0.371-0.073
		c-0.58-0.09-0.964,0.8-0.355,1.032c2.609,0.995,5.265,1.869,7.838,2.963c2.53,1.074,4.99,2.313,7.376,3.678
		c4.942,2.826,9.553,6.192,13.933,9.819c8.935,7.398,16.876,15.888,25.308,23.833c8.299,7.82,17.167,15.019,27.436,20.099
		c9.833,4.864,20.558,7.946,31.463,9.114c10.91,1.169,21.998,0.448,32.639-2.249c1.128-0.286,2.246-0.606,3.361-0.936
		c6.988,1.071,14.05,1.664,21.121,1.736c7.717,0.079,15.425-0.464,23.039-1.62c-9.586,3.348-19.272,6.413-29.057,9.141
		c-0.199,0.056-0.401,0.105-0.6,0.161c-0.243-0.023-0.487-0.032-0.773-0.009c-0.61,0.047-1.219,0.101-1.827,0.161
		c-1.217,0.122-2.43,0.291-3.638,0.481c-1.191,0.187-2.389,0.378-3.562,0.653c-1.204,0.283-2.306,0.694-3.449,1.158
		c-0.218,0.088-0.267,0.311-0.203,0.49c-1.096,0.282-2.192,0.564-3.302,0.8c-2.42,0.516-4.872,0.892-7.331,1.166
		c-4.93,0.549-9.901,0.664-14.856,0.498c-10.294-0.345-20.485-1.954-30.653-3.487c-10.659-1.608-21.393-3.131-32.196-3.136
		c-10.234-0.005-20.355,1.666-30.228,4.286c-5.468,1.451-10.851,3.187-16.184,5.069c-2.727,0.962-5.452,1.938-8.145,2.991
		c-1.758,0.688-3.569,1.318-5.28,2.131l-0.051,0.006c-0.258,0.032-0.441,0.143-0.566,0.288l-0.142,0.068l-0.076,0.045
		c-0.537,0.284-1.068,0.58-1.571,0.924c-0.265,0.182-0.131,0.652,0.209,0.611c0.272-0.032,0.535-0.099,0.803-0.147
		c0.068,0.175,0.174,0.344,0.368,0.49c1.234,0.927,2.477,1.843,3.726,2.751l0.094,0.157c0.519,0.36,1.053,0.693,1.579,1.04
		c7.485,5.341,15.274,10.27,23.525,14.342c10.043,4.956,20.844,8.699,32.006,9.994c11.421,1.324,22.866-0.149,33.8-3.596
		c11.279-3.556,21.836-9.048,31.92-15.162c5.158-3.127,10.237-6.397,15.249-9.754c2.631-1.762,5.26-3.527,7.89-5.291
		c2.218-1.488,4.47-2.957,6.644-4.516c0.199,0.065,0.43,0.041,0.622-0.148c0.293-0.289,0.607-0.556,0.928-0.812
		c0.487-0.092,0.974-0.183,1.456-0.299c0.524-0.125,0.646-0.586,0.529-1.001c0.148-0.081,0.291-0.171,0.441-0.247
		c16.324-4.395,32.403-9.675,48.171-15.774c1.621-0.45,3.237-0.921,4.842-1.432c1.778-0.567,3.526-1.234,5.268-1.902
		c0.376-0.144,0.388-0.555,0.191-0.788c13.194-5.447,26.159-11.451,38.848-17.987c-3.071,2.035-6.127,4.091-9.171,6.166
		c-6.373,3.409-12.865,6.591-19.38,9.719c-13.995,6.717-28.112,13.284-41.248,21.608c-12.694,8.044-24.409,17.777-33.307,29.976
		c-8.736,11.976-14.707,25.663-19.059,39.774c-4.411,14.303-7.218,29.06-9.631,43.813c-0.135,0.829-0.253,1.661-0.374,2.493
		c0.478,0.327,0.952,0.662,1.402,1.026l0.01-0.055c1.891-2.275,3.78-4.554,5.77-6.745c0.18-0.192,0.361-0.383,0.539-0.576
		c2.57-2.791,5.259-5.47,8.044-8.045c5.844-5.404,12.064-10.393,18.358-15.26c12.631-9.769,25.705-19.092,37.087-30.352
		c5.917-5.854,11.182-12.238,15.824-19.146c4.95-7.367,9.23-15.153,13.502-22.925c4.273-7.774,8.542-15.568,13.474-22.95
		c4.893-7.323,10.568-14.058,16.902-20.176c12.591-12.163,27.33-21.861,42.058-31.207c1.799-1.142,3.57-2.291,5.302-3.532
		c0.307-0.22,0.453-0.495,0.484-0.772c32.382-21.175,62.383-45.868,89.795-73.208c-2.922,5.3-6.247,10.331-10.148,15.002
		c-4.817,5.768-10.22,11.026-15.756,16.096c-3.373,3.09-6.803,6.132-10.224,9.184c-0.22,0.1-0.438,0.203-0.648,0.299
		c-1.055,0.485-2.073,1.045-3.047,1.677c-2.005,1.302-3.821,2.875-5.536,4.535c-0.06,0.058-0.116,0.12-0.176,0.179
		c-0.264,0.072-0.492,0.244-0.602,0.56c-0.009,0.026-0.017,0.052-0.026,0.078c-1.657,1.66-3.264,3.381-4.898,5.071
		c-3.226,2.299-6.327,4.779-9.291,7.416c-0.77,0.382-1.547,0.753-2.282,1.195c-0.317,0.19-0.141,0.668,0.197,0.685
		c-3.089,2.884-6.021,5.929-8.781,9.092c-8.546,9.796-15.603,20.904-20.785,32.827c-5.312,12.222-8.644,25.266-9.731,38.551
		c-1.12,13.674,0.018,27.473,3.287,40.796c3.274,13.345,8.719,26.18,16.143,37.749c0.911,1.42,1.855,2.819,2.824,4.201
		c0.745,1.062,2.287,0.241,2.139-0.796c0.463,0.286,1.229,0.056,1.107-0.607c-0.164-0.886-0.361-1.764-0.538-2.647
		c6.832-8.372,12.615-17.756,17.221-27.501c5.187-10.973,8.607-22.638,9.846-34.722c1.335-13.024,0.549-26.134-0.25-39.165
		c-0.749-12.222-1.508-24.496-0.467-36.725c0.977-11.476,3.484-22.972,8.93-33.204c0.501-0.942,1.025-1.873,1.545-2.806
		c1.841-1.713,3.703-3.405,5.568-5.094c0.479-0.169,0.938-0.363,1.268-0.784c0.109-0.14,0.16-0.332,0.172-0.526
		c1.874-1.694,3.75-3.384,5.615-5.082c10.898-9.924,22.088-20.632,28.558-34.113c0.697-1.451,1.268-2.95,1.801-4.466
		c32.935-33.312,62.017-70.294,87.573-109.527c-0.81,2.077-1.616,4.153-2.433,6.219c-3.551,8.975-7.051,17.968-10.416,27.014
		c-4.487,12.061-8.753,24.205-12.728,36.444c-2.802,6.386-5.486,12.825-8.061,19.298c-5.548,13.948-10.531,28.142-14.444,42.64
		c-3.723,13.794-6.464,27.861-7.748,42.099c-1.237,13.706-1.201,27.55,0.517,41.214c1.69,13.45,4.996,26.727,10.213,39.252
		c0.07,0.329,0.121,0.663,0.194,0.991c0.497,2.255,1.009,4.507,1.555,6.751c0.259,1.064,2.11,0.704,1.902-0.39l-0.058-0.321
		c8.282-11.233,14.768-23.721,19.684-36.774c4.943-13.125,8.303-26.838,9.9-40.773c1.659-14.483,1.263-28.988-0.231-43.466
		c-1.381-13.378-3.438-26.681-4.739-40.068c-0.039-5.664-0.042-11.329,0.069-16.992c0.139-7.08,0.525-14.141,0.877-21.212
		c0.062-1.243,0.087-2.485,0.107-3.728c2.384-11.102,5.285-22.105,8.738-32.878c0.561-1.749,1.153-3.488,1.75-5.224
		c0.877-2.317,1.746-4.638,2.63-6.952c1.164-3.048,2.358-6.088,3.549-9.128c3.36-7.888,7.146-15.59,11.436-23.021
		c2.526-3.58,4.897-7.271,7.066-11.094c1.01-1.781,1.965-3.585,2.865-5.424c0.138-0.281,0.142-0.54,0.09-0.778
		c0.338-0.583,0.663-1.172,0.999-1.756c0.309-0.354,0.614-0.713,0.925-1.065c0.689-0.781,1.582-1.53,1.833-2.571
		c0.074-0.309-0.034-0.597-0.229-0.809c16.434-28.92,31.216-58.784,44.418-89.306c2.438-5.637,4.814-11.298,7.119-16.992
		C2138.922-127.852,2136.603-129.042,2135.947-127.478z M1851.219,140.272c-5.219-5.881-10.374-11.801-15.929-17.372
		c-11.161-11.193-23.692-21.125-38.244-27.52c-0.214-0.094-0.433-0.179-0.648-0.271c0.212,0.072,0.428,0.129,0.64,0.202
		c6.863,2.374,13.485,5.448,19.702,9.203c6.208,3.751,12.027,8.144,17.329,13.095c5.483,5.12,10.178,10.923,14.781,16.826
		c2.5,3.205,5.091,6.373,7.889,9.325c0.531,0.561,1.079,1.113,1.627,1.665c-0.224-0.106-0.438-0.227-0.666-0.326
		c-1.183-0.514-2.343-1.077-3.504-1.638C1853.171,142.428,1852.181,141.356,1851.219,140.272z M1850.692,141.689
		c-2.298-1.209-4.57-2.465-6.79-3.812c-6.031-3.659-11.757-7.79-17.378-12.044c-11.194-8.47-21.995-17.525-33.84-25.096
		c-6.015-3.845-12.318-7.326-19.006-9.85c7.155,0.824,14.104,2.435,20.833,5.108c7.367,2.927,14.306,6.903,20.74,11.52
		c12.956,9.298,23.709,21.019,34.264,32.869C1849.9,140.815,1850.293,141.251,1850.692,141.689z M1834.73,112.113
		c5.935,5.69,10.512,12.384,14.972,19.245c1.92,2.954,3.894,6.001,6.042,8.916c-1.593-1.842-3.161-3.705-4.719-5.581
		c-4.732-5.694-9.332-11.494-14.647-16.666c-10.469-10.186-23.135-18.17-36.763-23.405c-3.814-1.465-7.712-2.716-11.669-3.733
		c-0.766-0.197-1.544-0.391-2.323-0.584c10.292,0.767,20.426,3.584,29.69,8.196C1822.422,102.042,1828.995,106.615,1834.73,112.113z
		 M1771.858,90.855c6.364,2.617,12.487,5.767,18.307,9.438c6.002,3.786,11.688,8.027,17.267,12.406
		c11.062,8.685,21.684,17.951,33.51,25.614c3.271,2.119,6.624,4.129,10.094,5.906c0.982,0.502,1.986,0.96,2.987,1.423l0.073,0.066
		c0.56,0.339,1.121,0.677,1.681,1.017c0.321,0.279,0.647,0.552,0.976,0.82c-8.604-3.067-16.894-6.974-24.856-11.466
		c-10.796-6.091-20.973-13.219-30.753-20.818c-9.832-7.64-19.161-15.858-28.657-23.902
		C1772.281,91.186,1772.069,91.022,1771.858,90.855z M1817.444,143.592c-14.54-6.771-27.036-17.508-36.101-30.725
		c-4.203-6.129-7.632-12.752-10.214-19.712c3.457,3.187,7.051,6.224,10.634,9.274c4.823,4.106,9.694,8.157,14.656,12.093
		c9.824,7.792,20.025,15.142,30.838,21.508c10.571,6.223,21.71,11.463,33.43,15.128c0.754,0.236,1.517,0.448,2.276,0.671
		C1847.406,153.031,1831.605,150.186,1817.444,143.592z M1755.896,198.044c12.465,0.61,24.99-0.088,37.35-1.766
		c12.243-1.662,24.341-4.277,36.265-7.499c11.995-3.242,23.819-7.104,35.53-11.25c10.416-3.688,20.72-7.701,30.919-11.956
		c-1.297,0.81-2.576,1.644-3.828,2.503c-0.2,0.137-0.393,0.286-0.593,0.424c-8.25,3.86-16.52,7.675-24.856,11.334
		c-16.247,7.131-32.881,13.495-50.309,17.065c-16.888,3.459-34.296,4.568-51.488,3.31c-8.932-0.654-17.757-1.994-26.461-3.897
		C1744.212,197.193,1750.051,197.757,1755.896,198.044z M1886.873,167.256c-5.852,2.342-11.738,4.598-17.656,6.768
		c-11.648,4.271-23.39,8.291-35.296,11.784c-11.844,3.474-23.859,6.416-36.038,8.447c-12.238,2.041-24.627,3.153-37.039,2.983
		c-12.52-0.171-24.908-1.78-37.064-4.768c-0.661-0.162-1.315-0.348-1.973-0.52c-1.692-0.52-3.382-1.051-5.063-1.612
		c0.072,0.011,0.144,0.018,0.216,0.028c10.422,2.672,21.156,3.942,31.913,4.127c12.128,0.208,24.219-0.854,36.186-2.794
		c11.919-1.932,23.683-4.704,35.337-7.841c11.798-3.176,23.501-6.693,35.23-10.114c8.717-2.542,17.461-5.031,26.281-7.2
		c3.721-0.529,7.432-1.126,11.124-1.829C1890.981,165.571,1888.934,166.431,1886.873,167.256z M1790.393,182.974
		c14.094-3.529,28.122-7.421,42.42-10.059c12.245-2.26,24.644-3.426,37.007-4.84c-3.251,0.895-6.495,1.808-9.729,2.736
		c-11.686,3.351-23.302,6.939-34.999,10.249c-11.689,3.308-23.466,6.356-35.411,8.594c-11.803,2.21-23.771,3.658-35.785,3.893
		c-9.675,0.189-19.375-0.544-28.895-2.287c7.555,0.571,15.174,0.423,22.716-0.262
		C1762.163,189.684,1776.347,186.491,1790.393,182.974z M1707.335,188.976c1.942,0.874,3.851,1.884,5.838,2.642
		c1.982,0.756,3.983,1.458,5.994,2.133c4.181,1.404,8.433,2.608,12.71,3.682c8.484,2.13,17.116,3.669,25.812,4.613
		c17.274,1.875,34.797,1.449,51.944-1.381c17.646-2.913,34.58-8.571,51.02-15.52c7.208-3.047,14.336-6.289,21.429-9.611
		c-2.545,1.977-5.079,3.968-7.654,5.904c-11.932,8.969-24.86,16.623-38.595,22.486c-13.633,5.819-28.068,9.859-42.838,11.336
		c-14.574,1.457-29.392,0.423-43.583-3.234c-9.68-2.495-18.989-6.257-27.651-11.188c-3.599-2.572-7.083-5.308-10.422-8.213
		C1709.975,191.44,1708.648,190.216,1707.335,188.976z M1706.492,190.403c0.003-0.002,0.007-0.003,0.011-0.005
		c0.032,0.031,0.066,0.06,0.098,0.091C1706.564,190.461,1706.528,190.432,1706.492,190.403z M1848.569,204.312
		c-6.224,4.223-12.755,8.025-19.683,10.974c-7.854,3.343-16.146,5.636-24.591,6.866c-16.866,2.457-34.166,0.751-50.311-4.662
		c-8.414-2.821-16.427-6.646-23.986-11.232c4.315,1.971,8.745,3.693,13.262,5.117c13.989,4.411,28.8,6.236,43.444,5.559
		c14.88-0.689,29.674-3.912,43.638-9.049c14.09-5.182,27.457-12.339,39.767-20.92c6.687-4.662,13.007-10.011,19.655-14.823
		c-1.979,1.47-3.948,2.953-5.884,4.478C1872.13,185.872,1860.964,195.902,1848.569,204.312z M1641.212,203.762
		c10.237,3.417,20.177,7.746,29.674,12.872c9.544,5.151,18.638,11.125,27.132,17.87c4.222,3.352,8.309,6.881,12.227,10.584
		c3.923,3.708,7.545,7.686,11.314,11.543c0.59,0.603,1.157,1.226,1.73,1.844c-0.242-0.04-0.483-0.091-0.726-0.133
		c-13.322-10.02-26.888-19.713-40.794-28.907c-7.222-4.775-14.562-9.377-22.062-13.706c-7.491-4.323-15.04-8.509-22.865-12.203
		c-2.169-1.024-4.35-2.038-6.55-3.008C1633.962,201.496,1637.609,202.56,1641.212,203.762z M1615.026,197.106
		c1.01,0.18,2.015,0.391,3.023,0.588c1.419,0.349,2.82,0.774,4.198,1.265c4.044,1.442,7.992,3.186,11.904,4.951
		c7.755,3.498,15.452,7.271,22.863,11.449c14.87,8.383,29.073,17.863,42.982,27.743c6.979,4.957,13.917,9.971,20.892,14.933
		c-0.773-0.142-1.549-0.271-2.32-0.424c-2.686-0.902-5.322-1.932-7.894-3.181c-4.19-2.035-8.188-4.441-12.099-6.965
		c-8.275-5.34-16.32-11.021-24.633-16.307c-8.543-5.433-17.188-10.707-25.929-15.818c-8.674-5.072-17.41-10.099-26.282-14.817
		c-2.289-1.218-4.672-2.404-7.12-3.473C1614.749,197.066,1614.887,197.087,1615.026,197.106z M1592.982,194.616l0.327-0.033
		c4.435,0.239,8.861,0.645,13.268,1.216c4.248,1.16,8.381,2.915,12.373,4.843c9.016,4.353,17.725,9.386,26.385,14.401
		c8.657,5.013,17.221,10.185,25.688,15.513c8.39,5.28,16.634,10.778,24.953,16.167c4.378,2.836,8.798,5.612,13.474,7.936
		c1.286,0.639,2.6,1.252,3.933,1.827c-2.463-0.578-4.915-1.206-7.343-1.917c-14.868-4.355-28.578-11.293-41.567-19.665
		c-13.268-8.551-25.836-18.172-39.438-26.206C1615.103,202.832,1604.302,197.498,1592.982,194.616z M1711.407,261.553
		c-6.447,0.941-12.993,1.196-19.493,0.729c-10.864-0.78-21.599-3.444-31.52-7.95c-10.326-4.691-19.326-11.459-27.672-19.07
		c-8.508-7.759-16.362-16.215-25.132-23.689c-2.158-1.84-4.393-3.646-6.697-5.378c10.469,5.957,20.499,12.741,30.453,19.473
		c17.298,11.697,34.943,23.44,54.816,30.315C1694.247,258.779,1702.803,260.86,1711.407,261.553z M1714.949,260.964
		c-3.569-0.147-7.14-0.458-10.645-1.063c-5.078-0.878-10.074-2.182-14.968-3.793c-9.998-3.292-19.538-7.878-28.674-13.077
		c-18-10.243-34.39-22.997-51.954-33.931c-8.925-5.555-18.169-10.59-27.922-14.52c6.147,0.972,12.195,2.221,18.134,4.252
		c7.437,2.543,14.564,5.955,21.413,9.794c13.829,7.751,26.49,17.346,39.687,26.083c12.904,8.543,26.387,15.916,41.147,20.719
		c5.943,1.934,12.013,3.459,18.152,4.619C1717.872,260.394,1716.412,260.69,1714.949,260.964z M1589.336,280.949
		c4.804-1.659,9.644-3.222,14.536-4.606c9.804-2.773,19.866-4.714,30.073-4.981c19.965-0.523,39.464,4.654,59.274,6.278
		c-1.082,0.109-2.162,0.231-3.244,0.338c-4.091,0.135-8.184,0.062-12.272-0.104c-8.214-0.334-16.416-0.913-24.628-1.298
		c-16.251-0.763-32.744-1.341-48.784,1.912c-4.423,0.897-8.798,2.015-13.207,2.975c-2.308,0.502-4.618,0.983-6.953,1.342
		l-0.141,0.017C1585.77,282.196,1587.551,281.565,1589.336,280.949z M1589.309,283.772c4.055-0.843,8.051-1.943,12.074-2.921
		c7.984-1.942,16.075-3.169,24.281-3.609c16.459-0.884,32.855,0.888,49.289,1.464c1.886,0.066,3.772,0.112,5.658,0.154
		c-1.815,0.168-3.628,0.349-5.444,0.513c-10.016,0.908-20.034,1.717-30.072,2.336c-10.028,0.618-20.068,1.284-30.107,1.702
		c-5.634,0.234-11.276,0.35-16.913,0.464c-3.254,0.065-6.518,0.06-9.779,0.104C1588.634,283.91,1588.975,283.842,1589.309,283.772z
		 M1585.055,284.755c3.743,0.038,7.497-0.092,11.231-0.157c5.027-0.087,10.053-0.201,15.078-0.348
		c10.119-0.296,20.229-0.478,30.341-0.985c20.085-1.007,40.143-2.48,60.15-4.507c0.743-0.075,1.484-0.158,2.227-0.235
		c-35.309,6.871-71.448,9.516-107.355,7.15C1592.832,285.418,1588.942,285.103,1585.055,284.755z M1706.229,290.921
		c-9.906,6.209-20.163,11.974-31.165,16.012c-10.619,3.896-21.874,6.128-33.215,5.491c-11.095-0.623-21.887-3.873-31.934-8.512
		c-2.979-1.375-5.894-2.88-8.764-4.469c11.921,4.19,24.681,6.056,37.338,6.012c21.697-0.074,42.843-6.045,62.685-14.483
		c5.607-2.384,11.114-4.985,16.548-7.739c0.724-0.367,1.448-0.74,2.171-1.11C1715.348,285.07,1710.818,288.044,1706.229,290.921z
		 M1718.912,280.821c-4.793,2.488-9.646,4.865-14.557,7.112c-9.808,4.487-19.896,8.338-30.294,11.224
		c-20.103,5.58-41.444,7.352-61.926,2.72c-5.047-1.141-9.999-2.691-14.796-4.618c-5.046-2.987-9.936-6.242-14.687-9.67
		c3.574,1.824,7.421,3.217,11.222,4.374c4.806,1.463,9.725,2.55,14.688,3.32c9.966,1.545,20.102,1.843,30.168,1.429
		c20.503-0.845,41.016-4.21,60.744-9.838c7.555-2.155,14.996-4.72,22.311-7.597C1720.827,279.79,1719.877,280.32,1718.912,280.821z
		 M1673.162,291.365c-19.81,3.744-40.446,5.758-60.544,3.326c-5.548-0.671-11.057-1.704-16.445-3.196
		c-5.531-1.531-10.765-3.69-16.089-5.795l-0.018,0l-0.13-0.097c47.3,5.863,95.555,2.322,141.895-8.513
		c0.247-0.058,0.491-0.124,0.737-0.181C1706.618,283.282,1690.019,288.179,1673.162,291.365z M1712.214,348.483
		c3.971-14.051,9.389-27.818,17.456-40.053c8.262-12.531,19.377-22.659,31.802-30.965c12.766-8.534,26.628-15.22,40.452-21.831
		c3.122-1.493,6.247-2.989,9.364-4.503c-10.905,7.9-21.549,16.163-31.718,24.994c-11.645,10.113-22.69,20.921-32.754,32.617
		c-9.736,11.314-18.598,23.426-26.126,36.323c-5.851,10.024-10.939,20.536-14.898,31.456
		C1707.628,367.109,1709.601,357.729,1712.214,348.483z M1803.659,279.177c-8.526,15.33-16.488,31.028-28.448,44.054
		c-10.863,11.832-23.81,21.449-36.469,31.236c-4.642,3.589-9.289,7.225-13.806,11.016c1.223-1.37,2.45-2.736,3.674-4.105
		c7.335-8.2,14.692-16.38,22.055-24.554c14.725-16.348,29.259-32.871,43.873-49.318c4.049-4.557,8.098-9.113,12.147-13.67
		C1805.663,275.609,1804.653,277.389,1803.659,279.177z M1810.672,267.178c-1.171,1.317-2.341,2.633-3.512,3.95
		c-3.655,4.111-7.309,8.222-10.964,12.334c-7.309,8.222-14.624,16.44-21.927,24.668c-14.607,16.456-29.144,32.971-43.706,49.466
		c-3.824,4.331-7.653,8.657-11.474,12.992c-5.142,4.642-10.009,9.569-14.387,14.944c7.247-10.575,14.219-21.335,21.567-31.841
		c7.71-11.024,15.768-21.813,24.516-32.041c8.617-10.076,17.908-19.45,27.808-28.265c9.735-8.668,19.823-16.943,29.231-25.974
		c2.891-2.775,5.703-5.631,8.426-8.571C1814.306,261.563,1812.439,264.338,1810.672,267.178z M1823.524,247.768
		c-3.991,5.103-8.263,9.951-12.807,14.568c-9.217,9.363-19.292,17.817-29.152,26.482c-10,8.788-19.603,17.923-28.41,27.919
		c-8.965,10.176-17.189,20.996-25.019,32.063c-7.783,11.001-15.206,22.263-22.368,33.677c-0.424,0.675-0.836,1.357-1.252,2.037
		c4.092-11.71,9.176-23.073,15.249-33.888c7.3-13.001,15.918-25.24,25.477-36.676c9.761-11.679,20.505-22.507,31.881-32.61
		c11.876-10.549,24.448-20.298,37.373-29.523c4.119-2.94,8.283-5.813,12.468-8.655c0.228-0.123,0.452-0.255,0.68-0.378
		C1826.184,244.376,1824.838,246.088,1823.524,247.768z M1893.085,353.84c-1.594-7.545-3.508-15.026-4.91-22.614
		c-1.702-9.212-2.916-18.519-3.504-27.871c-1.127-17.919,0.104-35.989,4.514-53.423c4.146-16.386,11.042-32.205,21.021-45.896
		c2.839-3.895,5.956-7.534,9.221-11.035c0.151-0.111,0.299-0.226,0.451-0.337c-1.059,2.672-2.077,5.359-3.054,8.061
		c-1.967,5.441-3.782,10.94-5.416,16.49c-3.246,11.025-5.748,22.286-7.628,33.622c-1.873,11.3-3.075,22.703-3.578,34.145
		c-0.493,11.222-0.095,22.436-0.344,33.66c-0.264,11.884-1.757,23.628-6.367,34.634
		C1893.355,353.463,1893.222,353.654,1893.085,353.84z M1915.35,193.476c0.162-0.12,0.323-0.24,0.483-0.362
		c-0.164,0.181-0.323,0.367-0.486,0.549c-0.673,0.511-1.336,1.035-1.999,1.558C1914.014,194.637,1914.673,194.046,1915.35,193.476z
		 M1896.237,349.429c3.205-8.164,4.356-17.098,4.798-25.809c0.566-11.145,0.002-22.311,0.352-33.461
		c0.722-23.02,4.462-46.004,10.786-68.14c1.779-6.228,3.728-12.41,5.903-18.512c0.061-0.171,0.13-0.339,0.192-0.51
		c-1.061,4.364-2.019,8.75-2.896,13.136c-2.262,11.312-3.684,22.772-4.669,34.26c-0.995,11.604-1.127,23.213-1.186,34.852
		c-0.058,11.521-0.343,23.13-2.337,34.503c-1.658,9.459-4.585,18.783-9.243,27.199
		C1897.379,347.781,1896.81,348.606,1896.237,349.429z M1870.631,282.565c0.548-13.119,3.302-26.141,8.095-38.364
		c4.063-10.359,9.528-20.168,16.167-29.097c-5.446,8.658-9.198,18.37-12.25,28.085c-4.009,12.763-6.778,25.97-7.852,39.314
		c-1.012,12.576-0.487,25.304,1.835,37.713c1.34,7.165,3.302,14.21,5.9,21.013c-2.848-6.006-5.224-12.236-7.072-18.634
		C1871.707,309.625,1870.068,296.054,1870.631,282.565z M1891.193,356.577c-0.915-1.374-1.798-2.769-2.656-4.178
		c-1.83-3.602-3.535-7.263-4.99-11.045c-2.129-5.53-3.838-11.22-5.134-17.002c-2.721-12.131-3.589-24.651-2.81-37.053
		c0.824-13.114,3.321-26.059,7.097-38.636c3.549-11.821,7.861-23.796,14.74-34.129c3.287-4.938,7.261-9.225,11.595-13.143
		c-9.511,12.719-16.449,27.244-20.928,42.463c-5.043,17.135-6.911,35.08-6.381,52.905c0.281,9.431,1.232,18.838,2.71,28.155
		c1.472,9.28,3.326,18.585,6.03,27.591c0.353,1.177,0.723,2.343,1.114,3.502C1891.453,356.198,1891.321,356.386,1891.193,356.577z
		 M1917.661,248.04c0.785,13.08,1.943,26.185,1.298,39.298c-0.611,12.401-3.225,24.48-8.049,35.929
		c-2.342,5.561-5.113,10.931-8.193,16.122c6.335-15.006,7.531-32.146,7.824-48.261c0.217-11.876,0.186-23.748,1.09-35.6
		c0.882-11.567,2.628-22.995,4.841-34.377c0.425-2.185,0.898-4.355,1.379-6.523C1916.673,225.727,1916.993,236.915,1917.661,248.04z
		 M2072.927-1.67c0.005-0.027,0.009-0.055,0.013-0.082c0.046-0.056,0.09-0.112,0.135-0.168
		C2073.025-1.837,2072.977-1.753,2072.927-1.67z M2063.53,11.081c-0.066-0.021-0.138-0.031-0.217-0.025
		c-0.15,0.013-0.298,0.037-0.448,0.052c0.427-0.246,0.863-0.476,1.275-0.744C2063.946,10.611,2063.729,10.838,2063.53,11.081z
		 M1932.894,36.036c15.442-5.479,31.276-9.899,47.33-13.178c16.034-3.275,32.301-5.407,48.639-6.359
		c1.504-0.087,3.018-0.143,4.534-0.192c-2.375,0.442-4.753,0.874-7.127,1.321c-12.339,2.324-24.662,4.746-36.935,7.398
		c-12.246,2.646-24.443,5.53-36.566,8.695c-12.153,3.172-24.222,6.671-36.156,10.587c-7.038,2.309-14.019,4.786-20.943,7.413
		C1907.762,45.783,1920.198,40.541,1932.894,36.036z M1887.703,55.745c0.259-0.135,0.521-0.265,0.78-0.399
		c7.931-3.088,15.939-5.98,24.015-8.663c11.865-3.943,23.87-7.457,35.955-10.657c12.116-3.209,24.319-6.073,36.57-8.713
		c12.326-2.656,24.693-5.117,37.086-7.446c7.239-1.36,14.486-2.67,21.736-3.968c3.538-0.23,7.054-0.624,10.497-1.435
		c1.197-0.282,2.384-0.657,3.559-1.074c0.416-0.074,0.831-0.148,1.246-0.222c1.073-0.192,2.123-0.415,3.172-0.663
		c-6.013,6.8-13.853,11.979-22.293,15.496c-15.562,6.485-32.691,7.349-49.32,8.114c-8.495,0.391-16.982,0.812-25.44,1.71
		c-8.167,0.867-16.295,2.089-24.357,3.649c-16.051,3.108-31.84,7.527-47.16,13.242c-5.56,2.074-11.055,4.322-16.479,6.73
		C1880.715,59.486,1884.193,57.584,1887.703,55.745z M1853.381,76.363c4.485-2.416,8.94-4.897,13.501-7.165
		c7.425-3.691,15.012-7.056,22.725-10.099c15.338-6.051,31.188-10.809,47.324-14.203c16.509-3.473,33.215-5.265,50.05-6.08
		c16.911-0.818,34.373-1.292,50.426-7.263c0.755-0.281,1.505-0.597,2.256-0.904c-0.534,0.276-1.065,0.559-1.6,0.832
		c-6.412,3.275-12.968,6.269-19.635,8.987c-13.325,5.431-27.101,9.711-41.156,12.794c-13.712,3.008-27.655,4.688-41.596,6.223
		c-13.839,1.524-27.724,3.025-41.42,5.57c-12.566,2.335-25.118,5.621-36.786,10.931c-0.605,0.148-1.216,0.272-1.818,0.434
		c-0.82,0.221-1.635,0.457-2.447,0.705c-0.482,0.116-0.965,0.22-1.446,0.345C1852.298,77.096,1852.84,76.731,1853.381,76.363z
		 M1861.974,75.016c9.169-3.55,18.692-6.151,28.352-8.048c13.655-2.682,27.506-4.11,41.336-5.533
		c13.973-1.438,27.975-2.982,41.761-5.733c14.059-2.805,27.881-6.786,41.289-11.862c1.506-0.57,3.007-1.159,4.506-1.756
		c-10.226,4.31-20.697,8.048-31.314,11.266c-12.617,3.824-25.439,6.919-38.37,9.475c-13.627,2.694-27.368,4.894-41.134,6.752
		c-11.264,1.519-22.563,2.729-33.845,4.081C1870.332,73.773,1866.124,74.245,1861.974,75.016z M2012.196,51.868
		c-16.21,8.188-33.692,13.871-51.48,17.429c-17.962,3.594-36.289,5.051-54.594,4.949c-7.252-0.04-14.561-0.264-21.856-0.229
		c-0.976-0.093-1.953-0.168-2.932-0.227c7.461-0.776,14.916-1.6,22.364-2.512c13.912-1.701,27.791-3.628,41.574-6.185
		c12.988-2.409,25.901-5.294,38.621-8.865c12.311-3.456,24.426-7.582,36.213-12.548c6.731-2.836,13.377-5.931,19.857-9.335
		C2031.299,41.065,2021.968,46.932,2012.196,51.868z M2058.622,21.105c-0.138,0.212-0.282,0.42-0.421,0.632
		c0.001-0.067,0-0.133-0.019-0.196C2058.326,21.393,2058.478,21.253,2058.622,21.105z M2057.56,22.527l0.215-0.149
		c-0.041,0.063-0.083,0.124-0.124,0.187C2057.618,22.555,2057.594,22.531,2057.56,22.527z M2017.183,261.82
		c-0.357-6.5-0.574-13.007-0.651-19.516c-0.156-13.096,0.272-26.19,1.275-39.249c0.996-12.982,2.544-25.922,4.637-38.773
		c2.094-12.855,4.746-25.605,7.891-38.243c2.915-11.713,6.343-23.275,10.153-34.725c-0.162,2.561-0.255,5.125-0.285,7.69
		c-2.63,17.265-4.525,34.599-5.963,52.011c-1.706,20.671-2.971,41.378-4.909,62.03c-1.923,20.485-4.506,40.949-8.824,61.079
		c-0.298,1.389-0.596,2.779-0.891,4.169c-0.123,0.214-0.248,0.427-0.371,0.64c-0.296-0.665-0.593-1.329-0.878-1.999
		C2017.897,271.903,2017.46,266.87,2017.183,261.82z M2040.382,109.229c-0.303,3.609-0.611,7.218-0.876,10.83
		c-0.989,13.51-1.687,27.041-2.08,40.581c-0.395,13.603-0.298,27.207-0.529,40.811c-0.225,13.291-0.886,26.6-3.428,39.675
		c-2.291,11.782-6.06,23.383-11.987,33.859c4.076-17.735,6.491-35.886,8.37-53.955c2.126-20.435,3.454-40.94,5.066-61.418
		c1.362-17.291,2.955-34.572,5.404-51.746C2040.341,108.321,2040.362,108.775,2040.382,109.229z M2020.586,278.87
		c0.121-0.495,0.226-0.993,0.344-1.489c6.007-9.322,9.82-20.051,12.345-30.789c2.973-12.638,4.136-25.676,4.636-38.626
		c0.53-13.738,0.421-27.493,0.829-41.235c0.41-13.792,1.121-27.577,2.133-41.339c0.106-1.442,0.228-2.882,0.342-4.324
		c0.378,4.061,0.827,8.115,1.321,12.165c0.202,9.913,0.47,19.825,0.574,29.74c0.14,13.329-0.077,26.673-1.182,39.962
		c-1.044,12.549-2.866,25.057-5.99,37.266c-3.139,12.272-7.566,24.07-13.484,35.274
		C2021.852,276.619,2021.221,277.746,2020.586,278.87z M2038.603,90.223c0.85-1.968,1.692-3.939,2.539-5.909
		c-0.146,1.168-0.274,2.338-0.39,3.509c-3.99,10.825-7.214,21.97-10.191,33.099c-3.38,12.637-6.152,25.441-8.398,38.327
		c-2.257,12.95-3.947,26-5.082,39.096c-1.123,12.959-1.692,25.967-1.752,38.974c-0.034,7.469,0.141,14.942,0.462,22.408
		c-1.194-10.308-1.888-20.67-1.974-31.059c-0.154-18.722,1.418-37.435,4.277-55.931c2.872-18.573,7.059-36.922,12.125-55.015
		C2032.804,108.493,2035.62,99.331,2038.603,90.223z M2008.497,241.98c-2.085-13.454-2.51-27.162-1.584-40.737
		c0.955-13.995,3.34-27.857,6.734-41.46c3.604-14.444,8.33-28.584,13.68-42.469c0.437-1.135,0.908-2.254,1.355-3.384
		c-4.931,17.183-9.105,34.59-12.115,52.215c-3.146,18.421-5.049,37.072-5.303,55.764c-0.128,9.428,0.167,18.864,0.941,28.262
		c0.386,4.693,0.862,9.399,1.494,14.081C2011.405,256.976,2009.667,249.525,2008.497,241.98z M2047.298,199.689
		c-1.022,13.94-3.871,27.76-8.317,41.007c-2.252,6.71-4.944,13.282-8.017,19.657c-1.04,2.157-2.153,4.265-3.293,6.358
		c3.162-6.901,5.762-14.07,7.855-21.343c3.495-12.141,5.713-24.645,7.075-37.196c1.411-12.997,1.869-26.073,1.926-39.14
		c0.031-7.126-0.047-14.25-0.152-21.374c0.354,2.747,0.704,5.495,1.033,8.244C2047.146,170.43,2048.37,185.062,2047.298,199.689z"/>
</g>
<g id="Layer_2">
</g>
<g id="Layer_3">
</g>
</svg>
