<svg xmlns="http://www.w3.org/2000/svg" version="1.1" xmlns:xlink="http://www.w3.org/1999/xlink" width="512" height="512" x="0" y="0" viewBox="0 0 512 512" style="enable-background:new 0 0 512 512" xml:space="preserve" class=""><g><path d="M467 61H165c-24.813 0-45 20.187-45 45s20.187 45 45 45h302c24.813 0 45-20.187 45-45s-20.187-45-45-45zm0 60H165c-8.271 0-15-6.729-15-15s6.729-15 15-15h302c8.271 0 15 6.729 15 15s-6.729 15-15 15zM467 211H165c-24.813 0-45 20.187-45 45s20.187 45 45 45h302c24.813 0 45-20.187 45-45s-20.187-45-45-45zm0 60H165c-8.271 0-15-6.729-15-15s6.729-15 15-15h302c8.271 0 15 6.729 15 15s-6.729 15-15 15zM467 361H165c-24.813 0-45 20.187-45 45s20.187 45 45 45h302c24.813 0 45-20.187 45-45s-20.187-45-45-45zm0 60H165c-8.271 0-15-6.729-15-15s6.729-15 15-15h302c8.271 0 15 6.729 15 15s-6.729 15-15 15zM45 61C20.187 61 0 81.187 0 106s20.187 45 45 45 45-20.187 45-45-20.187-45-45-45zm0 60c-8.271 0-15-6.729-15-15s6.729-15 15-15 15 6.729 15 15-6.729 15-15 15zM45 211c-24.813 0-45 20.187-45 45s20.187 45 45 45 45-20.187 45-45-20.187-45-45-45zm0 60c-8.271 0-15-6.729-15-15s6.729-15 15-15 15 6.729 15 15-6.729 15-15 15zM45 361c-24.813 0-45 20.187-45 45s20.187 45 45 45 45-20.187 45-45-20.187-45-45-45zm0 60c-8.271 0-15-6.729-15-15s6.729-15 15-15 15 6.729 15 15-6.729 15-15 15z" fill="#1d3b6f" opacity="1" data-original="#000000" class=""></path></g></svg>