<?xml version="1.0" encoding="utf-8"?>
<!-- Generator: Adobe Illustrator 27.9.0, SVG Export Plug-In . SVG Version: 6.00 Build 0)  -->
<svg version="1.1" xmlns="http://www.w3.org/2000/svg" xmlns:xlink="http://www.w3.org/1999/xlink" x="0px" y="0px"
	 viewBox="0 0 449.362 220.596" enable-background="new 0 0 449.362 220.596" xml:space="preserve">
<g id="OBJECTS">
	<g>
		<path fill="#EDEDED" d="M182.349,184.114H44.936V46.702h137.413V184.114z M50.339,178.712h126.609V52.103H50.339V178.712z"/>
		<path fill="#EDEDED" d="M155.019,73.308h-0.301c-0.406,0-0.609-0.21-0.609-0.635v-2.146c0-0.095-0.034-0.177-0.101-0.246
			c-0.068-0.067-0.149-0.101-0.246-0.101h-0.3v2.973h0.215v0.156h-1.125v-0.156h0.215v-5.758h-0.215v-0.156h1.21
			c0.288,0,0.534,0.086,0.738,0.26c0.203,0.174,0.304,0.382,0.304,0.625v1.172c0,0.378-0.202,0.647-0.606,0.805
			c0.404,0.17,0.606,0.44,0.606,0.809v2.011c0,0.155,0.066,0.233,0.199,0.233h0.017V73.308z M154.109,69.675v-1.935
			c0-0.097-0.034-0.177-0.101-0.246c-0.068-0.067-0.149-0.101-0.246-0.101h-0.3v2.629h0.3c0.097,0,0.178-0.034,0.246-0.101
			C154.075,69.853,154.109,69.772,154.109,69.675"/>
		<path fill="#EDEDED" d="M157.112,75.068h-6.654c-0.59,0-1.069-0.48-1.069-1.069v-7.452c0-0.589,0.479-1.069,1.069-1.069h6.654
			c0.59,0,1.071,0.481,1.071,1.069v7.452C158.183,74.588,157.702,75.068,157.112,75.068 M150.458,65.946
			c-0.332,0-0.602,0.269-0.602,0.601v7.452c0,0.331,0.271,0.601,0.602,0.601h6.654c0.332,0,0.602-0.269,0.602-0.601v-7.452
			c0-0.331-0.27-0.601-0.602-0.601H150.458z"/>
		<polygon fill="#EDEDED" points="132.672,115.553 109.661,74.451 108.545,76.405 131.966,118.065 134.1,118.065 		"/>
		<path fill="#EDEDED" d="M143.707,112.286l-25.089-43.893c-0.58-1.015-1.487-1.549-2.426-1.654
			c0.534,0.396,0.997,0.901,1.346,1.515c0.362,0.636,0.563,1.319,0.624,2.003c0.012,0.114,0.021,0.228,0.023,0.341v0.011
			c0.003,0.135-0.002,0.269-0.011,0.401c-0.003,0.049-0.008,0.099-0.012,0.149c-0.005,0.064-0.014,0.127-0.023,0.19
			c-0.022,0.162-0.051,0.322-0.089,0.481c-0.02,0.089-0.042,0.176-0.067,0.263c-0.138,0.509-0.331,1.002-0.521,1.491
			c-0.555,1.424-1.078,2.769-0.189,4.358c0.891,1.59,2.312,1.845,3.815,2.116c1.613,0.29,3.281,0.59,4.348,2.495
			c1.067,1.906,0.453,3.484-0.142,5.011c-0.556,1.424-1.079,2.768-0.188,4.358c0.89,1.589,2.311,1.845,3.815,2.115
			c1.612,0.29,3.28,0.59,4.347,2.496c1.068,1.905,0.453,3.484-0.141,5.01c-0.555,1.424-1.079,2.769-0.188,4.359
			c0.891,1.59,2.311,1.846,3.815,2.117c0.334,0.06,0.67,0.121,1.003,0.196c1.43,0.231,2.747,1.08,3.518,2.437
			c1.353,2.376,0.524,5.399-1.853,6.751c-0.761,0.434-1.588,0.643-2.407,0.649l-2.89,0.009h6.835
			C143.563,118.064,145.129,114.773,143.707,112.286"/>
		<path fill="#EDEDED" d="M124.68,165.062h-25.46c-0.555,0-1.004-0.449-1.004-1.003c0-0.553,0.449-1.002,1.004-1.002h25.46
			c0.553,0,1.003,0.449,1.003,1.002C125.682,164.613,125.233,165.062,124.68,165.062"/>
		<path fill="#EDEDED" d="M144.655,128.712c0.164-1.016,0.284-2.047,0.353-3.092c0.043-0.64-0.441-1.191-1.08-1.234
			c-0.646-0.042-1.191,0.44-1.233,1.079c-1.063,16.052-14.507,28.625-30.605,28.625c-7.816,0-15.26-2.94-20.959-8.281
			c-5.673-5.314-9.096-12.497-9.637-20.227c-0.045-0.64-0.598-1.121-1.238-1.076c-0.639,0.045-1.12,0.599-1.075,1.238
			c0.582,8.315,4.264,16.041,10.365,21.758c6.132,5.744,14.139,8.907,22.545,8.907c10.512,0,19.969-4.985,26.037-12.765
			c3.771,0.758,7.699-1.186,9.293-4.853C149.006,135.137,147.76,130.956,144.655,128.712 M145.741,138.063
			c-1.122,2.583-3.729,4.072-6.39,3.904c2.286-3.344,3.975-7.133,4.905-11.215C146.177,132.584,146.858,135.491,145.741,138.063"/>
		<path fill="#EDEDED" d="M105.254,124.567H86.37c-0.627,0-1.124,0.537-1.071,1.163c0.447,5.297,2.545,10.121,5.782,13.959
			c0.404,0.479,1.135,0.506,1.577,0.063l13.354-13.354C106.687,125.721,106.21,124.567,105.254,124.567 M100.303,127.639
			l-0.374,0.403c-0.081,0.1-0.192,0.179-0.324,0.219c-0.352,0.108-0.727-0.089-0.835-0.442c-0.109-0.352,0.089-0.726,0.441-0.835
			c0.132-0.041,0.267-0.039,0.391-0.002l0.537,0.122l0.543,0.125L100.303,127.639z"/>
		<path fill="#EDEDED" d="M137.81,124.567h-18.884c-0.955,0-1.433,1.154-0.758,1.83l13.354,13.354
			c0.442,0.443,1.172,0.416,1.577-0.063c3.236-3.837,5.335-8.662,5.783-13.959C138.933,125.105,138.437,124.567,137.81,124.567
			 M125.329,128.105c-0.133,0.344-0.521,0.515-0.865,0.381c-0.129-0.051-0.234-0.137-0.306-0.243l-0.346-0.429l-0.349-0.434
			l0.551-0.085l0.544-0.084c0.126-0.029,0.261-0.022,0.389,0.029C125.292,127.374,125.463,127.76,125.329,128.105"/>
		<path fill="#EDEDED" d="M108.327,128.712l-13.354,13.354c-0.443,0.443-0.416,1.172,0.063,1.576
			c3.837,3.236,8.661,5.337,13.959,5.783c0.625,0.053,1.163-0.444,1.163-1.072V129.47
			C110.157,128.514,109.001,128.037,108.327,128.712 M107.404,135.388c-0.108,0.352-0.481,0.553-0.834,0.445
			c-0.353-0.109-0.552-0.482-0.445-0.834c0.041-0.132,0.119-0.244,0.22-0.325l0.402-0.376l0.407-0.38l0.126,0.543l0.124,0.535
			C107.442,135.12,107.444,135.256,107.404,135.388"/>
		<path fill="#EDEDED" d="M129.207,142.065l-13.354-13.353c-0.674-0.676-1.829-0.198-1.829,0.758v18.883
			c0,0.627,0.537,1.124,1.162,1.072c5.297-0.448,10.122-2.546,13.959-5.783C129.624,143.238,129.649,142.509,129.207,142.065
			 M117.591,135.863c-0.338,0.148-0.733-0.008-0.879-0.347c-0.056-0.126-0.067-0.262-0.044-0.388l0.063-0.546l0.063-0.555
			l0.449,0.332l0.442,0.328c0.109,0.07,0.198,0.17,0.254,0.297C118.085,135.323,117.93,135.715,117.591,135.863"/>
		<path fill="#EDEDED" d="M136.175,112.287l-25.089-43.893c-1.293-2.264-4.202-2.264-5.496,0l-8.177,14.309
			c0.292,0.436,0.528,0.919,0.692,1.445c0.511,1.646,0.213,3.35-0.666,4.685c0.792,0.833,1.409,1.852,1.772,3.023
			c1.257,4.057-1.012,8.364-5.068,9.622c-1.174,0.363-2.366,0.431-3.5,0.247c-0.599,1.496-1.841,2.721-3.5,3.234
			c-0.854,0.265-1.72,0.307-2.544,0.17l-4.093,7.161c-1.421,2.487,0.145,5.778,2.747,5.778l25.088-0.001l25.086-0.001
			C136.031,118.065,137.596,114.772,136.175,112.287 M104.832,102.957c-0.299,0-0.541-0.241-0.541-0.541
			c0-0.299,0.242-0.542,0.541-0.542c0.299,0,0.54,0.243,0.54,0.542C105.372,102.716,105.131,102.957,104.832,102.957
			 M107.739,101.104c-0.298,0-0.541-0.243-0.541-0.543c0-0.299,0.243-0.541,0.541-0.541c0.299,0,0.541,0.242,0.541,0.541
			C108.28,100.861,108.038,101.104,107.739,101.104 M109.523,103.742c-0.299,0-0.542-0.242-0.542-0.541
			c0-0.298,0.243-0.541,0.542-0.541c0.299,0,0.541,0.243,0.541,0.541C110.065,103.5,109.822,103.742,109.523,103.742
			 M112.717,97.306c-0.3,0-0.541-0.243-0.541-0.541c0-0.299,0.241-0.541,0.541-0.541c0.298,0,0.541,0.242,0.541,0.541
			C113.258,97.063,113.015,97.306,112.717,97.306"/>
		<path fill="#EDEDED" d="M340.212,126.544H209.755c-0.876,0-1.587,0.711-1.587,1.588c0,0.876,0.711,1.586,1.587,1.586h130.457
			c0.878,0,1.588-0.709,1.588-1.586C341.8,127.254,341.09,126.544,340.212,126.544"/>
		<path fill="#EDEDED" d="M406.923,126.544h-39.505c-0.876,0-1.586,0.711-1.586,1.588c0,0.876,0.711,1.586,1.586,1.586h39.505
			c0.876,0,1.588-0.709,1.588-1.586C408.511,127.254,407.799,126.544,406.923,126.544"/>
		<path fill="#EDEDED" d="M208.343,101.708c0,4.262,0.794,8.09,3.251,10.547c2.817,2.818,6.573,3.756,11.124,3.756h8.235v-9.03
			h-7.224c-1.877,0-2.744-0.504-3.395-1.155c-0.649-0.65-1.156-1.517-1.156-3.395v-3.612h9.536V89.79h-9.536V73.826
			c0-1.879,0.507-2.745,1.156-3.394c0.651-0.65,1.518-1.156,3.395-1.156h7.224v-9.03h-8.235c-4.551,0-8.307,0.938-11.124,3.756
			c-2.457,2.457-3.251,6.285-3.251,10.547V89.79h-2.89v9.028h2.89V101.708z"/>
		<path fill="#EDEDED" d="M250.063,92.029c0-2.672,1.156-4.624,2.745-4.624c1.589,0,2.745,1.951,2.745,4.624v23.981h10.111V92.029
			c0-2.672,1.156-4.624,2.747-4.624c1.588,0,2.744,1.951,2.744,4.624v23.981h10.114V94.196c0-10.835-5.057-15.819-12.857-15.819
			c-2.89,0-5.491,0.577-7.802,2.6c-2.24-1.734-5.129-2.6-7.802-2.6c-0.506,0-0.723,0-1.011,0.072l-2.457,2.455v-2.167h-9.391v37.273
			h10.114V92.029z"/>
		<path fill="#EDEDED" d="M300.049,92.029c0-2.672,1.156-4.624,2.745-4.624c1.589,0,2.745,1.951,2.745,4.624v23.981h10.113V92.029
			c0-2.672,1.156-4.624,2.744-4.624c1.591,0,2.745,1.951,2.745,4.624v23.981h10.114V94.196c0-10.835-5.057-15.819-12.859-15.819
			c-2.888,0-5.489,0.577-7.8,2.6c-2.24-1.734-5.129-2.6-7.802-2.6c-0.506,0-0.723,0-1.011,0.072l-2.457,2.455v-2.167h-9.389v37.273
			h10.112V92.029z"/>
		<path fill="#EDEDED" d="M355.165,97.374c0,2.672-1.156,4.624-2.745,4.624c-1.589,0-2.745-1.951-2.745-4.624V78.738h-10.113v16.47
			c0,10.835,4.984,15.819,12.858,15.819c0.506,0,0.723,0,1.011-0.072l1.661-1.661v4.839c0,4.191-1.083,6.358-4.261,6.358
			c-0.795,0-1.445-0.073-2.095-0.217v8.235c0,0,1.444,0.217,2.888,0.217c6.213,0,13.653-3.395,13.653-16.326V78.738h-10.112V97.374z
			"/>
		<polygon fill="#EDEDED" points="383.091,65.473 375.266,63.929 375.266,82.207 379.848,82.207 		"/>
		<path fill="#EDEDED" d="M396.722,104.309c0,3.539-1.661,5.49-3.468,6.934l6.429,6.501c4.696-3.684,8.813-8.379,8.813-14.879
			c0-3.612-0.866-6.069-2.528-8.38c-1.228-1.661-1.879-3.18-1.879-5.274c0-2.673,0.867-4.189,2.818-5.851l-6.501-6.356
			c-5.129,3.901-7.945,8.307-7.945,13.363c0,3.685,1.227,6.501,2.383,8.38C395.711,100.191,396.722,102.575,396.722,104.309"/>
		<rect x="243.469" y="172.002" fill="#EDEDED" width="5.126" height="3.885"/>
		<rect x="250.634" y="172.002" fill="#EDEDED" width="5.098" height="3.885"/>
		<rect x="212.381" y="136.664" fill="#EDEDED" width="7.634" height="3.775"/>
		<rect x="310.712" y="172.002" fill="#EDEDED" width="4.988" height="3.885"/>
		<rect x="303.521" y="172.002" fill="#EDEDED" width="5.016" height="3.885"/>
		<polygon fill="#EDEDED" points="322.343,166.656 327.606,166.656 327.606,168.034 322.343,168.034 322.343,170.183 
			329.976,170.183 329.976,136.663 322.343,136.663 		"/>
		<path fill="#EDEDED" d="M315.459,148.043h-7.631v18.299h-10.441c-2.826-0.025-5.104-2.324-5.104-5.15v-15.051l-0.053,0.011
			c-2.473,1.19-5.243,1.855-8.169,1.855h-1.69c-5.011,0-9.073,4.064-9.073,9.075v4.11c0,2.819-2.285,5.104-5.105,5.104h-7.001
			c-2.82,0-5.106-2.285-5.106-5.104v-13.149h-7.522v18.254h-24.003c-2.51,0-4.546-2.034-4.546-4.546v-13.68h-7.632v21.092
			c0,1.268-0.253,1.629-0.758,1.942c-0.506,0.312-1.272,0.467-2.3,0.467v3.886h5.014c3.784,0,5.676-2.056,5.676-6.167v-1.038h0.143
			c0,1.058,0.857,1.916,1.916,1.916l33.695,0.013l0.005-1.928h0.142c0,1.058,0.857,1.916,1.916,1.916h13.464
			c1.057,0,1.916-0.857,1.916-1.916h0.142v1.928h18.93l-0.005-1.928h0.142c0,1.058,0.859,1.928,1.917,1.928h21.123V148.043z
			 M284.651,166.105h-3.858v-11.42c0-1.45,1.041-2.691,2.469-2.942c0.44-0.078,0.91-0.117,1.39-0.117V166.105z"/>
		<path fill="#EDEDED" d="M372.523,141.11c-0.942-0.399-1.462-0.628-1.564-0.69c-0.472-0.281-0.707-0.625-0.707-1.035
			c0-0.848,0.581-1.275,1.741-1.275c0.603,0,1.212,0.101,1.826,0.3l0.185-1.787c-0.645-0.138-1.283-0.207-1.919-0.207
			c-1.256,0-2.244,0.297-2.959,0.89c-0.695,0.572-1.044,1.339-1.044,2.3c0,1.284,0.743,2.229,2.232,2.838
			c0.899,0.374,1.411,0.596,1.534,0.666c0.465,0.282,0.696,0.642,0.696,1.081c0,0.921-0.593,1.382-1.778,1.382
			c-0.813,0-1.583-0.152-2.308-0.452l-0.223,1.963c0.71,0.189,1.529,0.284,2.454,0.284c1.213,0,2.201-0.326,2.968-0.983
			c0.752-0.638,1.128-1.452,1.128-2.446C374.786,142.698,374.032,141.755,372.523,141.11"/>
		<path fill="#EDEDED" d="M378.283,136.14c-0.245-0.235-0.543-0.352-0.89-0.352s-0.641,0.12-0.881,0.359
			c-0.241,0.241-0.36,0.531-0.36,0.866c0,0.339,0.12,0.625,0.36,0.861c0.24,0.235,0.534,0.352,0.881,0.352
			c0.343,0,0.64-0.12,0.89-0.361c0.245-0.233,0.368-0.518,0.368-0.851C378.65,136.672,378.528,136.38,378.283,136.14"/>
		<rect x="376.389" y="139.383" fill="#EDEDED" width="2.009" height="7.808"/>
		<path fill="#EDEDED" d="M385.353,147.191h1.994v-5.484c0-1.651-0.775-2.476-2.324-2.476c-1.237,0-2.121,0.516-2.653,1.549h-0.024
			c0.077-0.378,0.116-0.844,0.116-1.397h-1.903v7.808h2.009v-3.772c0-0.686,0.178-1.275,0.531-1.765
			c0.351-0.495,0.779-0.743,1.28-0.743c0.649,0,0.974,0.428,0.974,1.287V147.191z"/>
		<path fill="#EDEDED" d="M392.854,140.941c0.487,0,0.971,0.101,1.458,0.3l0.313-1.726c-0.516-0.179-1.085-0.267-1.709-0.267
			c-1.299,0-2.3,0.411-2.999,1.234c-0.65,0.767-0.974,1.79-0.974,3.067c0,2.522,1.174,3.781,3.521,3.781
			c0.839,0,1.569-0.121,2.193-0.36l-0.262-1.679c-0.469,0.21-0.979,0.315-1.525,0.315c-1.217,0-1.826-0.754-1.826-2.263
			c0-0.742,0.155-1.321,0.461-1.742C391.821,141.161,392.271,140.941,392.854,140.941"/>
		<path fill="#EDEDED" d="M399.349,139.232c-1.135,0-2.042,0.396-2.722,1.188c-0.655,0.757-0.983,1.735-0.983,2.937
			c0,2.657,1.284,3.988,3.851,3.988c0.977,0,1.917-0.167,2.822-0.5l-0.214-1.526c-0.751,0.308-1.505,0.462-2.262,0.462
			c-1.436,0-2.155-0.704-2.155-2.109h4.823c0.052-0.287,0.077-0.662,0.077-1.128c0-0.991-0.253-1.776-0.758-2.355
			C401.259,139.551,400.434,139.232,399.349,139.232 M397.701,142.337c0.118-1.089,0.631-1.635,1.542-1.635
			c0.93,0,1.379,0.546,1.349,1.635H397.701z"/>
		<path fill="#EDEDED" d="M371.921,162.436c1.666-1.826,2.5-3.428,2.5-4.808c0-0.87-0.265-1.568-0.797-2.101
			c-0.572-0.577-1.376-0.866-2.408-0.866c-1.038,0-1.976,0.203-2.814,0.614l0.298,1.824c0.664-0.4,1.318-0.599,1.963-0.599
			c0.491,0,0.872,0.14,1.144,0.422c0.254,0.266,0.381,0.615,0.381,1.051c0,0.98-0.758,2.3-2.277,3.957l-1.588,1.794v1.694h6.411
			v-1.931c-1.774,0-3.027,0.02-3.758,0.061L371.921,162.436z"/>
		<path fill="#EDEDED" d="M380.112,154.675c-1.197,0-2.176,0.459-2.937,1.374c-0.839,1.001-1.258,2.398-1.258,4.186
			c0,3.549,1.309,5.323,3.927,5.323c1.196,0,2.174-0.456,2.937-1.366c0.838-1.001,1.258-2.401,1.258-4.194
			C384.039,156.449,382.73,154.675,380.112,154.675 M379.951,163.878c-1.262,0-1.894-1.255-1.894-3.765
			c0-2.506,0.646-3.758,1.94-3.758c1.266,0,1.902,1.262,1.902,3.787C381.899,162.634,381.249,163.878,379.951,163.878"/>
		<path fill="#EDEDED" d="M389.36,154.675c-1.197,0-2.176,0.459-2.937,1.374c-0.838,1.001-1.256,2.398-1.256,4.186
			c0,3.549,1.306,5.323,3.926,5.323c1.196,0,2.174-0.456,2.937-1.366c0.838-1.001,1.258-2.401,1.258-4.194
			C393.288,156.449,391.978,154.675,389.36,154.675 M389.199,163.878c-1.262,0-1.895-1.255-1.895-3.765
			c0-2.506,0.648-3.758,1.941-3.758c1.269,0,1.903,1.262,1.903,3.787C391.147,162.634,390.497,163.878,389.199,163.878"/>
		<path fill="#EDEDED" d="M398.609,154.675c-1.197,0-2.176,0.459-2.937,1.374c-0.838,1.001-1.258,2.398-1.258,4.186
			c0,3.549,1.309,5.323,3.927,5.323c1.196,0,2.174-0.456,2.936-1.366c0.84-1.001,1.259-2.401,1.259-4.194
			C402.536,156.449,401.227,154.675,398.609,154.675 M398.448,163.878c-1.262,0-1.895-1.255-1.895-3.765
			c0-2.506,0.648-3.758,1.941-3.758c1.268,0,1.902,1.262,1.902,3.787C400.396,162.634,399.746,163.878,398.448,163.878"/>
	</g>
</g>
<g id="Layer_2">
</g>
<g id="Layer_3">
</g>
</svg>
