<?xml version="1.0" encoding="utf-8"?>
<!-- Generator: Adobe Illustrator 27.9.0, SVG Export Plug-In . SVG Version: 6.00 Build 0)  -->
<svg version="1.1" xmlns="http://www.w3.org/2000/svg" xmlns:xlink="http://www.w3.org/1999/xlink" x="0px" y="0px"
	 viewBox="0 0 1920 1080" enable-background="new 0 0 1920 1080" xml:space="preserve">
<g id="OBJECTS">
	<g opacity="0.2">
		<g>
			<path fill="#325588" d="M1809.565,332.398c10.254,23.175,16.388,47.738,23.724,71.92c8.046,26.522,18.26,52.114,32.009,76.229
				c20.654,36.225,47.373,67.828,74.692,99.116c16.755,19.189,30.635,39.047,39.061,63.272
				c7.728,22.217,10.125,45.364,15.974,67.992c0.562,2.176,4.199,1.8,4.014-0.543c-3.31-41.831-16.091-85.671-42.43-118.819
				c-28.851-36.309-61.387-68.453-85.494-108.491c-28.552-47.421-38.191-101.185-61.301-150.822
				C1809.736,332.082,1809.491,332.23,1809.565,332.398L1809.565,332.398z"/>
		</g>
		<g>
			<path fill="#325588" d="M1826.174,600.519c27.813,23.502,62.298,31.585,95.591,44.073c16.011,6.005,32.065,13.16,45.483,23.952
				c15.1,12.146,19.92,26.102,28.392,42.631c0.715,1.394,2.96,0.727,2.924-0.792c-0.746-30.791-34.917-52.571-59.78-63.185
				c-37.577-16.042-79.168-21.189-111.996-47.292C1826.359,599.566,1825.743,600.155,1826.174,600.519L1826.174,600.519z"/>
		</g>
		<g>
			<path fill="#325588" d="M1978.933,678.79c-6.846-6.665-15.429-6.614-24.534-7.031c-16.888-0.774-32.787-5.139-48.712-10.517
				c-14.845-5.013-29.613-10.623-41.829-20.682c-12.36-10.179-21.281-23.611-32.435-34.966c-7.356-7.487,2.193-1.621,7.23-0.575
				c6.817,1.416,13.737,2.343,20.614,3.421c14.494,2.272,29.648,3.566,43.822,7.425c28.69,7.812,59.29,34.438,74.272,59.659
				c1.017,1.712,3.698,0.155,2.674-1.562c-14.062-23.577-38.516-43.629-62.951-55.894c-28.397-14.253-63.233-8.844-92.72-20.192
				c-1.407-0.542-2.186,1.386-1.357,2.331c19.864,22.637,37.013,45.891,65.598,57.656c13.472,5.545,27.748,10.155,41.98,13.263
				c15.249,3.331,34.293,0.112,47.649,8.57C1978.789,680.05,1979.402,679.246,1978.933,678.79L1978.933,678.79z"/>
		</g>
		<g>
			<path fill="#325588" d="M1778.93,498.131c30.178,29.71,68.344,47.849,103.856,70.204c34.586,21.771,73.138,40.996,97.132,75.35
				c1.54,2.205,4.76,0.327,3.6-2.104c-6.937-14.534-21.7-26.494-34.143-36.232c-16.465-12.884-35.189-23.242-53.054-34.037
				c-39.295-23.745-82.394-43.025-117.157-73.414C1779.005,497.759,1778.777,497.98,1778.93,498.131L1778.93,498.131z"/>
		</g>
		<g>
			<path fill="#325588" d="M1930.127,593.825c-15.14-5.095-30.906-6.653-46.207-11.015c-15.784-4.499-31.014-12.238-44.844-21.02
				c-12.555-7.972-24.297-17.57-34.056-28.835c-9.297-10.733-13.582-24.543-23.257-34.778c-0.817,0.817-1.634,1.634-2.451,2.452
				c22.641,18.869,54.144,22.01,80.665,32.992c15.402,6.378,31.049,14.779,42.227,27.42c9.643,10.904,15.707,24.421,26.835,34.045
				c1.392,1.204,3.387-0.725,2.044-2.043c-10.511-10.315-16.82-23.467-26.488-34.392c-9.013-10.183-21.095-17.665-33.217-23.564
				c-28.417-13.827-65.492-15.552-89.614-36.91c-1.665-1.474-3.981,0.806-2.451,2.452c10.001,10.759,14.628,25.135,24.645,36.175
				c9.755,10.751,21.359,19.82,33.658,27.487c12.321,7.682,25.722,14.047,39.488,18.706c17.163,5.809,35.433,6.733,52.893,11.306
				C1930.307,594.384,1930.428,593.926,1930.127,593.825L1930.127,593.825z"/>
		</g>
		<g>
			<path fill="#325588" d="M1705.576,429.981c23.018,25.247,55.719,33.169,87.541,41.633
				c38.926,10.353,73.257,28.107,103.084,55.326c1.544,1.409,3.828-0.844,2.306-2.306c-24.555-23.575-53.851-40.166-86.349-50.032
				c-36.911-11.206-78.011-15.987-106.232-44.971C1705.703,429.401,1705.362,429.746,1705.576,429.981L1705.576,429.981z"/>
		</g>
		<g>
			<path fill="#325588" d="M1870.348,504.697c-14.816-22.031-42.046-34.114-66.309-42.463
				c-32.828-11.297-67.351-17.223-97.462-35.378c-1.119-0.675-2.754,0.746-1.899,1.898c4.088,5.511,5.13,13.94,8.834,19.983
				c3.465,5.654,7.759,10.79,12.682,15.23c10.21,9.206,22.789,15.179,35.772,19.382c35.096,11.358,72.801,10.222,107.623,22.743
				c1.24,0.446,2.136-1.624,0.907-2.15c-48.545-20.784-127.086-4.557-156.362-59.517c-1.036-1.944-7.29-13.289-6.087-15.747
				c-1.941,3.965,17.37,11.229,19.413,12.102c14.921,6.382,30.533,10.905,46.118,15.337c36.615,10.413,68.396,22.108,95.959,49.206
				C1869.943,505.721,1870.684,505.197,1870.348,504.697L1870.348,504.697z"/>
		</g>
		<g>
			<path fill="#325588" d="M1893.249,358.841c4.314,30.971,2.573,60.418,2.081,91.505c-0.456,28.848-3.023,68.693,14.899,93.361
				c0.626,0.862,2.344,0.386,1.886-0.795c-13.177-34.014-14.389-68.607-13.219-104.834c0.881-27.278,0.826-52.707-4.016-79.686
				C1894.686,357.305,1893.102,357.787,1893.249,358.841L1893.249,358.841z"/>
		</g>
		<g>
			<path fill="#325588" d="M1902.585,518.081c-4.309-12.762-10.526-24.829-13.774-37.953c-4.085-16.508-3.656-33.88-1.023-50.585
				c3.738-23.718,8.044-46.75,7.713-70.927c-0.94,0.127-1.88,0.255-2.82,0.382c0.778,5.446,4.282,11.101,6.184,16.214
				c4.431,11.913,7.926,24.222,10.366,36.695c3.484,17.816,5.027,36.27,3.683,54.399c-1.444,19.483-10.593,37.011-11.685,56.375
				c-0.106,1.874,2.723,1.827,2.89,0c1.771-19.346,10.421-36.82,11.491-56.375c0.908-16.584,0.047-33.175-2.806-49.538
				c-2.304-13.217-5.829-26.176-10.307-38.817c-2.13-6.012-6.244-12.943-6.996-19.334c-0.21-1.784-2.889-1.898-2.872,0
				c0.26,28.132-6.532,54.984-8.751,82.811c-2.232,27.976,5.907,52.099,17.575,77.13
				C1901.749,519.191,1902.809,518.744,1902.585,518.081L1902.585,518.081z"/>
		</g>
		<g>
			<path fill="#325588" d="M1870.625,482.685c-21.392-18.743-40.91-41.007-49.238-68.769c-7.995-26.651-4.845-54.825-10.395-81.951
				c-0.824,0.347-1.647,0.695-2.471,1.041c17.483,26.284,35.041,53.51,43.339,84.307c5.873,21.794,6.989,46.165,17.428,66.456
				c0.363,0.706,1.519,0.218,1.283-0.541c-7.479-24.034-10.635-49.165-18.221-73.097c-9.012-28.432-25.546-53.568-41.495-78.49
				c-0.851-1.329-2.749-0.451-2.471,1.042c5.616,30.148,2.09,61.715,13.555,90.71c9.528,24.098,27.481,44.432,47.225,60.751
				C1870.176,484.98,1871.635,483.57,1870.625,482.685L1870.625,482.685z"/>
		</g>
	</g>
	<g opacity="0.2">
		<g>
			<path fill="#325588" d="M1655.904,711.506c22.372,22.89,39.216,54.066,51.476,83.426c16.047,38.431,14.188,82.341,23.605,122.555
				c20.03,85.532,71.877,159.903,136.954,217.638c37.698,33.444,76.609,62.471,105.959,104.11c1.366,1.938,4.469,0.335,3.284-1.842
				c-19.672-36.179-54.701-62.417-85.745-88.278c-35.204-29.326-67.733-61.361-94.489-98.713
				c-27.86-38.892-49.352-82.482-61.26-128.904c-10.245-39.937-8.401-84.038-23.809-122.472
				c-12.542-31.285-30.936-64.52-54.947-88.519C1656.281,709.857,1655.258,710.844,1655.904,711.506L1655.904,711.506z"/>
		</g>
		<g>
			<g>
				<path fill="#325588" d="M1926.747,1180.577c-33.503-52.469-51.298-109.2-43.658-171.932c0.242-1.989-2.868-2.053-3.11-0.083
					c-7.301,59.462,6.808,125.971,45.076,173.278C1925.811,1182.772,1927.395,1181.591,1926.747,1180.577L1926.747,1180.577z"/>
			</g>
			<g>
				<path fill="#325588" d="M1880.854,1010.018c-8.378,25.649-14.221,52.216-7.987,79.04c6.012,25.869,20.607,50.765,38.156,70.513
					c0.635,0.715,1.923-0.206,1.366-1.02c-14.763-21.592-29.865-41.768-36.45-67.67c-7.012-27.579-0.42-53.666,5.543-80.678
					C1881.573,1009.794,1880.986,1009.614,1880.854,1010.018L1880.854,1010.018z"/>
			</g>
			<g>
				<path fill="#325588" d="M1880.698,1010.098c-1.826,23.251,3.057,45.235,9.311,67.482c6.95,24.722,7.393,50.717,15.515,75.144
					c0.544,1.637,3.163,1.011,2.622-0.648c-7.474-22.907-7.911-47.113-13.916-70.345c-6.28-24.297-11.193-46.399-12.592-71.608
					C1881.606,1009.521,1880.746,1009.488,1880.698,1010.098L1880.698,1010.098z"/>
			</g>
			<g>
				<path fill="#325588" d="M1881.207,1008.594c-0.922,8.071,2.28,16.504,4.418,24.162c3.347,11.992,7.123,23.86,10.353,35.886
					c3.333,12.41,5.655,24.548,6.248,37.42c0.741,16.098-0.325,33.232,5.128,48.638c0.326,0.92,1.613,0.606,1.47-0.363
					c-4.188-28.283-2.639-56.795-9.969-84.578c-5.397-20.458-11.312-40.864-17.003-61.234
					C1881.749,1008.156,1881.248,1008.234,1881.207,1008.594L1881.207,1008.594z"/>
			</g>
		</g>
		<g>
			<path fill="#325588" d="M1899.439,1141.341c-5.276-5.478-8.767-12.444-13.58-18.338c-5.172-6.335-11.103-12.087-15.783-18.822
				c-11.143-16.035-15.654-37.102-21.455-55.532c-2.613-8.302-4.339-17.394-7.51-25.465c-3.557-9.055-2.969-5.206,0.911,0.218
				c11.057,15.456,22.251,30.761,28.331,48.995c0.529,1.588,3.078,0.973,2.543-0.628c-3.874-11.591-9.679-22.013-16.361-32.224
				c-4.631-7.078-14.458-16.942-16.736-25.067c-0.385-1.375-2.773-1.275-2.627,0.284c2.317,24.798,12.401,51.857,21.672,74.874
				c4.257,10.569,10.442,19.215,17.887,27.723c6.812,7.785,12.631,20.305,21.597,25.382
				C1899.208,1143.238,1900.163,1142.092,1899.439,1141.341L1899.439,1141.341z"/>
		</g>
		<g>
			<path fill="#325588" d="M1845.399,1109.846c-10.887-12.626-27.789-19.245-43.129-24.735
				c-19.215-6.876-38.919-12.347-58.479-18.132c-19.728-5.834-39.445-11.941-58.386-20.032
				c-23.173-9.899-39.872-24.835-56.527-43.379c-0.838,0.815-1.676,1.63-2.515,2.444c22.614,20.698,51.451,28.694,79.848,38.272
				c35.432,11.951,69.214,26.39,101.207,45.821c1.812,1.101,3.436-1.634,1.692-2.802c-27.242-18.266-58.152-30.974-88.947-41.88
				c-31.038-10.992-67.25-17.74-91.286-41.855c-1.598-1.603-4.016,0.762-2.515,2.444c13.335,14.937,26.806,28.861,44.765,38.171
				c17.63,9.14,36.83,15.476,55.734,21.361c40.64,12.652,82.274,20.829,117.829,45.192
				C1845.252,1111.12,1845.806,1110.318,1845.399,1109.846L1845.399,1109.846z"/>
		</g>
		<g>
			<path fill="#325588" d="M1627.006,1003.79c6.761,32.038,38.967,55.618,68.646,64.429c35.895,10.657,74.352,8.755,109.8,21.287
				c1.818,0.643,2.651-2.226,0.845-2.866c-31.163-11.034-64.623-10.997-96.679-18.004c-16.267-3.556-31.996-9.053-45.585-18.921
				c-16.892-12.266-26.048-28.638-36.422-46.164C1627.42,1003.231,1626.929,1003.427,1627.006,1003.79L1627.006,1003.79z"/>
		</g>
		<g>
			<path fill="#325588" d="M1627.378,1003.213c6.573,9.319,20.552,10.869,30.853,13.602c17.087,4.534,34.329,8.402,50.852,14.807
				c31.991,12.402,60.483,32.095,88.015,52.227c1.426,1.043,2.831-1.31,1.417-2.347c-24.659-18.085-50.002-35.581-78.05-48.044
				c-12.987-5.771-26.403-10.101-40.132-13.73c-15.444-4.082-39.925-5.838-51.914-17.292
				C1627.91,1001.951,1626.93,1002.579,1627.378,1003.213L1627.378,1003.213z"/>
		</g>
		<g>
			<path fill="#325588" d="M1727.929,1038.188c-12.88-14.186-19.748-29.377-22.448-48.178c-0.102-0.712-0.92-23.052-2.679-24.181
				c0.247,0.159,2.065,6.259,2.822,7.858c2.072,4.375,4.302,8.642,6.767,12.809c16.463,27.824,37.582,55.821,59.536,79.569
				c1.288,1.392,3.405-0.661,2.113-2.054c-13.431-14.488-24.877-30.559-36.639-46.393c-13.37-18-25.705-35.791-35.198-56.183
				c-0.479-1.028-1.864-0.287-1.727,0.683c4.06,28.674,3.047,56.199,27.13,76.383
				C1727.824,1038.684,1728.128,1038.407,1727.929,1038.188L1727.929,1038.188z"/>
		</g>
		<g>
			<path fill="#325588" d="M1878.822,855.961c-22.872,34.426-51.652,64.178-69.031,102.159
				c-13.928,30.439-19.205,62.485-14.821,95.714c0.227,1.721,3.251,1.411,3.065-0.331c-3.815-35.648,2.782-70.006,18.84-102.02
				c17.19-34.269,43.621-62.059,63.523-94.571C1881.021,855.896,1879.476,854.976,1878.822,855.961L1878.822,855.961z"/>
		</g>
		<g>
			<path fill="#325588" d="M1877.17,859.181c-23.139,18.058-44.885,38.611-59.016,64.668
				c-14.151,26.094-18.221,54.706-23.112,83.593c-0.287,1.695,2.296,2.477,2.591,0.764c4.943-28.646,8.988-56.915,23.068-82.819
				c14.251-26.219,35.922-45.16,57.154-65.501C1878.321,859.438,1877.658,858.8,1877.17,859.181L1877.17,859.181z"/>
		</g>
		<g>
			<path fill="#325588" d="M1879.355,856.361c-9.94,26.873-27.557,48.324-43.221,71.878c-15.387,23.139-29.397,47.093-40.061,72.802
				c-0.608,1.467,1.888,2.584,2.563,1.129c12.546-27.026,25.798-52.715,42.372-77.575c14.634-21.949,30.745-42.626,38.857-68.084
				C1879.971,856.182,1879.473,856.043,1879.355,856.361L1879.355,856.361z"/>
		</g>
		<g>
			<path fill="#325588" d="M1878.884,856.223c-5.551,25.883-19.811,49.208-33.564,71.552
				c-14.445,23.467-34.851,42.902-46.977,67.925c-0.384,0.792,0.626,1.383,1.156,0.698c8.586-11.104,15.45-23.466,23.826-34.744
				c9.018-12.143,18.237-23.554,25.976-36.631c12.83-21.68,26.195-43.353,31.036-68.371
				C1880.52,855.705,1879.09,855.263,1878.884,856.223L1878.884,856.223z"/>
		</g>
		<g>
			<path fill="#325588" d="M1799.214,995.584c-1.128-21.953-3.312-43.426,0.462-65.284c3.602-20.861,8.27-42.231,15.341-62.206
				c1.557-4.397,3.26-8.752,5.059-13.055c5.935-14.189,3.212-9.334,2.592-4.626c-1.209,9.183-3.821,18.051-4.484,27.332
				c-0.637,8.913,0.539,17.803,0.217,26.702c-0.396,10.932-4.233,21.673-6.323,32.349c-0.311,1.592,2.119,2.321,2.434,0.718
				c2.825-14.351,6.741-27.173,6.235-41.905c-0.624-18.18,1.773-35.46,5.091-53.328c0.142-0.764-0.962-1.432-1.362-0.6
				c-23.015,47.88-34.531,101.251-26.109,153.994C1798.443,996.151,1799.239,996.068,1799.214,995.584L1799.214,995.584z"/>
		</g>
		<g>
			<path fill="#325588" d="M1579.951,855.567c19.516,30.358,46.447,50.603,77.706,67.767c15.622,8.577,31.641,16.411,47.181,25.14
				c17.227,9.676,32.282,21.395,48.31,32.8c1.558,1.108,3.238-1.214,2.02-2.543c-22.567-24.614-57.396-38.938-86.602-53.862
				c-34.294-17.524-65.254-37.777-87.794-69.762C1580.43,854.622,1579.618,855.05,1579.951,855.567L1579.951,855.567z"/>
		</g>
		<g>
			<path fill="#325588" d="M1578.985,855.676c9.473,21.764,25.012,41.518,44.714,54.819c22.143,14.948,48.044,22.988,72.634,32.84
				c2.078,0.833,3.054-2.52,0.984-3.337c-23.054-9.102-47.141-16.572-68.324-29.733c-21.782-13.533-36.252-33.272-48.616-55.37
				C1579.866,853.982,1578.582,854.751,1578.985,855.676L1578.985,855.676z"/>
		</g>
		<g>
			<path fill="#325588" d="M1578.982,855.36c10.69,7.943,22.612,14.064,33.581,21.61c11.141,7.666,21.327,16.663,31.797,25.202
				c17.308,14.116,34.46,28.54,53.323,40.564c1.669,1.063,3.26-1.574,1.587-2.628c-41.678-26.254-75.08-63.869-119.653-85.799
				C1578.903,853.957,1578.347,854.888,1578.982,855.36L1578.982,855.36z"/>
		</g>
		<g>
			<path fill="#325588" d="M1579.457,855.446c24.976,11.26,49.65,20.559,70.397,39.174c9.782,8.777,17.894,19.199,27.494,28.172
				c9.416,8.801,19.534,16.961,29.924,24.583c1.296,0.951,3.027-1.187,1.768-2.225c-11.035-9.088-22.499-17.614-32.801-27.561
				c-10.45-10.088-19.498-21.337-30.925-30.414c-18.732-14.879-42.09-27.204-65.546-32.435
				C1579.367,854.651,1579.031,855.253,1579.457,855.446L1579.457,855.446z"/>
		</g>
		<g>
			<path fill="#325588" d="M1717.809,954.988c-22.089-10.561-43.127-8.946-67.012-10.338c-27.547-1.606-54.26-7.485-78.254-21.5
				c-0.382,0.867-0.764,1.733-1.146,2.6c18.842,5.597,37.826,2.903,57.146,3.337c22.584,0.508,44.402,6.132,65.45,14.021
				c1.73,0.649,2.528-2.104,0.81-2.748c-18.433-6.909-37.494-12.164-57.184-13.694c-21.926-1.703-43.952,2.71-65.411-3.664
				c-1.548-0.46-2.565,1.771-1.145,2.6c19.861,11.601,42.015,17.545,64.782,20.008c12.05,1.304,24.122,1.471,36.228,1.526
				c16.283,0.073,30.056,3.055,44.968,9.598C1718.031,957.169,1718.794,955.459,1717.809,954.988L1717.809,954.988z"/>
		</g>
		<g>
			<path fill="#325588" d="M1816.552,748.828c-13.245,30.975-34.618,55.182-51.921,83.626c-15.505,25.487-25.781,54-33.446,82.72
				c-0.408,1.527,1.902,2.212,2.355,0.695c9.356-31.311,20.653-61.814,38.276-89.527c16.179-25.441,34.421-48.934,45.246-77.364
				C1817.186,748.654,1816.684,748.52,1816.552,748.828L1816.552,748.828z"/>
		</g>
		<g>
			<path fill="#325588" d="M1815.771,747.983c-11.573,19.913-25.678,37.057-38.863,55.844
				c-12.28,17.497-20.845,36.793-25.977,57.517c-0.424,1.711,2.208,2.491,2.63,0.775c5.583-22.675,15.411-43.413,29.437-62.075
				c12.149-16.165,28.01-31.748,34.333-51.373C1817.631,747.743,1816.263,747.138,1815.771,747.983L1815.771,747.983z"/>
		</g>
		<g>
			<path fill="#325588" d="M1815.702,751.013c-8.337,21.003-15.055,43.771-28.807,62.011c-12.95,17.176-27.624,31.95-37.612,51.317
				c-0.852,1.652,1.468,3.092,2.487,1.502c12.396-19.332,27.565-36.251,40.399-55.157c11.901-17.531,18.727-39.237,24.474-59.395
				C1816.821,750.672,1815.931,750.435,1815.702,751.013L1815.702,751.013z"/>
		</g>
		<g>
			<path fill="#325588" d="M1815.572,749.241c-16.353,21.184-40.832,33.442-53.342,57.9c-4.925,9.63-8.38,19.988-10.767,30.52
				c-2.852,12.585-2.801,25.89-6.79,38.15c-0.353,1.085,1.326,1.869,1.857,0.818c4.726-9.356,4.457-20.039,6.24-30.205
				c2.399-13.675,6.371-27.221,12.928-39.507c12.468-23.359,36.349-35.554,50.398-57.36
				C1816.317,749.218,1815.807,748.936,1815.572,749.241L1815.572,749.241z"/>
		</g>
		<g>
			<path fill="#325588" d="M1751.66,842.618c2.483-14.127,0.969-26.905-1.705-40.876c-3.885-20.3-4.024-37.027,5.464-55.803
				c0.518-1.025,4.61-9.237,4.981-9.135c-1.369-0.374-1.127,1.916-1.142,2.636c-0.181,8.49-1.661,16.827-1.434,25.396
				c0.426,16.008,4.066,31.549,2.323,47.61c-0.185,1.703,2.371,1.694,2.619,0.07c1.666-10.908,0.076-21.457-1.175-32.31
				c-1.836-15.925-1.753-31.444,1-47.266c0.213-1.221-1.387-2.152-2.11-0.93c-8.714,14.723-17.05,29.86-16.502,47.49
				c0.665,21.407,8.263,41.189,6.76,62.973C1750.703,842.994,1751.567,843.149,1751.66,842.618L1751.66,842.618z"/>
		</g>
		<g>
			<path fill="#325588" d="M1656.13,711.536c7.743,17.586,20.675,32.382,29.127,49.637c6.676,13.63,14.979,26.31,19.332,40.97
				c3.935,13.252,9.227,25.326,14.696,38.026c0.613,1.424,2.714,0.236,2.107-1.182c-6.258-14.594-11.063-29.252-16.482-44.097
				c-4.463-12.228-11.839-23.244-17.601-34.867c-8.563-17.274-20.702-32.323-30.393-48.926
				C1656.619,710.587,1655.9,711.013,1656.13,711.536L1656.13,711.536z"/>
		</g>
		<g>
			<path fill="#325588" d="M1655.738,711.048c14.119,14.739,29.805,28.567,41.42,45.49c16.255,23.682,21.844,54.357,22.34,82.582
				c0.025,1.417,2.182,1.488,2.21,0.059c1.028-51.953-23.741-98.174-65.439-128.798
				C1655.868,710.086,1655.408,710.704,1655.738,711.048L1655.738,711.048z"/>
		</g>
		<g>
			<path fill="#325588" d="M1656.155,712.536c5.157,12.231,7.255,25.707,12.06,38.161c4.107,10.645,8.78,21.089,13.883,31.292
				c11.237,22.465,25.87,42.84,38.166,64.707c0.659,1.173,2.436,0.173,1.821-1.021c-11.51-22.34-26.692-42.324-37.956-64.825
				c-6.136-12.258-11.858-24.783-16.53-37.678c-3.725-10.283-5.494-21.391-10.73-31.035
				C1656.612,711.662,1655.955,712.062,1656.155,712.536L1656.155,712.536z"/>
		</g>
		<g>
			<path fill="#325588" d="M1662.204,723.238c4.92,15.749,13.972,30.648,20.431,45.863c4.957,11.678,9.877,23.513,16.138,34.563
				c6.714,11.85,15.26,22.273,21.016,34.698c0.47,1.014,2.213,0.343,1.848-0.731c-3.741-11.017-11.121-19.75-17.224-29.498
				c-7.116-11.366-12.425-23.73-17.774-35.991c-7.3-16.735-17.18-32.281-24.36-48.934
				C1662.261,723.166,1662.19,723.194,1662.204,723.238L1662.204,723.238z"/>
		</g>
		<g>
			<path fill="#325588" d="M1715.151,835.243c-20.779-30.674-63.382-36.355-84.932-65.768c-1.759-2.315-3.383-4.722-4.871-7.221
				c-1.785,0.102-1.701,0.662,0.251,1.682c2.087,1.831,4.153,3.659,6.353,5.354c5.574,4.293,11.531,7.769,17.942,10.628
				c19.457,8.678,36.354,15.975,49.85,33.324c1.049,1.348,2.953-0.514,1.908-1.854c-8.734-11.198-20.049-20.428-32.917-26.5
				c-16.588-7.827-33.06-12.713-45.924-26.648c-0.893-0.967-2.486,0.233-1.841,1.374c9.59,16.979,21.528,26.914,38.127,36.827
				c20.05,11.974,38.29,23.068,55.177,39.458C1714.702,836.315,1715.516,835.783,1715.151,835.243L1715.151,835.243z"/>
		</g>
		<g>
			<path fill="#325588" d="M1701.242,940.804c-4.164-17.702-10.772-36.312-20.385-51.855c-3.983-6.44-8.916-11.626-13.939-17.249
				c-8.854-9.913-13.714-19.719-18.907-31.827c-0.349-0.813-1.755-0.452-1.7,0.42c1.215,19.109,6.854,36.321,17.874,52.085
				c10.788,15.431,19.602,32.562,32.467,46.447c0.837,0.904,2.094-0.382,1.35-1.312c-10.551-13.203-17.85-27.84-28.063-41.123
				c-6.305-8.199-11.607-16.749-15.467-26.351c-1.916-4.764-3.548-9.571-4.659-14.594c-0.828-3.743-4.777-14.654-1.161-8.15
				c3.541,6.37,5.562,13.221,10.152,19.156c5.493,7.103,12.602,12.585,17.797,19.992c11.431,16.297,17.161,36,23.37,54.676
				C1700.233,941.909,1701.437,941.636,1701.242,940.804L1701.242,940.804z"/>
		</g>
		<g>
			<path fill="#325588" d="M1928.162,1180.925c-4.717-21.175-6.707-42.644-5.212-64.317c0.836-12.123,2.633-24.193,5.477-36.01
				c0.817-3.394,3.712-9.875,3.641-13.307c-0.176-8.521-3.288,14.18-1.918,4.065c-0.554,4.092,1.465,9.795,2,13.859
				c0.839,6.367,1.349,12.802,1.451,19.223c0.161,10.151-0.713,20.209-2.191,30.247c-2.5,16.983-6.436,34.928-2.128,51.918
				c0.43,1.698,2.933,1.051,2.622-0.648c-3.51-19.195,1.016-37.89,3.254-56.936c1.147-9.765,1.546-19.593,1.023-29.417
				c-0.632-11.88-4.996-25-2.71-36.691c0.309-1.582-1.927-2.301-2.436-0.719c-12.208,38.003-15.518,80.405-4.78,119.204
				C1926.592,1182.614,1928.438,1182.161,1928.162,1180.925L1928.162,1180.925z"/>
		</g>
	</g>
	<path opacity="0.2" fill="#325588" d="M2141.64-151.657c-27.149,31.741-55.844,62.076-86.76,90.131
		c-1.685,1.068-3.357,2.152-5.001,3.282c-1.803,1.238-3.593,2.499-5.34,3.815c-0.818,0.616-1.614,1.265-2.406,1.914
		c-0.92,0.755-1.621,1.665-2.471,2.482c-0.112,0.107-0.106,0.237-0.062,0.353c-0.928,1.035-1.894,2.024-2.901,2.957
		c-3.721,2.294-8.198,3.404-12.612,3.437c-1.928,0.014-3.84-0.152-5.742-0.414c-0.303-0.04-0.606-0.08-0.908-0.121
		c-6.294-0.987-12.454-3.149-18.553-4.792c-15.679-4.224-31.661-7.321-47.778-9.298c-16.099-1.975-32.323-2.839-48.541-2.564
		c-16.221,0.275-32.413,1.687-48.441,4.191c-14.842,2.319-29.53,5.613-43.943,9.848c-1.179,0.264-2.361,0.513-3.533,0.804
		c-1.985,0.492-3.93,1.027-5.865,1.69c-0.433,0.148-0.602,0.611-0.535,1.004c-0.278,0.662,0.058,1.538,0.746,1.735
		c0.167,0.255,0.441,0.432,0.85,0.396c4.411-0.391,8.858-0.416,13.283-0.108c0.067,0.01,0.134,0.017,0.201,0.027
		c4.588,0.703,9.13,1.705,13.615,2.896c5.829,1.548,11.565,3.413,17.278,5.344c0.466,0.223,0.933,0.443,1.395,0.673
		c0.192,0.095,0.369,0.059,0.504-0.034c2.421,0.825,4.84,1.656,7.26,2.481c17.558,5.986,35.456,10.777,53.856,13.321
		c18.238,2.523,36.802,2.993,55.086,0.672c16.167-2.052,32.019-6.29,46.971-12.789c1.03-0.448,2.042-0.936,3.061-1.406
		c0.76-0.187,1.524-0.365,2.282-0.561c0.87-0.226,1.721-0.496,2.566-0.785c-31.052,25.001-64.005,47.661-98.859,67.028
		c-5.58,3.101-11.211,6.111-16.883,9.038l-0.245-0.034c-12.673,1.189-25.317,2.806-37.95,4.464c-0.064-0.189-0.22-0.35-0.453-0.348
		c-5.841,0.052-11.626,0.22-17.446-0.461c-5.746-0.673-11.423-1.859-16.963-3.527c-9.952-2.996-19.405-7.477-28.215-12.975
		c0.058-0.159,0.087-0.331,0.057-0.503c-0.11-0.629-0.573-1.03-1.167-1.198c-0.11-0.031-0.208-0.026-0.3-0.008
		c-1.767-3.12-3.304-6.356-4.545-9.728c-1.451-3.94-2.556-7.99-3.634-12.043c-2.149-8.08-4.259-16.104-8.06-23.598
		c-7.28-14.354-19.067-26.354-33.094-34.198c-7.845-4.387-16.434-7.463-25.304-8.936l-0.082-0.117
		c-0.637-0.921-1.989-0.15-1.554,0.841l-0.088,0.389c0,16.031,4.283,31.995,12.187,45.935c8.472,14.942,21.167,27.248,36.267,35.416
		c8.799,4.76,18.361,8.11,28.219,9.819l0.328-0.009c7.747,4.769,15.99,8.749,24.614,11.64c9.27,3.108,19.071,4.931,28.872,4.964
		c-1.37,0.179-2.74,0.362-4.109,0.539c-2.951-0.065-5.909,0.144-8.853,0.519c-1.664-0.038-3.328-0.101-4.986-0.158
		c-1.053-0.035-2.105-0.106-3.157-0.167c-0.135-0.096-0.301-0.163-0.528-0.147c-0.295,0.021-0.591,0.05-0.886,0.072
		c-1.829-0.125-3.656-0.276-5.48-0.461c-0.781-0.079-1.558-0.183-2.337-0.273c-0.093-0.191-0.255-0.339-0.51-0.368
		c-2.5-0.283-5.008-0.509-7.518-0.725c-3.252-0.513-6.495-1.09-9.731-1.702c-13.33-2.521-26.529-5.733-39.943-7.802
		c-14.222-2.194-28.6-2.993-42.949-3.862c-14.322-0.868-28.674-1.848-42.796-4.505c-14.004-2.635-27.83-6.883-40.214-14.052
		c-1.541-0.892-3.053-1.83-4.543-2.805c-0.666-0.436-1.681,0.038-1.829,0.8c-0.172,0.887-0.344,1.775-0.516,2.663
		c-0.117,0.606,0.172,1.055,0.586,1.299c1.946,3.284,4.11,6.425,6.442,9.435c6.902,10.76,15.404,20.513,25.246,28.654
		c13.083,10.824,28.469,18.744,44.991,22.748c16.15,3.914,32.824,3.816,48.967-0.041c14.713-3.515,28.669-9.502,42.727-14.968
		c9.749-3.79,19.636-7.295,29.813-9.596c2.131-0.291,4.262-0.58,6.393-0.863c19.157-2.547,38.325-5.023,57.45-7.797
		c1.174-0.17,2.343-0.362,3.514-0.541c-36.371,18.492-74.572,33.348-114.128,43.481c-33.376,8.55-67.623,13.826-102.044,15.477
		c-9.478-1.028-18.853-2.863-28.016-5.633c-7.997-2.418-15.778-5.542-23.261-9.264l-0.025-0.182
		c-1.87-5.122-3.969-10.056-6.451-14.915c-2.498-4.89-5.216-9.671-8.167-14.302c-5.875-9.218-12.581-17.914-19.974-25.965
		c-7.402-8.062-15.505-15.479-24.188-22.141c-8.681-6.66-17.915-12.593-27.62-17.65c-9.654-5.03-19.766-9.204-30.171-12.409
		c-1.325-0.409-2.656-0.8-3.991-1.177c-0.332-0.094-0.611-0.035-0.835,0.1l-0.314-0.1c-0.587-0.165-1.004,0.491-0.836,0.965
		l-0.331-0.183c-0.525-0.262-1.163,0.468-0.654,0.874c2.18,1.744,4.442,3.388,6.558,5.216c2.081,1.796,4.045,3.727,5.899,5.755
		c3.842,4.201,7.204,8.814,10.267,13.607c6.247,9.774,11.215,20.284,16.817,30.426c5.514,9.981,11.757,19.545,19.984,27.52
		c7.877,7.635,17.148,13.846,27.174,18.291c10.031,4.447,20.809,7.148,31.766,7.83c1.161,0.072,2.324,0.109,3.487,0.135
		c6.327,3.155,12.87,5.877,19.581,8.106c7.323,2.433,14.829,4.271,22.432,5.496c-10.151,0.259-20.31,0.218-30.46-0.173
		c-0.207-0.008-0.414-0.022-0.62-0.03c-0.224-0.096-0.454-0.179-0.734-0.245c-0.595-0.142-1.191-0.276-1.789-0.404
		c-1.196-0.256-2.402-0.465-3.611-0.653c-1.191-0.185-2.39-0.37-3.592-0.466c-1.233-0.098-2.407-0.043-3.638,0.049
		c-0.234,0.017-0.35,0.215-0.343,0.404c-1.13-0.067-2.26-0.133-3.389-0.247c-2.462-0.248-4.911-0.639-7.337-1.13
		c-4.862-0.983-9.63-2.392-14.298-4.064c-9.696-3.473-18.909-8.119-28.122-12.686c-9.658-4.788-19.413-9.517-29.699-12.822
		c-9.743-3.131-19.891-4.632-30.093-5.154c-5.65-0.289-11.306-0.28-16.959-0.118c-2.89,0.083-5.783,0.179-8.669,0.36
		c-1.884,0.118-3.801,0.164-5.679,0.416l-0.05-0.01c-0.255-0.049-0.464,0.001-0.627,0.102l-0.156,0.021l-0.086,0.02
		c-0.598,0.106-1.194,0.226-1.778,0.4c-0.308,0.092-0.324,0.581,0.013,0.646c0.269,0.052,0.54,0.069,0.809,0.106
		c0.012,0.187,0.06,0.381,0.201,0.579c0.891,1.26,1.795,2.512,2.708,3.758l0.041,0.178c0.385,0.501,0.791,0.982,1.186,1.473
		c5.495,7.373,11.406,14.446,18.018,20.843c8.049,7.787,17.189,14.651,27.422,19.294c10.47,4.75,21.818,6.844,33.283,6.902
		c11.826,0.06,23.556-1.944,35.026-4.685c5.867-1.402,11.702-2.963,17.5-4.629c3.043-0.874,6.086-1.751,9.129-2.628
		c2.567-0.739,5.159-1.45,7.706-2.27c0.169,0.123,0.396,0.171,0.637,0.049c0.368-0.186,0.747-0.344,1.132-0.489
		c0.491,0.061,0.983,0.123,1.478,0.161c0.537,0.041,0.794-0.361,0.809-0.791c0.165-0.032,0.329-0.074,0.495-0.1
		c16.886,0.803,33.81,0.687,50.687-0.303c1.681,0.066,3.364,0.112,5.048,0.116c1.866,0.004,3.734-0.098,5.597-0.202
		c0.402-0.022,0.539-0.41,0.423-0.692c14.227-1.155,28.407-2.912,42.486-5.258c-3.546,0.999-7.084,2.023-10.616,3.069
		c-7.11,1.299-14.263,2.346-21.422,3.333c-15.378,2.121-30.827,4.06-45.878,7.973c-14.545,3.781-28.673,9.47-40.873,18.367
		c-11.977,8.735-21.844,19.943-30.3,32.049c-8.57,12.271-15.75,25.465-22.556,38.776c-0.382,0.748-0.748,1.504-1.118,2.26
		c0.355,0.457,0.705,0.921,1.021,1.405l0.027-0.049c2.496-1.588,4.99-3.182,7.554-4.659c0.23-0.128,0.461-0.254,0.69-0.384
		c3.3-1.872,6.679-3.602,10.117-5.203c7.216-3.36,14.663-6.21,22.142-8.922c15.012-5.443,30.309-10.326,44.586-17.57
		c7.422-3.766,14.386-8.236,20.917-13.396c6.964-5.503,13.419-11.609,19.861-17.703c6.443-6.097,12.889-12.214,19.841-17.736
		c6.896-5.478,14.358-10.157,22.257-14.047c15.705-7.735,32.702-12.466,49.582-16.865c2.062-0.537,4.099-1.091,6.128-1.743
		c0.359-0.115,0.582-0.333,0.697-0.587c37.303-10.269,73.414-24.617,107.867-42.274c-4.402,4.154-9.105,7.929-14.246,11.185
		c-6.349,4.02-13.1,7.376-19.921,10.513c-4.156,1.911-8.351,3.76-12.541,5.621c-0.24,0.028-0.479,0.059-0.709,0.087
		c-1.152,0.14-2.293,0.362-3.414,0.666c-2.307,0.627-4.517,1.57-6.657,2.627c-0.075,0.037-0.148,0.079-0.222,0.116
		c-0.273-0.012-0.543,0.082-0.744,0.349c-0.016,0.022-0.032,0.044-0.049,0.066c-2.086,1.075-4.141,2.222-6.214,3.332
		c-3.774,1.203-7.485,2.618-11.113,4.223c-0.85,0.129-1.703,0.245-2.538,0.44c-0.359,0.084-0.339,0.593-0.022,0.712
		c-3.823,1.802-7.545,3.806-11.139,5.975c-11.13,6.717-21.243,15.138-29.821,24.907c-8.792,10.014-15.95,21.417-21.044,33.735
		c-5.243,12.678-8.376,26.165-9.334,39.85c-0.96,13.707,0.303,27.592,3.838,40.876c0.434,1.631,0.905,3.251,1.406,4.863
		c0.385,1.238,2.104,0.928,2.279-0.105c0.353,0.414,1.153,0.429,1.24-0.24c0.115-0.893,0.195-1.79,0.296-2.685
		c9.063-5.885,17.436-13.053,24.799-20.925c8.292-8.864,15.112-18.925,19.984-30.054c5.25-11.994,8.507-24.717,11.728-37.369
		c3.021-11.866,6.048-23.785,10.775-35.111c4.436-10.629,10.336-20.809,18.647-28.888c0.765-0.744,1.548-1.47,2.328-2.2
		c2.276-1.069,4.567-2.111,6.858-3.15c0.507-0.015,1.004-0.059,1.447-0.36c0.147-0.1,0.254-0.267,0.325-0.448
		c2.302-1.04,4.605-2.076,6.899-3.124c13.409-6.12,27.335-12.898,37.614-23.758c1.107-1.169,2.109-2.421,3.079-3.702
		c41.537-21.657,80.528-47.987,116.848-77.536c-1.405,1.73-2.808,3.461-4.217,5.178c-6.122,7.461-12.203,14.955-18.171,22.54
		c-7.957,10.113-15.729,20.373-23.254,30.813c-4.619,5.225-9.142,10.536-13.571,15.913c-9.544,11.586-18.625,23.579-26.781,36.188
		c-7.759,11.997-14.667,24.554-20.24,37.719c-5.365,12.673-9.56,25.866-12.099,39.401c-2.5,13.323-3.408,26.976-2.267,40.495
		c-0.034,0.335-0.087,0.668-0.118,1.003c-0.216,2.299-0.416,4.6-0.582,6.903c-0.079,1.092,1.794,1.315,1.93,0.21l0.043-0.324
		c11.318-8.166,21.309-18.075,29.978-29.002c8.716-10.987,16.106-23.018,21.883-35.799c6.004-13.283,10.059-27.216,13.059-41.459
		c2.772-13.161,4.878-26.456,7.729-39.6c1.693-5.405,3.421-10.8,5.257-16.159c2.295-6.699,4.82-13.304,7.315-19.93
		c0.439-1.164,0.842-2.34,1.241-3.518c5.662-9.843,11.785-19.433,18.365-28.637c1.068-1.494,2.164-2.968,3.263-4.439
		c1.543-1.939,3.079-3.882,4.628-5.816c2.04-2.546,4.105-5.076,6.168-7.608c5.609-6.485,11.568-12.661,17.923-18.427
		c3.499-2.637,6.885-5.428,10.118-8.405c1.506-1.387,2.967-2.813,4.385-4.289c0.217-0.225,0.3-0.471,0.323-0.713
		c0.5-0.452,0.989-0.914,1.488-1.366c0.402-0.243,0.802-0.491,1.206-0.732c0.895-0.533,1.974-0.974,2.531-1.888
		c0.165-0.271,0.15-0.579,0.03-0.84c24.484-22.516,47.683-46.437,69.579-71.465c4.044-4.623,8.036-9.287,11.97-14.005
		C2144.587-151.104,2142.743-152.946,2141.64-151.657z M1788.725,16.303c-3.173-7.194-6.272-14.406-9.86-21.408
		c-7.207-14.068-16.105-27.353-28.008-37.888c-0.175-0.155-0.358-0.303-0.534-0.456c0.18,0.133,0.368,0.254,0.547,0.388
		c5.81,4.357,11.176,9.307,15.948,14.782c4.765,5.468,8.964,11.429,12.5,17.763c3.657,6.55,6.355,13.511,8.934,20.538
		c1.401,3.816,2.901,7.624,4.662,11.289c0.335,0.696,0.687,1.39,1.041,2.082c-0.181-0.169-0.348-0.35-0.535-0.514
		c-0.969-0.851-1.902-1.741-2.836-2.63C1789.925,18.952,1789.31,17.629,1788.725,16.303z M1787.79,17.491
		c-1.818-1.853-3.598-3.744-5.3-5.704c-4.625-5.327-8.815-11.009-12.868-16.777c-8.071-11.485-15.589-23.407-24.555-34.234
		c-4.553-5.498-9.491-10.739-15.088-15.186c6.561,2.97,12.686,6.627,18.276,11.228c6.121,5.038,11.513,10.944,16.229,17.306
		c9.496,12.811,16.154,27.257,22.584,41.766C1787.303,16.418,1787.544,16.953,1787.79,17.491z M1781.627-15.547
		c3.912,7.231,6.226,15.003,8.377,22.899c0.926,3.399,1.875,6.904,3.029,10.335c-0.954-2.24-1.878-4.494-2.788-6.756
		c-2.766-6.867-5.374-13.796-8.855-20.344c-6.857-12.897-16.478-24.37-27.855-33.518c-3.184-2.56-6.513-4.943-9.971-7.119
		c-0.669-0.421-1.351-0.845-2.033-1.265c9.566,3.874,18.355,9.653,25.766,16.875C1772.985-28.897,1777.847-22.534,1781.627-15.547z
		 M1728.256-54.996c5.26,4.436,10.128,9.306,14.549,14.579c4.559,5.438,8.677,11.214,12.651,17.088
		c7.88,11.649,15.163,23.717,24.083,34.627c2.467,3.017,5.046,5.955,7.807,8.707c0.781,0.778,1.597,1.521,2.409,2.268l0.049,0.085
		c0.43,0.494,0.86,0.987,1.29,1.482c0.221,0.364,0.447,0.724,0.679,1.079c-7.256-5.549-13.955-11.802-20.165-18.512
		c-8.419-9.098-15.931-18.994-22.922-29.219c-7.028-10.279-13.4-20.954-19.985-31.514
		C1728.558-54.552,1728.406-54.774,1728.256-54.996z M1755.551,9.146c-11.776-10.89-20.395-24.931-24.988-40.286
		c-2.13-7.12-3.371-14.474-3.703-21.89c2.318,4.091,4.813,8.08,7.292,12.079c3.337,5.383,6.738,10.729,10.261,15.993
		c6.974,10.421,14.442,20.536,22.792,29.901c8.164,9.155,17.17,17.548,27.209,24.618c0.646,0.455,1.307,0.89,1.962,1.334
		C1781.197,27.287,1767.02,19.751,1755.551,9.146z M1680.31,42.19c11.683,4.389,23.822,7.551,36.104,9.73
		c12.166,2.158,24.484,3.365,36.822,3.938c12.412,0.577,24.851,0.513,37.268,0.143c11.045-0.329,22.082-1.003,33.093-1.938
		c-1.482,0.375-2.955,0.779-4.41,1.214c-0.233,0.07-0.462,0.152-0.694,0.223c-9.035,1.155-18.075,2.261-27.13,3.198
		c-17.649,1.827-35.432,2.804-53.118,0.879c-17.137-1.865-34.052-6.129-50.037-12.578c-8.305-3.351-16.299-7.323-24.006-11.795
		C1669.444,37.811,1674.831,40.132,1680.31,42.19z M1814.43,52.89c-6.288,0.442-12.582,0.792-18.879,1.05
		c-12.396,0.508-24.805,0.749-37.208,0.437c-12.339-0.31-24.679-1.18-36.896-2.967c-12.277-1.796-24.413-4.522-36.18-8.475
		c-11.869-3.988-23.173-9.305-33.835-15.863c-0.579-0.357-1.146-0.733-1.72-1.098c-1.452-1.012-2.899-2.033-4.328-3.081
		c0.065,0.032,0.132,0.061,0.197,0.093c9.107,5.728,18.94,10.217,29.127,13.679c11.485,3.903,23.322,6.586,35.309,8.395
		c11.939,1.802,23.988,2.756,36.043,3.329c12.205,0.58,24.422,0.807,36.635,1.133c9.077,0.242,18.163,0.544,27.224,1.174
		c3.705,0.633,7.421,1.199,11.151,1.657C1818.857,52.54,1816.645,52.734,1814.43,52.89z M1717.761,38.38
		c14.498,0.946,29.045,1.526,43.465,3.382c12.35,1.589,24.513,4.267,36.716,6.697c-3.369-0.141-6.736-0.263-10.1-0.368
		c-12.151-0.379-24.308-0.512-36.457-0.933c-12.141-0.421-24.286-1.117-36.344-2.636c-11.914-1.501-23.753-3.779-35.263-7.226
		c-9.27-2.776-18.282-6.437-26.815-11.005c7.019,2.852,14.319,5.039,21.71,6.69C1688.831,36.145,1703.312,37.438,1717.761,38.38z
		 M1636.841,18.721c1.582,1.425,3.091,2.971,4.752,4.299c1.656,1.325,3.347,2.605,5.056,3.862c3.552,2.614,7.233,5.06,10.978,7.389
		c7.428,4.62,15.176,8.723,23.168,12.279c15.875,7.063,32.691,12.011,49.882,14.554c17.692,2.618,35.545,2.403,53.322,0.809
		c7.794-0.699,15.572-1.609,23.34-2.605c-3.027,1.105-6.048,2.226-9.092,3.283c-14.101,4.894-28.75,8.233-43.62,9.619
		c-14.759,1.376-29.738,0.812-44.253-2.294c-14.323-3.065-28.116-8.577-40.511-16.395c-8.455-5.332-16.17-11.759-22.911-19.101
		c-2.642-3.548-5.123-7.218-7.415-11.004C1638.602,21.873,1637.713,20.302,1636.841,18.721z M1635.602,19.822
		c0.004-0.001,0.008-0.001,0.012-0.001c0.021,0.04,0.044,0.077,0.065,0.117C1635.653,19.899,1635.627,19.86,1635.602,19.822z
		 M1766.637,76.471c-7.216,2.12-14.597,3.744-22.095,4.435c-8.5,0.784-17.096,0.433-25.513-0.975
		c-16.81-2.813-32.762-9.723-46.481-19.809c-7.15-5.257-13.611-11.347-19.408-18.023c3.506,3.195,7.198,6.188,11.064,8.924
		c11.973,8.474,25.517,14.737,39.669,18.566c14.379,3.89,29.45,5.341,44.316,4.716c15-0.63,29.914-3.361,44.257-7.771
		c7.792-2.396,15.444-5.558,23.244-8.109c-2.334,0.795-4.662,1.606-6.971,2.466C1794.705,66.111,1781.008,72.25,1766.637,76.471z
		 M1569.361,12.598c8.703,6.381,16.846,13.541,24.323,21.322c7.514,7.821,14.348,16.287,20.375,25.304
		c2.996,4.482,5.809,9.091,8.409,13.814c2.603,4.729,4.836,9.624,7.247,14.448c0.377,0.755,0.727,1.521,1.084,2.284
		c-0.219-0.112-0.432-0.234-0.65-0.348c-9.624-13.611-19.58-26.985-30.012-39.988c-5.418-6.754-11.001-13.378-16.819-19.791
		c-5.812-6.405-11.722-12.697-18.044-18.605c-1.752-1.637-3.52-3.269-5.318-4.865C1563.151,8.225,1566.298,10.352,1569.361,12.598z
		 M1546.461-1.74c0.907,0.48,1.8,0.988,2.699,1.483c1.245,0.766,2.449,1.599,3.611,2.487c3.41,2.609,6.637,5.476,9.822,8.351
		c6.316,5.7,12.492,11.644,18.272,17.887c11.598,12.526,22.225,25.892,32.451,39.548c5.13,6.852,10.206,13.746,15.331,20.602
		c-0.693-0.371-1.392-0.732-2.08-1.113c-2.282-1.679-4.477-3.466-6.544-5.441c-3.368-3.218-6.44-6.73-9.393-10.328
		c-6.248-7.613-12.172-15.48-18.473-23.053c-6.475-7.783-13.095-15.447-19.856-22.983c-6.709-7.48-13.492-14.935-20.499-22.138
		c-1.808-1.859-3.714-3.717-5.719-5.483C1546.21-1.862,1546.335-1.8,1546.461-1.74z M1526.232-10.846l0.321,0.069
		c4.15,1.583,8.24,3.321,12.262,5.211c3.69,2.403,7.09,5.336,10.302,8.392c7.255,6.899,14.01,14.353,20.724,21.773
		c6.712,7.418,13.286,14.959,19.72,22.619c6.376,7.591,12.546,15.344,18.821,23.017c3.302,4.038,6.663,8.032,10.405,11.673
		c1.03,1.002,2.093,1.986,3.187,2.941c-2.169-1.303-4.311-2.65-6.406-4.069c-12.826-8.689-23.761-19.484-33.572-31.424
		c-10.021-12.195-19.049-25.197-29.547-37.002C1544.785,3.736,1536.13-4.643,1526.232-10.846z M1618.545,89.071
		c-6.426-1.073-12.737-2.831-18.784-5.261c-10.106-4.062-19.514-9.878-27.584-17.2c-8.399-7.622-14.901-16.816-20.523-26.613
		c-5.73-9.987-10.626-20.439-16.694-30.234c-1.493-2.411-3.069-4.814-4.734-7.166c8.149,8.87,15.626,18.395,23.048,27.845
		c12.897,16.422,26.111,32.995,42.934,45.613C1603.053,81.187,1610.564,85.783,1618.545,89.071z M1622.097,89.593
		c-3.354-1.231-6.659-2.617-9.811-4.265c-4.568-2.387-8.926-5.156-13.093-8.185c-8.514-6.189-16.197-13.471-23.307-21.212
		c-14.01-15.252-25.719-32.404-39.103-48.181c-6.801-8.016-14.065-15.634-22.151-22.357c5.556,2.804,10.933,5.84,15.968,9.589
		c6.305,4.694,12.048,10.12,17.397,15.868c10.8,11.605,19.924,24.61,29.821,36.961c9.677,12.077,20.263,23.217,32.849,32.3
		c5.068,3.657,10.382,6.964,15.873,9.944C1625.055,89.942,1623.574,89.779,1622.097,89.593z M1496.384,70.245
		c5.081-0.112,10.168-0.122,15.248,0.055c10.182,0.355,20.356,1.581,30.157,4.445c19.17,5.601,36.156,16.489,54.522,24.086
		c-1.063-0.226-2.13-0.44-3.193-0.669c-3.936-1.121-7.812-2.441-11.654-3.848c-7.72-2.827-15.352-5.885-23.054-8.761
		c-15.241-5.691-30.768-11.281-47.035-13.083c-4.485-0.497-8.992-0.769-13.484-1.203c-2.351-0.227-4.697-0.475-7.031-0.846
		l-0.14-0.027C1492.609,70.343,1494.496,70.287,1496.384,70.245z M1495.497,72.926c4.119,0.436,8.26,0.61,12.389,0.908
		c8.196,0.59,16.275,1.894,24.223,3.982c15.942,4.187,31.013,10.883,46.485,16.453c1.775,0.639,3.557,1.259,5.34,1.875
		c-1.78-0.394-3.562-0.776-5.34-1.174c-9.815-2.195-19.6-4.485-29.348-6.963c-9.738-2.475-19.501-4.908-29.188-7.578
		c-5.436-1.498-10.844-3.112-16.246-4.726c-3.118-0.932-6.225-1.934-9.344-2.888C1494.811,72.85,1495.157,72.89,1495.497,72.926z
		 M1491.146,72.562c3.553,1.179,7.167,2.203,10.742,3.282c4.813,1.453,9.634,2.88,14.464,4.275
		c9.725,2.81,19.408,5.725,29.191,8.332c19.432,5.177,38.981,9.903,58.651,14.085c0.73,0.155,1.462,0.303,2.192,0.457
		c-35.72-4.244-70.939-12.767-104.406-25.99C1498.348,75.569,1494.74,74.081,1491.146,72.562z M1604.642,115.453
		c-11.329,2.886-22.857,5.242-34.567,5.725c-11.302,0.466-22.7-0.847-33.305-4.919c-10.374-3.983-19.657-10.375-27.807-17.861
		c-2.417-2.219-4.733-4.543-6.979-6.933c10.07,7.631,21.65,13.306,33.716,17.132c20.682,6.558,42.641,7.333,64.113,5.361
		c6.067-0.557,12.105-1.352,18.121-2.313c0.802-0.128,1.604-0.262,2.407-0.394C1615.112,112.668,1609.891,114.116,1604.642,115.453z
		 M1619.804,109.711c-5.324,0.905-10.671,1.685-16.034,2.325c-10.71,1.276-21.492,1.861-32.275,1.432
		c-20.847-0.828-41.708-5.661-59.796-16.329c-4.457-2.628-8.699-5.617-12.677-8.917c-3.892-4.386-7.554-8.98-11.03-13.695
		c2.846,2.829,6.084,5.33,9.349,7.593c4.13,2.861,8.481,5.399,12.972,7.648c9.018,4.516,18.578,7.896,28.289,10.577
		c19.781,5.459,40.34,8.522,60.846,9.19c7.852,0.256,15.721,0.087,23.566-0.418C1621.943,109.314,1620.877,109.528,1619.804,109.711
		z M1573.021,105.774c-20.007-2.487-40.272-6.874-58.665-15.33c-5.078-2.334-10.008-5.001-14.682-8.067
		c-4.799-3.148-9.123-6.802-13.549-10.433l-0.017-0.006l-0.094-0.132c43.247,20.034,90.277,31.404,137.712,35.245
		c0.252,0.021,0.505,0.032,0.757,0.052C1607.346,108.298,1590.045,107.89,1573.021,105.774z M1592.755,172.091
		c8.074-12.166,17.439-23.62,28.858-32.805c11.695-9.408,25.373-15.656,39.741-19.769c14.763-4.225,30.005-6.357,45.188-8.428
		c3.428-0.468,6.861-0.938,10.292-1.427c-12.797,4.191-25.457,8.807-37.838,14.109c-14.178,6.072-27.997,12.989-41.153,21.05
		c-12.727,7.798-24.866,16.624-35.974,26.605c-8.633,7.757-16.691,16.212-23.796,25.4
		C1582.698,188.426,1587.442,180.097,1592.755,172.091z M1701.002,134.036c-12.802,11.993-25.179,24.507-40.547,33.256
		c-13.959,7.947-29.224,13.149-44.269,18.601c-5.516,1.999-11.053,4.042-16.511,6.272c1.583-0.93,3.169-1.856,4.753-2.786
		c9.489-5.567,18.993-11.108,28.502-16.642c19.016-11.067,37.903-22.361,56.843-33.556c5.248-3.102,10.495-6.203,15.743-9.305
		C1704,131.251,1702.495,132.638,1701.002,134.036z M1711.345,124.754c-1.517,0.896-3.034,1.792-4.551,2.688
		c-4.736,2.798-9.472,5.596-14.208,8.394c-9.472,5.596-18.947,11.186-28.415,16.789c-18.936,11.207-37.823,22.491-56.729,33.748
		c-4.964,2.956-9.932,5.905-14.894,8.865c-6.315,2.849-12.454,6.053-18.265,9.835c10.131-7.856,20.057-15.97,30.264-23.729
		c10.71-8.142,21.679-15.953,33.132-23.019c11.284-6.961,22.994-13.049,35.114-18.417c11.918-5.279,24.052-10.077,35.769-15.801
		c3.6-1.759,7.151-3.62,10.642-5.587C1716.521,120.517,1713.896,122.589,1711.345,124.754z M1729.512,110.199
		c-5.359,3.639-10.908,6.951-16.646,9.958c-11.637,6.099-23.813,11.071-35.849,16.309c-12.206,5.313-24.142,11.077-35.581,17.904
		c-11.645,6.95-22.782,14.741-33.618,22.886c-10.772,8.097-21.281,16.553-31.587,25.233c-0.61,0.513-1.21,1.037-1.814,1.557
		c7.474-9.9,15.787-19.167,24.874-27.609c10.923-10.149,22.868-19.17,35.464-27.138c12.863-8.138,26.401-15.166,40.32-21.311
		c14.531-6.416,29.48-11.858,44.606-16.694c4.82-1.541,9.663-3.004,14.516-4.432c0.255-0.047,0.508-0.105,0.763-0.153
		C1733.082,107.782,1731.277,109.001,1729.512,110.199z M1763.341,232.451c0.788-7.671,1.25-15.379,2.233-23.033
		c1.194-9.292,2.881-18.525,5.178-27.609c4.401-17.406,11.094-34.237,20.62-49.49c8.953-14.336,20.353-27.291,34.038-37.279
		c3.893-2.842,7.973-5.354,12.151-7.691c0.178-0.06,0.354-0.124,0.532-0.183c-1.824,2.22-3.615,4.468-5.37,6.743
		c-3.536,4.58-6.943,9.261-10.195,14.047c-6.459,9.506-12.282,19.465-17.535,29.684c-5.235,10.187-9.864,20.678-13.838,31.42
		c-3.898,10.535-6.945,21.334-10.611,31.945c-3.882,11.235-8.892,21.961-16.643,31.033
		C1763.714,232.174,1763.529,232.315,1763.341,232.451z M1833.536,86.556c0.191-0.064,0.381-0.13,0.57-0.198
		c-0.212,0.122-0.42,0.251-0.63,0.374c-0.797,0.281-1.588,0.577-2.38,0.872C1831.908,87.253,1832.716,86.892,1833.536,86.556z
		 M1767.691,229.213c5.546-6.795,9.371-14.95,12.454-23.109c3.944-10.439,6.818-21.243,10.558-31.754
		c7.721-21.699,18.304-42.441,31.088-61.587c3.597-5.387,7.341-10.678,11.276-15.823c0.11-0.144,0.228-0.283,0.338-0.427
		c-2.344,3.831-4.595,7.715-6.771,11.623c-5.61,10.08-10.465,20.557-14.913,31.196c-4.493,10.745-8.165,21.759-11.777,32.824
		c-3.575,10.952-7.393,21.919-12.766,32.139c-4.468,8.5-10.105,16.484-17.111,23.075
		C1769.282,227.993,1768.488,228.605,1767.691,229.213z M1763.737,157.724c4.529-12.325,11.13-23.883,19.429-34.057
		c7.033-8.622,15.234-16.292,24.284-22.767c-7.831,6.58-14.37,14.682-20.245,23c-7.717,10.928-14.388,22.658-19.488,35.036
		c-4.806,11.666-8.194,23.945-9.775,36.47c-0.913,7.232-1.197,14.539-0.802,21.81c-0.877-6.589-1.236-13.247-1.041-19.904
		C1756.494,183.819,1759.079,170.396,1763.737,157.724z M1760.704,234.479c-0.452-1.588-0.866-3.186-1.253-4.79
		c-0.642-3.989-1.147-7.995-1.377-12.042c-0.337-5.916-0.226-11.856,0.305-17.757c1.115-12.383,4.114-24.569,8.645-36.14
		c4.791-12.235,11.124-23.799,18.562-34.62c6.991-10.172,14.755-20.256,24.462-27.994c4.639-3.698,9.733-6.566,15.056-8.972
		c-12.943,9.205-23.986,20.916-32.9,34.039c-10.037,14.775-17.298,31.292-22.239,48.426c-2.614,9.066-4.582,18.314-6.021,27.637
		c-1.434,9.286-2.511,18.712-2.687,28.114c-0.023,1.229-0.027,2.452-0.009,3.675
		C1761.067,234.198,1760.884,234.336,1760.704,234.479z M1819.066,139.217c-3.249,12.695-6.15,25.527-10.77,37.816
		c-4.37,11.622-10.55,22.324-18.641,31.753c-3.929,4.579-8.208,8.846-12.727,12.848c10.617-12.353,16.991-28.308,22.195-43.563
		c3.835-11.242,7.432-22.556,11.914-33.565c4.374-10.745,9.528-21.093,15.112-31.254c1.072-1.951,2.186-3.873,3.306-5.79
		C1824.942,117.669,1821.829,128.42,1819.066,139.217z M2043.198-51.117c0.013-0.025,0.025-0.049,0.038-0.074
		c0.06-0.039,0.12-0.079,0.18-0.119C2043.343-51.246,2043.271-51.182,2043.198-51.117z M2030.354-41.847
		c-0.057-0.04-0.122-0.072-0.199-0.09c-0.147-0.033-0.295-0.056-0.443-0.087c0.481-0.104,0.967-0.189,1.441-0.319
		C2030.894-42.168,2030.618-42.017,2030.354-41.847z M1898.341-57.996c16.378-0.5,32.804,0.129,49.093,1.912
		c16.268,1.78,32.409,4.72,48.256,8.805c1.459,0.376,2.917,0.786,4.376,1.203c-2.397-0.305-4.793-0.62-7.19-0.92
		c-12.459-1.556-24.933-3.016-37.429-4.24c-12.469-1.221-24.964-2.202-37.474-2.892c-12.541-0.692-25.102-1.048-37.662-0.966
		c-7.406,0.049-14.811,0.274-22.207,0.66C1871.432-56.394,1884.875-57.586,1898.341-57.996z M1849.289-53.036
		c0.288-0.05,0.577-0.093,0.865-0.142c8.495-0.517,17.004-0.824,25.513-0.912c12.502-0.13,25.006,0.192,37.492,0.837
		c12.517,0.646,25.011,1.647,37.484,2.876c12.548,1.237,25.076,2.671,37.587,4.24c7.308,0.916,14.609,1.883,21.909,2.862
		c3.44,0.862,6.908,1.562,10.434,1.84c1.226,0.097,2.471,0.103,3.717,0.064c0.418,0.057,0.836,0.112,1.254,0.169
		c1.08,0.145,2.148,0.254,3.223,0.338c-7.802,4.638-16.85,7.174-25.962,7.944c-16.799,1.421-33.373-2.99-49.441-7.342
		c-8.208-2.223-16.418-4.415-24.747-6.144c-8.041-1.669-16.153-2.989-24.307-3.966c-16.233-1.945-32.618-2.561-48.95-1.799
		c-5.928,0.276-11.847,0.738-17.747,1.374C1841.492-51.608,1845.385-52.357,1849.289-53.036z M1810.309-43.89
		c5.009-0.931,10.009-1.931,15.045-2.698c8.197-1.247,16.45-2.133,24.724-2.673c16.454-1.076,32.999-0.764,49.4,0.934
		c16.781,1.736,33.235,5.134,49.515,9.502c16.352,4.388,33.125,9.271,50.234,8.49c0.805-0.037,1.615-0.109,2.424-0.171
		c-0.593,0.099-1.184,0.207-1.778,0.303c-7.105,1.159-14.263,2.008-21.441,2.558c-14.347,1.1-28.772,0.967-43.097-0.391
		c-13.976-1.325-27.765-3.985-41.509-6.783c-13.643-2.777-27.323-5.59-41.142-7.351c-12.678-1.615-25.635-2.321-38.366-0.83
		c-0.621-0.044-1.241-0.113-1.863-0.142c-0.848-0.04-1.697-0.065-2.545-0.077c-0.495-0.037-0.987-0.085-1.483-0.114
		C1809.053-43.523,1809.682-43.704,1810.309-43.89z M1818.903-42.546c9.815-0.579,19.677-0.147,29.455,0.998
		c13.821,1.618,27.446,4.49,41.05,7.36c13.745,2.9,27.548,5.707,41.516,7.3c14.244,1.624,28.622,2.056,42.939,1.319
		c1.608-0.083,3.218-0.184,4.827-0.296c-11.054,0.979-22.166,1.34-33.259,1.16c-13.182-0.213-26.337-1.184-39.43-2.7
		c-13.799-1.598-27.555-3.701-41.23-6.137c-11.189-1.994-22.318-4.295-33.474-6.454
		C1827.241-41.177,1823.089-42.013,1818.903-42.546z M1969.014-18.693c-17.937,2.845-36.319,2.914-54.344,0.868
		c-18.201-2.066-36.098-6.277-53.495-11.966c-6.893-2.254-13.784-4.7-20.741-6.895c-0.901-0.386-1.808-0.757-2.722-1.112
		c7.341,1.541,14.692,3.033,22.062,4.441c13.766,2.63,27.571,5.036,41.476,6.812c13.103,1.674,26.28,2.873,39.483,3.359
		c12.778,0.471,25.575,0.243,38.315-0.885c7.275-0.644,14.549-1.561,21.76-2.822C1990.505-23.144,1979.827-20.408,1969.014-18.693z
		 M2022.619-33.802c-0.196,0.159-0.397,0.314-0.593,0.473c0.022-0.063,0.04-0.127,0.042-0.193
		C2022.249-33.618,2022.437-33.705,2022.619-33.802z M2021.172-32.772l0.251-0.077c-0.058,0.047-0.117,0.093-0.175,0.14
		C2021.22-32.728,2021.204-32.758,2021.172-32.772z M1909.62,182.744c1.646-6.298,3.428-12.56,5.342-18.781
		c3.853-12.517,8.261-24.855,13.205-36.983c4.915-12.057,10.342-23.906,16.261-35.503c5.921-11.601,12.342-22.93,19.198-34.003
		c6.354-10.263,13.15-20.225,20.277-29.962c-0.937,2.389-1.809,4.802-2.621,7.235c-7.779,15.636-14.88,31.562-21.568,47.703
		c-7.94,19.162-15.47,38.492-23.625,57.564c-8.089,18.918-16.801,37.614-27.062,55.463c-0.708,1.232-1.417,2.464-2.122,3.697
		c-0.182,0.167-0.366,0.33-0.549,0.496c-0.079-0.724-0.159-1.447-0.226-2.172C1907.219,192.563,1908.341,187.637,1909.62,182.744z
		 M1978.328,44.537c-1.391,3.344-2.787,6.686-4.143,10.045c-5.069,12.562-9.868,25.232-14.379,38.006
		c-4.531,12.832-8.596,25.815-12.972,38.698c-4.275,12.586-8.97,25.058-15.386,36.731c-5.78,10.519-12.914,20.413-21.758,28.578
		c9.299-15.642,17.144-32.187,24.454-48.818c8.267-18.808,15.796-37.927,23.588-56.934c6.579-16.048,13.376-32.017,20.954-47.621
		C1978.566,43.659,1978.448,44.098,1978.328,44.537z M1907.65,200.019c0.266-0.434,0.519-0.877,0.782-1.312
		c8.568-7.041,15.476-16.092,21.161-25.545c6.692-11.126,11.783-23.184,16.215-35.363c4.702-12.919,8.8-26.049,13.387-39.01
		c4.604-13.008,9.492-25.916,14.661-38.71c0.542-1.341,1.098-2.675,1.647-4.012c-0.88,3.983-1.692,7.98-2.459,11.987
		c-2.836,9.5-5.609,19.021-8.539,28.493c-3.939,12.734-8.222,25.374-13.334,37.69c-4.828,11.63-10.385,22.984-17.089,33.655
		c-6.739,10.726-14.558,20.608-23.616,29.468C1909.544,198.262,1908.599,199.143,1907.65,200.019z M1982.441,25.895
		c1.411-1.614,2.815-3.234,4.223-4.85c-0.496,1.067-0.975,2.142-1.443,3.222c-7.106,9.089-13.581,18.716-19.816,28.403
		c-7.079,11-13.631,22.345-19.706,33.929c-6.106,11.641-11.702,23.551-16.783,35.674c-5.028,11.997-9.544,24.209-13.575,36.575
		c-2.314,7.102-4.431,14.27-6.406,21.478c2.012-10.18,4.517-20.259,7.609-30.177c5.573-17.874,12.787-35.212,21.16-51.95
		c8.409-16.808,18.001-33,28.353-48.68C1971.337,41.52,1976.818,33.657,1982.441,25.895z M1907.41,161.199
		c2.125-13.448,5.909-26.63,10.938-39.274c5.185-13.034,11.69-25.505,19.079-37.42c7.844-12.652,16.664-24.673,26.001-36.259
		c0.763-0.947,1.553-1.869,2.324-2.808c-9.945,14.855-19.237,30.154-27.488,46.017c-8.623,16.579-16.133,33.758-22.086,51.478
		c-3.003,8.938-5.604,18.013-7.738,27.198c-1.066,4.586-2.051,9.213-2.879,13.864
		C1905.598,176.367,1906.219,168.741,1907.41,161.199z M1957.276,132.784c-5.232,12.962-12.167,25.25-20.448,36.506
		c-4.194,5.702-8.766,11.136-13.639,16.268c-1.649,1.736-3.353,3.403-5.078,5.048c5.12-5.605,9.785-11.637,14-17.922
		c7.037-10.493,12.969-21.721,18.1-33.256c5.314-11.945,9.745-24.256,13.792-36.68c2.207-6.775,4.308-13.583,6.386-20.398
		c-0.502,2.724-1.008,5.447-1.535,8.165C1966.07,104.878,1962.766,119.184,1957.276,132.784z"/>
	<g opacity="0.2">
		<g>
			<path fill="#325588" d="M178.871,402.097c-19.962,12.804-37.423,28.816-55.626,43.911c-19.964,16.556-41.142,31.266-64.317,43
				C24.114,506.635-13.05,517.524-50.52,527.858c-22.981,6.338-44.062,14.68-63.138,29.246
				c-17.495,13.358-31.308,30.193-47.549,44.842c-1.562,1.409-4.207-0.761-2.854-2.495c24.165-30.951,56.76-58.584,94.425-70.876
				c41.256-13.463,83.242-21.773,122.718-40.595c46.755-22.292,82.018-59.295,125.668-86.126
				C178.9,401.763,179.015,402.004,178.871,402.097L178.871,402.097z"/>
		</g>
		<g>
			<path fill="#325588" d="M27.579,602.858c-33.839,4-64.933-7.481-97.367-14.907c-15.598-3.571-31.823-6.268-47.867-4.765
				c-18.055,1.692-29.018,10.102-44.16,18.636c-1.277,0.719-2.686-0.959-1.874-2.127c16.467-23.655,54.382-23.029,79.269-18.489
				c37.613,6.862,72.74,24.301,111.837,20.857C27.927,602.018,28.103,602.796,27.579,602.858L27.579,602.858z"/>
		</g>
		<g>
			<path fill="#325588" d="M-132.064,585.157c8.784-1.671,15.458,2.797,22.782,7.168c13.584,8.109,28.248,12.903,43.456,16.92
				c14.176,3.745,28.6,6.984,43.327,5.433c14.902-1.57,28.796-7.456,43.362-10.565c9.605-2.051-0.876-2.397-5.348-4.179
				c-6.053-2.412-11.934-5.258-17.859-7.964c-12.488-5.703-24.987-12.512-38.044-16.811c-26.429-8.702-64.056-3.701-88.764,8.261
				c-1.677,0.812-2.967-1.787-1.281-2.599c23.142-11.153,52.579-14.192,77.984-11.161c29.523,3.523,53.93,25.718,82.806,32.07
				c1.379,0.303,0.991,2.21-0.143,2.52c-27.187,7.425-52.573,16.733-80.959,11.171c-13.379-2.621-26.903-6.387-39.617-11.302
				c-13.624-5.267-26.831-17.604-41.622-17.891C-132.602,586.215-132.665,585.271-132.064,585.157L-132.064,585.157z"/>
		</g>
		<g>
			<path fill="#325588" d="M117.286,547.294c-38.888,7.627-78.044,2.098-117.301,1.23c-38.234-0.846-78.251-5.725-114.706,8.717
				c-2.34,0.927-3.886-2.201-1.725-3.5c12.914-7.768,30.61-9.49,45.349-10.672c19.501-1.565,39.463,0.008,58.98,0.797
				c42.929,1.735,86.524,8.917,129.342,3.126C117.419,546.965,117.483,547.255,117.286,547.294L117.286,547.294z"/>
		</g>
		<g>
			<path fill="#325588" d="M-50.127,544.001c14.449,3.833,27.561,10.75,41.758,15.239c14.644,4.63,30.527,6.445,45.855,6.724
				c13.915,0.253,28.034-1.182,41.464-4.943c12.795-3.583,23.266-12.154,36.1-15.154c0.217,1.06,0.433,2.119,0.649,3.179
				c-27.411,3.051-53.627-10.749-79.998-15.857c-15.315-2.967-31.865-4.48-47.114-0.378c-13.153,3.538-24.861,10.963-38.515,12.736
				c-1.708,0.222-2.27-2.313-0.541-2.65c13.528-2.631,25.239-9.644,38.423-13.185c12.29-3.301,25.583-2.909,38.09-1.26
				c29.319,3.865,59.155,21.646,89.006,17.416c2.061-0.292,2.693,2.683,0.649,3.179c-13.358,3.24-24.388,12.078-37.904,15.528
				c-13.163,3.361-26.901,4.455-40.458,4.096c-13.582-0.359-27.329-2.304-40.48-5.768c-16.397-4.319-31.137-13.023-47.128-18.46
				C-50.555,544.346-50.414,543.925-50.127,544.001L-50.127,544.001z"/>
		</g>
		<g>
			<path fill="#325588" d="M19.057,388.711c-9.233,27.856-31.592,53.155-49.775,75.645c-12.975,16.048-28.651,29.676-41.422,45.869
				c-10.143,12.861-18.253,28.453-31.157,38.866c-2.235,1.804-5.196-1.549-2.948-3.376c13.365-10.863,21.589-27.347,32.534-40.472
				c12.539-15.036,27.671-27.66,40.254-42.697c18.689-22.332,40.264-46.987,51.411-74.194
				C18.234,387.669,19.294,387.995,19.057,388.711L19.057,388.711z"/>
		</g>
		<g>
			<path fill="#325588" d="M-92.062,532.712c11.382-13.196,28.539-18.127,42.153-28.482c12.73-9.682,24.211-21.929,33.371-35.006
				c8.231-11.749,13.212-25.551,18.497-38.802c5.702-14.3,11.372-28.805,15.234-43.727c0.826,0.398,1.651,0.796,2.477,1.195
				c-12.474,25.796-39.315,45.248-59.652,64.497c-9.747,9.226-19.631,18.524-27.009,29.823
				C-77.304,498-84.05,515.743-90.323,533.424c-0.59,1.662-3.161,0.83-2.609-0.85c9.321-28.365,21.868-53.588,43.252-74.538
				c22.243-21.79,53.285-42.549,66.872-71.341c0.75-1.59,3.08-0.913,2.639,0.86c-3.727,14.985-9.381,29.459-15.151,43.754
				c-5.213,12.915-10.127,26.474-18.05,38.023c-8.627,12.578-19.504,24.139-31.262,33.82
				c-14.472,11.915-32.773,17.538-46.653,30.241C-91.705,533.778-92.454,533.165-92.062,532.712L-92.062,532.712z"/>
		</g>
		<g>
			<path fill="#325588" d="M209.714,531.931c-30.996,7.836-60.613-2.85-89.824-12.659c-35.732-11.999-71.694-15.849-109.023-9.987
				c-1.933,0.304-2.553-2.634-0.611-2.99c31.333-5.737,62.765-3.577,93.226,5.487c34.599,10.294,69.153,27.765,106.139,19.695
				C209.914,531.413,210.002,531.858,209.714,531.931L209.714,531.931z"/>
		</g>
		<g>
			<path fill="#325588" d="M42.526,505.257c22.933-9.557,50.426-4.942,73.676,1.056c31.458,8.116,61.468,21.3,94.343,22.661
				c1.222,0.051,1.765,2.003,0.503,2.462c-6.035,2.193-11.197,8.237-17.207,11.044c-5.622,2.626-11.624,4.422-17.758,5.348
				c-12.72,1.921-25.623,0.094-37.927-3.324c-33.26-9.238-62.111-29.578-95.758-37.767c-1.197-0.292-0.829-2.37,0.402-2.147
				c48.622,8.818,101.57,62.007,152.78,34.201c1.812-0.984,12.548-6.615,12.876-9.154c-0.531,4.096-19.354-0.195-21.4-0.567
				c-14.941-2.715-29.464-7.239-43.918-11.818c-33.958-10.76-64.804-18.026-100.303-11.089
				C42.314,506.266,42.006,505.474,42.526,505.257L42.526,505.257z"/>
		</g>
		<g>
			<path fill="#325588" d="M99.894,379.569c-19.346,21.954-33.179,45.842-48.832,70.366c-14.526,22.758-33.079,55.19-59.798,65.203
				c-0.934,0.35-2.029-0.908-1.062-1.594c27.835-19.757,46.628-46.14,64.404-75.027c13.385-21.751,26.547-41.576,44.246-60.141
				C99.565,377.628,100.553,378.822,99.894,379.569L99.894,379.569z"/>
		</g>
		<g>
			<path fill="#325588" d="M10.453,499.075c9.948-7.74,21.028-13.954,30.333-22.525c11.706-10.781,20.333-24.565,26.896-38.965
				c9.318-20.446,17.838-40.649,30.57-59.354c0.668,0.585,1.337,1.169,2.005,1.753c-3.417,3.851-9.07,6.458-13.193,9.468
				c-9.605,7.015-18.684,14.821-27.024,23.301c-11.911,12.111-22.636,25.724-30.94,40.57c-8.924,15.957-10.824,34.36-19.961,50.041
				c-0.884,1.518-3.068,0.022-2.256-1.491c8.598-16.017,10.86-34.122,20.112-49.942c7.847-13.416,17.078-25.924,27.747-37.228
				c8.618-9.13,18.055-17.429,28.073-24.988c4.764-3.595,11.552-6.884,15.436-11.486c1.084-1.284,3.235,0.009,2.242,1.481
				c-14.717,21.83-23.267,46.298-35.89,69.168c-12.69,22.993-31.49,37.627-53.513,51.15
				C10.533,500.374,9.936,499.477,10.453,499.075L10.453,499.075z"/>
		</g>
		<g>
			<path fill="#325588" d="M53.666,487.929c26.371-3.597,53.095-10.91,73.92-28.288c19.991-16.683,32.067-40.304,50.394-58.619
				c0.464,0.696,0.928,1.392,1.392,2.088c-27.209,11.501-54.962,23.699-77.33,43.461c-15.829,13.985-29.273,32.437-47.891,42.893
				c-0.647,0.364-1.298-0.613-0.722-1.084c18.239-14.905,33.667-32.897,51.936-47.668c21.704-17.548,47.58-28.642,72.889-39.871
				c1.35-0.599,2.379,1.066,1.392,2.088c-19.938,20.64-33.47,47.105-57.38,63.827c-19.871,13.898-44.378,20.512-68.212,23.066
				C52.833,489.952,52.421,488.099,53.666,487.929L53.666,487.929z"/>
		</g>
	</g>
	<g opacity="0.2">
		<g>
			<path fill="#325588" d="M410.135,51.82c-26.841,18.426-61.022,29.865-92.583,37.028c-41.312,9.376-84.99-0.148-126.931,2.273
				c-89.206,5.149-172.78,44.13-241.99,99.271c-40.092,31.942-75.969,65.871-122.816,88.018c-2.18,1.031-1.116,4.42,1.273,3.613
				c39.686-13.401,72.092-43.927,103.423-70.524c35.53-30.161,73.307-57.17,115.405-77.466
				c43.835-21.133,91.267-35.065,139.863-38.9c41.808-3.299,85.68,6.244,126.884-2.491c33.539-7.111,70.053-19.745,98.292-39.619
				C411.722,52.485,410.911,51.287,410.135,51.82L410.135,51.82z"/>
		</g>
		<g>
			<g>
				<path fill="#325588" d="M-107.176,241.395c58.424-24.42,118.38-32.355,179.911-13.753c1.951,0.59,2.558-2.516,0.626-3.102
					c-58.313-17.691-127.424-15.156-181.507,14.94C-109.213,240.074-108.305,241.867-107.176,241.395L-107.176,241.395z"/>
			</g>
			<g>
				<path fill="#325588" d="M71.749,225.163c-24.241-12.871-49.846-23.361-77.813-21.794c-26.972,1.511-54.467,11.793-77.319,25.934
					c-0.827,0.512-0.129,1.962,0.784,1.547c24.214-11.027,47.067-22.64,74.172-24.721c28.861-2.215,53.852,8.942,79.881,19.63
					C71.847,225.922,72.13,225.365,71.749,225.163L71.749,225.163z"/>
			</g>
			<g>
				<path fill="#325588" d="M71.696,224.992c-22.981-5.886-45.863-4.828-69.248-2.442c-25.987,2.652-52.114-1.44-78.01,2.437
					c-1.735,0.26-1.564,2.993,0.192,2.741c24.259-3.493,48.592,0.292,72.921-1.672c25.443-2.055,48.449-3.121,73.956-0.125
					C72.115,226.002,72.298,225.146,71.696,224.992L71.696,224.992z"/>
			</g>
			<g>
				<path fill="#325588" d="M73.114,225.765c-7.927-2.333-16.937-0.595-24.984,0.211c-12.601,1.262-25.154,2.976-37.768,4.114
					c-13.018,1.175-25.587,1.384-38.589-0.267c-16.262-2.066-33.245-6.124-49.635-3.347c-0.979,0.166-0.889,1.511,0.108,1.536
					c29.073,0.738,57.374,7.265,86.495,4.766c21.443-1.839,42.923-4.206,64.33-6.355C73.458,226.384,73.468,225.869,73.114,225.765
					L73.114,225.765z"/>
			</g>
		</g>
		<g>
			<path fill="#325588" d="M-63.094,220.875c6.41-4.331,14-6.614,20.746-10.409c7.251-4.078,14.05-9.017,21.615-12.532
				c18.014-8.369,39.911-9.214,59.392-11.811c8.776-1.17,18.188-1.313,26.829-3.083c9.694-1.985,5.734-2.067-0.377,0.874
				c-17.418,8.384-34.708,16.931-54.041,19.842c-1.684,0.254-1.512,2.915,0.186,2.658c12.292-1.859,23.748-5.858,35.147-10.773
				c7.901-3.407,19.5-11.532,28.039-12.398c1.445-0.146,1.762-2.556,0.174-2.682c-25.255-2.005-54.13,3.38-78.813,8.655
				c-11.334,2.422-21.077,7.112-30.902,13.088c-8.99,5.468-22.552,9.115-29.203,17.213
				C-64.954,220.312-63.973,221.469-63.094,220.875L-63.094,220.875z"/>
		</g>
		<g>
			<path fill="#325588" d="M-92.962,201.102c19.567-21.004,41.899-38.91,62.477-58.845c20.025-19.399,33.597-44.039,53.882-63.323
				c1.263-1.201-0.606-3.191-1.994-2.242C10.156,84.394-3.556,87.214-14.884,95.257c-9.761,6.93-18.35,15.421-26.058,24.546
				c-19.295,22.843-33.029,49.735-50.941,73.599c-1.328,1.77,1.263,4.046,2.607,2.267c17.162-22.717,30.375-48.207,48.244-70.392
				c8.621-10.704,18.348-20.661,29.688-28.497c10.788-7.453,23.836-10.227,34.452-17.588c-0.664-0.747-1.329-1.494-1.994-2.241
				C0.95,96.346-12.745,120.883-32.65,140.376c-19.945,19.533-45.743,36.42-61.601,59.607
				C-94.857,200.87-93.73,201.927-92.962,201.102L-92.962,201.102z"/>
		</g>
		<g>
			<path fill="#325588" d="M-22.104,172.216c14.553-8.708,24.135-24.49,32.311-38.904C20.45,115.256,29.371,96.466,38.58,77.873
				c9.289-18.752,18.848-37.444,30.261-55.013c13.963-21.494,31.844-35.622,53.333-49.077c-0.67-0.982-1.34-1.964-2.011-2.946
				c-24.686,19.05-37.73,46.553-52.283,73.338C49.723,77.596,29.359,108.93,4.305,137.6c-1.419,1.624,1.038,3.728,2.514,2.185
				c23.057-24.113,41.184-52.87,57.486-81.827c16.43-29.185,29.51-64.297,57.87-84.175c1.885-1.322-0.063-4.158-2.011-2.946
				c-17.294,10.756-33.598,21.826-46.061,38.2C61.867,25.109,52.168,43.243,42.972,61.16
				c-19.77,38.518-35.227,78.813-65.844,110.192C-23.354,171.846-22.648,172.542-22.104,172.216L-22.104,172.216z"/>
		</g>
		<g>
			<path fill="#325588" d="M122.278-28.133C88.992-26.948,59.744,1.212,45.736,29.416C28.795,63.527,23.991,102.398,5.248,135.733
				c-0.961,1.71,1.768,3.045,2.725,1.347c16.494-29.304,22.294-62.84,34.909-93.742c6.402-15.681,14.654-30.484,26.914-42.38
				c15.239-14.787,33.243-21.106,52.616-28.445C122.765-27.621,122.655-28.146,122.278-28.133L122.278-28.133z"/>
		</g>
		<g>
			<path fill="#325588" d="M122.791-27.66c-10.486,4.962-14.478,18.699-19.014,28.544C96.253,17.216,89.368,33.82,80.067,49.26
				c-18.01,29.895-42.715,55.01-67.693,79.088c-1.294,1.248,0.819,3.066,2.105,1.83c22.426-21.555,44.38-43.899,61.762-69.833
				c8.049-12.008,14.729-24.696,20.761-37.821c6.785-14.764,12.816-38.99,26.386-49.006
				C123.963-26.906,123.504-27.998,122.791-27.66L122.791-27.66z"/>
		</g>
		<g>
			<path fill="#325588" d="M70.2,67.001c16.463-10.432,32.884-14.664,52.196-14.09c0.731,0.022,23.261,3.099,24.699,1.534
				c-0.202,0.22-6.632,0.977-8.366,1.457c-4.745,1.313-9.411,2.803-14.017,4.546c-30.754,11.643-62.496,27.922-90.124,45.779
				c-1.62,1.047,0.068,3.527,1.69,2.476C53.139,97.773,71.241,89.106,89.16,80.082c20.37-10.258,40.351-19.515,62.443-25.47
				c1.114-0.3,0.612-1.818-0.384-1.85c-29.443-0.934-56.849-6.752-81.277,13.861C69.72,66.81,69.945,67.162,70.2,67.001L70.2,67.001
				z"/>
		</g>
		<g>
			<path fill="#325588" d="M226.484,250.004c-30.508-28.926-55.301-62.957-90.331-86.999c-28.073-19.267-59.266-30.148-93.33-31.551
				c-1.764-0.073-1.982,3.012-0.203,3.129c36.389,2.396,69.668,15.002,98.948,36.679c31.343,23.205,54.579,54.541,83.687,80.156
				C226.165,252.219,227.357,250.831,226.484,250.004L226.484,250.004z"/>
		</g>
		<g>
			<path fill="#325588" d="M223.545,247.787c-14.059-26.338-30.861-51.716-54.507-70.423c-23.68-18.733-51.643-27.803-79.737-37.745
				c-1.648-0.583-2.883,1.868-1.218,2.463c27.844,9.951,55.466,18.936,78.969,37.566c23.788,18.855,38.987,43.877,55.668,68.702
				C223.087,248.896,223.842,248.342,223.545,247.787L223.545,247.787z"/>
		</g>
		<g>
			<path fill="#325588" d="M225.99,250.468c-25.196-14.65-43.617-36.046-64.489-55.852c-20.503-19.456-42.064-37.675-65.966-52.847
				c-1.364-0.866-2.919,1.441-1.579,2.372c24.894,17.287,48.325,35.049,70.346,55.996c19.442,18.494,37.352,38.247,61.448,50.817
				C226.062,251.116,226.288,250.642,225.99,250.468L225.99,250.468z"/>
		</g>
		<g>
			<path fill="#325588" d="M226.211,250.021c-24.969-10.078-45.856-28.438-65.846-46.118
				c-20.996-18.569-36.912-42.409-59.872-58.927c-0.727-0.523-1.495,0.386-0.901,1.037c9.63,10.541,20.82,19.576,30.66,29.938
				c10.595,11.155,20.422,22.385,32.176,32.421c19.487,16.64,38.874,33.814,63.101,43.03
				C226.444,251.75,227.137,250.394,226.211,250.021L226.211,250.021z"/>
		</g>
		<g>
			<path fill="#325588" d="M100.456,145.868c22.195,2.7,44.095,4.258,65.34,11.853c20.277,7.249,40.877,15.655,59.66,26.226
				c4.134,2.327,8.202,4.794,12.199,7.348c13.184,8.424,8.793,4.847,4.184,3.405c-8.991-2.813-17.422-6.979-26.607-9.263
				c-8.82-2.193-17.935-2.565-26.796-4.441c-10.886-2.304-20.98-8.024-31.314-11.981c-1.541-0.59-2.695,1.718-1.144,2.314
				c13.889,5.334,26.054,11.496,40.906,13.559c18.327,2.546,35.225,7.963,52.553,14.406c0.741,0.275,1.603-0.714,0.839-1.26
				c-43.965-31.417-95.439-52.269-149.763-53.031C100.023,144.997,99.967,145.809,100.456,145.868L100.456,145.868z"/>
		</g>
		<g>
			<path fill="#325588" d="M279.022-49.427c-33.826,14.261-58.813,37.717-81.466,66.047c-11.321,14.158-21.966,28.844-33.424,42.894
				c-12.702,15.575-27.073,28.617-41.297,42.689c-1.383,1.368,0.652,3.457,2.195,2.468c28.604-18.32,49.033-50.723,69.085-77.387
				c23.544-31.309,49.241-58.801,85.226-75.808C279.886-48.782,279.599-49.67,279.022-49.427L279.022-49.427z"/>
		</g>
		<g>
			<path fill="#325588" d="M279.081-50.414c-23.463,5.696-45.969,17.821-62.735,35.244c-18.842,19.582-31.419,44.135-45.582,67.058
				c-1.197,1.937,1.992,3.5,3.172,1.568c13.143-21.514,24.831-44.348,41.716-63.281c17.361-19.467,39.667-30.524,63.968-39.058
				C280.625-49.235,280.079-50.657,279.081-50.414L279.081-50.414z"/>
		</g>
		<g>
			<path fill="#325588" d="M279.399-50.362c-9.824,9.326-18.038,20.206-27.514,29.881c-9.626,9.827-20.419,18.464-30.802,27.466
				c-17.165,14.882-34.612,29.553-49.953,46.358c-1.357,1.486,1.008,3.541,2.356,2.048c33.581-37.185,77.103-64.095,106.856-104.935
				C280.818-50.196,279.982-50.916,279.399-50.362L279.399-50.362z"/>
		</g>
		<g>
			<path fill="#325588" d="M279.23-49.901c-15.641,23.065-29.265,46.167-51.538,63.71c-10.502,8.271-22.361,14.582-33.027,22.637
				c-10.462,7.901-20.405,16.616-29.856,25.698c-1.179,1.133,0.662,3.241,1.921,2.16c11.032-9.473,21.577-19.473,33.341-28.062
				c11.932-8.711,24.783-15.816,35.873-25.684c18.179-16.175,34.604-37.432,43.939-60.025
				C280.042-49.853,279.497-50.295,279.23-49.901L279.23-49.901z"/>
		</g>
		<g>
			<path fill="#325588" d="M155.34,71.375c14.437-20.293,16.489-41.657,22.051-65.35c6.415-27.325,16.967-53.068,35.198-74.667
				c-0.802-0.534-1.604-1.068-2.406-1.602c-8.896,17.905-9.508,37.399-13.315,56.684c-4.449,22.543-13.891,43.426-25.469,63.141
				c-0.952,1.621,1.668,2.9,2.612,1.292c10.14-17.266,18.732-35.451,23.7-54.916c5.532-21.674,4.953-44.518,15.084-64.91
				c0.731-1.471-1.327-2.879-2.406-1.602C195.3-52.675,185.478-31.512,179.037-9.126c-3.409,11.848-5.683,23.915-7.849,36.038
				c-2.914,16.305-8.305,29.586-17.464,43.388C153.115,71.217,154.696,72.28,155.34,71.375L155.34,71.375z"/>
		</g>
		<g>
			<path fill="#325588" d="M344.707,206.294c-28.729-18.677-49.259-44.318-74.744-66.621
				c-22.835-19.984-49.615-35.256-77.059-47.948c-1.459-0.675-2.548,1.52-1.107,2.239c29.745,14.839,58.341,31.481,83.037,53.976
				c22.672,20.652,43.032,43.031,69.632,58.839C344.771,206.96,344.992,206.48,344.707,206.294L344.707,206.294z"/>
		</g>
		<g>
			<path fill="#325588" d="M345.689,205.66c-17.935-15.071-32.655-32.198-49.181-48.688c-15.392-15.358-33.234-27.308-53.106-36.067
				c-1.641-0.723-2.882,1.778-1.236,2.501c21.748,9.551,40.815,23.018,57.07,40.329c14.08,14.994,26.928,33.607,45.492,43.368
				C345.606,207.564,346.451,206.299,345.689,205.66L345.689,205.66z"/>
		</g>
		<g>
			<path fill="#325588" d="M342.665,205.061c-19.592-12.019-41.236-22.723-57.115-39.686
				c-14.953-15.974-27.198-33.256-44.863-46.644c-1.507-1.142-3.354,0.932-1.939,2.231c17.21,15.794,31.518,33.948,48.224,50.107
				c15.492,14.985,36.052,25.612,55.25,34.888C342.812,206.241,343.204,205.392,342.665,205.061L342.665,205.061z"/>
		</g>
		<g>
			<path fill="#325588" d="M344.464,205.24c-18.376-20.083-26.389-46.752-48.716-63.556c-8.791-6.616-18.568-11.885-28.706-16.115
				c-12.114-5.054-25.456-7.323-37.046-13.46c-1.025-0.543-2.104,1.003-1.144,1.718c8.551,6.369,19.304,7.963,29.18,11.523
				c13.285,4.789,26.167,11.133,37.335,19.848c21.233,16.569,29.287,42.629,48.688,60.512
				C344.356,205.99,344.728,205.529,344.464,205.24L344.464,205.24z"/>
		</g>
		<g>
			<path fill="#325588" d="M262.041,124.903c13.723,4.953,26.793,5.665,41.26,5.423c21.021-0.352,37.807,2.427,54.968,15.211
				c0.936,0.697,8.452,6.231,8.285,6.585c0.614-1.307-1.723-1.463-2.443-1.605c-8.477-1.663-16.572-4.601-25.199-5.867
				c-16.116-2.367-32.324-1.43-48.115-5.979c-1.675-0.483-2.111,2.08-0.527,2.612c10.64,3.572,21.489,3.819,32.583,4.459
				c16.279,0.939,31.816,3.729,47.191,9.248c1.186,0.426,2.398-1.014,1.3-1.952c-13.233-11.301-26.948-22.296-44.71-24.822
				c-21.568-3.068-42.718,1.094-64.285-4.212C261.831,123.877,261.525,124.717,262.041,124.903L262.041,124.903z"/>
		</g>
		<g>
			<path fill="#325588" d="M410.066,52.041c-18.974,4.691-36.057,15.069-54.823,20.528c-14.824,4.312-28.978,10.421-44.428,12.225
				c-13.966,1.631-26.989,4.828-40.67,8.093c-1.535,0.366-0.71,2.678,0.817,2.317c15.717-3.725,31.244-5.983,47.066-8.823
				c13.032-2.339,25.358-7.809,38.012-11.555c18.804-5.567,36.002-15.106,54.332-21.921
				C410.931,52.696,410.629,51.902,410.066,52.041L410.066,52.041z"/>
		</g>
		<g>
			<path fill="#325588" d="M410.623,51.733c-17.233,11.577-33.827,24.884-52.811,33.571c-26.568,12.157-58.283,12.407-86.654,7.979
				c-1.424-0.222-1.871,1.927-0.445,2.204c51.883,10.094,102.523-6.664,140.486-43.106
				C411.564,52.031,411.025,51.463,410.623,51.733L410.623,51.733z"/>
		</g>
		<g>
			<path fill="#325588" d="M409.059,51.891c-13.157,3.034-27.026,2.785-40.345,5.427c-11.384,2.258-22.665,5.119-33.78,8.453
				c-24.473,7.341-47.444,18.45-71.502,26.958c-1.29,0.456-0.598,2.411,0.706,2.003c24.395-7.637,47.069-19.364,71.584-26.726
				c13.355-4.011,26.904-7.559,40.642-9.991c10.955-1.939,22.394-1.773,32.973-5.339C409.855,52.502,409.569,51.773,409.059,51.891
				L409.059,51.891z"/>
		</g>
		<g>
			<path fill="#325588" d="M397.279,56.086c-16.64,2.183-33.151,8.654-49.524,12.472c-12.567,2.93-25.285,5.795-37.452,10.142
				c-13.046,4.661-24.983,11.406-38.438,15.007c-1.099,0.294-0.73,2.158,0.41,1.98c11.692-1.827,21.731-7.699,32.565-12.114
				c12.632-5.148,25.947-8.311,39.168-11.531c18.044-4.396,35.346-11.585,53.287-15.874
				C397.342,56.156,397.326,56.079,397.279,56.086L397.279,56.086z"/>
		</g>
		<g>
			<path fill="#325588" d="M275.801,89.603c34.364-15.471,47.49-57.173,80.724-73.637c2.627-1.359,5.323-2.566,8.086-3.621
				c0.21-1.806-0.367-1.819-1.729-0.042c-2.199,1.772-4.392,3.524-6.473,5.432c-5.275,4.837-9.797,10.2-13.781,16.125
				c-12.091,17.985-22.352,33.644-42.091,44.141c-1.534,0.816,0,3.049,1.525,2.235c12.745-6.798,23.969-16.527,32.299-28.363
				c10.738-15.257,18.508-30.912,34.717-41.372c1.125-0.726,0.201-2.532-1.056-2.085c-18.688,6.648-30.726,16.878-43.556,31.783
				c-15.497,18.003-29.797,34.346-49.168,48.409C274.805,88.966,275.196,89.875,275.801,89.603L275.801,89.603z"/>
		</g>
		<g>
			<path fill="#325588" d="M172.444,57.248c18.465-1.084,38.268-4.459,55.52-11.381c7.148-2.868,13.206-6.907,19.718-10.959
				c11.479-7.143,22.154-10.303,35.193-13.394c0.876-0.208,0.759-1.68-0.124-1.776c-19.361-2.116-37.593,0.531-55.313,8.825
				c-17.346,8.118-36.051,13.962-52.209,24.431c-1.051,0.681,0.018,2.165,1.079,1.582c15.072-8.269,31.012-13.03,46.106-20.948
				c9.317-4.888,18.809-8.709,29.105-10.902c5.108-1.088,10.211-1.886,15.437-2.123c3.895-0.177,15.518-2.231,8.37,0.258
				c-7.001,2.437-14.22,3.267-20.968,6.831c-8.077,4.265-14.81,10.433-23.139,14.347c-18.326,8.612-39.07,10.916-58.868,13.88
				C171.514,56.044,171.576,57.299,172.444,57.248L172.444,57.248z"/>
		</g>
		<g>
			<path fill="#325588" d="M-107.772,242.753c22.043-1.033,43.904,0.718,65.362,5.998c12.003,2.953,23.784,6.86,35.13,11.771
				c3.258,1.41,9.248,5.443,12.7,5.971c8.569,1.31-13.636-5.769-3.739-2.631c-4.004-1.269-10.071-0.241-14.237-0.414
				c-6.527-0.271-13.064-0.882-19.517-1.9c-10.2-1.609-20.127-4.24-29.928-7.472c-16.582-5.468-33.878-12.543-51.657-11.191
				c-1.776,0.135-1.565,2.756,0.192,2.741c19.848-0.169,37.793,7.629,56.488,13.194c9.586,2.854,19.365,4.968,29.301,6.158
				c12.015,1.439,25.925-0.645,37.242,3.686c1.531,0.586,2.642-1.53,1.145-2.316c-35.952-18.864-77.867-29.58-118.621-25.588
				C-109.19,240.885-109.059,242.813-107.772,242.753L-107.772,242.753z"/>
		</g>
	</g>
	<path opacity="0.2" fill="#325588" d="M321.715,1286.96c-31.545-24.067-61.838-49.674-90.086-77.509
		c-1.102-1.541-2.219-3.069-3.377-4.569c-1.27-1.645-2.561-3.275-3.902-4.862c-0.628-0.744-1.285-1.464-1.943-2.18
		c-0.765-0.833-1.665-1.45-2.485-2.213c-0.108-0.1-0.23-0.088-0.338-0.04c-1.031-0.826-2.019-1.689-2.958-2.595
		c-2.373-3.407-3.664-7.595-3.929-11.779c-0.116-1.828-0.059-3.65,0.088-5.468c0.022-0.289,0.044-0.579,0.067-0.868
		c0.602-6.022,2.327-11.979,3.561-17.851c3.175-15.095,5.265-30.417,6.286-45.808c1.02-15.374,0.979-30.808-0.142-46.175
		c-1.121-15.371-3.319-30.653-6.544-45.722c-2.987-13.954-6.889-27.711-11.671-41.156c-0.313-1.104-0.612-2.212-0.95-3.308
		c-0.572-1.857-1.183-3.673-1.914-5.473c-0.164-0.403-0.612-0.538-0.981-0.454c-0.643-0.229-1.456,0.136-1.606,0.799
		c-0.233,0.172-0.386,0.441-0.33,0.828c0.604,4.163,0.864,8.379,0.807,12.593c-0.006,0.064-0.009,0.128-0.015,0.192
		c-0.423,4.388-1.133,8.75-2.024,13.066c-1.159,5.611-2.624,11.149-4.153,16.671c-0.187,0.453-0.371,0.908-0.564,1.359
		c-0.08,0.187-0.037,0.353,0.059,0.476c-0.654,2.34-1.314,4.679-1.969,7.018c-4.746,16.971-8.341,34.2-9.779,51.787
		c-1.425,17.431-0.887,35.063,2.284,52.283c2.803,15.225,7.664,30.036,14.621,43.872c0.479,0.953,0.995,1.887,1.495,2.828
		c0.218,0.712,0.427,1.426,0.653,2.135c0.26,0.813,0.561,1.606,0.88,2.392c-25.358-28.126-48.599-58.179-68.815-90.21
		c-3.236-5.128-6.39-10.309-9.467-15.534l0.019-0.234c-1.799-11.957-4.004-23.864-6.246-35.758c0.176-0.071,0.32-0.227,0.306-0.448
		c-0.359-5.538-0.826-11.016-0.488-16.572c0.334-5.486,1.157-10.933,2.445-16.275c2.314-9.599,6.063-18.802,10.81-27.45
		c0.154,0.046,0.319,0.065,0.48,0.028c0.59-0.138,0.946-0.598,1.074-1.17c0.023-0.106,0.014-0.199-0.009-0.285
		c2.866-1.841,5.853-3.47,8.985-4.827c3.66-1.585,7.442-2.847,11.23-4.085c7.549-2.467,15.048-4.893,21.954-8.896
		c13.228-7.666,23.985-19.482,30.68-33.202c3.745-7.673,6.207-15.983,7.134-24.474l0.107-0.084c0.839-0.653,0.036-1.895-0.88-1.429
		l-0.373-0.062c-15.205,0.85-30.119,5.758-42.922,13.995c-13.723,8.828-24.722,21.521-31.668,36.276
		c-4.048,8.598-6.719,17.844-7.817,27.285l0.026,0.311c-4.112,7.6-7.45,15.629-9.735,23.962c-2.456,8.957-3.666,18.349-3.177,27.647
		c-0.243-1.29-0.488-2.58-0.729-3.869c-0.095-2.802-0.45-5.596-0.962-8.369c-0.052-1.581-0.08-3.162-0.115-4.737
		c-0.022-1.001-0.011-2.002-0.009-3.003c0.084-0.134,0.139-0.294,0.112-0.508c-0.035-0.279-0.079-0.558-0.116-0.837
		c0.021-1.741,0.068-3.483,0.147-5.222c0.034-0.745,0.091-1.488,0.136-2.231c0.176-0.098,0.308-0.26,0.322-0.504
		c0.135-2.387,0.217-4.777,0.288-7.169c0.314-3.112,0.69-6.219,1.098-9.32c1.684-12.776,4.03-25.466,5.282-38.298
		c1.327-13.606,1.322-27.284,1.385-40.94c0.063-13.63,0.232-27.294,2.004-40.829c1.756-13.422,5.052-26.761,11.196-38.886
		c0.764-1.509,1.573-2.993,2.419-4.457c0.378-0.655-0.126-1.593-0.856-1.692c-0.851-0.116-1.702-0.232-2.554-0.348
		c-0.58-0.079-0.991,0.219-1.201,0.625c-3.011,2.02-5.876,4.239-8.607,6.61c-9.839,7.116-18.638,15.698-25.839,25.464
		c-9.573,12.983-16.268,27.996-19.19,43.879c-2.856,15.525-1.878,31.335,2.636,46.441c4.114,13.769,10.533,26.688,16.462,39.731
		c4.112,9.046,7.96,18.237,10.682,27.768c0.388,2.006,0.776,4.012,1.157,6.018c3.432,18.034,6.796,36.083,10.442,54.076
		c0.224,1.104,0.467,2.203,0.7,3.304c-19.467-33.516-35.584-68.961-47.292-105.94c-9.879-31.202-16.699-63.405-20.09-95.964
		c0.472-9.044,1.716-18.033,3.858-26.871c1.868-7.713,4.419-15.259,7.553-22.554l0.171-0.033c4.759-2.045,9.327-4.297,13.804-6.909
		c4.505-2.628,8.896-5.46,13.131-8.504c8.431-6.062,16.324-12.883,23.568-20.322c7.253-7.448,13.859-15.527,19.717-24.116
		c5.857-8.586,10.994-17.66,15.276-27.132c4.259-9.423,7.682-19.236,10.17-29.274c0.317-1.279,0.617-2.562,0.904-3.848
		c0.072-0.321,0.001-0.581-0.139-0.787l0.079-0.303c0.125-0.566-0.519-0.926-0.96-0.742l0.156-0.323
		c0.221-0.512-0.505-1.078-0.864-0.574c-1.538,2.16-2.978,4.393-4.599,6.497c-1.593,2.069-3.32,4.034-5.146,5.901
		c-3.78,3.866-7.977,7.3-12.36,10.46c-8.94,6.443-18.645,11.712-27.966,17.563c-9.174,5.759-17.915,12.188-25.042,20.413
		c-6.824,7.876-12.224,16.999-15.907,26.743c-3.685,9.75-5.676,20.116-5.742,30.544c-0.007,1.105,0.02,2.21,0.056,3.314
		c-2.657,6.168-4.891,12.518-6.65,19.001c-1.919,7.075-3.264,14.291-4.023,21.567c-0.784-9.614-1.284-19.251-1.451-28.9
		c-0.004-0.197-0.001-0.393-0.004-0.59c0.079-0.218,0.146-0.44,0.194-0.709c0.103-0.572,0.199-1.144,0.289-1.718
		c0.179-1.148,0.314-2.303,0.428-3.46c0.113-1.139,0.224-2.286,0.252-3.431c0.028-1.175-0.086-2.286-0.239-3.448
		c-0.029-0.221-0.222-0.32-0.401-0.304c0.003-1.075,0.006-2.15,0.054-3.227c0.105-2.348,0.346-4.692,0.682-7.019
		c0.674-4.664,1.758-9.261,3.096-13.777c2.78-9.381,6.698-18.365,10.541-27.346c4.029-9.415,7.997-18.918,10.587-28.848
		c2.453-9.407,3.338-19.112,3.293-28.815c-0.025-5.373-0.334-10.738-0.788-16.091c-0.232-2.737-0.477-5.476-0.801-8.203
		c-0.212-1.781-0.358-3.597-0.695-5.364l0.007-0.048c0.033-0.245-0.026-0.44-0.13-0.589l-0.029-0.147l-0.023-0.081
		c-0.133-0.562-0.279-1.121-0.474-1.665c-0.104-0.287-0.568-0.277-0.612,0.046c-0.035,0.258-0.037,0.516-0.057,0.774
		c-0.177,0.021-0.358,0.077-0.538,0.221c-1.148,0.912-2.287,1.836-3.421,2.768l-0.166,0.049c-0.455,0.391-0.889,0.802-1.334,1.203
		c-6.702,5.603-13.096,11.584-18.813,18.195c-6.959,8.047-12.985,17.08-16.846,27.032c-3.95,10.183-5.334,21.057-4.782,31.934
		c0.57,11.219,3.093,22.239,6.3,32.973c1.641,5.49,3.431,10.942,5.318,16.352c0.99,2.84,1.984,5.68,2.976,8.519
		c0.837,2.395,1.649,4.817,2.562,7.189c-0.108,0.167-0.141,0.385-0.013,0.607c0.196,0.339,0.366,0.691,0.524,1.047
		c-0.032,0.47-0.064,0.94-0.074,1.41c-0.01,0.512,0.384,0.734,0.794,0.725c0.039,0.155,0.087,0.308,0.121,0.465
		c0.134,16.058,1.141,32.104,2.975,48.058c0.026,1.598,0.072,3.196,0.158,4.794c0.095,1.77,0.291,3.537,0.489,5.298
		c0.043,0.38,0.417,0.489,0.679,0.365c1.85,13.433,4.268,26.789,7.24,40.017c-1.136-3.31-2.295-6.612-3.474-9.907
		c-1.609-6.675-2.981-13.404-4.298-20.141c-2.827-14.473-5.486-29.023-9.995-43.09c-4.357-13.595-10.502-26.693-19.588-37.792
		C14.054,800.675,2.9,791.911-9.03,784.533c-12.093-7.477-24.988-13.588-37.973-19.338c-0.73-0.323-1.467-0.63-2.203-0.941
		c-0.415,0.361-0.837,0.717-1.279,1.044l0.048,0.023c1.639,2.283,3.282,4.565,4.82,6.918c0.134,0.211,0.265,0.424,0.401,0.634
		c1.95,3.03,3.77,6.143,5.471,9.32c3.569,6.666,6.667,13.578,9.636,20.528c5.959,13.95,11.401,28.199,19.029,41.357
		c3.965,6.84,8.574,13.208,13.815,19.129c5.589,6.313,11.722,12.111,17.844,17.898c6.124,5.788,12.268,11.577,17.874,17.878
		c5.562,6.251,10.395,13.079,14.504,20.366c8.169,14.486,13.557,30.356,18.626,46.132c0.619,1.927,1.252,3.83,1.978,5.719
		c0.128,0.335,0.347,0.535,0.594,0.63c11.718,34.836,27.241,68.325,45.816,100.066c-4.173-3.955-8.003-8.215-11.364-12.919
		c-4.149-5.808-7.691-12.034-11.027-18.336c-2.033-3.841-4.009-7.721-5.996-11.597c-0.039-0.227-0.081-0.451-0.12-0.668
		c-0.194-1.085-0.465-2.156-0.813-3.202c-0.717-2.155-1.729-4.201-2.844-6.175c-0.039-0.069-0.083-0.136-0.122-0.205
		c-0.003-0.26-0.106-0.511-0.37-0.687c-0.022-0.015-0.044-0.029-0.065-0.043c-1.13-1.921-2.327-3.809-3.49-5.716
		c-1.341-3.516-2.88-6.96-4.594-10.316c-0.167-0.8-0.323-1.603-0.552-2.384c-0.098-0.336-0.581-0.29-0.676,0.017
		c-1.912-3.53-4.01-6.954-6.258-10.249c-6.961-10.2-15.484-19.345-25.205-26.963c-9.965-7.808-21.159-13.992-33.112-18.171
		c-12.303-4.301-25.261-6.557-38.291-6.739c-13.052-0.183-26.154,1.751-38.566,5.808c-1.524,0.498-3.036,1.03-4.538,1.591
		c-1.154,0.431-0.768,2.045,0.22,2.157c-0.374,0.357-0.345,1.116,0.293,1.163c0.853,0.062,1.708,0.09,2.562,0.139
		c6.062,8.284,13.305,15.845,21.161,22.412c8.847,7.394,18.751,13.329,29.565,17.36c11.654,4.344,23.894,6.758,36.065,9.142
		c11.415,2.236,22.88,4.475,33.873,8.358c10.316,3.644,20.285,8.7,28.389,16.154c0.746,0.686,1.477,1.391,2.209,2.091
		c1.135,2.102,2.244,4.22,3.351,6.338c0.041,0.48,0.11,0.949,0.418,1.353c0.102,0.135,0.267,0.226,0.442,0.284
		c1.109,2.128,2.214,4.258,3.329,6.378c6.516,12.393,13.682,25.242,24.528,34.416c1.167,0.988,2.408,1.871,3.675,2.724
		c22.743,38.248,49.784,73.833,79.736,106.714c-1.715-1.241-3.431-2.48-5.135-3.726c-7.401-5.411-14.831-10.781-22.342-16.039
		c-10.014-7.011-20.158-13.839-30.458-20.421c-5.201-4.104-10.477-8.112-15.812-12.028c-11.495-8.438-23.351-16.415-35.743-23.481
		c-11.791-6.723-24.067-12.609-36.849-17.197c-12.304-4.417-25.04-7.695-38.012-9.386c-12.769-1.664-25.766-1.802-38.528-0.003
		c-0.319-0.015-0.638-0.047-0.957-0.059c-2.193-0.082-4.385-0.151-6.578-0.186c-1.04-0.017-1.152,1.772-0.097,1.842l0.309,0.024
		c8.345,10.301,18.273,19.253,29.097,26.895c10.883,7.684,22.686,14.055,35.115,18.857c12.917,4.991,26.347,8.097,40.014,10.188
		c12.63,1.931,25.351,3.224,37.969,5.231c5.216,1.32,10.425,2.672,15.605,4.13c6.476,1.822,12.874,3.866,19.291,5.882
		c1.127,0.354,2.264,0.675,3.402,0.99c9.635,4.848,19.057,10.147,28.135,15.9c1.474,0.934,2.93,1.895,4.384,2.859
		c1.921,1.361,3.846,2.715,5.762,4.081c2.523,1.8,5.032,3.625,7.543,5.446c6.448,4.977,12.622,10.3,18.427,16.022
		c2.687,3.179,5.513,6.242,8.508,9.151c1.395,1.355,2.825,2.665,4.301,3.932c0.225,0.194,0.463,0.259,0.693,0.269
		c0.455,0.45,0.92,0.89,1.375,1.339c0.252,0.369,0.508,0.734,0.758,1.105c0.553,0.821,1.029,1.821,1.925,2.3
		c0.266,0.142,0.557,0.112,0.798-0.016c22.654,22.028,46.572,42.763,71.472,62.203c4.599,3.59,9.235,7.129,13.918,10.61
		C321.347,1289.785,322.996,1287.938,321.715,1286.96z M143.697,961.14c6.656-3.391,13.331-6.713,19.782-10.487
		c12.961-7.582,25.09-16.726,34.45-28.574c0.138-0.174,0.268-0.356,0.405-0.531c-0.116,0.178-0.221,0.363-0.339,0.539
		c-3.824,5.741-8.235,11.094-13.175,15.91c-4.934,4.81-10.365,9.108-16.184,12.798c-6.019,3.816-12.478,6.744-19.006,9.563
		c-3.545,1.531-7.077,3.155-10.46,5.02c-0.643,0.355-1.282,0.726-1.92,1.098c0.151-0.181,0.313-0.349,0.459-0.535
		c0.756-0.964,1.551-1.896,2.344-2.829C141.248,962.418,142.47,961.765,143.697,961.14z M142.521,960.317
		c1.661-1.823,3.36-3.611,5.129-5.329c4.808-4.669,9.974-8.944,15.23-13.095c10.465-8.264,21.374-16.026,31.168-25.104
		c4.973-4.61,9.682-9.571,13.603-15.116c-2.469,6.381-5.613,12.383-9.681,17.93c-4.453,6.073-9.769,11.5-15.554,16.31
		c-11.647,9.686-24.996,16.767-38.416,23.635C143.513,959.797,143.018,960.055,142.521,960.317z M173.529,952.719
		c-6.651,4.094-13.9,6.7-21.274,9.159c-3.174,1.059-6.449,2.144-9.642,3.421c2.074-1.024,4.163-2.019,6.259-3.003
		c6.367-2.987,12.8-5.828,18.826-9.477c11.869-7.187,22.24-16.92,30.313-28.197c2.259-3.156,4.343-6.44,6.224-9.835
		c0.364-0.657,0.729-1.326,1.092-1.996c-3.167,9.278-8.182,17.921-14.639,25.333C185.733,943.814,179.956,948.763,173.529,952.719z
		 M208.116,900.007c-3.929,5.224-8.289,10.099-13.057,14.572c-4.916,4.612-10.176,8.825-15.536,12.905
		c-10.631,8.092-21.691,15.639-31.566,24.678c-2.731,2.5-5.381,5.102-7.844,7.867c-0.697,0.782-1.358,1.595-2.023,2.405
		l-0.078,0.051c-0.446,0.434-0.891,0.868-1.337,1.302c-0.334,0.228-0.663,0.462-0.988,0.701
		c4.878-7.176,10.454-13.862,16.488-20.107c8.183-8.468,17.171-16.118,26.498-23.29c9.376-7.211,19.163-13.821,28.83-20.626
		C207.711,900.316,207.912,900.161,208.116,900.007z M148.726,929.296c9.704-11.747,22.565-20.666,36.885-25.836
		c6.64-2.397,13.549-3.965,20.565-4.673c-3.757,2.415-7.409,4.993-11.07,7.556c-4.929,3.451-9.819,6.96-14.625,10.58
		c-9.514,7.167-18.712,14.786-27.151,23.203c-8.25,8.228-15.733,17.215-21.907,27.112c-0.397,0.637-0.775,1.287-1.162,1.931
		C132.88,954.582,139.275,940.737,148.726,929.296z M113.395,859.686c-3.543,11.313-5.898,22.994-7.314,34.759
		c-1.402,11.653-1.893,23.401-1.783,35.133c0.111,11.803,0.831,23.597,1.841,35.355c0.898,10.458,2.122,20.891,3.593,31.285
		c-0.434-1.386-0.895-2.762-1.385-4.118c-0.078-0.217-0.168-0.43-0.248-0.646c-1.575-8.508-3.103-17.023-4.472-25.563
		c-2.668-16.642-4.538-33.457-3.65-50.333c0.86-16.353,4.007-32.622,9.277-48.125c2.738-8.055,6.081-15.847,9.915-23.394
		C116.973,849.147,115.057,854.38,113.395,859.686z M110.359,987.46c-0.753-5.94-1.418-11.891-1.997-17.85
		c-1.139-11.73-2.026-23.487-2.388-35.267c-0.36-11.72-0.189-23.469,0.858-35.152c1.052-11.739,2.994-23.394,6.12-34.765
		c3.153-11.469,7.597-22.472,13.252-32.932c0.307-0.568,0.634-1.126,0.95-1.69c0.883-1.431,1.775-2.857,2.693-4.269
		c-0.027,0.064-0.051,0.128-0.078,0.192c-4.95,8.942-8.686,18.506-11.429,28.351c-3.093,11.1-5.01,22.469-6.09,33.935
		c-1.076,11.419-1.342,22.897-1.247,34.362c0.097,11.606,0.53,23.206,0.868,34.807c0.251,8.622,0.447,17.256,0.33,25.883
		c-0.404,3.547-0.743,7.102-0.98,10.664C110.925,991.641,110.624,989.553,110.359,987.46z M118.995,895.005
		c-0.128,13.801,0.093,27.629-0.903,41.404c-0.853,11.798-2.748,23.476-4.405,35.179c-0.045-3.202-0.108-6.403-0.187-9.599
		c-0.284-11.544-0.804-23.082-1.048-34.627c-0.244-11.537-0.229-23.093,0.573-34.61c0.792-11.379,2.325-22.729,4.984-33.829
		c2.141-8.939,5.135-17.682,9.016-26.016c-2.333,6.809-4.02,13.848-5.195,20.946C119.581,867.447,119.123,881.25,118.995,895.005z
		 M133.35,817.212c-1.268,1.576-2.654,3.089-3.826,4.735c-1.169,1.641-2.294,3.313-3.395,5c-2.291,3.507-4.416,7.129-6.426,10.804
		c-3.988,7.29-7.469,14.857-10.417,22.625c-5.857,15.431-9.658,31.643-11.159,48.084c-1.544,16.919-0.394,33.841,2.06,50.616
		c1.076,7.356,2.352,14.684,3.708,21.999c-1.209-2.812-2.432-5.618-3.596-8.449c-5.39-13.115-9.333-26.832-11.437-40.862
		c-2.088-13.925-2.348-28.163-0.171-42.093c2.148-13.747,6.644-27.122,13.402-39.293c4.609-8.302,10.296-15.96,16.902-22.743
		c3.225-2.694,6.574-5.242,10.044-7.617C130.454,819.049,131.897,818.122,133.35,817.212z M132.24,816.095
		c0.001,0.004,0.001,0.008,0.002,0.011c-0.036,0.022-0.071,0.047-0.107,0.068C132.17,816.148,132.205,816.121,132.24,816.095z
		 M85.459,943.381c-2.393-6.732-4.325-13.646-5.379-20.721c-1.194-8.02-1.318-16.192-0.428-24.25
		c1.777-16.093,7.484-31.59,16.323-45.136c4.607-7.06,10.041-13.511,16.065-19.363c-2.844,3.495-5.487,7.156-7.877,10.968
		c-7.402,11.805-12.625,24.984-15.506,38.609c-2.927,13.844-3.504,28.215-2.123,42.282c1.393,14.193,4.774,28.195,9.717,41.564
		c2.686,7.263,6.091,14.353,8.923,21.616c-0.878-2.171-1.77-4.336-2.708-6.481C96.773,969.453,90.224,956.788,85.459,943.381z
		 M135.579,752.886c-5.59,8.593-11.949,16.696-18.933,24.2c-7.019,7.541-14.687,14.472-22.92,20.667
		c-4.092,3.079-8.314,5.992-12.656,8.708c-4.347,2.719-8.872,5.097-13.319,7.64c-0.696,0.398-1.404,0.77-2.109,1.149
		c0.095-0.213,0.199-0.422,0.296-0.635c12.399-9.849,24.556-20.001,36.335-30.586c6.118-5.497,12.105-11.143,17.879-17.002
		c5.767-5.852,11.421-11.79,16.69-18.1c1.46-1.749,2.914-3.512,4.333-5.302C139.397,746.763,137.547,749.861,135.579,752.886z
		 M147.963,730.405c-0.407,0.886-0.842,1.76-1.264,2.638c-0.66,1.222-1.386,2.408-2.168,3.557c-2.293,3.373-4.841,6.585-7.4,9.759
		c-5.071,6.292-10.382,12.465-15.996,18.279c-11.265,11.664-23.379,22.453-35.789,32.876c-6.227,5.229-12.496,10.409-18.727,15.633
		c0.315-0.677,0.62-1.359,0.945-2.032c1.472-2.253,3.05-4.43,4.814-6.495c2.874-3.365,6.042-6.465,9.298-9.456
		c6.889-6.33,14.037-12.366,20.886-18.743c7.039-6.554,13.956-13.24,20.746-20.052c6.738-6.76,13.449-13.589,19.91-20.616
		c1.667-1.813,3.328-3.72,4.897-5.715C148.066,730.16,148.014,730.283,147.963,730.405z M155.527,710.736l-0.048,0.308
		c-1.281,4.02-2.713,7.991-4.292,11.906c-2.083,3.627-4.685,7.007-7.413,10.216c-6.159,7.247-12.87,14.049-19.552,20.81
		c-6.68,6.759-13.484,13.395-20.408,19.904c-6.861,6.45-13.888,12.713-20.833,19.071c-3.654,3.346-7.264,6.745-10.52,10.488
		c-0.895,1.029-1.773,2.09-2.62,3.178c1.12-2.126,2.285-4.23,3.519-6.292c7.561-12.626,17.22-23.57,28.024-33.508
		c11.036-10.151,22.888-19.404,33.528-29.986C142.681,729.106,150.169,720.453,155.527,710.736z M65.655,803.589
		c0.678-6.151,2.009-12.231,3.994-18.095c3.317-9.801,8.334-19.032,14.851-27.074c6.784-8.37,15.159-15.025,24.153-20.877
		c9.168-5.964,18.822-11.162,27.791-17.436c2.207-1.544,4.403-3.166,6.546-4.87c-7.981,8.199-16.619,15.796-25.188,23.337
		c-14.892,13.104-29.909,26.515-40.985,43.14C72.312,788.477,68.351,795.846,65.655,803.589z M65.349,806.986
		c0.989-3.246,2.129-6.454,3.525-9.532c2.022-4.458,4.417-8.739,7.069-12.852c5.418-8.404,11.918-16.076,18.883-23.231
		c13.724-14.097,29.371-26.112,43.624-39.643c7.243-6.875,14.083-14.169,20.03-22.195c-2.364,5.418-4.96,10.68-8.248,15.654
		c-4.117,6.229-8.96,11.964-14.128,17.342c-10.434,10.859-22.284,20.202-33.475,30.244c-10.942,9.819-20.945,20.45-28.893,32.869
		c-3.2,5.001-6.055,10.216-8.589,15.582C65.174,809.81,65.251,808.398,65.349,806.986z M77.033,686.726
		c0.376,4.814,0.655,9.637,0.756,14.465c0.203,9.677-0.42,19.391-2.616,28.838c-4.296,18.479-13.722,35.167-19.953,52.989
		c0.158-1.021,0.304-2.043,0.465-3.063c0.854-3.793,1.901-7.539,3.032-11.258c2.272-7.471,4.767-14.873,7.086-22.33
		c4.59-14.758,9.068-29.781,9.915-45.305c0.234-4.281,0.253-8.57,0.425-12.853c0.091-2.242,0.201-4.481,0.43-6.713l0.018-0.134
		C76.74,683.151,76.893,684.938,77.033,686.726z M74.444,686.027c-0.195,3.93-0.14,7.866-0.204,11.799
		c-0.125,7.805-0.934,15.536-2.492,23.186c-3.126,15.343-8.678,29.992-13.14,44.962c-0.512,1.718-1.005,3.441-1.496,5.164
		c0.279-1.709,0.547-3.419,0.83-5.127c1.562-9.425,3.215-18.828,5.048-28.205c1.831-9.367,3.621-18.756,5.639-28.085
		c1.133-5.235,2.376-10.45,3.621-15.66c0.718-3.006,1.504-6.006,2.244-9.015C74.479,685.373,74.46,685.703,74.444,686.027z
		 M74.558,681.881c-0.93,3.432-1.709,6.914-2.543,10.363c-1.123,4.642-2.221,9.29-3.288,13.945
		c-2.149,9.373-4.401,18.711-6.355,28.128c-3.88,18.705-7.325,37.497-10.25,56.375c-0.108,0.701-0.21,1.403-0.317,2.104
		c2.131-34.105,8.348-67.961,19.114-100.404C72.088,688.871,73.308,685.371,74.558,681.881z M39.896,791.802
		c-3.338-10.592-6.184-21.401-7.263-32.482c-1.041-10.695-0.4-21.575,2.9-31.849c3.228-10.051,8.798-19.194,15.466-27.321
		c1.977-2.41,4.058-4.73,6.205-6.987c-6.704,9.956-11.472,21.24-14.461,32.887c-5.123,19.964-4.694,40.833-1.685,61.093
		c0.85,5.724,1.924,11.409,3.155,17.064c0.164,0.754,0.334,1.508,0.501,2.262C43.093,801.585,41.442,796.71,39.896,791.802z
		 M46.146,805.879c-1.141-5.002-2.164-10.032-3.055-15.084c-1.778-10.091-2.905-20.285-3.07-30.536
		c-0.32-19.816,3.158-39.859,12.317-57.58c2.257-4.367,4.866-8.549,7.785-12.497c3.953-3.924,8.116-7.641,12.404-11.188
		c-2.532,2.849-4.733,6.053-6.706,9.27c-2.495,4.069-4.671,8.33-6.566,12.709c-3.805,8.793-6.504,18.039-8.532,27.392
		c-4.129,19.051-5.944,38.713-5.49,58.197c0.174,7.461,0.751,14.915,1.646,22.329C46.636,807.886,46.376,806.886,46.146,805.879z
		 M47.4,761.297c1.298-19.107,4.384-38.561,11.429-56.455c1.945-4.94,4.212-9.757,6.873-14.353
		c2.731-4.719,5.968-9.014,9.177-13.404l0.005-0.017l0.12-0.096c-16.708,42.08-24.998,87.29-26.126,132.483
		c-0.006,0.24-0.004,0.481-0.01,0.721C46.825,793.987,46.295,777.556,47.4,761.297z M-14.454,783.531
		c11.967,7.012,23.328,15.288,32.645,25.631c9.543,10.594,16.195,23.235,20.857,36.645c4.79,13.778,7.62,28.122,10.39,42.412
		c0.626,3.227,1.253,6.458,1.899,9.686c-4.654-11.915-9.703-23.678-15.388-35.139c-6.51-13.125-13.804-25.865-22.148-37.916
		C5.73,813.191-3.285,802.146-13.341,792.14c-7.815-7.777-16.262-14.971-25.353-21.223
		C-30.48,774.859-22.328,778.917-14.454,783.531z M27.38,884.181C15.327,872.675,2.801,861.6-6.312,847.488
		c-8.278-12.818-14.021-27.021-19.99-41.001c-2.189-5.126-4.42-10.269-6.824-15.328c0.966,1.452,1.929,2.907,2.894,4.36
		c5.783,8.705,11.543,17.426,17.296,26.15c11.505,17.449,23.218,34.764,34.841,52.134c3.22,4.813,6.441,9.625,9.661,14.438
		C30.181,886.877,28.785,885.523,27.38,884.181z M36.732,893.5c-0.93-1.392-1.861-2.782-2.791-4.174
		c-2.905-4.344-5.81-8.687-8.715-13.031c-5.81-8.687-11.615-17.377-17.431-26.06c-11.633-17.365-23.338-34.681-35.017-52.016
		c-3.067-4.551-6.128-9.107-9.198-13.656c-3.037-5.838-6.401-11.491-10.296-16.802c7.988,9.192,16.211,18.177,24.112,27.446
		c8.29,9.726,16.28,19.715,23.589,30.204c7.201,10.333,13.596,21.117,19.331,32.328c5.639,11.023,10.833,22.278,16.883,33.088
		c1.859,3.321,3.812,6.591,5.863,9.797C41.025,898.184,38.921,895.804,36.732,893.5z M51.501,909.958
		c-3.736-4.89-7.171-9.977-10.328-15.26c-6.402-10.714-11.763-21.998-17.37-33.137c-5.686-11.295-11.786-22.31-18.868-32.798
		c-7.21-10.677-15.189-20.827-23.489-30.672c-8.251-9.787-16.828-19.306-25.608-28.621c-0.519-0.551-1.048-1.093-1.573-1.638
		c9.786,6.563,19.016,13.957,27.506,22.128c10.205,9.822,19.395,20.673,27.62,32.197c8.4,11.768,15.784,24.236,22.351,37.112
		c6.856,13.442,12.81,27.332,18.198,41.422c1.717,4.49,3.362,9.005,4.973,13.533c0.059,0.239,0.126,0.476,0.186,0.715
		C53.983,913.216,52.731,911.568,51.501,909.958z M-62.657,948.526c7.317,0.34,14.653,0.37,21.964,0.897
		c8.876,0.639,17.723,1.751,26.46,3.448c16.743,3.252,33.061,8.707,48.033,16.933c14.072,7.732,26.964,17.857,37.163,30.307
		c2.902,3.542,5.5,7.279,7.938,11.117c0.066,0.166,0.136,0.329,0.202,0.495c-2.203-1.612-4.43-3.191-6.68-4.736
		c-4.531-3.11-9.152-6.094-13.864-8.924c-9.359-5.622-19.113-10.617-29.084-15.057c-9.94-4.426-20.135-8.259-30.535-11.459
		c-10.199-3.138-20.603-5.456-30.861-8.371c-10.862-3.086-21.301-7.269-30.316-14.14C-62.374,948.865-62.518,948.698-62.657,948.526
		z M79.441,1007.366c0.071,0.178,0.144,0.354,0.218,0.531c-0.128-0.194-0.26-0.385-0.388-0.578
		c-0.309-0.741-0.632-1.476-0.954-2.211C78.694,1005.86,79.079,1006.607,79.441,1007.366z M-59.356,952.48
		c6.739,4.9,14.677,8.096,22.579,10.587c10.11,3.187,20.51,5.341,30.677,8.331c20.99,6.172,41.225,15.11,60.061,26.22
		c5.3,3.126,10.517,6.396,15.606,9.856c0.143,0.097,0.28,0.201,0.423,0.298c-3.758-2.019-7.561-3.949-11.384-5.805
		c-9.857-4.787-20.052-8.836-30.379-12.49c-10.43-3.691-21.071-6.591-31.756-9.429c-10.577-2.81-21.182-5.85-31.16-10.404
		c-8.299-3.787-16.171-8.71-22.793-15.006C-58.113,953.924-58.736,953.204-59.356,952.48z M8.24,944.939
		c11.93,3.643,23.242,9.29,33.332,16.622c8.551,6.214,16.26,13.584,22.881,21.825c-6.656-7.078-14.687-12.851-22.888-17.982
		c-10.774-6.74-22.253-12.445-34.263-16.625c-11.319-3.94-23.146-6.502-35.109-7.337c-6.908-0.482-13.854-0.364-20.729,0.396
		c6.203-1.181,12.499-1.875,18.823-2.043C-16.894,939.453-4.026,941.194,8.24,944.939z M-64.72,946.132
		c1.482-0.513,2.976-0.991,4.477-1.442c3.749-0.82,7.523-1.512,11.348-1.945c5.593-0.634,11.233-0.843,16.858-0.652
		c11.804,0.4,23.521,2.599,34.736,6.283c11.859,3.896,23.162,9.289,33.821,15.769c10.018,6.091,19.995,12.921,27.848,21.717
		c3.753,4.204,6.744,8.883,9.308,13.804c-9.416-11.787-21.11-21.64-34.03-29.399C25.1,961.531,9.05,955.519-7.463,951.742
		c-8.738-1.999-17.613-3.375-26.532-4.246c-8.884-0.868-17.881-1.389-26.808-1.058c-1.166,0.043-2.327,0.104-3.486,0.187
		C-64.434,946.462-64.575,946.296-64.72,946.132z M28.726,996.435c-12.213-2.408-24.538-4.479-36.438-8.21
		c-11.254-3.528-21.733-8.822-31.105-15.996c-4.551-3.484-8.826-7.316-12.861-11.389c12.28,9.414,27.75,14.615,42.495,18.741
		c10.866,3.041,21.788,5.853,32.467,9.52c10.423,3.579,20.511,7.918,30.445,12.676c1.907,0.914,3.789,1.868,5.667,2.829
		C49.476,1000.866,39.114,998.483,28.726,996.435z M221.137,1198.923c0.024,0.011,0.049,0.021,0.072,0.032
		c0.041,0.055,0.082,0.109,0.122,0.165C221.267,1199.053,221.202,1198.989,221.137,1198.923z M211.663,1187.233
		c0.035-0.055,0.062-0.119,0.075-0.193c0.024-0.141,0.037-0.283,0.06-0.424c0.124,0.451,0.231,0.907,0.379,1.35
		C211.996,1187.727,211.839,1187.474,211.663,1187.233z M219.98,1061.167c1.343,15.507,1.617,31.121,0.79,46.665
		c-0.826,15.524-2.759,30.989-5.793,46.236c-0.279,1.404-0.59,2.808-0.909,4.214c0.162-2.29,0.334-4.579,0.491-6.869
		c0.816-11.9,1.538-23.808,2.036-35.725c0.497-11.891,0.765-23.795,0.756-35.696c-0.009-11.932-0.337-23.864-1.081-35.773
		c-0.439-7.022-1.046-14.033-1.804-21.027C217.033,1035.73,218.876,1048.417,219.98,1061.167z M212.674,1014.906
		c0.063,0.27,0.119,0.542,0.181,0.813c0.941,8.03,1.683,16.084,2.218,24.15c0.786,11.851,1.143,23.728,1.194,35.604
		c0.051,11.906-0.236,23.81-0.741,35.704c-0.508,11.968-1.204,23.926-2.028,35.875c-0.482,6.98-1.012,13.956-1.553,20.931
		c-0.636,3.308-1.115,6.634-1.192,9.994c-0.027,1.168,0.033,2.349,0.136,3.529c-0.032,0.399-0.063,0.799-0.094,1.199
		c-0.081,1.032-0.127,2.05-0.149,3.075c-4.813-7.155-7.698-15.601-8.912-24.202c-2.238-15.858,1.067-31.812,4.342-47.282
		c1.673-7.903,3.317-15.805,4.515-23.797c1.157-7.715,1.979-15.48,2.473-23.265c0.984-15.5,0.699-31.073-0.889-46.523
		c-0.576-5.608-1.329-11.197-2.244-16.76C210.907,1007.586,211.823,1011.238,212.674,1014.906z M201.933,978.42
		c1.148,4.702,2.363,9.391,3.356,14.127c1.617,7.709,2.895,15.489,3.847,23.308c1.893,15.549,2.474,31.258,1.734,46.904
		c-0.757,16.008-3.107,31.795-6.387,47.467c-3.294,15.742-7.036,31.909-5.388,48.095c0.077,0.761,0.189,1.526,0.291,2.29
		c-0.126-0.557-0.259-1.113-0.382-1.67c-1.477-6.678-2.661-13.421-3.564-20.201c-1.804-13.549-2.443-27.238-1.914-40.896
		c0.515-13.326,2.308-26.546,4.232-39.729c1.91-13.087,3.853-26.211,4.79-39.411c0.86-12.111,0.842-24.437-1.248-36.433
		c0.009-0.591,0.041-1.183,0.037-1.775c-0.007-0.806-0.029-1.613-0.062-2.418c0.008-0.471,0.029-0.94,0.029-1.412
		C201.518,977.248,201.723,977.835,201.933,978.42z M201.114,986.642c1.069,9.278,1.183,18.655,0.615,27.989
		c-0.802,13.195-2.803,26.27-4.804,39.325c-2.022,13.19-3.953,26.431-4.722,39.763c-0.785,13.596-0.433,27.256,1.026,40.796
		c0.164,1.521,0.345,3.042,0.536,4.562c-1.515-10.432-2.446-20.952-2.864-31.483c-0.497-12.514-0.273-25.042,0.471-37.541
		c0.784-13.172,2.049-26.331,3.635-39.43c1.298-10.718,2.89-21.395,4.347-32.091C200.257,994.623,200.83,990.641,201.114,986.642z
		 M186.45,1130.281c-3.649-16.861-4.689-34.293-3.705-51.497c0.994-17.373,4.04-34.57,8.513-51.373
		c1.773-6.657,3.726-13.323,5.44-20.037c0.319-0.875,0.622-1.755,0.91-2.641c-1.072,7.044-2.098,14.096-3.042,21.16
		c-1.765,13.196-3.314,26.417-4.262,39.699c-0.893,12.517-1.331,25.078-1.092,37.626c0.231,12.145,1.125,24.27,2.871,36.293
		c0.996,6.866,2.252,13.717,3.83,20.489C191.811,1150.429,188.65,1140.446,186.45,1130.281z M203.623,1180.322
		c-0.162-0.178-0.318-0.36-0.481-0.538c0.061,0.017,0.123,0.031,0.185,0.03C203.429,1179.982,203.521,1180.155,203.623,1180.322z
		 M202.569,1179.005l0.086,0.234c-0.048-0.053-0.094-0.106-0.142-0.159C202.53,1179.053,202.558,1179.036,202.569,1179.005z
		 M-7.755,1084.63c6.06,1.227,12.094,2.585,18.096,4.071c12.077,2.99,24.012,6.517,35.777,10.563
		c11.696,4.022,23.222,8.542,34.536,13.54c11.317,5,22.403,10.49,33.269,16.405c10.071,5.483,19.879,11.4,29.493,17.643
		c-2.316-0.763-4.65-1.461-7.001-2.103c-15.243-6.549-30.725-12.439-46.388-17.927c-18.595-6.515-37.328-12.631-55.85-19.355
		c-18.372-6.669-36.566-13.94-54.039-22.726c-1.206-0.607-2.412-1.213-3.619-1.817c-0.168-0.164-0.333-0.33-0.5-0.494
		c0.682-0.113,1.364-0.227,2.047-0.329C-17.195,1082.874-12.463,1083.677-7.755,1084.63z M126.973,1142.469
		c-3.245-1.142-6.49-2.289-9.747-3.397c-12.183-4.142-24.455-8.021-36.809-11.622c-12.411-3.618-24.94-6.784-37.392-10.251
		c-12.164-3.387-24.242-7.179-35.653-12.645c-10.283-4.925-20.046-11.166-28.259-19.121c15.329,7.99,31.437,14.554,47.599,20.605
		c18.278,6.844,36.811,12.971,55.251,19.353c15.57,5.389,31.076,10.988,46.278,17.349
		C127.818,1142.648,127.395,1142.558,126.973,1142.469z M-24.244,1083.679c0.426,0.229,0.859,0.445,1.286,0.672
		c7.133,7.753,16.084,13.825,25.351,18.716c10.908,5.757,22.615,9.946,34.4,13.504c12.502,3.775,25.174,6.965,37.709,10.629
		c12.582,3.677,25.084,7.628,37.493,11.852c1.3,0.443,2.595,0.899,3.893,1.349c-3.824-0.624-7.658-1.182-11.5-1.697
		c-9.161-2.186-18.338-4.311-27.477-6.588c-12.287-3.061-24.502-6.453-36.455-10.648c-11.287-3.962-22.35-8.63-32.827-14.423
		c-10.531-5.822-20.318-12.715-29.202-20.836C-22.477,1085.381-23.363,1084.532-24.244,1083.679z M144.872,1145.381
		c1.606,1.252,3.217,2.498,4.825,3.748c-1.039-0.414-2.084-0.811-3.133-1.198c-8.997-6.258-18.471-11.888-27.99-17.288
		c-10.809-6.131-21.916-11.744-33.225-16.891c-11.365-5.174-22.958-9.85-34.726-14.026c-11.645-4.133-23.467-7.769-35.411-10.936
		c-6.858-1.819-13.77-3.446-20.71-4.937c9.762,1.368,19.454,3.21,29.026,5.617c17.248,4.338,34.076,10.261,50.395,17.315
		c16.388,7.084,32.253,15.324,47.675,24.31C129.463,1135.678,137.212,1140.459,144.872,1145.381z M12.562,1081.392
		c12.867,1.303,25.571,4.192,37.829,8.291c12.638,4.227,24.81,9.736,36.504,16.111c12.416,6.769,24.285,14.497,35.769,22.738
		c0.938,0.673,1.855,1.374,2.787,2.056c-14.616-8.645-29.62-16.647-45.103-23.631c-16.182-7.299-32.873-13.512-49.996-18.218
		c-8.637-2.374-17.382-4.361-26.207-5.898c-4.407-0.767-8.846-1.456-13.302-1.995C-1.92,1080.477,5.346,1080.662,12.562,1081.392z
		 M42.157,1127.181c-12.571-4.275-24.594-10.201-35.709-17.458c-5.63-3.676-11.027-7.723-16.153-12.074
		c-1.734-1.471-3.406-3-5.057-4.548c5.588,4.558,11.556,8.663,17.741,12.328c10.325,6.118,21.289,11.148,32.502,15.404
		c11.611,4.407,23.522,7.956,35.521,11.136c6.543,1.734,13.112,3.366,19.686,4.975c-2.611-0.332-5.22-0.667-7.826-1.023
		C69.092,1134.042,55.348,1131.667,42.157,1127.181z"/>
</g>
<g id="Layer_2">
</g>
<g id="Layer_3">
</g>
</svg>
