<?xml version="1.0" encoding="utf-8"?>
<!-- Generator: Adobe Illustrator 27.9.0, SVG Export Plug-In . SVG Version: 6.00 Build 0)  -->
<svg version="1.1" xmlns="http://www.w3.org/2000/svg" xmlns:xlink="http://www.w3.org/1999/xlink" x="0px" y="0px"
	 viewBox="0 0 604.596 245.106" enable-background="new 0 0 604.596 245.106" xml:space="preserve">
<g id="OBJECTS">
	<g>
		<path fill="#2E3D70" d="M241.341,211.945H51.115V21.721h190.225V211.945z M58.594,204.467h175.268V29.199H58.594V204.467z"/>
		<path fill="#2E3D70" d="M203.506,58.552h-0.417c-0.563,0-0.843-0.291-0.843-0.879v-2.971c0-0.132-0.047-0.245-0.14-0.341
			c-0.094-0.093-0.206-0.14-0.341-0.14h-0.415v4.115h0.298v0.216h-1.558v-0.216h0.298v-7.971h-0.298v-0.216h1.675
			c0.398,0,0.739,0.119,1.022,0.359c0.281,0.241,0.421,0.529,0.421,0.865v1.622c0,0.524-0.28,0.896-0.839,1.114
			c0.559,0.236,0.839,0.609,0.839,1.12v2.784c0,0.215,0.091,0.323,0.275,0.323h0.023V58.552z M202.246,53.524v-2.678
			c0-0.134-0.047-0.245-0.14-0.34c-0.094-0.093-0.206-0.14-0.341-0.14h-0.415v3.64h0.415c0.134,0,0.246-0.047,0.341-0.14
			C202.199,53.77,202.246,53.658,202.246,53.524"/>
		<path fill="#2E3D70" d="M206.404,60.989h-9.212c-0.817,0-1.481-0.664-1.481-1.48V49.193c0-0.815,0.663-1.48,1.481-1.48h9.212
			c0.817,0,1.482,0.665,1.482,1.48v10.316C207.886,60.325,207.221,60.989,206.404,60.989 M197.192,48.361
			c-0.459,0-0.834,0.373-0.834,0.832v10.316c0,0.459,0.375,0.832,0.834,0.832h9.212c0.46,0,0.834-0.373,0.834-0.832V49.193
			c0-0.459-0.374-0.832-0.834-0.832H197.192z"/>
		<polygon fill="#2E3D70" points="172.57,117.034 140.716,60.135 139.171,62.84 171.594,120.511 174.548,120.511 		"/>
		<path fill="#2E3D70" d="M187.847,112.512L153.116,51.75c-0.803-1.405-2.059-2.145-3.358-2.289c0.739,0.548,1.38,1.248,1.864,2.098
			c0.501,0.881,0.78,1.826,0.864,2.773c0.017,0.158,0.029,0.315,0.032,0.473v0.016c0.004,0.187-0.003,0.372-0.016,0.555
			c-0.004,0.068-0.01,0.137-0.017,0.206c-0.007,0.088-0.02,0.176-0.032,0.263c-0.03,0.224-0.07,0.446-0.123,0.666
			c-0.027,0.123-0.058,0.244-0.092,0.364c-0.192,0.704-0.458,1.387-0.721,2.064c-0.768,1.972-1.493,3.833-0.262,6.033
			c1.233,2.201,3.201,2.554,5.281,2.929c2.233,0.401,4.542,0.817,6.019,3.454c1.477,2.638,0.627,4.823-0.197,6.937
			c-0.769,1.971-1.494,3.832-0.261,6.033c1.232,2.2,3.199,2.554,5.281,2.928c2.232,0.401,4.541,0.817,6.017,3.455
			c1.478,2.637,0.627,4.823-0.195,6.936c-0.768,1.972-1.494,3.834-0.261,6.034c1.233,2.201,3.199,2.555,5.282,2.931
			c0.462,0.083,0.927,0.168,1.388,0.271c1.979,0.32,3.802,1.495,4.87,3.374c1.872,3.289,0.725,7.473-2.565,9.346
			c-1.054,0.6-2.198,0.89-3.332,0.898l-4.001,0.013h9.462C187.647,120.51,189.815,115.954,187.847,112.512"/>
		<path fill="#2E3D70" d="M161.507,185.571h-35.246c-0.768,0-1.389-0.621-1.389-1.388c0-0.766,0.621-1.387,1.389-1.387h35.246
			c0.766,0,1.388,0.621,1.388,1.387C162.895,184.949,162.273,185.571,161.507,185.571"/>
		<path fill="#2E3D70" d="M189.16,135.25c0.227-1.406,0.393-2.833,0.488-4.28c0.06-0.885-0.611-1.649-1.495-1.708
			c-0.894-0.058-1.648,0.61-1.707,1.494c-1.472,22.221-20.083,39.627-42.368,39.627c-10.82,0-21.124-4.07-29.015-11.463
			c-7.854-7.356-12.592-17.3-13.341-28.001c-0.062-0.885-0.828-1.552-1.714-1.49c-0.884,0.062-1.551,0.83-1.489,1.714
			c0.806,11.511,5.903,22.207,14.349,30.12c8.489,7.951,19.574,12.33,31.21,12.33c14.552,0,27.644-6.901,36.044-17.671
			c5.22,1.05,10.659-1.642,12.864-6.718C195.182,144.145,193.457,138.356,189.16,135.25 M190.663,148.195
			c-1.554,3.576-5.162,5.637-8.846,5.404c3.165-4.63,5.503-9.875,6.79-15.525C191.267,140.61,192.209,144.634,190.663,148.195"/>
		<path fill="#2E3D70" d="M134.615,129.512h-26.141c-0.868,0-1.556,0.744-1.483,1.609c0.618,7.333,3.524,14.011,8.004,19.323
			c0.56,0.663,1.571,0.7,2.183,0.087l18.486-18.486C136.599,131.11,135.938,129.512,134.615,129.512 M127.762,133.765l-0.518,0.558
			c-0.112,0.138-0.265,0.247-0.449,0.304c-0.487,0.15-1.006-0.124-1.156-0.612c-0.151-0.487,0.123-1.005,0.611-1.156
			c0.183-0.057,0.37-0.053,0.541-0.002l0.743,0.169l0.752,0.173L127.762,133.765z"/>
		<path fill="#2E3D70" d="M179.683,129.513h-26.142c-1.322,0-1.983,1.598-1.049,2.533l18.486,18.486
			c0.612,0.613,1.623,0.575,2.182-0.087c4.48-5.312,7.386-11.991,8.006-19.323C181.238,130.256,180.552,129.513,179.683,129.513
			 M162.406,134.41c-0.184,0.477-0.721,0.712-1.198,0.528c-0.178-0.07-0.324-0.19-0.423-0.336l-0.479-0.594l-0.483-0.601
			l0.763-0.117l0.753-0.116c0.174-0.04,0.361-0.03,0.539,0.04C162.355,133.398,162.591,133.933,162.406,134.41"/>
		<path fill="#2E3D70" d="M138.869,135.25l-18.486,18.486c-0.613,0.613-0.576,1.622,0.087,2.181
			c5.312,4.48,11.99,7.388,19.323,8.006c0.865,0.073,1.609-0.614,1.609-1.484V136.3C141.403,134.977,139.803,134.316,138.869,135.25
			 M137.592,144.492c-0.149,0.487-0.665,0.765-1.155,0.616c-0.489-0.151-0.765-0.667-0.616-1.155
			c0.057-0.183,0.164-0.337,0.304-0.449l0.556-0.521l0.564-0.526l0.175,0.752l0.172,0.741
			C137.644,144.121,137.646,144.309,137.592,144.492"/>
		<path fill="#2E3D70" d="M167.774,153.736l-18.486-18.485c-0.934-0.936-2.532-0.273-2.532,1.05v26.14
			c0,0.869,0.744,1.556,1.608,1.484c7.333-0.62,14.012-3.525,19.323-8.006C168.351,155.359,168.386,154.35,167.774,153.736
			 M151.694,145.15c-0.468,0.204-1.014-0.012-1.216-0.481c-0.078-0.175-0.093-0.363-0.061-0.537l0.087-0.755l0.087-0.768l0.621,0.46
			l0.612,0.454c0.151,0.096,0.273,0.236,0.351,0.412C152.377,144.402,152.162,144.945,151.694,145.15"/>
		<path fill="#2E3D70" d="M177.42,112.512L142.689,51.75c-1.791-3.134-5.817-3.134-7.609,0l-11.32,19.808
			c0.404,0.603,0.731,1.272,0.958,2c0.707,2.279,0.294,4.637-0.922,6.485c1.096,1.153,1.951,2.564,2.454,4.185
			c1.74,5.616-1.401,11.578-7.016,13.32c-1.625,0.503-3.275,0.596-4.846,0.342c-0.829,2.07-2.548,3.767-4.845,4.477
			c-1.182,0.367-2.381,0.424-3.522,0.235l-5.666,9.913c-1.968,3.443,0.2,7.998,3.803,7.998l34.73-0.001l34.728-0.001
			C177.22,120.511,179.387,115.953,177.42,112.512 M134.031,99.597c-0.414,0-0.749-0.334-0.749-0.749c0-0.414,0.335-0.75,0.749-0.75
			c0.414,0,0.748,0.336,0.748,0.75C134.779,99.263,134.444,99.597,134.031,99.597 M138.055,97.031c-0.413,0-0.749-0.336-0.749-0.751
			c0-0.414,0.336-0.749,0.749-0.749c0.414,0,0.749,0.335,0.749,0.749C138.804,96.695,138.469,97.031,138.055,97.031
			 M140.525,100.683c-0.414,0-0.75-0.335-0.75-0.749c0-0.413,0.336-0.749,0.75-0.749c0.414,0,0.749,0.336,0.749,0.749
			C141.275,100.348,140.939,100.683,140.525,100.683 M144.946,91.774c-0.415,0-0.749-0.336-0.749-0.749
			c0-0.414,0.334-0.749,0.749-0.749c0.413,0,0.749,0.335,0.749,0.749C145.695,91.437,145.359,91.774,144.946,91.774"/>
		<path fill="#2E3D70" d="M459.875,132.249H279.279c-1.213,0-2.197,0.984-2.197,2.198c0,1.213,0.984,2.195,2.197,2.195h180.596
			c1.215,0,2.198-0.982,2.198-2.195C462.073,133.232,461.091,132.249,459.875,132.249"/>
		<path fill="#2E3D70" d="M552.225,132.249h-54.688c-1.212,0-2.196,0.984-2.196,2.198c0,1.213,0.984,2.195,2.196,2.195h54.688
			c1.213,0,2.198-0.982,2.198-2.195C554.423,133.232,553.438,132.249,552.225,132.249"/>
		<path fill="#2E3D70" d="M277.325,97.868c0,5.9,1.099,11.199,4.5,14.6c3.9,3.901,9.1,5.2,15.4,5.2h11.4v-12.5h-10
			c-2.598,0-3.799-0.698-4.7-1.599c-0.898-0.9-1.6-2.1-1.6-4.7v-5.001h13.2V81.369h-13.2v-22.1c0-2.602,0.702-3.8,1.6-4.699
			c0.901-0.9,2.102-1.6,4.7-1.6h10v-12.5h-11.4c-6.3,0-11.5,1.299-15.4,5.2c-3.401,3.401-4.5,8.7-4.5,14.6v21.099h-4v12.498h4
			V97.868z"/>
		<path fill="#2E3D70" d="M335.079,84.469c0-3.7,1.6-6.401,3.8-6.401c2.199,0,3.8,2.701,3.8,6.401v33.198h13.998V84.469
			c0-3.7,1.601-6.401,3.802-6.401c2.198,0,3.798,2.701,3.798,6.401v33.198h14.001V87.469c0-14.999-7.001-21.899-17.799-21.899
			c-4,0-7.601,0.799-10.8,3.599c-3.1-2.4-7.1-3.599-10.8-3.599c-0.7,0-1.001,0-1.4,0.1l-3.401,3.399v-3h-13v51.599h14.001V84.469z"
			/>
		<path fill="#2E3D70" d="M404.276,84.469c0-3.7,1.6-6.401,3.8-6.401c2.199,0,3.8,2.701,3.8,6.401v33.198h14V84.469
			c0-3.7,1.601-6.401,3.798-6.401c2.202,0,3.8,2.701,3.8,6.401v33.198h14.001V87.469c0-14.999-7.001-21.899-17.801-21.899
			c-3.998,0-7.599,0.799-10.798,3.599c-3.1-2.4-7.1-3.599-10.8-3.599c-0.7,0-1.001,0-1.4,0.1l-3.401,3.399v-3h-12.998v51.599h13.999
			V84.469z"/>
		<path fill="#2E3D70" d="M480.575,91.868c0,3.7-1.6,6.401-3.8,6.401c-2.199,0-3.8-2.701-3.8-6.401V66.069h-14v22.8
			c0,14.999,6.899,21.899,17.8,21.899c0.7,0,1.001,0,1.4-0.1l2.3-2.3v6.699c0,5.801-1.499,8.801-5.899,8.801
			c-1.101,0-2-0.101-2.9-0.301v11.399c0,0,1.999,0.301,3.998,0.301c8.601,0,18.9-4.7,18.9-22.601V66.069h-13.999V91.868z"/>
		<polygon fill="#2E3D70" points="519.234,47.707 508.402,45.569 508.402,70.871 514.745,70.871 		"/>
		<path fill="#2E3D70" d="M538.103,101.469c0,4.899-2.3,7.6-4.801,9.599l8.899,8.999c6.501-5.099,12.2-11.599,12.2-20.597
			c0-5.001-1.198-8.402-3.499-11.6c-1.701-2.3-2.601-4.402-2.601-7.301c0-3.701,1.201-5.799,3.901-8.1l-9-8.799
			c-7.1,5.4-10.999,11.5-10.999,18.499c0,5.101,1.698,8.999,3.299,11.6C536.704,95.768,538.103,99.068,538.103,101.469"/>
		<rect x="325.95" y="195.178" fill="#2E3D70" width="7.096" height="5.378"/>
		<rect x="335.869" y="195.178" fill="#2E3D70" width="7.057" height="5.378"/>
		<rect x="282.915" y="146.258" fill="#2E3D70" width="10.567" height="5.226"/>
		<rect x="419.038" y="195.178" fill="#2E3D70" width="6.904" height="5.378"/>
		<rect x="409.082" y="195.178" fill="#2E3D70" width="6.943" height="5.378"/>
		<polygon fill="#2E3D70" points="435.139,187.777 442.423,187.777 442.423,189.684 435.139,189.684 435.139,192.66 445.705,192.66 
			445.705,146.257 435.139,146.257 		"/>
		<path fill="#2E3D70" d="M425.609,162.011h-10.564v25.332h-14.453c-3.912-0.035-7.066-3.217-7.066-7.129v-20.835l-0.073,0.015
			c-3.423,1.647-7.258,2.568-11.309,2.568h-2.34c-6.937,0-12.56,5.625-12.56,12.562v5.69c0,3.903-3.163,7.066-7.067,7.066h-9.691
			c-3.904,0-7.068-3.163-7.068-7.066v-18.203h-10.413v25.269h-33.228c-3.474,0-6.294-2.815-6.294-6.293V162.05h-10.565v29.198
			c0,1.756-0.35,2.255-1.05,2.688c-0.7,0.432-1.761,0.646-3.184,0.646v5.38h6.941c5.239,0,7.858-2.847,7.858-8.537v-1.436h0.198
			c0,1.465,1.187,2.652,2.652,2.652l46.645,0.018l0.006-2.67h0.197c0,1.465,1.186,2.652,2.652,2.652h18.639
			c1.463,0,2.652-1.187,2.652-2.652h0.197v2.67h26.206l-0.007-2.67h0.196c0,1.465,1.189,2.67,2.654,2.67h29.241V162.011z
			 M382.959,187.014h-5.341v-15.809c0-2.007,1.441-3.725,3.418-4.073c0.61-0.108,1.26-0.161,1.924-0.161V187.014z"/>
		<path fill="#2E3D70" d="M504.603,152.413c-1.303-0.552-2.024-0.87-2.165-0.956c-0.653-0.389-0.979-0.865-0.979-1.432
			c0-1.175,0.805-1.764,2.411-1.764c0.835,0,1.677,0.139,2.527,0.416l0.256-2.474c-0.893-0.191-1.776-0.287-2.656-0.287
			c-1.739,0-3.107,0.412-4.097,1.232c-0.962,0.792-1.445,1.853-1.445,3.184c0,1.778,1.029,3.086,3.09,3.929
			c1.245,0.518,1.954,0.825,2.124,0.922c0.643,0.39,0.964,0.888,0.964,1.496c0,1.275-0.82,1.913-2.461,1.913
			c-1.125,0-2.192-0.211-3.194-0.626l-0.309,2.717c0.983,0.262,2.116,0.393,3.397,0.393c1.678,0,3.047-0.452,4.109-1.361
			c1.041-0.883,1.561-2.011,1.561-3.386C507.736,154.611,506.692,153.305,504.603,152.413"/>
		<path fill="#2E3D70" d="M512.577,145.533c-0.34-0.326-0.751-0.487-1.232-0.487s-0.887,0.166-1.22,0.498
			c-0.333,0.333-0.499,0.734-0.499,1.199c0,0.469,0.165,0.865,0.499,1.191c0.332,0.326,0.739,0.487,1.22,0.487
			c0.475,0,0.886-0.166,1.232-0.5c0.339-0.323,0.509-0.718,0.509-1.179C513.086,146.269,512.917,145.866,512.577,145.533"/>
		<rect x="509.955" y="150.023" fill="#2E3D70" width="2.781" height="10.808"/>
		<path fill="#2E3D70" d="M522.365,160.832h2.761v-7.592c0-2.285-1.073-3.427-3.217-3.427c-1.712,0-2.936,0.715-3.672,2.145h-0.034
			c0.107-0.524,0.16-1.168,0.16-1.934h-2.634v10.808h2.781v-5.222c0-0.949,0.246-1.764,0.736-2.443
			c0.486-0.685,1.078-1.029,1.772-1.029c0.898,0,1.349,0.593,1.349,1.782V160.832z"/>
		<path fill="#2E3D70" d="M532.748,152.179c0.674,0,1.344,0.139,2.018,0.415l0.434-2.39c-0.715-0.247-1.503-0.37-2.366-0.37
			c-1.799,0-3.184,0.569-4.152,1.709c-0.9,1.061-1.348,2.478-1.348,4.245c0,3.491,1.625,5.234,4.874,5.234
			c1.161,0,2.172-0.168,3.035-0.499l-0.363-2.325c-0.649,0.29-1.355,0.436-2.111,0.436c-1.685,0-2.527-1.044-2.527-3.133
			c0-1.028,0.215-1.829,0.638-2.411C531.318,152.484,531.942,152.179,532.748,152.179"/>
		<path fill="#2E3D70" d="M541.74,149.813c-1.572,0-2.827,0.548-3.768,1.645c-0.906,1.048-1.361,2.402-1.361,4.066
			c0,3.679,1.778,5.52,5.331,5.52c1.353,0,2.654-0.232,3.906-0.691l-0.297-2.112c-1.039,0.426-2.083,0.639-3.131,0.639
			c-1.989,0-2.984-0.974-2.984-2.92h6.677c0.072-0.397,0.107-0.917,0.107-1.562c0-1.373-0.35-2.459-1.05-3.259
			C544.384,150.255,543.242,149.813,541.74,149.813 M539.458,154.112c0.163-1.508,0.874-2.263,2.134-2.263
			c1.288,0,1.909,0.755,1.868,2.263H539.458z"/>
		<path fill="#2E3D70" d="M503.77,181.935c2.306-2.527,3.461-4.745,3.461-6.656c0-1.204-0.367-2.171-1.103-2.909
			c-0.792-0.799-1.905-1.199-3.334-1.199c-1.437,0-2.736,0.281-3.895,0.85l0.413,2.525c0.919-0.553,1.825-0.829,2.718-0.829
			c0.679,0,1.207,0.194,1.584,0.585c0.352,0.369,0.528,0.852,0.528,1.455c0,1.357-1.05,3.184-3.151,5.478l-2.198,2.484v2.345h8.875
			v-2.674c-2.456,0-4.191,0.028-5.202,0.084L503.77,181.935z"/>
		<path fill="#2E3D70" d="M515.109,171.191c-1.657,0-3.012,0.635-4.066,1.902c-1.162,1.385-1.741,3.319-1.741,5.795
			c0,4.913,1.812,7.369,5.437,7.369c1.656,0,3.01-0.631,4.066-1.891c1.16-1.385,1.741-3.323,1.741-5.805
			C520.546,173.647,518.734,171.191,515.109,171.191 M514.886,183.931c-1.748,0-2.622-1.737-2.622-5.211
			c0-3.469,0.895-5.202,2.685-5.202c1.753,0,2.633,1.748,2.633,5.243C517.583,182.209,516.683,183.931,514.886,183.931"/>
		<path fill="#2E3D70" d="M527.912,171.191c-1.657,0-3.012,0.635-4.066,1.902c-1.16,1.385-1.739,3.319-1.739,5.795
			c0,4.913,1.808,7.369,5.434,7.369c1.655,0,3.01-0.631,4.066-1.891c1.16-1.385,1.741-3.323,1.741-5.805
			C533.349,173.647,531.536,171.191,527.912,171.191 M527.689,183.931c-1.748,0-2.624-1.737-2.624-5.211
			c0-3.469,0.897-5.202,2.686-5.202c1.756,0,2.634,1.748,2.634,5.243C530.386,182.209,529.486,183.931,527.689,183.931"/>
		<path fill="#2E3D70" d="M540.715,171.191c-1.657,0-3.012,0.635-4.066,1.902c-1.16,1.385-1.741,3.319-1.741,5.795
			c0,4.913,1.812,7.369,5.437,7.369c1.655,0,3.01-0.631,4.064-1.891c1.163-1.385,1.743-3.323,1.743-5.805
			C546.152,173.647,544.34,171.191,540.715,171.191 M540.492,183.931c-1.748,0-2.624-1.737-2.624-5.211
			c0-3.469,0.897-5.202,2.687-5.202c1.755,0,2.633,1.748,2.633,5.243C543.189,182.209,542.289,183.931,540.492,183.931"/>
	</g>
</g>
<g id="Layer_2">
</g>
<g id="Layer_3">
</g>
</svg>
