<?xml version="1.0" encoding="utf-8"?>
<!-- Generator: Adobe Illustrator 27.9.0, SVG Export Plug-In . SVG Version: 6.00 Build 0)  -->
<svg version="1.1" xmlns="http://www.w3.org/2000/svg" xmlns:xlink="http://www.w3.org/1999/xlink" x="0px" y="0px"
	 viewBox="0 0 1920 1080" enable-background="new 0 0 1920 1080" xml:space="preserve">
<g id="OBJECTS">
	<g opacity="0.2">
		<g>
			<path fill="#325588" d="M1810.256,367.118c10.254,23.175,16.388,47.738,23.724,71.92c8.046,26.522,18.26,52.114,32.009,76.229
				c20.654,36.225,47.373,67.828,74.692,99.116c16.755,19.189,30.635,39.047,39.061,63.272
				c7.728,22.217,10.125,45.363,15.974,67.992c0.562,2.176,4.199,1.8,4.014-0.543c-3.31-41.831-16.091-85.671-42.43-118.819
				c-28.851-36.309-61.387-68.453-85.494-108.491c-28.552-47.421-38.191-101.185-61.301-150.822
				C1810.427,366.803,1810.182,366.95,1810.256,367.118L1810.256,367.118z"/>
		</g>
		<g>
			<path fill="#325588" d="M1826.866,635.24c27.813,23.502,62.298,31.585,95.591,44.072c16.011,6.005,32.065,13.16,45.483,23.952
				c15.101,12.146,19.92,26.102,28.392,42.631c0.714,1.394,2.96,0.727,2.923-0.792c-0.746-30.791-34.917-52.571-59.78-63.185
				c-37.577-16.042-79.168-21.189-111.996-47.292C1827.05,634.286,1826.435,634.876,1826.866,635.24L1826.866,635.24z"/>
		</g>
		<g>
			<path fill="#325588" d="M1979.625,713.51c-6.846-6.665-15.429-6.614-24.534-7.031c-16.888-0.774-32.786-5.139-48.712-10.517
				c-14.845-5.013-29.613-10.623-41.829-20.682c-12.36-10.179-21.281-23.611-32.435-34.966c-7.356-7.487,2.193-1.621,7.23-0.575
				c6.817,1.416,13.737,2.343,20.614,3.421c14.494,2.272,29.648,3.566,43.822,7.425c28.69,7.812,59.29,34.438,74.272,59.659
				c1.017,1.712,3.698,0.155,2.674-1.562c-14.062-23.577-38.516-43.629-62.951-55.894c-28.397-14.253-63.233-8.844-92.72-20.192
				c-1.408-0.542-2.186,1.386-1.357,2.331c19.864,22.637,37.013,45.891,65.598,57.656c13.472,5.545,27.748,10.155,41.98,13.263
				c15.249,3.331,34.293,0.112,47.649,8.57C1979.48,714.77,1980.093,713.967,1979.625,713.51L1979.625,713.51z"/>
		</g>
		<g>
			<path fill="#325588" d="M1779.622,532.852c30.178,29.71,68.344,47.849,103.856,70.204c34.586,21.771,73.138,40.996,97.132,75.35
				c1.54,2.205,4.761,0.327,3.6-2.104c-6.937-14.534-21.7-26.494-34.143-36.232c-16.465-12.884-35.189-23.242-53.054-34.037
				c-39.295-23.745-82.394-43.025-117.157-73.414C1779.697,532.479,1779.469,532.701,1779.622,532.852L1779.622,532.852z"/>
		</g>
		<g>
			<path fill="#325588" d="M1930.819,628.545c-15.14-5.095-30.906-6.653-46.207-11.015c-15.784-4.499-31.014-12.238-44.844-21.02
				c-12.555-7.972-24.297-17.57-34.056-28.835c-9.297-10.733-13.582-24.543-23.257-34.778c-0.817,0.817-1.634,1.634-2.451,2.452
				c22.641,18.869,54.144,22.01,80.665,32.992c15.402,6.378,31.049,14.779,42.227,27.42c9.643,10.904,15.707,24.421,26.835,34.045
				c1.392,1.204,3.387-0.725,2.044-2.043c-10.511-10.315-16.82-23.467-26.488-34.392c-9.013-10.183-21.095-17.665-33.217-23.564
				c-28.417-13.827-65.492-15.552-89.614-36.91c-1.665-1.474-3.981,0.806-2.451,2.452c10.001,10.759,14.628,25.135,24.645,36.175
				c9.755,10.751,21.359,19.82,33.658,27.488c12.321,7.682,25.722,14.047,39.488,18.706c17.163,5.809,35.433,6.733,52.893,11.306
				C1930.998,629.104,1931.12,628.646,1930.819,628.545L1930.819,628.545z"/>
		</g>
		<g>
			<path fill="#325588" d="M1706.268,464.701c23.018,25.247,55.719,33.169,87.541,41.633
				c38.926,10.353,73.257,28.107,103.084,55.326c1.544,1.409,3.828-0.844,2.306-2.306c-24.555-23.575-53.851-40.166-86.349-50.032
				c-36.911-11.206-78.011-15.987-106.232-44.971C1706.394,464.121,1706.054,464.467,1706.268,464.701L1706.268,464.701z"/>
		</g>
		<g>
			<path fill="#325588" d="M1871.04,539.417c-14.816-22.031-42.046-34.114-66.309-42.463
				c-32.828-11.297-67.351-17.223-97.463-35.378c-1.119-0.675-2.754,0.746-1.899,1.898c4.088,5.511,5.13,13.94,8.834,19.983
				c3.465,5.654,7.759,10.79,12.682,15.23c10.21,9.206,22.788,15.179,35.772,19.382c35.096,11.358,72.801,10.222,107.623,22.743
				c1.24,0.446,2.136-1.624,0.907-2.15c-48.545-20.784-127.086-4.557-156.362-59.517c-1.036-1.944-7.29-13.289-6.087-15.747
				c-1.941,3.965,17.37,11.229,19.413,12.102c14.921,6.382,30.533,10.905,46.118,15.337c36.615,10.413,68.396,22.108,95.959,49.206
				C1870.635,540.441,1871.376,539.917,1871.04,539.417L1871.04,539.417z"/>
		</g>
		<g>
			<path fill="#325588" d="M1893.941,393.561c4.314,30.971,2.573,60.418,2.081,91.505c-0.457,28.848-3.023,68.693,14.899,93.361
				c0.626,0.862,2.344,0.386,1.886-0.795c-13.177-34.014-14.389-68.607-13.218-104.834c0.881-27.278,0.826-52.707-4.016-79.686
				C1895.378,392.025,1893.794,392.507,1893.941,393.561L1893.941,393.561z"/>
		</g>
		<g>
			<path fill="#325588" d="M1903.277,552.801c-4.309-12.762-10.526-24.829-13.774-37.953c-4.084-16.508-3.656-33.88-1.023-50.585
				c3.738-23.718,8.044-46.75,7.713-70.927c-0.94,0.127-1.88,0.255-2.82,0.382c0.778,5.446,4.282,11.101,6.184,16.214
				c4.431,11.913,7.926,24.222,10.366,36.695c3.484,17.816,5.027,36.27,3.683,54.399c-1.444,19.483-10.593,37.011-11.685,56.375
				c-0.106,1.874,2.723,1.827,2.89,0c1.771-19.346,10.421-36.82,11.491-56.375c0.908-16.584,0.047-33.175-2.806-49.538
				c-2.304-13.217-5.829-26.176-10.307-38.817c-2.13-6.012-6.244-12.943-6.996-19.334c-0.21-1.784-2.889-1.898-2.872,0
				c0.26,28.132-6.532,54.984-8.751,82.811c-2.232,27.976,5.907,52.099,17.575,77.131
				C1902.441,553.911,1903.501,553.464,1903.277,552.801L1903.277,552.801z"/>
		</g>
		<g>
			<path fill="#325588" d="M1871.317,517.406c-21.392-18.743-40.91-41.007-49.238-68.769c-7.995-26.651-4.845-54.825-10.395-81.951
				c-0.824,0.347-1.647,0.695-2.471,1.041c17.483,26.284,35.041,53.51,43.339,84.307c5.873,21.794,6.989,46.165,17.428,66.456
				c0.363,0.706,1.519,0.218,1.282-0.541c-7.479-24.034-10.635-49.165-18.22-73.097c-9.012-28.432-25.546-53.568-41.495-78.49
				c-0.851-1.329-2.749-0.451-2.471,1.042c5.616,30.148,2.09,61.715,13.555,90.71c9.528,24.098,27.481,44.432,47.225,60.751
				C1870.867,519.7,1872.326,518.29,1871.317,517.406L1871.317,517.406z"/>
		</g>
	</g>
	<g opacity="0.2">
		<g>
			<path fill="#325588" d="M1656.596,746.226c22.372,22.89,39.216,54.066,51.476,83.426c16.047,38.431,14.188,82.341,23.605,122.555
				c20.03,85.532,71.877,159.903,136.954,217.638c37.698,33.444,76.609,62.471,105.959,104.11c1.366,1.938,4.469,0.336,3.284-1.842
				c-19.672-36.178-54.701-62.417-85.745-88.278c-35.204-29.326-67.733-61.361-94.489-98.713
				c-27.86-38.892-49.352-82.482-61.26-128.904c-10.245-39.937-8.401-84.038-23.809-122.472
				c-12.542-31.285-30.936-64.52-54.947-88.519C1656.972,744.577,1655.949,745.565,1656.596,746.226L1656.596,746.226z"/>
		</g>
		<g>
			<g>
				<path fill="#325588" d="M1927.439,1215.297c-33.503-52.469-51.298-109.2-43.658-171.932c0.242-1.989-2.868-2.053-3.11-0.083
					c-7.301,59.462,6.808,125.971,45.076,173.278C1926.503,1217.493,1928.086,1216.311,1927.439,1215.297L1927.439,1215.297z"/>
			</g>
			<g>
				<path fill="#325588" d="M1881.546,1044.738c-8.378,25.649-14.221,52.216-7.987,79.04c6.012,25.869,20.607,50.765,38.156,70.513
					c0.635,0.714,1.923-0.206,1.366-1.02c-14.763-21.592-29.865-41.768-36.45-67.67c-7.012-27.579-0.42-53.666,5.543-80.678
					C1882.264,1044.514,1881.678,1044.334,1881.546,1044.738L1881.546,1044.738z"/>
			</g>
			<g>
				<path fill="#325588" d="M1881.39,1044.818c-1.826,23.251,3.057,45.235,9.311,67.482c6.95,24.722,7.393,50.717,15.515,75.144
					c0.544,1.637,3.163,1.011,2.622-0.648c-7.474-22.907-7.911-47.113-13.916-70.345c-6.28-24.297-11.193-46.399-12.592-71.608
					C1882.297,1044.242,1881.437,1044.208,1881.39,1044.818L1881.39,1044.818z"/>
			</g>
			<g>
				<path fill="#325588" d="M1881.899,1043.315c-0.922,8.071,2.28,16.504,4.418,24.162c3.347,11.992,7.123,23.86,10.353,35.886
					c3.333,12.41,5.655,24.548,6.248,37.42c0.741,16.098-0.325,33.232,5.128,48.638c0.326,0.92,1.613,0.606,1.47-0.363
					c-4.188-28.283-2.639-56.795-9.969-84.578c-5.397-20.458-11.312-40.864-17.003-61.234
					C1882.441,1042.876,1881.94,1042.954,1881.899,1043.315L1881.899,1043.315z"/>
			</g>
		</g>
		<g>
			<path fill="#325588" d="M1900.131,1176.062c-5.276-5.478-8.767-12.444-13.58-18.338c-5.172-6.335-11.103-12.087-15.783-18.822
				c-11.143-16.036-15.654-37.102-21.455-55.532c-2.613-8.302-4.339-17.394-7.51-25.465c-3.557-9.055-2.969-5.206,0.911,0.218
				c11.058,15.456,22.251,30.761,28.331,48.995c0.53,1.589,3.078,0.973,2.543-0.628c-3.874-11.591-9.679-22.013-16.361-32.224
				c-4.631-7.078-14.458-16.942-16.736-25.067c-0.385-1.375-2.773-1.275-2.627,0.284c2.317,24.798,12.401,51.857,21.672,74.874
				c4.257,10.569,10.442,19.215,17.887,27.723c6.812,7.785,12.631,20.305,21.596,25.382
				C1899.899,1177.958,1900.854,1176.812,1900.131,1176.062L1900.131,1176.062z"/>
		</g>
		<g>
			<path fill="#325588" d="M1846.09,1144.566c-10.887-12.626-27.789-19.245-43.129-24.735
				c-19.215-6.876-38.919-12.347-58.479-18.132c-19.728-5.834-39.445-11.941-58.385-20.032
				c-23.173-9.899-39.872-24.835-56.527-43.379c-0.838,0.815-1.676,1.63-2.515,2.444c22.614,20.698,51.451,28.694,79.848,38.272
				c35.432,11.95,69.214,26.39,101.207,45.821c1.812,1.101,3.436-1.634,1.692-2.802c-27.242-18.266-58.152-30.974-88.947-41.88
				c-31.038-10.992-67.25-17.74-91.286-41.855c-1.598-1.603-4.016,0.762-2.515,2.444c13.335,14.937,26.806,28.86,44.765,38.171
				c17.63,9.14,36.83,15.476,55.734,21.361c40.64,12.652,82.274,20.829,117.829,45.192
				C1845.943,1145.84,1846.498,1145.038,1846.09,1144.566L1846.09,1144.566z"/>
		</g>
		<g>
			<path fill="#325588" d="M1627.698,1038.51c6.761,32.038,38.967,55.618,68.646,64.429c35.895,10.657,74.352,8.755,109.8,21.287
				c1.818,0.643,2.651-2.226,0.845-2.866c-31.163-11.034-64.623-10.996-96.679-18.004c-16.267-3.556-31.996-9.053-45.585-18.921
				c-16.892-12.266-26.048-28.638-36.422-46.164C1628.112,1037.952,1627.621,1038.147,1627.698,1038.51L1627.698,1038.51z"/>
		</g>
		<g>
			<path fill="#325588" d="M1628.069,1037.934c6.573,9.319,20.552,10.869,30.853,13.602c17.087,4.534,34.329,8.402,50.852,14.807
				c31.991,12.402,60.483,32.095,88.015,52.227c1.426,1.043,2.831-1.31,1.417-2.347c-24.659-18.085-50.002-35.581-78.05-48.044
				c-12.987-5.771-26.403-10.101-40.132-13.73c-15.444-4.082-39.925-5.838-51.914-17.292
				C1628.602,1036.671,1627.622,1037.299,1628.069,1037.934L1628.069,1037.934z"/>
		</g>
		<g>
			<path fill="#325588" d="M1728.621,1072.908c-12.88-14.185-19.748-29.377-22.448-48.178c-0.102-0.712-0.92-23.052-2.679-24.181
				c0.247,0.159,2.065,6.259,2.822,7.858c2.072,4.375,4.302,8.642,6.767,12.809c16.463,27.824,37.582,55.821,59.536,79.569
				c1.288,1.392,3.405-0.661,2.113-2.054c-13.431-14.488-24.877-30.559-36.639-46.393c-13.37-18-25.705-35.791-35.198-56.183
				c-0.479-1.028-1.864-0.287-1.727,0.683c4.06,28.674,3.047,56.199,27.13,76.383
				C1728.516,1073.404,1728.82,1073.127,1728.621,1072.908L1728.621,1072.908z"/>
		</g>
		<g>
			<path fill="#325588" d="M1879.514,890.681c-22.872,34.426-51.652,64.178-69.031,102.159
				c-13.927,30.439-19.205,62.485-14.821,95.714c0.227,1.721,3.251,1.411,3.065-0.331c-3.815-35.648,2.782-70.006,18.84-102.02
				c17.19-34.269,43.621-62.059,63.523-94.571C1881.713,890.617,1880.168,889.697,1879.514,890.681L1879.514,890.681z"/>
		</g>
		<g>
			<path fill="#325588" d="M1877.862,893.901c-23.139,18.058-44.885,38.611-59.016,64.668
				c-14.151,26.094-18.221,54.706-23.112,83.593c-0.287,1.695,2.296,2.477,2.591,0.764c4.943-28.646,8.988-56.915,23.068-82.819
				c14.251-26.219,35.922-45.16,57.154-65.501C1879.013,894.159,1878.349,893.521,1877.862,893.901L1877.862,893.901z"/>
		</g>
		<g>
			<path fill="#325588" d="M1880.047,891.082c-9.94,26.873-27.557,48.324-43.221,71.878c-15.387,23.139-29.397,47.093-40.061,72.802
				c-0.608,1.467,1.888,2.584,2.563,1.129c12.546-27.026,25.798-52.715,42.372-77.575c14.634-21.949,30.745-42.626,38.857-68.084
				C1880.663,890.903,1880.165,890.764,1880.047,891.082L1880.047,891.082z"/>
		</g>
		<g>
			<path fill="#325588" d="M1879.576,890.943c-5.551,25.883-19.811,49.208-33.564,71.552
				c-14.445,23.467-34.851,42.902-46.977,67.925c-0.384,0.792,0.626,1.383,1.156,0.698c8.586-11.104,15.45-23.466,23.826-34.744
				c9.018-12.143,18.237-23.554,25.976-36.631c12.83-21.68,26.195-43.353,31.036-68.371
				C1881.211,890.426,1879.781,889.983,1879.576,890.943L1879.576,890.943z"/>
		</g>
		<g>
			<path fill="#325588" d="M1799.905,1030.305c-1.128-21.953-3.311-43.426,0.462-65.284c3.602-20.861,8.27-42.231,15.341-62.206
				c1.557-4.397,3.26-8.752,5.059-13.055c5.935-14.189,3.212-9.334,2.592-4.626c-1.209,9.183-3.821,18.051-4.484,27.332
				c-0.637,8.913,0.539,17.803,0.217,26.702c-0.396,10.932-4.233,21.673-6.323,32.349c-0.311,1.592,2.119,2.321,2.434,0.718
				c2.825-14.351,6.741-27.173,6.235-41.905c-0.625-18.18,1.773-35.46,5.091-53.328c0.142-0.764-0.962-1.432-1.362-0.6
				c-23.015,47.88-34.531,101.251-26.109,153.994C1799.134,1030.871,1799.93,1030.789,1799.905,1030.305L1799.905,1030.305z"/>
		</g>
		<g>
			<path fill="#325588" d="M1580.643,890.287c19.516,30.358,46.447,50.603,77.706,67.767c15.622,8.577,31.641,16.411,47.181,25.14
				c17.227,9.676,32.282,21.395,48.31,32.8c1.558,1.108,3.238-1.214,2.02-2.543c-22.567-24.614-57.396-38.938-86.602-53.862
				c-34.294-17.524-65.254-37.777-87.794-69.762C1581.122,889.342,1580.31,889.77,1580.643,890.287L1580.643,890.287z"/>
		</g>
		<g>
			<path fill="#325588" d="M1579.676,890.396c9.473,21.764,25.012,41.518,44.714,54.819c22.143,14.948,48.044,22.988,72.634,32.84
				c2.078,0.833,3.054-2.52,0.984-3.337c-23.054-9.102-47.141-16.572-68.324-29.733c-21.782-13.533-36.252-33.272-48.616-55.37
				C1580.558,888.703,1579.274,889.471,1579.676,890.396L1579.676,890.396z"/>
		</g>
		<g>
			<path fill="#325588" d="M1579.674,890.08c10.689,7.943,22.612,14.064,33.581,21.61c11.141,7.666,21.327,16.663,31.797,25.202
				c17.308,14.116,34.46,28.54,53.323,40.564c1.669,1.063,3.26-1.574,1.587-2.628c-41.678-26.254-75.08-63.869-119.653-85.799
				C1579.595,888.678,1579.039,889.608,1579.674,890.08L1579.674,890.08z"/>
		</g>
		<g>
			<path fill="#325588" d="M1580.149,890.166c24.976,11.26,49.65,20.559,70.397,39.174c9.782,8.777,17.894,19.199,27.494,28.172
				c9.416,8.801,19.534,16.961,29.924,24.583c1.296,0.951,3.027-1.187,1.768-2.224c-11.035-9.088-22.499-17.614-32.801-27.561
				c-10.45-10.088-19.498-21.337-30.925-30.414c-18.732-14.879-42.09-27.204-65.546-32.435
				C1580.058,889.371,1579.722,889.974,1580.149,890.166L1580.149,890.166z"/>
		</g>
		<g>
			<path fill="#325588" d="M1718.501,989.709c-22.089-10.561-43.127-8.946-67.012-10.338c-27.547-1.606-54.26-7.485-78.254-21.5
				c-0.382,0.867-0.764,1.733-1.146,2.6c18.842,5.597,37.826,2.903,57.146,3.337c22.584,0.508,44.402,6.132,65.45,14.021
				c1.731,0.649,2.528-2.104,0.81-2.748c-18.433-6.909-37.494-12.164-57.184-13.694c-21.926-1.703-43.952,2.71-65.411-3.664
				c-1.548-0.46-2.565,1.771-1.145,2.6c19.861,11.601,42.015,17.546,64.782,20.008c12.05,1.304,24.122,1.471,36.228,1.526
				c16.283,0.073,30.056,3.055,44.968,9.598C1718.723,991.89,1719.485,990.18,1718.501,989.709L1718.501,989.709z"/>
		</g>
		<g>
			<path fill="#325588" d="M1817.244,783.548c-13.245,30.975-34.617,55.182-51.921,83.626c-15.505,25.487-25.781,54-33.446,82.72
				c-0.408,1.527,1.902,2.212,2.355,0.695c9.356-31.311,20.653-61.814,38.276-89.527c16.179-25.441,34.421-48.934,45.246-77.364
				C1817.878,783.374,1817.375,783.241,1817.244,783.548L1817.244,783.548z"/>
		</g>
		<g>
			<path fill="#325588" d="M1816.463,782.704c-11.573,19.913-25.678,37.057-38.863,55.844
				c-12.28,17.497-20.845,36.793-25.977,57.517c-0.424,1.711,2.208,2.491,2.63,0.775c5.583-22.675,15.411-43.413,29.437-62.075
				c12.149-16.165,28.01-31.748,34.333-51.373C1818.322,782.463,1816.954,781.858,1816.463,782.704L1816.463,782.704z"/>
		</g>
		<g>
			<path fill="#325588" d="M1816.393,785.733c-8.337,21.003-15.055,43.771-28.807,62.011c-12.95,17.176-27.624,31.95-37.612,51.317
				c-0.852,1.652,1.468,3.092,2.487,1.502c12.395-19.332,27.565-36.251,40.399-55.157c11.901-17.531,18.727-39.237,24.474-59.395
				C1817.512,785.392,1816.623,785.155,1816.393,785.733L1816.393,785.733z"/>
		</g>
		<g>
			<path fill="#325588" d="M1816.264,783.962c-16.353,21.184-40.832,33.442-53.342,57.9c-4.925,9.63-8.38,19.988-10.767,30.52
				c-2.852,12.585-2.801,25.89-6.79,38.15c-0.353,1.085,1.326,1.869,1.857,0.818c4.726-9.356,4.457-20.039,6.24-30.205
				c2.399-13.675,6.371-27.221,12.928-39.507c12.468-23.359,36.349-35.554,50.398-57.36
				C1817.009,783.939,1816.499,783.657,1816.264,783.962L1816.264,783.962z"/>
		</g>
		<g>
			<path fill="#325588" d="M1752.352,877.338c2.483-14.127,0.969-26.905-1.705-40.876c-3.885-20.3-4.024-37.027,5.464-55.803
				c0.518-1.025,4.61-9.237,4.981-9.135c-1.369-0.374-1.127,1.916-1.142,2.636c-0.181,8.49-1.661,16.827-1.434,25.396
				c0.425,16.008,4.066,31.549,2.322,47.61c-0.185,1.703,2.371,1.694,2.619,0.07c1.666-10.908,0.076-21.457-1.175-32.31
				c-1.836-15.925-1.753-31.444,1-47.266c0.213-1.221-1.387-2.152-2.11-0.93c-8.714,14.723-17.05,29.86-16.502,47.49
				c0.665,21.407,8.263,41.189,6.76,62.973C1751.394,877.715,1752.259,877.869,1752.352,877.338L1752.352,877.338z"/>
		</g>
		<g>
			<path fill="#325588" d="M1656.822,746.256c7.743,17.586,20.675,32.382,29.127,49.637c6.676,13.63,14.979,26.31,19.332,40.97
				c3.935,13.252,9.227,25.326,14.696,38.026c0.613,1.424,2.714,0.236,2.107-1.182c-6.258-14.594-11.063-29.252-16.482-44.097
				c-4.463-12.228-11.839-23.244-17.601-34.867c-8.563-17.274-20.702-32.323-30.393-48.926
				C1657.311,745.307,1656.592,745.734,1656.822,746.256L1656.822,746.256z"/>
		</g>
		<g>
			<path fill="#325588" d="M1656.43,745.768c14.119,14.739,29.805,28.567,41.42,45.49c16.255,23.682,21.844,54.357,22.34,82.582
				c0.025,1.417,2.182,1.488,2.21,0.059c1.028-51.953-23.742-98.174-65.439-128.798
				C1656.559,744.807,1656.1,745.424,1656.43,745.768L1656.43,745.768z"/>
		</g>
		<g>
			<path fill="#325588" d="M1656.846,747.256c5.157,12.231,7.255,25.707,12.06,38.161c4.107,10.645,8.78,21.089,13.883,31.292
				c11.237,22.466,25.87,42.84,38.166,64.707c0.659,1.173,2.436,0.173,1.821-1.021c-11.51-22.34-26.692-42.324-37.956-64.825
				c-6.136-12.258-11.858-24.783-16.53-37.678c-3.725-10.283-5.494-21.391-10.73-31.035
				C1657.304,746.383,1656.646,746.782,1656.846,747.256L1656.846,747.256z"/>
		</g>
		<g>
			<path fill="#325588" d="M1662.895,757.958c4.92,15.749,13.972,30.648,20.431,45.863c4.957,11.678,9.877,23.513,16.138,34.563
				c6.714,11.85,15.26,22.273,21.016,34.698c0.47,1.014,2.213,0.343,1.848-0.731c-3.741-11.017-11.121-19.75-17.224-29.498
				c-7.117-11.366-12.425-23.73-17.774-35.991c-7.3-16.735-17.18-32.281-24.36-48.934
				C1662.952,757.886,1662.882,757.914,1662.895,757.958L1662.895,757.958z"/>
		</g>
		<g>
			<path fill="#325588" d="M1715.842,869.963c-20.779-30.674-63.382-36.355-84.932-65.768c-1.759-2.315-3.383-4.722-4.87-7.221
				c-1.785,0.102-1.701,0.662,0.251,1.682c2.087,1.831,4.153,3.659,6.353,5.354c5.574,4.293,11.531,7.769,17.942,10.628
				c19.457,8.678,36.354,15.975,49.85,33.324c1.049,1.348,2.953-0.514,1.908-1.854c-8.734-11.198-20.049-20.428-32.917-26.5
				c-16.588-7.827-33.06-12.713-45.924-26.648c-0.893-0.967-2.486,0.233-1.841,1.374c9.59,16.979,21.528,26.914,38.127,36.827
				c20.05,11.974,38.29,23.068,55.177,39.458C1715.393,871.036,1716.208,870.503,1715.842,869.963L1715.842,869.963z"/>
		</g>
		<g>
			<path fill="#325588" d="M1701.933,975.525c-4.164-17.702-10.772-36.312-20.385-51.855c-3.983-6.44-8.916-11.626-13.939-17.249
				c-8.854-9.913-13.714-19.719-18.907-31.827c-0.349-0.813-1.755-0.452-1.7,0.42c1.215,19.109,6.854,36.321,17.874,52.085
				c10.788,15.431,19.602,32.562,32.467,46.447c0.837,0.904,2.094-0.382,1.35-1.312c-10.551-13.203-17.85-27.84-28.063-41.123
				c-6.305-8.199-11.607-16.749-15.467-26.351c-1.915-4.764-3.548-9.571-4.659-14.594c-0.828-3.743-4.777-14.654-1.161-8.15
				c3.541,6.37,5.562,13.221,10.152,19.156c5.493,7.103,12.602,12.585,17.797,19.992c11.431,16.297,17.161,36,23.37,54.676
				C1700.925,976.629,1702.129,976.356,1701.933,975.525L1701.933,975.525z"/>
		</g>
	</g>
	<path opacity="0.2" fill="#325588" d="M2142.332-116.937c-27.149,31.741-55.844,62.076-86.76,90.131
		c-1.684,1.068-3.357,2.152-5.001,3.282c-1.803,1.238-3.593,2.499-5.34,3.815c-0.818,0.616-1.614,1.265-2.406,1.914
		c-0.92,0.755-1.621,1.665-2.471,2.482c-0.112,0.107-0.106,0.237-0.062,0.353c-0.928,1.035-1.894,2.024-2.901,2.957
		c-3.721,2.294-8.198,3.404-12.612,3.437c-1.928,0.014-3.84-0.152-5.742-0.414c-0.303-0.04-0.606-0.08-0.908-0.121
		c-6.294-0.987-12.454-3.149-18.553-4.792c-15.679-4.224-31.661-7.321-47.778-9.298c-16.099-1.975-32.323-2.839-48.541-2.564
		c-16.221,0.275-32.413,1.687-48.441,4.191c-14.842,2.319-29.53,5.613-43.943,9.848c-1.179,0.264-2.361,0.513-3.533,0.804
		c-1.985,0.492-3.93,1.027-5.865,1.69c-0.433,0.148-0.602,0.611-0.535,1.004c-0.278,0.662,0.058,1.538,0.746,1.735
		c0.167,0.255,0.441,0.432,0.85,0.396c4.411-0.391,8.858-0.416,13.283-0.108c0.067,0.01,0.134,0.017,0.201,0.027
		c4.588,0.703,9.13,1.705,13.615,2.896c5.829,1.548,11.565,3.413,17.278,5.344c0.466,0.223,0.933,0.443,1.395,0.673
		c0.192,0.095,0.369,0.059,0.504-0.034c2.421,0.825,4.84,1.656,7.26,2.481c17.558,5.986,35.456,10.777,53.856,13.321
		c18.238,2.523,36.802,2.993,55.086,0.672c16.167-2.052,32.019-6.29,46.971-12.789c1.03-0.448,2.042-0.936,3.061-1.406
		c0.76-0.187,1.524-0.365,2.282-0.561c0.87-0.226,1.721-0.496,2.566-0.785c-31.052,25.001-64.005,47.661-98.859,67.028
		c-5.58,3.101-11.211,6.111-16.883,9.038l-0.245-0.034c-12.673,1.189-25.317,2.806-37.95,4.464c-0.064-0.189-0.22-0.35-0.453-0.348
		c-5.841,0.052-11.626,0.22-17.446-0.461c-5.746-0.673-11.423-1.859-16.963-3.527c-9.952-2.996-19.405-7.477-28.215-12.975
		c0.058-0.159,0.087-0.331,0.057-0.503c-0.11-0.629-0.573-1.03-1.167-1.198c-0.11-0.031-0.208-0.026-0.3-0.008
		c-1.767-3.12-3.303-6.356-4.545-9.728c-1.451-3.94-2.556-7.99-3.634-12.043c-2.149-8.08-4.259-16.104-8.06-23.598
		c-7.28-14.354-19.067-26.354-33.094-34.198c-7.845-4.387-16.434-7.463-25.304-8.936l-0.082-0.117
		c-0.637-0.921-1.989-0.15-1.554,0.841l-0.088,0.389c0,16.031,4.282,31.995,12.187,45.935c8.472,14.942,21.167,27.248,36.267,35.416
		c8.799,4.76,18.361,8.11,28.219,9.819l0.328-0.009c7.747,4.769,15.99,8.749,24.614,11.64c9.27,3.108,19.071,4.931,28.872,4.964
		c-1.37,0.179-2.74,0.362-4.11,0.539c-2.95-0.065-5.909,0.144-8.853,0.519c-1.664-0.038-3.328-0.101-4.986-0.158
		c-1.053-0.035-2.105-0.106-3.157-0.167c-0.135-0.096-0.301-0.163-0.528-0.147c-0.295,0.021-0.591,0.05-0.886,0.072
		c-1.829-0.125-3.656-0.276-5.48-0.461c-0.781-0.079-1.558-0.183-2.337-0.273c-0.093-0.191-0.255-0.339-0.51-0.368
		c-2.5-0.283-5.008-0.509-7.518-0.725c-3.253-0.513-6.495-1.09-9.731-1.702c-13.33-2.521-26.529-5.733-39.943-7.802
		c-14.222-2.194-28.6-2.993-42.949-3.862c-14.322-0.868-28.674-1.848-42.796-4.505c-14.004-2.635-27.83-6.883-40.214-14.052
		c-1.541-0.892-3.053-1.83-4.542-2.805c-0.666-0.436-1.681,0.038-1.829,0.8c-0.172,0.887-0.344,1.775-0.516,2.663
		c-0.117,0.606,0.172,1.055,0.586,1.299c1.946,3.284,4.11,6.425,6.442,9.435c6.902,10.76,15.404,20.513,25.246,28.654
		c13.083,10.824,28.469,18.744,44.991,22.748c16.15,3.914,32.824,3.816,48.967-0.041c14.713-3.515,28.669-9.502,42.727-14.968
		c9.749-3.79,19.636-7.295,29.813-9.596c2.131-0.291,4.262-0.58,6.393-0.863c19.157-2.547,38.325-5.023,57.45-7.797
		c1.174-0.17,2.343-0.362,3.514-0.541c-36.371,18.492-74.572,33.348-114.128,43.481c-33.376,8.55-67.623,13.826-102.044,15.477
		c-9.478-1.028-18.853-2.863-28.016-5.633c-7.997-2.417-15.778-5.542-23.261-9.264l-0.025-0.182
		c-1.87-5.122-3.969-10.056-6.451-14.915c-2.498-4.89-5.216-9.671-8.167-14.302c-5.875-9.218-12.581-17.914-19.974-25.965
		c-7.402-8.062-15.505-15.479-24.188-22.141c-8.681-6.66-17.915-12.593-27.62-17.65c-9.654-5.03-19.766-9.204-30.171-12.409
		c-1.325-0.409-2.656-0.8-3.991-1.177c-0.332-0.094-0.611-0.035-0.835,0.1l-0.314-0.1c-0.587-0.165-1.004,0.491-0.836,0.965
		l-0.331-0.183c-0.525-0.262-1.163,0.468-0.654,0.874c2.18,1.744,4.442,3.388,6.558,5.216c2.081,1.796,4.045,3.727,5.9,5.755
		c3.842,4.201,7.204,8.814,10.267,13.607c6.247,9.774,11.215,20.284,16.817,30.426c5.514,9.981,11.757,19.545,19.983,27.52
		c7.877,7.635,17.148,13.846,27.174,18.291c10.031,4.447,20.809,7.148,31.766,7.83c1.161,0.072,2.324,0.109,3.487,0.135
		c6.327,3.155,12.87,5.877,19.581,8.106c7.323,2.433,14.829,4.271,22.432,5.496c-10.151,0.259-20.31,0.218-30.46-0.173
		c-0.207-0.008-0.414-0.022-0.62-0.03c-0.225-0.096-0.454-0.179-0.734-0.245c-0.595-0.142-1.191-0.276-1.789-0.404
		c-1.196-0.256-2.403-0.465-3.611-0.653c-1.191-0.185-2.39-0.37-3.592-0.466c-1.233-0.098-2.407-0.043-3.638,0.049
		c-0.234,0.017-0.35,0.215-0.343,0.404c-1.13-0.067-2.26-0.133-3.389-0.247c-2.462-0.248-4.911-0.639-7.337-1.13
		c-4.862-0.983-9.63-2.392-14.298-4.064c-9.696-3.473-18.909-8.119-28.122-12.686c-9.659-4.788-19.413-9.517-29.699-12.822
		c-9.743-3.131-19.891-4.632-30.093-5.154c-5.65-0.289-11.306-0.28-16.959-0.118c-2.89,0.083-5.783,0.179-8.669,0.36
		c-1.884,0.118-3.801,0.164-5.679,0.416l-0.05-0.01c-0.255-0.049-0.464,0.001-0.627,0.102l-0.156,0.021l-0.086,0.02
		c-0.598,0.106-1.194,0.226-1.778,0.4c-0.308,0.092-0.324,0.581,0.013,0.646c0.269,0.052,0.54,0.069,0.809,0.106
		c0.012,0.187,0.06,0.381,0.201,0.579c0.891,1.26,1.795,2.512,2.708,3.758l0.041,0.178c0.385,0.501,0.791,0.982,1.186,1.473
		c5.495,7.373,11.406,14.446,18.018,20.843c8.049,7.787,17.189,14.651,27.422,19.294c10.47,4.75,21.818,6.844,33.283,6.902
		c11.826,0.06,23.556-1.944,35.026-4.685c5.867-1.402,11.702-2.963,17.5-4.629c3.044-0.874,6.086-1.751,9.129-2.628
		c2.567-0.739,5.159-1.45,7.706-2.27c0.169,0.123,0.396,0.171,0.637,0.049c0.368-0.186,0.747-0.344,1.131-0.489
		c0.492,0.061,0.983,0.123,1.478,0.161c0.537,0.041,0.794-0.361,0.809-0.791c0.165-0.032,0.329-0.074,0.495-0.1
		c16.886,0.803,33.81,0.687,50.687-0.303c1.681,0.066,3.364,0.112,5.048,0.116c1.866,0.004,3.734-0.098,5.597-0.202
		c0.402-0.022,0.539-0.41,0.423-0.692c14.227-1.155,28.407-2.912,42.486-5.258c-3.546,0.999-7.084,2.023-10.617,3.069
		c-7.11,1.299-14.263,2.346-21.422,3.333c-15.378,2.121-30.827,4.06-45.878,7.973c-14.545,3.781-28.673,9.47-40.873,18.367
		c-11.977,8.735-21.844,19.943-30.3,32.049c-8.57,12.271-15.75,25.465-22.556,38.776c-0.382,0.748-0.748,1.504-1.118,2.26
		c0.355,0.457,0.705,0.921,1.021,1.405l0.027-0.049c2.496-1.588,4.99-3.182,7.554-4.659c0.23-0.128,0.461-0.254,0.69-0.384
		c3.3-1.872,6.679-3.602,10.117-5.203c7.216-3.36,14.663-6.21,22.142-8.922c15.012-5.443,30.309-10.326,44.586-17.57
		c7.422-3.766,14.386-8.236,20.917-13.396c6.964-5.503,13.419-11.609,19.861-17.703c6.443-6.097,12.889-12.214,19.841-17.736
		c6.896-5.478,14.358-10.157,22.257-14.047c15.705-7.735,32.702-12.466,49.582-16.865c2.062-0.537,4.099-1.091,6.128-1.743
		c0.359-0.115,0.582-0.333,0.697-0.587c37.303-10.269,73.414-24.617,107.868-42.274c-4.402,4.154-9.105,7.929-14.246,11.185
		c-6.349,4.02-13.1,7.376-19.921,10.513c-4.156,1.911-8.351,3.76-12.541,5.621c-0.24,0.028-0.479,0.059-0.709,0.087
		c-1.152,0.14-2.293,0.362-3.414,0.666c-2.307,0.627-4.517,1.57-6.657,2.627c-0.075,0.037-0.148,0.079-0.222,0.116
		c-0.273-0.012-0.543,0.082-0.744,0.349c-0.016,0.022-0.032,0.044-0.049,0.066c-2.085,1.075-4.141,2.222-6.214,3.332
		c-3.774,1.203-7.485,2.618-11.113,4.223c-0.85,0.129-1.703,0.245-2.538,0.44c-0.359,0.084-0.339,0.593-0.022,0.712
		c-3.823,1.802-7.545,3.806-11.139,5.975c-11.13,6.717-21.243,15.138-29.821,24.907c-8.792,10.014-15.95,21.417-21.044,33.735
		c-5.243,12.678-8.376,26.165-9.334,39.85c-0.96,13.707,0.303,27.592,3.838,40.876c0.434,1.631,0.905,3.251,1.406,4.863
		c0.385,1.238,2.104,0.928,2.28-0.105c0.353,0.414,1.153,0.429,1.24-0.24c0.115-0.893,0.195-1.79,0.296-2.685
		c9.063-5.885,17.436-13.053,24.799-20.925c8.292-8.864,15.112-18.925,19.984-30.054c5.25-11.994,8.507-24.717,11.728-37.369
		c3.021-11.866,6.048-23.785,10.775-35.111c4.436-10.629,10.336-20.809,18.647-28.888c0.765-0.744,1.548-1.47,2.328-2.2
		c2.276-1.069,4.567-2.111,6.858-3.15c0.507-0.015,1.004-0.059,1.447-0.36c0.147-0.1,0.254-0.267,0.325-0.448
		c2.302-1.04,4.605-2.076,6.9-3.124c13.409-6.12,27.335-12.898,37.614-23.758c1.107-1.169,2.109-2.421,3.079-3.702
		c41.537-21.657,80.528-47.987,116.848-77.536c-1.405,1.73-2.808,3.461-4.217,5.178c-6.122,7.461-12.203,14.955-18.171,22.54
		c-7.957,10.113-15.729,20.373-23.254,30.813c-4.619,5.225-9.142,10.536-13.571,15.913c-9.544,11.586-18.625,23.579-26.781,36.188
		c-7.759,11.997-14.667,24.554-20.24,37.719c-5.365,12.673-9.56,25.866-12.099,39.401c-2.5,13.323-3.408,26.976-2.267,40.495
		c-0.034,0.335-0.087,0.668-0.118,1.003c-0.216,2.299-0.417,4.6-0.582,6.903c-0.079,1.092,1.794,1.315,1.93,0.21l0.043-0.324
		c11.318-8.166,21.309-18.075,29.978-29.002c8.716-10.987,16.105-23.018,21.883-35.799c6.004-13.283,10.059-27.216,13.059-41.459
		c2.772-13.161,4.878-26.456,7.729-39.6c1.693-5.405,3.421-10.8,5.257-16.159c2.295-6.699,4.82-13.304,7.315-19.93
		c0.439-1.164,0.842-2.34,1.24-3.518c5.662-9.843,11.785-19.433,18.365-28.637c1.068-1.494,2.164-2.968,3.263-4.439
		c1.543-1.939,3.079-3.883,4.628-5.816c2.04-2.546,4.105-5.076,6.168-7.608c5.609-6.485,11.568-12.661,17.923-18.427
		c3.499-2.637,6.885-5.428,10.118-8.405c1.506-1.387,2.967-2.813,4.385-4.289c0.217-0.225,0.3-0.471,0.323-0.713
		c0.5-0.452,0.989-0.914,1.488-1.366c0.402-0.243,0.802-0.491,1.206-0.732c0.895-0.533,1.974-0.974,2.531-1.888
		c0.165-0.271,0.15-0.579,0.03-0.84c24.484-22.516,47.683-46.437,69.579-71.465c4.044-4.623,8.036-9.287,11.97-14.005
		C2145.279-116.384,2143.434-118.226,2142.332-116.937z M1789.417,51.024c-3.173-7.194-6.272-14.406-9.86-21.408
		c-7.207-14.068-16.105-27.353-28.008-37.888c-0.175-0.155-0.358-0.303-0.534-0.456c0.18,0.133,0.369,0.254,0.547,0.388
		c5.81,4.357,11.176,9.307,15.948,14.782c4.765,5.468,8.964,11.429,12.5,17.763c3.657,6.55,6.355,13.511,8.934,20.538
		c1.401,3.816,2.901,7.624,4.662,11.289c0.335,0.696,0.687,1.39,1.041,2.082c-0.181-0.169-0.348-0.35-0.535-0.514
		c-0.969-0.851-1.902-1.741-2.836-2.63C1790.616,53.673,1790.002,52.35,1789.417,51.024z M1788.482,52.211
		c-1.818-1.853-3.599-3.744-5.3-5.704c-4.625-5.327-8.815-11.009-12.868-16.777c-8.072-11.485-15.589-23.407-24.555-34.234
		c-4.553-5.498-9.491-10.739-15.088-15.186c6.561,2.97,12.686,6.627,18.276,11.228c6.121,5.038,11.513,10.944,16.229,17.306
		c9.496,12.811,16.154,27.257,22.584,41.766C1787.995,51.138,1788.236,51.673,1788.482,52.211z M1782.319,19.174
		c3.912,7.231,6.226,15.003,8.377,22.899c0.926,3.399,1.875,6.904,3.029,10.335c-0.954-2.24-1.878-4.494-2.788-6.756
		c-2.766-6.867-5.374-13.796-8.855-20.344c-6.857-12.897-16.478-24.37-27.855-33.518c-3.184-2.56-6.513-4.943-9.971-7.119
		c-0.669-0.421-1.351-0.845-2.033-1.265c9.566,3.874,18.355,9.653,25.766,16.875C1773.676,5.823,1778.538,12.187,1782.319,19.174z
		 M1728.948-20.276c5.26,4.436,10.128,9.306,14.549,14.579c4.559,5.438,8.677,11.214,12.651,17.088
		c7.88,11.649,15.163,23.717,24.083,34.627c2.467,3.017,5.046,5.955,7.807,8.707c0.781,0.778,1.597,1.521,2.409,2.268l0.049,0.085
		c0.43,0.494,0.86,0.987,1.29,1.482c0.221,0.364,0.447,0.724,0.679,1.079c-7.256-5.549-13.955-11.802-20.165-18.512
		c-8.419-9.098-15.931-18.994-22.923-29.219c-7.027-10.279-13.4-20.954-19.985-31.514
		C1729.25-19.832,1729.097-20.053,1728.948-20.276z M1756.242,43.866c-11.776-10.89-20.395-24.931-24.988-40.286
		c-2.13-7.12-3.371-14.474-3.703-21.89c2.318,4.091,4.813,8.08,7.292,12.079c3.337,5.383,6.738,10.729,10.261,15.993
		c6.974,10.421,14.442,20.536,22.792,29.901c8.164,9.155,17.17,17.548,27.209,24.618c0.646,0.455,1.307,0.89,1.962,1.334
		C1781.888,62.008,1767.711,54.472,1756.242,43.866z M1681.002,76.911c11.683,4.389,23.822,7.551,36.104,9.73
		c12.166,2.158,24.484,3.365,36.822,3.938c12.412,0.577,24.851,0.513,37.268,0.143c11.044-0.329,22.082-1.003,33.093-1.938
		c-1.482,0.375-2.955,0.779-4.41,1.214c-0.233,0.07-0.462,0.152-0.694,0.223c-9.035,1.155-18.075,2.261-27.13,3.198
		c-17.649,1.827-35.432,2.804-53.118,0.879c-17.137-1.865-34.052-6.129-50.037-12.578c-8.305-3.351-16.299-7.323-24.006-11.795
		C1670.136,72.531,1675.523,74.852,1681.002,76.911z M1815.122,87.61c-6.288,0.442-12.582,0.792-18.879,1.05
		c-12.396,0.508-24.805,0.749-37.208,0.437c-12.339-0.31-24.679-1.18-36.896-2.967c-12.277-1.796-24.413-4.522-36.18-8.475
		c-11.869-3.988-23.173-9.305-33.835-15.863c-0.579-0.357-1.146-0.733-1.72-1.098c-1.452-1.012-2.899-2.033-4.328-3.081
		c0.065,0.032,0.132,0.061,0.197,0.093c9.107,5.728,18.94,10.217,29.127,13.679c11.485,3.903,23.322,6.586,35.309,8.395
		c11.939,1.802,23.988,2.756,36.043,3.329c12.205,0.58,24.422,0.807,36.635,1.133c9.077,0.242,18.163,0.544,27.224,1.174
		c3.705,0.633,7.421,1.199,11.151,1.657C1819.549,87.261,1817.337,87.455,1815.122,87.61z M1718.453,73.101
		c14.498,0.946,29.045,1.526,43.465,3.382c12.35,1.589,24.512,4.267,36.716,6.697c-3.369-0.141-6.736-0.263-10.1-0.368
		c-12.151-0.379-24.308-0.512-36.457-0.933c-12.141-0.422-24.286-1.117-36.344-2.636c-11.914-1.501-23.752-3.779-35.263-7.226
		c-9.27-2.776-18.282-6.437-26.815-11.005c7.019,2.852,14.319,5.039,21.71,6.69C1689.523,70.866,1704.004,72.158,1718.453,73.101z
		 M1637.533,53.441c1.582,1.425,3.091,2.971,4.752,4.299c1.656,1.325,3.347,2.605,5.056,3.862c3.552,2.614,7.233,5.06,10.978,7.389
		c7.428,4.62,15.176,8.723,23.168,12.279c15.875,7.063,32.691,12.011,49.882,14.554c17.692,2.618,35.545,2.403,53.322,0.809
		c7.794-0.699,15.572-1.609,23.34-2.605c-3.027,1.105-6.048,2.226-9.092,3.283c-14.101,4.894-28.75,8.233-43.62,9.619
		c-14.759,1.376-29.738,0.812-44.253-2.294c-14.323-3.065-28.116-8.577-40.511-16.395c-8.455-5.332-16.17-11.759-22.911-19.101
		c-2.642-3.548-5.123-7.218-7.415-11.004C1639.293,56.593,1638.404,55.022,1637.533,53.441z M1636.293,54.542
		c0.004-0.001,0.008-0.001,0.012-0.001c0.021,0.04,0.044,0.077,0.065,0.117C1636.345,54.619,1636.319,54.581,1636.293,54.542z
		 M1767.328,111.192c-7.216,2.12-14.597,3.744-22.095,4.435c-8.5,0.784-17.096,0.433-25.513-0.975
		c-16.81-2.813-32.762-9.723-46.481-19.809c-7.15-5.257-13.611-11.347-19.408-18.023c3.506,3.195,7.198,6.188,11.064,8.924
		c11.973,8.474,25.517,14.737,39.669,18.566c14.379,3.89,29.45,5.341,44.316,4.716c15-0.63,29.914-3.361,44.257-7.771
		c7.792-2.396,15.444-5.558,23.244-8.109c-2.334,0.795-4.662,1.606-6.971,2.466C1795.396,100.832,1781.7,106.971,1767.328,111.192z
		 M1570.053,47.318c8.703,6.381,16.846,13.541,24.323,21.322c7.514,7.821,14.348,16.287,20.376,25.304
		c2.996,4.482,5.809,9.091,8.409,13.814c2.603,4.729,4.836,9.624,7.247,14.448c0.377,0.755,0.727,1.521,1.084,2.284
		c-0.219-0.112-0.432-0.234-0.65-0.348c-9.624-13.611-19.58-26.985-30.012-39.988c-5.418-6.754-11.001-13.378-16.819-19.791
		c-5.812-6.405-11.721-12.697-18.044-18.605c-1.752-1.637-3.52-3.269-5.318-4.865C1563.842,42.946,1566.99,45.072,1570.053,47.318z
		 M1547.153,32.981c0.907,0.48,1.8,0.988,2.699,1.483c1.245,0.766,2.449,1.599,3.611,2.487c3.41,2.609,6.637,5.476,9.822,8.351
		c6.316,5.7,12.492,11.644,18.272,17.887c11.598,12.526,22.225,25.892,32.451,39.548c5.13,6.852,10.206,13.746,15.331,20.602
		c-0.693-0.371-1.392-0.732-2.08-1.113c-2.282-1.679-4.477-3.466-6.544-5.441c-3.368-3.218-6.44-6.73-9.393-10.328
		c-6.248-7.613-12.172-15.48-18.473-23.053c-6.475-7.783-13.095-15.447-19.856-22.983c-6.709-7.48-13.492-14.935-20.499-22.138
		c-1.808-1.859-3.714-3.717-5.719-5.483C1546.901,32.858,1547.027,32.92,1547.153,32.981z M1526.923,23.875l0.321,0.069
		c4.15,1.583,8.24,3.321,12.262,5.211c3.69,2.403,7.089,5.336,10.302,8.392c7.255,6.899,14.01,14.353,20.724,21.773
		c6.712,7.418,13.286,14.959,19.72,22.619c6.376,7.591,12.546,15.344,18.821,23.017c3.302,4.038,6.663,8.032,10.405,11.673
		c1.029,1.002,2.093,1.986,3.187,2.941c-2.169-1.303-4.311-2.65-6.406-4.069c-12.826-8.689-23.761-19.484-33.572-31.424
		c-10.021-12.195-19.049-25.197-29.546-37.002C1545.477,38.456,1536.822,30.078,1526.923,23.875z M1619.236,123.791
		c-6.426-1.073-12.737-2.831-18.784-5.261c-10.106-4.062-19.514-9.878-27.584-17.2c-8.399-7.622-14.901-16.816-20.523-26.613
		c-5.73-9.987-10.626-20.439-16.694-30.234c-1.493-2.411-3.068-4.814-4.733-7.166c8.149,8.87,15.626,18.395,23.048,27.845
		c12.897,16.422,26.111,32.995,42.934,45.613C1603.744,115.907,1611.256,120.504,1619.236,123.791z M1622.789,124.313
		c-3.354-1.231-6.659-2.617-9.811-4.265c-4.568-2.387-8.926-5.156-13.093-8.185c-8.514-6.189-16.197-13.471-23.307-21.212
		c-14.01-15.252-25.719-32.404-39.103-48.181c-6.801-8.016-14.065-15.634-22.151-22.357c5.556,2.804,10.934,5.84,15.968,9.589
		c6.305,4.694,12.048,10.12,17.397,15.868c10.8,11.605,19.924,24.61,29.821,36.961c9.677,12.077,20.263,23.217,32.849,32.3
		c5.068,3.657,10.382,6.964,15.873,9.944C1625.746,124.663,1624.266,124.5,1622.789,124.313z M1497.076,104.965
		c5.081-0.112,10.168-0.122,15.248,0.055c10.182,0.355,20.356,1.581,30.157,4.445c19.171,5.601,36.156,16.489,54.522,24.086
		c-1.063-0.226-2.13-0.44-3.193-0.669c-3.937-1.121-7.812-2.441-11.654-3.848c-7.72-2.827-15.353-5.885-23.054-8.761
		c-15.242-5.691-30.768-11.281-47.035-13.083c-4.485-0.497-8.993-0.769-13.484-1.203c-2.351-0.227-4.697-0.475-7.031-0.846
		l-0.14-0.027C1493.3,105.064,1495.188,105.007,1497.076,104.965z M1496.188,107.646c4.119,0.436,8.26,0.61,12.389,0.908
		c8.196,0.59,16.275,1.894,24.223,3.982c15.942,4.187,31.013,10.883,46.485,16.453c1.775,0.639,3.557,1.259,5.34,1.875
		c-1.78-0.394-3.562-0.776-5.34-1.174c-9.815-2.195-19.6-4.485-29.348-6.963c-9.738-2.475-19.501-4.908-29.188-7.578
		c-5.436-1.498-10.844-3.112-16.246-4.726c-3.118-0.932-6.225-1.934-9.343-2.888C1495.503,107.571,1495.849,107.61,1496.188,107.646
		z M1491.837,107.282c3.553,1.179,7.167,2.203,10.742,3.282c4.813,1.453,9.634,2.88,14.464,4.275
		c9.725,2.81,19.408,5.725,29.191,8.332c19.432,5.177,38.981,9.903,58.651,14.085c0.73,0.155,1.462,0.303,2.192,0.457
		c-35.72-4.244-70.939-12.767-104.406-25.99C1499.04,110.289,1495.432,108.801,1491.837,107.282z M1605.334,150.174
		c-11.329,2.886-22.857,5.242-34.567,5.725c-11.302,0.466-22.7-0.847-33.305-4.919c-10.374-3.983-19.657-10.375-27.807-17.861
		c-2.417-2.219-4.733-4.543-6.979-6.933c10.07,7.631,21.65,13.306,33.716,17.132c20.682,6.558,42.641,7.333,64.113,5.361
		c6.067-0.557,12.105-1.352,18.121-2.313c0.802-0.128,1.604-0.262,2.407-0.394C1615.804,147.388,1610.583,148.836,1605.334,150.174z
		 M1620.496,144.431c-5.324,0.905-10.671,1.685-16.034,2.325c-10.71,1.276-21.492,1.861-32.275,1.432
		c-20.847-0.828-41.708-5.661-59.796-16.329c-4.457-2.628-8.699-5.617-12.677-8.917c-3.892-4.386-7.554-8.98-11.03-13.695
		c2.846,2.829,6.084,5.33,9.349,7.593c4.13,2.861,8.481,5.399,12.972,7.648c9.018,4.516,18.578,7.896,28.289,10.577
		c19.781,5.459,40.34,8.522,60.846,9.19c7.852,0.256,15.72,0.087,23.566-0.418C1622.634,144.034,1621.568,144.249,1620.496,144.431z
		 M1573.713,140.494c-20.007-2.487-40.272-6.874-58.665-15.33c-5.078-2.334-10.008-5.001-14.682-8.067
		c-4.799-3.148-9.123-6.802-13.549-10.433l-0.017-0.006l-0.094-0.132c43.247,20.034,90.277,31.404,137.712,35.245
		c0.252,0.021,0.505,0.032,0.757,0.052C1608.038,143.018,1590.736,142.61,1573.713,140.494z M1593.446,206.812
		c8.074-12.166,17.439-23.62,28.858-32.805c11.695-9.408,25.373-15.656,39.741-19.769c14.763-4.225,30.005-6.357,45.188-8.428
		c3.428-0.468,6.861-0.938,10.292-1.427c-12.797,4.191-25.457,8.807-37.838,14.109c-14.178,6.072-27.997,12.989-41.153,21.05
		c-12.727,7.798-24.866,16.624-35.974,26.605c-8.633,7.757-16.69,16.212-23.796,25.4
		C1583.389,223.146,1588.134,214.817,1593.446,206.812z M1701.694,168.757c-12.802,11.993-25.179,24.507-40.547,33.256
		c-13.958,7.947-29.224,13.149-44.269,18.601c-5.516,1.999-11.053,4.042-16.511,6.272c1.583-0.93,3.169-1.856,4.753-2.786
		c9.489-5.567,18.993-11.108,28.502-16.642c19.016-11.067,37.903-22.361,56.843-33.556c5.248-3.102,10.495-6.203,15.743-9.305
		C1704.691,165.972,1703.186,167.359,1701.694,168.757z M1712.037,159.474c-1.517,0.896-3.034,1.792-4.551,2.689
		c-4.736,2.798-9.472,5.596-14.208,8.394c-9.471,5.596-18.947,11.186-28.415,16.789c-18.936,11.207-37.823,22.491-56.729,33.748
		c-4.964,2.956-9.932,5.905-14.894,8.865c-6.315,2.849-12.454,6.053-18.265,9.835c10.131-7.856,20.057-15.97,30.264-23.729
		c10.71-8.142,21.679-15.953,33.132-23.019c11.284-6.961,22.994-13.049,35.114-18.417c11.918-5.279,24.052-10.077,35.769-15.801
		c3.6-1.759,7.151-3.62,10.642-5.587C1717.213,155.238,1714.588,157.31,1712.037,159.474z M1730.204,144.919
		c-5.359,3.639-10.908,6.951-16.646,9.958c-11.637,6.099-23.813,11.071-35.849,16.309c-12.206,5.313-24.142,11.077-35.581,17.904
		c-11.645,6.95-22.782,14.741-33.618,22.886c-10.772,8.097-21.281,16.553-31.587,25.233c-0.61,0.513-1.21,1.037-1.814,1.557
		c7.474-9.9,15.787-19.167,24.874-27.609c10.923-10.149,22.868-19.17,35.464-27.138c12.863-8.138,26.401-15.166,40.32-21.311
		c14.531-6.416,29.48-11.858,44.606-16.694c4.82-1.541,9.663-3.004,14.516-4.432c0.255-0.047,0.508-0.105,0.763-0.153
		C1733.774,142.502,1731.969,143.721,1730.204,144.919z M1764.033,267.171c0.788-7.671,1.25-15.379,2.233-23.033
		c1.193-9.292,2.881-18.525,5.178-27.609c4.401-17.406,11.094-34.237,20.62-49.49c8.953-14.336,20.353-27.291,34.038-37.279
		c3.893-2.842,7.973-5.354,12.151-7.691c0.178-0.06,0.354-0.124,0.532-0.183c-1.824,2.22-3.615,4.468-5.371,6.743
		c-3.535,4.58-6.943,9.261-10.195,14.047c-6.459,9.506-12.282,19.465-17.535,29.684c-5.235,10.187-9.864,20.678-13.838,31.42
		c-3.898,10.535-6.945,21.334-10.611,31.945c-3.882,11.235-8.892,21.961-16.643,31.033
		C1764.405,266.894,1764.221,267.036,1764.033,267.171z M1834.227,121.277c0.191-0.064,0.381-0.13,0.57-0.198
		c-0.212,0.122-0.42,0.251-0.63,0.374c-0.797,0.281-1.588,0.577-2.38,0.872C1832.6,121.974,1833.408,121.613,1834.227,121.277z
		 M1768.383,263.934c5.546-6.795,9.371-14.95,12.454-23.109c3.944-10.439,6.818-21.243,10.558-31.754
		c7.721-21.699,18.304-42.441,31.088-61.587c3.597-5.387,7.341-10.678,11.276-15.823c0.11-0.144,0.228-0.283,0.338-0.427
		c-2.343,3.831-4.595,7.715-6.771,11.623c-5.61,10.08-10.465,20.557-14.913,31.196c-4.493,10.745-8.165,21.759-11.777,32.824
		c-3.575,10.952-7.393,21.919-12.766,32.139c-4.468,8.5-10.105,16.484-17.111,23.075
		C1769.973,262.713,1769.179,263.325,1768.383,263.934z M1764.428,192.444c4.53-12.325,11.131-23.883,19.429-34.057
		c7.033-8.622,15.234-16.292,24.284-22.767c-7.831,6.58-14.37,14.682-20.245,23c-7.717,10.928-14.388,22.658-19.488,35.036
		c-4.806,11.666-8.194,23.945-9.775,36.47c-0.913,7.232-1.197,14.539-0.802,21.81c-0.877-6.589-1.236-13.247-1.041-19.904
		C1757.186,218.539,1759.771,205.116,1764.428,192.444z M1761.395,269.199c-0.452-1.588-0.866-3.186-1.253-4.79
		c-0.642-3.989-1.147-7.995-1.377-12.042c-0.337-5.916-0.226-11.856,0.305-17.757c1.115-12.383,4.114-24.569,8.645-36.14
		c4.791-12.235,11.124-23.799,18.562-34.62c6.991-10.172,14.755-20.256,24.462-27.994c4.639-3.698,9.732-6.566,15.056-8.972
		c-12.943,9.205-23.986,20.916-32.9,34.039c-10.037,14.775-17.298,31.291-22.239,48.426c-2.614,9.066-4.582,18.314-6.021,27.637
		c-1.434,9.286-2.511,18.712-2.688,28.114c-0.023,1.229-0.027,2.452-0.009,3.675
		C1761.759,268.918,1761.576,269.057,1761.395,269.199z M1819.757,173.938c-3.249,12.695-6.15,25.527-10.77,37.816
		c-4.37,11.622-10.55,22.324-18.641,31.753c-3.929,4.579-8.208,8.846-12.727,12.848c10.617-12.353,16.991-28.308,22.195-43.563
		c3.835-11.242,7.432-22.556,11.914-33.565c4.374-10.745,9.528-21.093,15.112-31.254c1.072-1.951,2.186-3.873,3.306-5.79
		C1825.634,152.39,1822.52,163.141,1819.757,173.938z M2043.89-16.397c0.013-0.025,0.025-0.049,0.038-0.074
		c0.06-0.039,0.12-0.079,0.18-0.119C2044.034-16.526,2043.962-16.461,2043.89-16.397z M2031.046-7.127
		c-0.057-0.04-0.122-0.072-0.199-0.09c-0.147-0.033-0.295-0.056-0.443-0.087c0.481-0.104,0.967-0.189,1.441-0.319
		C2031.585-7.447,2031.309-7.297,2031.046-7.127z M1899.033-23.276c16.378-0.5,32.804,0.129,49.093,1.912
		c16.268,1.78,32.409,4.72,48.256,8.805c1.459,0.376,2.917,0.786,4.376,1.203c-2.397-0.305-4.793-0.62-7.19-0.92
		c-12.459-1.556-24.933-3.016-37.429-4.24c-12.469-1.221-24.964-2.202-37.474-2.892c-12.541-0.692-25.102-1.048-37.662-0.966
		c-7.406,0.049-14.811,0.274-22.207,0.66C1872.124-21.674,1885.567-22.865,1899.033-23.276z M1849.981-18.315
		c0.288-0.05,0.577-0.093,0.865-0.142c8.495-0.517,17.004-0.824,25.513-0.912c12.502-0.13,25.006,0.192,37.492,0.837
		c12.517,0.646,25.011,1.647,37.484,2.876c12.548,1.237,25.076,2.671,37.587,4.24c7.308,0.916,14.609,1.883,21.909,2.862
		c3.44,0.862,6.908,1.562,10.434,1.84c1.226,0.097,2.471,0.103,3.717,0.064c0.418,0.057,0.836,0.112,1.254,0.169
		c1.08,0.145,2.148,0.254,3.223,0.338c-7.803,4.638-16.85,7.174-25.962,7.944c-16.799,1.421-33.373-2.99-49.441-7.342
		c-8.208-2.223-16.418-4.415-24.747-6.144c-8.041-1.669-16.153-2.989-24.307-3.966c-16.233-1.945-32.618-2.561-48.95-1.799
		c-5.928,0.276-11.847,0.738-17.747,1.374C1842.184-16.888,1846.076-17.637,1849.981-18.315z M1811-9.17
		c5.009-0.931,10.009-1.931,15.045-2.698c8.197-1.247,16.45-2.133,24.724-2.673c16.454-1.076,32.999-0.764,49.4,0.934
		c16.781,1.736,33.235,5.134,49.515,9.502c16.352,4.388,33.125,9.271,50.234,8.49c0.805-0.037,1.615-0.109,2.424-0.171
		c-0.593,0.099-1.184,0.207-1.778,0.303c-7.106,1.159-14.263,2.008-21.441,2.558c-14.347,1.1-28.772,0.967-43.097-0.391
		c-13.976-1.325-27.765-3.985-41.509-6.783c-13.643-2.777-27.323-5.59-41.142-7.351c-12.678-1.615-25.635-2.321-38.366-0.83
		c-0.621-0.044-1.241-0.113-1.863-0.142c-0.848-0.04-1.697-0.065-2.545-0.077c-0.494-0.037-0.986-0.085-1.483-0.114
		C1809.745-8.802,1810.373-8.984,1811-9.17z M1819.594-7.826c9.815-0.579,19.677-0.147,29.455,0.998
		c13.821,1.618,27.447,4.49,41.05,7.36c13.745,2.9,27.548,5.707,41.516,7.3c14.244,1.624,28.622,2.056,42.939,1.319
		c1.608-0.083,3.218-0.184,4.827-0.296c-11.054,0.979-22.166,1.34-33.259,1.16c-13.182-0.213-26.337-1.184-39.43-2.7
		c-13.799-1.598-27.555-3.701-41.23-6.137c-11.189-1.994-22.318-4.295-33.474-6.454C1827.932-6.456,1823.781-7.293,1819.594-7.826z
		 M1969.705,16.027c-17.937,2.845-36.319,2.914-54.344,0.868c-18.201-2.066-36.098-6.277-53.495-11.966
		c-6.893-2.254-13.784-4.7-20.741-6.895c-0.901-0.386-1.808-0.757-2.722-1.112c7.341,1.541,14.692,3.033,22.062,4.441
		c13.766,2.63,27.571,5.036,41.476,6.812c13.103,1.674,26.28,2.873,39.483,3.359c12.778,0.471,25.575,0.243,38.315-0.885
		c7.275-0.644,14.55-1.561,21.76-2.822C1991.196,11.576,1980.519,14.313,1969.705,16.027z M2023.31,0.918
		c-0.196,0.159-0.397,0.314-0.594,0.473c0.022-0.063,0.04-0.127,0.042-0.193C2022.941,1.102,2023.128,1.015,2023.31,0.918z
		 M2021.864,1.948l0.251-0.077c-0.058,0.047-0.117,0.093-0.176,0.14C2021.912,1.993,2021.896,1.962,2021.864,1.948z
		 M1910.311,217.464c1.646-6.298,3.428-12.56,5.342-18.781c3.853-12.517,8.261-24.855,13.205-36.983
		c4.915-12.057,10.342-23.906,16.261-35.503c5.921-11.601,12.342-22.93,19.198-34.003c6.354-10.263,13.15-20.225,20.277-29.962
		c-0.937,2.389-1.809,4.802-2.621,7.235c-7.779,15.636-14.88,31.562-21.568,47.703c-7.94,19.162-15.47,38.492-23.625,57.564
		c-8.089,18.918-16.801,37.614-27.062,55.463c-0.708,1.232-1.417,2.464-2.122,3.697c-0.182,0.167-0.366,0.33-0.549,0.496
		c-0.079-0.724-0.159-1.447-0.226-2.172C1907.911,227.283,1909.032,222.357,1910.311,217.464z M1979.02,79.257
		c-1.391,3.344-2.787,6.686-4.143,10.045c-5.069,12.562-9.868,25.232-14.379,38.006c-4.531,12.832-8.596,25.815-12.972,38.698
		c-4.275,12.586-8.97,25.058-15.386,36.731c-5.78,10.519-12.914,20.413-21.758,28.578c9.299-15.642,17.144-32.187,24.454-48.818
		c8.267-18.808,15.796-37.927,23.588-56.934c6.579-16.048,13.376-32.017,20.954-47.621
		C1979.258,78.379,1979.139,78.818,1979.02,79.257z M1908.342,234.739c0.266-0.434,0.519-0.877,0.782-1.312
		c8.568-7.041,15.476-16.092,21.161-25.545c6.692-11.126,11.783-23.184,16.215-35.363c4.702-12.919,8.8-26.049,13.387-39.01
		c4.604-13.008,9.492-25.916,14.661-38.71c0.542-1.341,1.098-2.675,1.647-4.012c-0.88,3.983-1.692,7.98-2.459,11.987
		c-2.837,9.5-5.609,19.021-8.539,28.493c-3.939,12.734-8.222,25.374-13.334,37.69c-4.828,11.63-10.385,22.984-17.089,33.655
		c-6.739,10.726-14.558,20.608-23.616,29.468C1910.235,232.982,1909.291,233.863,1908.342,234.739z M1983.132,60.616
		c1.411-1.614,2.815-3.234,4.223-4.85c-0.496,1.067-0.975,2.142-1.443,3.222c-7.106,9.089-13.581,18.716-19.816,28.403
		c-7.079,11-13.631,22.345-19.706,33.929c-6.106,11.641-11.702,23.551-16.783,35.674c-5.028,11.997-9.544,24.209-13.576,36.575
		c-2.314,7.102-4.431,14.27-6.406,21.478c2.012-10.18,4.517-20.259,7.609-30.177c5.573-17.874,12.787-35.212,21.16-51.95
		c8.409-16.808,18.001-33,28.353-48.68C1972.029,76.241,1977.51,68.377,1983.132,60.616z M1908.102,195.92
		c2.125-13.448,5.909-26.63,10.938-39.274c5.185-13.034,11.691-25.505,19.079-37.42c7.844-12.652,16.664-24.673,26.001-36.259
		c0.763-0.947,1.553-1.869,2.324-2.808c-9.945,14.855-19.237,30.154-27.488,46.017c-8.623,16.579-16.133,33.758-22.086,51.478
		c-3.003,8.938-5.604,18.013-7.738,27.198c-1.066,4.586-2.051,9.213-2.879,13.864C1906.289,211.087,1906.91,203.461,1908.102,195.92
		z M1957.968,167.505c-5.232,12.962-12.167,25.25-20.448,36.506c-4.194,5.702-8.766,11.136-13.639,16.268
		c-1.649,1.736-3.353,3.403-5.078,5.048c5.12-5.605,9.785-11.637,14-17.922c7.037-10.493,12.969-21.721,18.1-33.256
		c5.314-11.945,9.745-24.256,13.792-36.68c2.207-6.775,4.308-13.583,6.386-20.398c-0.502,2.724-1.008,5.447-1.535,8.165
		C1966.762,139.598,1963.457,153.904,1957.968,167.505z"/>
</g>
<g id="Layer_2">
</g>
<g id="Layer_3">
</g>
</svg>
