<?xml version="1.0" encoding="UTF-8"?>
<svg id="Layer_2" data-name="Layer 2" xmlns="http://www.w3.org/2000/svg" viewBox="0 0 480.38 181.56">
  <defs>
    <style>
      .cls-1 {
        fill: #203b72;
        stroke-width: 0px;
      }
    </style>
  </defs>
  <g id="Layer_1-2" data-name="Layer 1">
    <g>
      <path class="cls-1" d="m181.56,181.56H0V0h181.56v181.56Zm-174.42-7.14h167.28V7.14H7.14v167.28Z"/>
      <path class="cls-1" d="m145.45,35.15h-.4c-.54,0-.8-.28-.8-.84v-2.84c0-.13-.05-.23-.13-.33-.09-.09-.2-.13-.33-.13h-.4v3.93h.28v.21h-1.49v-.21h.28v-7.61h-.28v-.21h1.6c.38,0,.71.11.98.34.27.23.4.51.4.83v1.55c0,.5-.27.86-.8,1.06.53.23.8.58.8,1.07v2.66c0,.21.09.31.26.31h.02v.21Zm-1.2-4.8v-2.56c0-.13-.05-.23-.13-.32-.09-.09-.2-.13-.33-.13h-.4v3.47h.4c.13,0,.23-.05.33-.13.09-.09.13-.2.13-.33"/>
      <path class="cls-1" d="m148.21,37.48h-8.79c-.78,0-1.41-.63-1.41-1.41v-9.85c0-.78.63-1.41,1.41-1.41h8.79c.78,0,1.41.64,1.41,1.41v9.85c0,.78-.64,1.41-1.41,1.41m-8.79-12.05c-.44,0-.8.36-.8.79v9.85c0,.44.36.79.8.79h8.79c.44,0,.8-.36.8-.79v-9.85c0-.44-.36-.79-.8-.79h-8.79Z"/>
      <polygon class="cls-1" points="115.92 90.97 85.52 36.66 84.04 39.25 114.99 94.29 117.81 94.29 115.92 90.97"/>
      <path class="cls-1" d="m130.5,86.65l-33.15-57.99c-.77-1.34-1.96-2.05-3.2-2.18.7.52,1.32,1.19,1.78,2,.48.84.74,1.74.83,2.65.02.15.03.3.03.45h0c0,.19,0,.37-.01.54,0,.07-.01.13-.02.2,0,.08-.02.17-.03.25-.03.21-.07.43-.12.64-.03.12-.05.23-.09.35-.18.67-.44,1.32-.69,1.97-.73,1.88-1.42,3.66-.25,5.76,1.18,2.1,3.06,2.44,5.04,2.8,2.13.38,4.33.78,5.74,3.3,1.41,2.52.6,4.6-.19,6.62-.73,1.88-1.43,3.66-.25,5.76,1.18,2.1,3.05,2.44,5.04,2.8,2.13.38,4.33.78,5.74,3.3,1.41,2.52.6,4.6-.19,6.62-.73,1.88-1.43,3.66-.25,5.76,1.18,2.1,3.05,2.44,5.04,2.8.44.08.89.16,1.32.26,1.89.31,3.63,1.43,4.65,3.22,1.79,3.14.69,7.13-2.45,8.92-1.01.57-2.1.85-3.18.86h-3.82s9.03.01,9.03.01c3.44,0,5.51-4.35,3.63-7.63"/>
      <path class="cls-1" d="m105.36,156.39h-33.64c-.73,0-1.33-.59-1.33-1.32s.59-1.32,1.33-1.32h33.64c.73,0,1.32.59,1.32,1.32s-.59,1.32-1.32,1.32"/>
      <path class="cls-1" d="m131.76,108.36c.22-1.34.38-2.7.47-4.09.06-.85-.58-1.57-1.43-1.63-.85-.05-1.57.58-1.63,1.43-1.41,21.21-19.17,37.82-40.44,37.82-10.33,0-20.16-3.88-27.69-10.94-7.5-7.02-12.02-16.51-12.73-26.73-.06-.85-.79-1.48-1.64-1.42-.84.06-1.48.79-1.42,1.64.77,10.99,5.63,21.19,13.69,28.75,8.1,7.59,18.68,11.77,29.79,11.77,13.89,0,26.39-6.59,34.4-16.87,4.98,1,10.17-1.57,12.28-6.41,2.1-4.83.45-10.35-3.65-13.32m1.44,12.36c-1.48,3.41-4.93,5.38-8.44,5.16,3.02-4.42,5.25-9.43,6.48-14.82,2.54,2.42,3.44,6.26,1.96,9.66"/>
      <path class="cls-1" d="m79.7,102.88h-24.95c-.83,0-1.48.71-1.42,1.54.59,7,3.36,13.37,7.64,18.44.53.63,1.5.67,2.08.08l17.64-17.64c.89-.89.26-2.42-1-2.42m-6.54,4.06l-.49.53c-.11.13-.25.24-.43.29-.46.14-.96-.12-1.1-.58-.14-.46.12-.96.58-1.1.17-.05.35-.05.52,0l.71.16.72.17-.5.54Z"/>
      <path class="cls-1" d="m122.71,102.88h-24.95c-1.26,0-1.89,1.52-1,2.42l17.64,17.64c.58.59,1.55.55,2.08-.08,4.28-5.07,7.05-11.45,7.64-18.44.07-.83-.59-1.54-1.42-1.54m-16.49,4.67c-.18.46-.69.68-1.14.5-.17-.07-.31-.18-.4-.32l-.46-.57-.46-.57.73-.11.72-.11c.17-.04.34-.03.51.04.45.18.68.69.5,1.14"/>
      <path class="cls-1" d="m83.76,108.36l-17.64,17.64c-.58.58-.55,1.55.08,2.08,5.07,4.28,11.44,7.05,18.44,7.64.83.07,1.54-.59,1.54-1.42v-24.95c0-1.26-1.53-1.89-2.42-1m-1.22,8.82c-.14.47-.64.73-1.1.59-.47-.14-.73-.64-.59-1.1.05-.18.16-.32.29-.43l.53-.5.54-.5.17.72.16.71c.05.16.05.34,0,.52"/>
      <path class="cls-1" d="m111.34,126l-17.64-17.64c-.89-.89-2.42-.26-2.42,1v24.95c0,.83.71,1.49,1.54,1.42,7-.59,13.37-3.36,18.44-7.64.63-.53.67-1.5.08-2.08m-15.35-8.2c-.45.2-.97-.01-1.16-.46-.07-.17-.09-.35-.06-.51l.08-.72.08-.73.59.44.58.43c.14.09.26.22.34.39.19.45-.01.97-.46,1.16"/>
      <path class="cls-1" d="m120.55,86.66l-33.15-57.99c-1.71-2.99-5.55-2.99-7.26,0l-10.8,18.91c.39.58.7,1.21.91,1.91.67,2.17.28,4.43-.88,6.19,1.05,1.1,1.86,2.45,2.34,3.99,1.66,5.36-1.34,11.05-6.7,12.71-1.55.48-3.13.57-4.62.33-.79,1.98-2.43,3.6-4.62,4.27-1.13.35-2.27.4-3.36.22l-5.41,9.46c-1.88,3.29.19,7.63,3.63,7.63h33.15s33.15,0,33.15,0c3.44,0,5.51-4.35,3.63-7.63m-41.41-12.33c-.4,0-.71-.32-.71-.71s.32-.72.71-.72.71.32.71.72-.32.71-.71.71m3.84-2.45c-.39,0-.72-.32-.72-.72s.32-.71.72-.71.71.32.71.71-.32.72-.71.72m2.36,3.49c-.39,0-.72-.32-.72-.72s.32-.71.72-.71.72.32.72.71-.32.72-.72.72m4.22-8.5c-.4,0-.72-.32-.72-.71s.32-.71.72-.71.71.32.71.71-.32.71-.71.71"/>
      <path class="cls-1" d="m390.14,105.49h-172.37c-1.16,0-2.1.94-2.1,2.1s.94,2.1,2.1,2.1h172.37c1.16,0,2.1-.94,2.1-2.1s-.94-2.1-2.1-2.1"/>
      <path class="cls-1" d="m478.28,105.49h-52.2c-1.16,0-2.1.94-2.1,2.1s.94,2.1,2.1,2.1h52.2c1.16,0,2.1-.94,2.1-2.1s-.94-2.1-2.1-2.1"/>
      <path class="cls-1" d="m215.9,72.68c0,5.63,1.05,10.69,4.29,13.94,3.72,3.72,8.69,4.96,14.7,4.96h10.88v-11.93h-9.54c-2.48,0-3.63-.67-4.49-1.53-.86-.86-1.53-2-1.53-4.49v-4.77h12.6v-11.93h-12.6v-21.09c0-2.48.67-3.63,1.53-4.48.86-.86,2.01-1.53,4.49-1.53h9.54v-11.93h-10.88c-6.01,0-10.98,1.24-14.7,4.96-3.25,3.25-4.29,8.3-4.29,13.93v20.14h-3.82v11.93h3.82v3.82Z"/>
      <path class="cls-1" d="m271.03,59.89c0-3.53,1.53-6.11,3.63-6.11s3.63,2.58,3.63,6.11v31.69h13.36v-31.69c0-3.53,1.53-6.11,3.63-6.11s3.62,2.58,3.62,6.11v31.69h13.36v-28.82c0-14.32-6.68-20.9-16.99-20.9-3.82,0-7.26.76-10.31,3.43-2.96-2.29-6.78-3.43-10.31-3.43-.67,0-.95,0-1.34.1l-3.25,3.24v-2.86h-12.41v49.25h13.36v-31.69Z"/>
      <path class="cls-1" d="m337.07,59.89c0-3.53,1.53-6.11,3.63-6.11s3.63,2.58,3.63,6.11v31.69h13.36v-31.69c0-3.53,1.53-6.11,3.62-6.11s3.63,2.58,3.63,6.11v31.69h13.36v-28.82c0-14.32-6.68-20.9-16.99-20.9-3.82,0-7.25.76-10.31,3.43-2.96-2.29-6.78-3.43-10.31-3.43-.67,0-.95,0-1.34.1l-3.25,3.24v-2.86h-12.41v49.25h13.36v-31.69Z"/>
      <path class="cls-1" d="m409.9,66.95c0,3.53-1.53,6.11-3.63,6.11s-3.63-2.58-3.63-6.11v-24.62h-13.36v21.76c0,14.32,6.59,20.9,16.99,20.9.67,0,.95,0,1.34-.1l2.19-2.2v6.39c0,5.54-1.43,8.4-5.63,8.4-1.05,0-1.91-.1-2.77-.29v10.88s1.91.29,3.82.29c8.21,0,18.04-4.49,18.04-21.57v-44.48h-13.36v24.62Z"/>
      <polygon class="cls-1" points="446.79 24.8 436.46 22.76 436.46 46.91 442.51 46.91 446.79 24.8"/>
      <path class="cls-1" d="m464.8,76.11c0,4.68-2.2,7.25-4.58,9.16l8.49,8.59c6.2-4.87,11.64-11.07,11.64-19.66,0-4.77-1.14-8.02-3.34-11.07-1.62-2.2-2.48-4.2-2.48-6.97,0-3.53,1.15-5.53,3.72-7.73l-8.59-8.4c-6.78,5.15-10.5,10.98-10.5,17.66,0,4.87,1.62,8.59,3.15,11.07,1.15,1.91,2.48,5.06,2.48,7.35"/>
      <rect class="cls-1" x="262.31" y="165.56" width="6.77" height="5.13"/>
      <rect class="cls-1" x="271.78" y="165.56" width="6.74" height="5.13"/>
      <rect class="cls-1" x="221.24" y="118.86" width="10.09" height="4.99"/>
      <rect class="cls-1" x="351.16" y="165.56" width="6.59" height="5.13"/>
      <rect class="cls-1" x="341.66" y="165.56" width="6.63" height="5.13"/>
      <polygon class="cls-1" points="366.53 158.49 373.48 158.49 373.48 160.31 366.53 160.31 366.53 163.15 376.61 163.15 376.61 118.86 366.53 118.86 366.53 158.49"/>
      <path class="cls-1" d="m357.43,133.9h-10.08v24.18h-13.79c-3.73-.03-6.74-3.07-6.74-6.8v-19.89h-.07c-3.27,1.59-6.93,2.46-10.79,2.46h-2.23c-6.62,0-11.99,5.37-11.99,11.99v5.43c0,3.72-3.02,6.74-6.75,6.74h-9.25c-3.73,0-6.75-3.02-6.75-6.74v-17.37h-9.94v24.12h-31.71c-3.32,0-6.01-2.69-6.01-6.01v-18.07h-10.08v27.87c0,1.68-.33,2.15-1,2.57-.67.41-1.68.62-3.04.62v5.13h6.62c5,0,7.5-2.72,7.5-8.15v-1.37h.19c0,1.4,1.13,2.53,2.53,2.53l44.52.02v-2.55h.19c0,1.4,1.13,2.53,2.53,2.53h17.79c1.4,0,2.53-1.13,2.53-2.53h.19v2.55h25.01v-2.55s.18,0,.18,0c0,1.4,1.14,2.55,2.53,2.55h27.91v-29.25Zm-40.71,23.86h-5.1v-15.09c0-1.92,1.38-3.56,3.26-3.89.58-.1,1.2-.15,1.84-.15v19.13Z"/>
      <path class="cls-1" d="m432.83,124.74c-1.24-.53-1.93-.83-2.07-.91-.62-.37-.93-.83-.93-1.37,0-1.12.77-1.68,2.3-1.68.8,0,1.6.13,2.41.4l.24-2.36c-.85-.18-1.69-.27-2.53-.27-1.66,0-2.97.39-3.91,1.18-.92.76-1.38,1.77-1.38,3.04,0,1.7.98,2.95,2.95,3.75,1.19.49,1.86.79,2.03.88.61.37.92.85.92,1.43,0,1.22-.78,1.83-2.35,1.83-1.07,0-2.09-.2-3.05-.6l-.3,2.59c.94.25,2.02.38,3.24.38,1.6,0,2.91-.43,3.92-1.3.99-.84,1.49-1.92,1.49-3.23,0-1.64-1-2.89-2.99-3.74"/>
      <path class="cls-1" d="m440.44,118.17c-.32-.31-.72-.46-1.18-.46s-.85.16-1.16.48c-.32.32-.48.7-.48,1.14s.16.83.48,1.14c.32.31.71.47,1.16.47s.85-.16,1.18-.48c.32-.31.49-.68.49-1.12s-.16-.84-.49-1.15"/>
      <rect class="cls-1" x="437.94" y="122.46" width="2.65" height="10.32"/>
      <path class="cls-1" d="m449.78,132.77h2.63v-7.25c0-2.18-1.02-3.27-3.07-3.27-1.63,0-2.8.68-3.51,2.05h-.03c.1-.5.15-1.12.15-1.85h-2.51v10.32h2.65v-4.98c0-.91.23-1.68.7-2.33.46-.65,1.03-.98,1.69-.98.86,0,1.29.57,1.29,1.7v6.6Z"/>
      <path class="cls-1" d="m459.69,124.52c.64,0,1.28.13,1.93.4l.41-2.28c-.68-.24-1.43-.35-2.26-.35-1.72,0-3.04.54-3.96,1.63-.86,1.01-1.29,2.37-1.29,4.05,0,3.33,1.55,5,4.65,5,1.11,0,2.07-.16,2.9-.48l-.35-2.22c-.62.28-1.29.42-2.02.42-1.61,0-2.41-1-2.41-2.99,0-.98.21-1.75.61-2.3.42-.58,1.01-.87,1.78-.87"/>
      <path class="cls-1" d="m468.28,122.26c-1.5,0-2.7.52-3.6,1.57-.86,1-1.3,2.29-1.3,3.88,0,3.51,1.7,5.27,5.09,5.27,1.29,0,2.53-.22,3.73-.66l-.28-2.02c-.99.41-1.99.61-2.99.61-1.9,0-2.85-.93-2.85-2.79h6.37c.07-.38.1-.88.1-1.49,0-1.31-.33-2.35-1-3.11-.75-.84-1.84-1.26-3.27-1.26m-2.18,4.1c.16-1.44.83-2.16,2.04-2.16s1.82.72,1.78,2.16h-3.82Z"/>
      <path class="cls-1" d="m432.03,152.92c2.2-2.41,3.3-4.53,3.3-6.35,0-1.15-.35-2.07-1.05-2.78-.76-.76-1.82-1.14-3.18-1.14s-2.61.27-3.72.81l.39,2.41c.88-.53,1.74-.79,2.59-.79.65,0,1.15.18,1.51.56.34.35.5.81.5,1.39,0,1.29-1,3.04-3.01,5.23l-2.1,2.37v2.24h8.47v-2.55c-2.34,0-4,.03-4.97.08l1.25-1.47Z"/>
      <path class="cls-1" d="m442.86,142.66c-1.58,0-2.88.61-3.88,1.82-1.11,1.32-1.66,3.17-1.66,5.53,0,4.69,1.73,7.03,5.19,7.03,1.58,0,2.87-.6,3.88-1.81,1.11-1.32,1.66-3.17,1.66-5.54,0-4.69-1.73-7.03-5.19-7.03m-.21,12.16c-1.67,0-2.5-1.66-2.5-4.97s.85-4.96,2.56-4.96,2.51,1.67,2.51,5-.86,4.93-2.57,4.93"/>
      <path class="cls-1" d="m455.08,142.66c-1.58,0-2.88.61-3.88,1.82-1.11,1.32-1.66,3.17-1.66,5.53,0,4.69,1.73,7.03,5.19,7.03,1.58,0,2.87-.6,3.88-1.81,1.11-1.32,1.66-3.17,1.66-5.54,0-4.69-1.73-7.03-5.19-7.03m-.21,12.16c-1.67,0-2.5-1.66-2.5-4.97s.86-4.96,2.56-4.96,2.51,1.67,2.51,5-.86,4.93-2.57,4.93"/>
      <path class="cls-1" d="m467.3,142.66c-1.58,0-2.88.61-3.88,1.82-1.11,1.32-1.66,3.17-1.66,5.53,0,4.69,1.73,7.03,5.19,7.03,1.58,0,2.87-.6,3.88-1.81,1.11-1.32,1.66-3.17,1.66-5.54,0-4.69-1.73-7.03-5.19-7.03m-.21,12.16c-1.67,0-2.5-1.66-2.5-4.97s.86-4.96,2.56-4.96,2.51,1.67,2.51,5-.86,4.93-2.57,4.93"/>
    </g>
  </g>
</svg>