<?xml version="1.0" encoding="UTF-8"?>
<svg id="Layer_2" data-name="Layer 2" xmlns="http://www.w3.org/2000/svg" viewBox="0 0 181.33 305.69">
  <defs>
    <style>
      .cls-1 {
        fill: #203b72;
        stroke-width: 0px;
      }
    </style>
  </defs>
  <g id="Layer_1-2" data-name="Layer 1">
    <g>
      <path class="cls-1" d="m181.33,181.33H0V0h181.33v181.33Zm-174.2-7.13h167.07V7.13H7.13v167.07Z"/>
      <path class="cls-1" d="m145.27,35.11h-.4c-.54,0-.8-.28-.8-.84v-2.83c0-.13-.05-.23-.13-.33-.09-.09-.2-.13-.32-.13h-.4v3.92h.28v.21h-1.48v-.21h.28v-7.6h-.28v-.21h1.6c.38,0,.7.11.97.34.27.23.4.51.4.83v1.55c0,.5-.27.85-.8,1.06.53.23.8.58.8,1.07v2.65c0,.2.09.31.26.31h.02v.21Zm-1.2-4.79v-2.55c0-.13-.05-.23-.13-.32-.09-.09-.2-.13-.32-.13h-.4v3.47h.4c.13,0,.23-.04.32-.13.09-.09.13-.2.13-.32"/>
      <path class="cls-1" d="m148.03,37.43h-8.78c-.78,0-1.41-.63-1.41-1.41v-9.83c0-.78.63-1.41,1.41-1.41h8.78c.78,0,1.41.63,1.41,1.41v9.83c0,.78-.63,1.41-1.41,1.41m-8.78-12.04c-.44,0-.79.36-.79.79v9.83c0,.44.36.79.79.79h8.78c.44,0,.8-.36.8-.79v-9.83c0-.44-.36-.79-.8-.79h-8.78Z"/>
      <polygon class="cls-1" points="115.78 90.86 85.41 36.62 83.94 39.2 114.85 94.17 117.66 94.17 115.78 90.86"/>
      <path class="cls-1" d="m130.34,86.55l-33.11-57.92c-.77-1.34-1.96-2.04-3.2-2.18.7.52,1.32,1.19,1.78,2,.48.84.74,1.74.83,2.64.02.15.03.3.03.45h0c0,.19,0,.37-.01.54,0,.07-.01.13-.02.2,0,.08-.02.17-.03.25-.03.21-.07.42-.12.63-.03.12-.06.23-.09.35-.18.67-.44,1.32-.69,1.97-.73,1.88-1.42,3.65-.25,5.75,1.18,2.1,3.05,2.43,5.03,2.79,2.13.38,4.33.78,5.74,3.29,1.41,2.52.6,4.6-.19,6.61-.73,1.88-1.42,3.65-.25,5.75,1.17,2.1,3.05,2.43,5.03,2.79,2.13.38,4.33.78,5.74,3.29,1.41,2.51.6,4.6-.19,6.61-.73,1.88-1.42,3.65-.25,5.75,1.18,2.1,3.05,2.44,5.04,2.79.44.08.88.16,1.32.26,1.89.3,3.62,1.42,4.64,3.22,1.78,3.13.69,7.12-2.45,8.91-1,.57-2.09.85-3.18.86h-3.81s9.02.01,9.02.01c3.44,0,5.5-4.34,3.63-7.62"/>
      <path class="cls-1" d="m105.23,156.19h-33.6c-.73,0-1.32-.59-1.32-1.32s.59-1.32,1.32-1.32h33.6c.73,0,1.32.59,1.32,1.32s-.59,1.32-1.32,1.32"/>
      <path class="cls-1" d="m131.59,108.22c.22-1.34.38-2.7.47-4.08.06-.85-.58-1.57-1.43-1.63-.85-.06-1.57.58-1.63,1.42-1.4,21.18-19.14,37.77-40.39,37.77-10.31,0-20.14-3.88-27.66-10.93-7.49-7.01-12-16.49-12.72-26.69-.06-.84-.79-1.48-1.63-1.42-.84.06-1.48.79-1.42,1.63.77,10.97,5.63,21.17,13.68,28.71,8.09,7.58,18.66,11.75,29.75,11.75,13.87,0,26.35-6.58,34.36-16.84,4.98,1,10.16-1.57,12.26-6.4,2.09-4.82.45-10.34-3.65-13.3m1.43,12.34c-1.48,3.41-4.92,5.37-8.43,5.15,3.02-4.41,5.24-9.41,6.47-14.8,2.53,2.42,3.43,6.25,1.96,9.65"/>
      <path class="cls-1" d="m79.6,102.75h-24.92c-.83,0-1.48.71-1.41,1.53.59,6.99,3.36,13.36,7.63,18.42.53.63,1.5.67,2.08.08l17.62-17.62c.89-.89.26-2.42-1-2.42m-6.53,4.05l-.49.53c-.11.13-.25.24-.43.29-.46.14-.96-.12-1.1-.58-.15-.46.12-.96.58-1.1.17-.05.35-.05.52,0l.71.16.72.16-.5.54Z"/>
      <path class="cls-1" d="m122.56,102.75h-24.92c-1.26,0-1.89,1.52-1,2.42l17.62,17.62c.58.58,1.55.55,2.08-.08,4.27-5.06,7.04-11.43,7.63-18.42.07-.82-.59-1.53-1.41-1.53m-16.47,4.67c-.18.45-.69.68-1.14.5-.17-.07-.31-.18-.4-.32l-.46-.57-.46-.57.73-.11.72-.11c.17-.04.34-.03.51.04.45.18.68.69.5,1.14"/>
      <path class="cls-1" d="m83.65,108.22l-17.62,17.62c-.58.58-.55,1.55.08,2.08,5.06,4.27,11.43,7.04,18.42,7.63.82.07,1.53-.59,1.53-1.42v-24.92c0-1.26-1.52-1.89-2.42-1m-1.22,8.81c-.14.47-.63.73-1.1.59-.47-.14-.73-.64-.59-1.1.05-.18.16-.32.29-.43l.53-.5.54-.5.17.72.16.71c.05.16.05.34,0,.52"/>
      <path class="cls-1" d="m111.2,125.84l-17.62-17.62c-.89-.89-2.41-.26-2.41,1v24.92c0,.83.71,1.48,1.53,1.41,6.99-.59,13.36-3.36,18.42-7.63.63-.53.67-1.5.08-2.08m-15.33-8.19c-.45.19-.97,0-1.16-.46-.07-.17-.09-.35-.06-.51l.08-.72.08-.73.59.44.58.43c.15.09.26.22.33.39.19.45-.01.97-.46,1.16"/>
      <path class="cls-1" d="m120.4,86.55l-33.11-57.92c-1.71-2.99-5.55-2.99-7.25,0l-10.79,18.88c.38.58.7,1.21.91,1.91.67,2.17.28,4.42-.88,6.18,1.04,1.1,1.86,2.44,2.34,3.99,1.66,5.35-1.34,11.04-6.69,12.7-1.55.48-3.12.57-4.62.33-.79,1.97-2.43,3.59-4.62,4.27-1.13.35-2.27.4-3.36.22l-5.4,9.45c-1.88,3.28.19,7.62,3.63,7.62h33.11s33.1,0,33.1,0c3.43,0,5.5-4.34,3.63-7.62m-41.36-12.31c-.4,0-.71-.32-.71-.71s.32-.71.71-.71.71.32.71.71-.32.71-.71.71m3.84-2.45c-.39,0-.71-.32-.71-.71s.32-.71.71-.71.72.32.72.71-.32.71-.72.71m2.35,3.48c-.39,0-.71-.32-.71-.71s.32-.71.71-.71.71.32.71.71-.32.71-.71.71m4.21-8.49c-.4,0-.71-.32-.71-.71s.32-.71.71-.71.71.32.71.71-.32.71-.71.71"/>
      <path class="cls-1" d="m119.72,261.85H3.82c-.78,0-1.41.63-1.41,1.41s.63,1.41,1.41,1.41h115.9c.78,0,1.41-.63,1.41-1.41s-.63-1.41-1.41-1.41"/>
      <path class="cls-1" d="m178.98,261.85h-35.1c-.78,0-1.41.63-1.41,1.41s.63,1.41,1.41,1.41h35.1c.78,0,1.41-.63,1.41-1.41s-.63-1.41-1.41-1.41"/>
      <path class="cls-1" d="m2.57,239.79c0,3.79.7,7.19,2.89,9.37,2.5,2.5,5.84,3.34,9.88,3.34h7.32v-8.02h-6.42c-1.67,0-2.44-.45-3.02-1.03-.58-.58-1.03-1.35-1.03-3.02v-3.21h8.47v-8.02h-8.47v-14.18c0-1.67.45-2.44,1.03-3.01.58-.58,1.35-1.03,3.02-1.03h6.42v-8.02h-7.32c-4.04,0-7.38.83-9.88,3.34-2.18,2.18-2.89,5.58-2.89,9.37v13.54H0v8.02h2.57v2.57Z"/>
      <path class="cls-1" d="m39.63,231.19c0-2.37,1.03-4.11,2.44-4.11s2.44,1.73,2.44,4.11v21.31h8.98v-21.31c0-2.37,1.03-4.11,2.44-4.11s2.44,1.73,2.44,4.11v21.31h8.98v-19.38c0-9.63-4.49-14.05-11.42-14.05-2.57,0-4.88.51-6.93,2.31-1.99-1.54-4.56-2.31-6.93-2.31-.45,0-.64,0-.9.07l-2.18,2.18v-1.93h-8.34v33.11h8.99v-21.31Z"/>
      <path class="cls-1" d="m84.04,231.19c0-2.37,1.03-4.11,2.44-4.11s2.44,1.73,2.44,4.11v21.31h8.98v-21.31c0-2.37,1.03-4.11,2.44-4.11s2.44,1.73,2.44,4.11v21.31h8.98v-19.38c0-9.63-4.49-14.05-11.42-14.05-2.57,0-4.88.51-6.93,2.31-1.99-1.54-4.56-2.31-6.93-2.31-.45,0-.64,0-.9.07l-2.18,2.18v-1.93h-8.34v33.11h8.98v-21.31Z"/>
      <path class="cls-1" d="m133,235.94c0,2.37-1.03,4.11-2.44,4.11s-2.44-1.73-2.44-4.11v-16.56h-8.98v14.63c0,9.63,4.43,14.05,11.42,14.05.45,0,.64,0,.9-.07l1.48-1.48v4.3c0,3.72-.96,5.65-3.79,5.65-.71,0-1.28-.07-1.86-.19v7.32s1.28.19,2.57.19c5.52,0,12.13-3.02,12.13-14.51v-29.9h-8.98v16.56Z"/>
      <polygon class="cls-1" points="157.81 207.6 150.86 206.23 150.86 222.47 154.93 222.47 157.81 207.6"/>
      <path class="cls-1" d="m169.92,242.1c0,3.14-1.48,4.88-3.08,6.16l5.71,5.78c4.17-3.27,7.83-7.44,7.83-13.22,0-3.21-.77-5.39-2.25-7.44-1.09-1.48-1.67-2.82-1.67-4.69,0-2.37.77-3.72,2.5-5.2l-5.78-5.65c-4.56,3.46-7.06,7.38-7.06,11.87,0,3.27,1.09,5.77,2.12,7.44.77,1.28,1.67,3.4,1.67,4.94"/>
      <path class="cls-1" d="m172.03,203.21h-.38v-4.7h.53c.17,0,.32.06.44.16.12.11.18.24.18.39v3.39c0,.67.36,1,1.08,1h.54v-.25h-.03c-.24,0-.35-.12-.35-.37v-3.18c0-.58-.36-1.01-1.08-1.28.72-.25,1.08-.67,1.08-1.27v-1.85c0-.38-.18-.71-.54-.99-.36-.27-.8-.41-1.31-.41h-2.15v.25h.38v9.1h-.38v.25h2v-.25Zm-.38-9.1h.53c.17,0,.32.05.44.16.12.11.18.24.18.39v3.06c0,.15-.06.28-.18.39-.12.11-.27.16-.44.16h-.53v-4.15Z"/>
      <path class="cls-1" d="m168.08,204.63h8.28c.73,0,1.33-.6,1.33-1.33v-9.27c0-.73-.6-1.33-1.33-1.33h-8.28c-.73,0-1.33.6-1.33,1.33v9.27c0,.73.6,1.33,1.33,1.33m-.75-10.61c0-.41.34-.75.75-.75h8.28c.41,0,.75.34.75.75v9.27c0,.41-.34.75-.75.75h-8.28c-.41,0-.75-.34-.75-.75v-9.27Z"/>
      <rect class="cls-1" x="33.77" y="302.24" width="4.55" height="3.45"/>
      <rect class="cls-1" x="40.14" y="302.24" width="4.53" height="3.45"/>
      <rect class="cls-1" x="6.15" y="270.84" width="6.78" height="3.35"/>
      <rect class="cls-1" x="93.51" y="302.24" width="4.43" height="3.45"/>
      <rect class="cls-1" x="87.12" y="302.24" width="4.46" height="3.45"/>
      <polygon class="cls-1" points="103.84 297.49 108.52 297.49 108.52 298.71 103.84 298.71 103.84 300.62 110.63 300.62 110.63 270.84 103.84 270.84 103.84 297.49"/>
      <path class="cls-1" d="m97.73,280.95h-6.78v16.26h-9.28c-2.51-.02-4.54-2.06-4.54-4.58v-13.37h-.05c-2.2,1.07-4.66,1.66-7.26,1.66h-1.5c-4.45,0-8.06,3.61-8.06,8.06v3.65c0,2.51-2.03,4.54-4.54,4.54h-6.22c-2.51,0-4.54-2.03-4.54-4.54v-11.68h-6.68v16.22h-21.32c-2.23,0-4.04-1.81-4.04-4.04v-12.15h-6.78v18.74c0,1.13-.22,1.45-.67,1.73-.45.28-1.13.42-2.04.42v3.45h4.45c3.36,0,5.04-1.83,5.04-5.48v-.92h.13c0,.94.76,1.7,1.7,1.7h29.93s0-1.7,0-1.7h.13c0,.94.76,1.7,1.7,1.7h11.96c.94,0,1.7-.76,1.7-1.7h.13v1.71h16.82v-1.71s.12,0,.12,0c0,.94.76,1.71,1.7,1.71h18.77v-19.67Zm-27.37,16.05h-3.43v-10.15c0-1.29.92-2.39,2.19-2.61.39-.07.81-.1,1.23-.1v12.86Z"/>
      <path class="cls-1" d="m148.42,274.8c-.84-.35-1.3-.56-1.39-.61-.42-.25-.63-.56-.63-.92,0-.75.52-1.13,1.55-1.13.54,0,1.08.09,1.62.27l.16-1.59c-.57-.12-1.14-.18-1.7-.18-1.12,0-1.99.26-2.63.79-.62.51-.93,1.19-.93,2.04,0,1.14.66,1.98,1.98,2.52.8.33,1.25.53,1.36.59.41.25.62.57.62.96,0,.82-.53,1.23-1.58,1.23-.72,0-1.41-.14-2.05-.4l-.2,1.74c.63.17,1.36.25,2.18.25,1.08,0,1.95-.29,2.64-.87.67-.57,1-1.29,1-2.17,0-1.1-.67-1.94-2.01-2.51"/>
      <path class="cls-1" d="m153.54,270.38c-.22-.21-.48-.31-.79-.31s-.57.11-.78.32c-.21.21-.32.47-.32.77s.11.56.32.76c.21.21.47.31.78.31s.57-.11.79-.32c.22-.21.33-.46.33-.76s-.11-.56-.33-.78"/>
      <rect class="cls-1" x="151.86" y="273.26" width="1.79" height="6.94"/>
      <path class="cls-1" d="m159.82,280.2h1.77v-4.87c0-1.47-.69-2.2-2.06-2.2-1.1,0-1.88.46-2.36,1.38h-.02c.07-.34.1-.75.1-1.24h-1.69v6.94h1.78v-3.35c0-.61.16-1.13.47-1.57.31-.44.69-.66,1.14-.66.58,0,.87.38.87,1.14v4.44Z"/>
      <path class="cls-1" d="m166.49,274.65c.43,0,.86.09,1.29.27l.28-1.53c-.46-.16-.96-.24-1.52-.24-1.15,0-2.04.36-2.66,1.1-.58.68-.87,1.59-.87,2.72,0,2.24,1.04,3.36,3.13,3.36.74,0,1.39-.11,1.95-.32l-.23-1.49c-.42.19-.87.28-1.35.28-1.08,0-1.62-.67-1.62-2.01,0-.66.14-1.17.41-1.55.28-.39.68-.59,1.2-.59"/>
      <path class="cls-1" d="m172.26,273.13c-1.01,0-1.81.35-2.42,1.06-.58.67-.87,1.54-.87,2.61,0,2.36,1.14,3.54,3.42,3.54.87,0,1.7-.15,2.51-.44l-.19-1.36c-.67.27-1.34.41-2.01.41-1.28,0-1.91-.62-1.91-1.87h4.29c.05-.25.07-.59.07-1,0-.88-.22-1.58-.67-2.09-.51-.57-1.24-.85-2.2-.85m-1.46,2.76c.1-.97.56-1.45,1.37-1.45s1.22.48,1.2,1.45h-2.57Z"/>
      <path class="cls-1" d="m147.89,293.74c1.48-1.62,2.22-3.04,2.22-4.27,0-.77-.23-1.39-.71-1.87-.51-.51-1.22-.77-2.14-.77s-1.76.18-2.5.54l.27,1.62c.59-.35,1.17-.53,1.74-.53.44,0,.78.12,1.02.38.23.24.34.55.34.93,0,.87-.67,2.04-2.02,3.52l-1.41,1.59v1.5h5.7v-1.72c-1.58,0-2.69.02-3.34.05l.84-.99Z"/>
      <path class="cls-1" d="m155.17,286.85c-1.06,0-1.93.41-2.61,1.22-.75.89-1.12,2.13-1.12,3.72,0,3.15,1.16,4.73,3.49,4.73,1.06,0,1.93-.4,2.61-1.21.74-.89,1.12-2.13,1.12-3.73,0-3.15-1.16-4.73-3.49-4.73m-.14,8.18c-1.12,0-1.68-1.11-1.68-3.34s.57-3.34,1.72-3.34,1.69,1.12,1.69,3.37-.58,3.32-1.73,3.32"/>
      <path class="cls-1" d="m163.38,286.85c-1.06,0-1.93.41-2.61,1.22-.74.89-1.12,2.13-1.12,3.72,0,3.15,1.16,4.73,3.49,4.73,1.06,0,1.93-.4,2.61-1.21.74-.89,1.12-2.13,1.12-3.73,0-3.15-1.16-4.73-3.49-4.73m-.14,8.18c-1.12,0-1.68-1.11-1.68-3.34s.58-3.34,1.72-3.34,1.69,1.12,1.69,3.37-.58,3.32-1.73,3.32"/>
      <path class="cls-1" d="m171.6,286.85c-1.06,0-1.93.41-2.61,1.22-.74.89-1.12,2.13-1.12,3.72,0,3.15,1.16,4.73,3.49,4.73,1.06,0,1.93-.4,2.61-1.21.75-.89,1.12-2.13,1.12-3.73,0-3.15-1.16-4.73-3.49-4.73m-.14,8.18c-1.12,0-1.68-1.11-1.68-3.34s.58-3.34,1.72-3.34,1.69,1.12,1.69,3.37-.58,3.32-1.73,3.32"/>
    </g>
  </g>
</svg>