<?xml version="1.0" encoding="UTF-8"?>
<svg id="Layer_2" data-name="Layer 2" xmlns="http://www.w3.org/2000/svg" viewBox="0 0 268.29 152.79">
  <defs>
    <style>
      .cls-1 {
        fill: #203b72;
        stroke-width: 0px;
      }
    </style>
  </defs>
  <g id="Layer_1-2" data-name="Layer 1">
    <g>
      <path class="cls-1" d="m178.05,87.6H5.68c-1.16,0-2.1.94-2.1,2.1s.94,2.1,2.1,2.1h172.37c1.16,0,2.1-.94,2.1-2.1s-.94-2.1-2.1-2.1"/>
      <path class="cls-1" d="m266.2,87.6h-52.2c-1.16,0-2.1.94-2.1,2.1s.94,2.1,2.1,2.1h52.2c1.16,0,2.1-.94,2.1-2.1s-.94-2.1-2.1-2.1"/>
      <path class="cls-1" d="m3.82,54.78c0,5.63,1.05,10.69,4.29,13.94,3.72,3.72,8.68,4.96,14.7,4.96h10.88v-11.93h-9.54c-2.48,0-3.63-.67-4.49-1.53-.86-.86-1.53-2-1.53-4.49v-4.77h12.6v-11.93h-12.6v-21.09c0-2.48.67-3.63,1.53-4.48.86-.86,2.01-1.53,4.49-1.53h9.54V0h-10.88c-6.01,0-10.98,1.24-14.7,4.96-3.25,3.25-4.29,8.3-4.29,13.93v20.14H0v11.93h3.82v3.82Z"/>
      <path class="cls-1" d="m58.94,41.99c0-3.53,1.53-6.11,3.63-6.11s3.63,2.58,3.63,6.11v31.69h13.36v-31.69c0-3.53,1.53-6.11,3.63-6.11s3.62,2.58,3.62,6.11v31.69h13.36v-28.82c0-14.32-6.68-20.9-16.99-20.9-3.82,0-7.26.76-10.31,3.43-2.96-2.29-6.78-3.43-10.31-3.43-.67,0-.95,0-1.34.09l-3.25,3.24v-2.86h-12.41v49.25h13.36v-31.69Z"/>
      <path class="cls-1" d="m124.99,41.99c0-3.53,1.53-6.11,3.63-6.11s3.63,2.58,3.63,6.11v31.69h13.36v-31.69c0-3.53,1.53-6.11,3.62-6.11s3.63,2.58,3.63,6.11v31.69h13.36v-28.82c0-14.32-6.68-20.9-16.99-20.9-3.82,0-7.25.76-10.31,3.43-2.96-2.29-6.78-3.43-10.31-3.43-.67,0-.95,0-1.34.09l-3.25,3.24v-2.86h-12.41v49.25h13.36v-31.69Z"/>
      <path class="cls-1" d="m197.81,49.06c0,3.53-1.53,6.11-3.63,6.11s-3.63-2.58-3.63-6.11v-24.62h-13.36v21.76c0,14.32,6.59,20.9,16.99,20.9.67,0,.95,0,1.34-.09l2.19-2.2v6.39c0,5.54-1.43,8.4-5.63,8.4-1.05,0-1.91-.1-2.77-.29v10.88s1.91.29,3.82.29c8.21,0,18.04-4.49,18.04-21.57V24.43h-13.36v24.62Z"/>
      <polygon class="cls-1" points="234.71 6.91 224.37 4.87 224.37 29.02 230.42 29.02 234.71 6.91"/>
      <path class="cls-1" d="m252.72,58.22c0,4.68-2.2,7.25-4.58,9.16l8.49,8.59c6.2-4.87,11.64-11.07,11.64-19.66,0-4.77-1.14-8.02-3.34-11.07-1.62-2.2-2.48-4.2-2.48-6.97,0-3.53,1.15-5.53,3.72-7.73l-8.59-8.4c-6.78,5.15-10.5,10.98-10.5,17.66,0,4.87,1.62,8.59,3.15,11.07,1.15,1.91,2.48,5.06,2.48,7.35"/>
      <rect class="cls-1" x="50.23" y="147.66" width="6.77" height="5.13"/>
      <rect class="cls-1" x="59.69" y="147.66" width="6.74" height="5.13"/>
      <rect class="cls-1" x="9.15" y="100.97" width="10.09" height="4.99"/>
      <rect class="cls-1" x="139.07" y="147.66" width="6.59" height="5.13"/>
      <rect class="cls-1" x="129.57" y="147.66" width="6.63" height="5.13"/>
      <polygon class="cls-1" points="154.44 140.6 161.4 140.6 161.4 142.42 154.44 142.42 154.44 145.26 164.53 145.26 164.53 100.97 154.44 100.97 154.44 140.6"/>
      <path class="cls-1" d="m145.35,116h-10.08v24.18h-13.79c-3.73-.03-6.74-3.07-6.74-6.8v-19.89h-.07c-3.27,1.59-6.93,2.47-10.79,2.47h-2.23c-6.62,0-11.99,5.37-11.99,11.99v5.43c0,3.72-3.02,6.74-6.75,6.74h-9.25c-3.73,0-6.75-3.02-6.75-6.74v-17.37h-9.94v24.12h-31.71c-3.32,0-6.01-2.69-6.01-6.01v-18.08h-10.08v27.87c0,1.68-.33,2.15-1,2.57-.67.41-1.68.62-3.04.62v5.13h6.62c5,0,7.5-2.72,7.5-8.15v-1.37h.19c0,1.4,1.13,2.53,2.53,2.53l44.52.02v-2.55h.19c0,1.4,1.13,2.53,2.53,2.53h17.79c1.4,0,2.53-1.13,2.53-2.53h.19v2.55h25.01v-2.55s.18,0,.18,0c0,1.4,1.14,2.55,2.53,2.55h27.91v-29.25Zm-40.71,23.86h-5.1v-15.09c0-1.92,1.37-3.55,3.26-3.89.58-.1,1.2-.15,1.84-.15v19.13Z"/>
      <path class="cls-1" d="m220.74,106.84c-1.24-.53-1.93-.83-2.07-.91-.62-.37-.93-.83-.93-1.37,0-1.12.77-1.68,2.3-1.68.8,0,1.6.13,2.41.4l.24-2.36c-.85-.18-1.69-.27-2.53-.27-1.66,0-2.97.39-3.91,1.18-.92.76-1.38,1.77-1.38,3.04,0,1.7.98,2.95,2.95,3.75,1.19.49,1.86.79,2.03.88.61.37.92.85.92,1.43,0,1.22-.78,1.83-2.35,1.83-1.07,0-2.09-.2-3.05-.6l-.3,2.59c.94.25,2.02.38,3.24.38,1.6,0,2.91-.43,3.92-1.3.99-.84,1.49-1.92,1.49-3.23,0-1.64-1-2.89-2.99-3.74"/>
      <path class="cls-1" d="m228.35,100.28c-.32-.31-.72-.46-1.18-.46s-.85.16-1.16.47c-.32.32-.48.7-.48,1.14s.16.83.48,1.14c.32.31.71.47,1.16.47s.85-.16,1.18-.48c.32-.31.49-.68.49-1.12s-.16-.84-.49-1.15"/>
      <rect class="cls-1" x="225.85" y="104.56" width="2.65" height="10.32"/>
      <path class="cls-1" d="m237.7,114.88h2.63v-7.25c0-2.18-1.02-3.27-3.07-3.27-1.63,0-2.8.68-3.51,2.05h-.03c.1-.5.15-1.12.15-1.85h-2.51v10.32h2.65v-4.98c0-.91.23-1.68.7-2.33.46-.65,1.03-.98,1.69-.98.86,0,1.29.57,1.29,1.7v6.6Z"/>
      <path class="cls-1" d="m247.61,106.62c.64,0,1.28.13,1.93.4l.41-2.28c-.68-.24-1.43-.35-2.26-.35-1.72,0-3.04.54-3.96,1.63-.86,1.01-1.29,2.37-1.29,4.05,0,3.33,1.55,5,4.65,5,1.11,0,2.07-.16,2.9-.48l-.35-2.22c-.62.28-1.29.42-2.02.42-1.61,0-2.41-1-2.41-2.99,0-.98.2-1.75.61-2.3.42-.58,1.01-.87,1.78-.87"/>
      <path class="cls-1" d="m256.19,104.36c-1.5,0-2.7.52-3.6,1.57-.86,1-1.3,2.29-1.3,3.88,0,3.51,1.7,5.27,5.09,5.27,1.29,0,2.53-.22,3.73-.66l-.28-2.02c-.99.41-1.99.61-2.99.61-1.9,0-2.85-.93-2.85-2.79h6.37c.07-.38.1-.88.1-1.49,0-1.31-.33-2.35-1-3.11-.75-.84-1.84-1.27-3.27-1.27m-2.18,4.1c.16-1.44.83-2.16,2.04-2.16s1.82.72,1.78,2.16h-3.82Z"/>
      <path class="cls-1" d="m219.95,135.02c2.2-2.41,3.3-4.53,3.3-6.35,0-1.15-.35-2.07-1.05-2.78-.76-.76-1.82-1.14-3.18-1.14s-2.61.27-3.72.81l.39,2.41c.88-.53,1.74-.79,2.59-.79.65,0,1.15.18,1.51.56.34.35.5.81.5,1.39,0,1.3-1,3.04-3.01,5.23l-2.1,2.37v2.24h8.47v-2.55c-2.34,0-4,.03-4.97.08l1.25-1.47Z"/>
      <path class="cls-1" d="m230.77,124.77c-1.58,0-2.88.61-3.88,1.82-1.11,1.32-1.66,3.17-1.66,5.53,0,4.69,1.73,7.03,5.19,7.03,1.58,0,2.87-.6,3.88-1.81,1.11-1.32,1.66-3.17,1.66-5.54,0-4.69-1.73-7.03-5.19-7.03m-.21,12.16c-1.67,0-2.5-1.66-2.5-4.97s.85-4.96,2.56-4.96,2.51,1.67,2.51,5-.86,4.93-2.57,4.93"/>
      <path class="cls-1" d="m242.99,124.77c-1.58,0-2.88.61-3.88,1.82-1.11,1.32-1.66,3.17-1.66,5.53,0,4.69,1.73,7.03,5.19,7.03,1.58,0,2.87-.6,3.88-1.81,1.11-1.32,1.66-3.17,1.66-5.54,0-4.69-1.73-7.03-5.19-7.03m-.21,12.16c-1.67,0-2.5-1.66-2.5-4.97s.86-4.96,2.56-4.96,2.51,1.67,2.51,5-.86,4.93-2.57,4.93"/>
      <path class="cls-1" d="m255.21,124.77c-1.58,0-2.88.61-3.88,1.82-1.11,1.32-1.66,3.17-1.66,5.53,0,4.69,1.73,7.03,5.19,7.03,1.58,0,2.87-.6,3.88-1.81,1.11-1.32,1.66-3.17,1.66-5.54,0-4.69-1.73-7.03-5.19-7.03m-.21,12.16c-1.67,0-2.5-1.66-2.5-4.97s.86-4.96,2.56-4.96,2.51,1.67,2.51,5-.86,4.93-2.57,4.93"/>
    </g>
  </g>
</svg>