<?xml version="1.0" encoding="utf-8"?>
<!-- Generator: Adobe Illustrator 27.9.0, SVG Export Plug-In . SVG Version: 6.00 Build 0)  -->
<svg version="1.1" xmlns="http://www.w3.org/2000/svg" xmlns:xlink="http://www.w3.org/1999/xlink" x="0px" y="0px"
	 viewBox="0 0 105.191 99.064" enable-background="new 0 0 105.191 99.064" xml:space="preserve">
<g id="OBJECTS">
	<g>
		<path fill="#FFFFFF" d="M83.454,33.343v35.801c0,7.475-6.116,13.591-13.591,13.591H34.062c-7.475,0-13.591-6.116-13.591-13.591
			V33.343c0-7.475,6.116-13.591,13.591-13.591h35.801C77.338,19.752,83.454,25.868,83.454,33.343z"/>
		<path id="XMLID_00000091701761249957984650000012946753081126812293_" fill="#2E3D70" d="M52.157,54.037l19.092-16.343
			c-0.394-0.325-0.873-0.522-1.392-0.522h-35.4c-0.519,0-0.998,0.197-1.392,0.522L52.157,54.037z"/>
		<g id="XMLID_00000016071396973489384860000015691771530365631889_">
			<path id="XMLID_00000002356566817821879670000007366369298874097310_" fill="#2E3D70" d="M72.179,62.896
				c0.046-0.212,0.077-0.429,0.077-0.657V40.267l-11.433,9.787L72.179,62.896z"/>
			<path id="XMLID_00000127762651775440877600000009619075941110618523_" fill="#2E3D70" d="M58.859,51.735l-6.702,5.737
				l-6.703-5.737L33.837,64.886c0.199,0.062,0.404,0.105,0.619,0.105h35.4c0.215,0,0.421-0.044,0.619-0.105L58.859,51.735z"/>
			<path id="XMLID_00000168113353897246663320000012623329384287637166_" fill="#2E3D70" d="M43.49,50.053l-11.433-9.787v21.972
				c0,0.227,0.031,0.445,0.077,0.657L43.49,50.053z"/>
		</g>
	</g>
</g>
<g id="Layer_2">
</g>
<g id="Layer_3">
</g>
</svg>
