<?xml version="1.0" encoding="utf-8"?>
<!-- Generator: Adobe Illustrator 27.9.0, SVG Export Plug-In . SVG Version: 6.00 Build 0)  -->
<svg version="1.1" xmlns="http://www.w3.org/2000/svg" xmlns:xlink="http://www.w3.org/1999/xlink" x="0px" y="0px"
	 viewBox="0 0 105.191 99.064" enable-background="new 0 0 105.191 99.064" xml:space="preserve">
<g id="OBJECTS">
	<g>
		<path fill="#FFFFFF" d="M81.941,33.343v35.801c0,7.475-6.116,13.591-13.591,13.591H32.549c-7.475,0-13.591-6.116-13.591-13.591
			V33.343c0-7.475,6.116-13.591,13.591-13.591H68.35C75.825,19.752,81.941,25.868,81.941,33.343z"/>
		
			<path id="XMLID_00000066484333144250654240000012303507295692621734_" fill-rule="evenodd" clip-rule="evenodd" fill="#2E3D70" d="
			M70.392,61.181v-0.009c-0.01-0.011-0.019-0.011-0.038-0.029c0,0,0,0-0.009,0l0,0c-0.498-0.315-1.004-0.363-1.321-0.479
			c-0.009,0-0.019,0-0.019-0.009c-2.162-0.68-4.027-2.153-5.423-3.95c-0.775-1.005-1.425-2.086-1.856-3.243c0-0.01,0-0.01,0-0.019
			c-0.172-0.498-0.182-1.053,0.067-1.388c0,0,0.009,0,0.009-0.009c0.392-0.555,1.11-0.909,1.865-1.186c0.01,0,0.01,0,0.01,0
			c0.852-0.297,1.769-0.631,2.525-1.301c0.009,0,0.009-0.01,0.019-0.01c0.115-0.105,0.258-0.248,0.363-0.469
			c0.019-0.048,0.048-0.105,0.057-0.172c0.058-0.201,0.058-0.449-0.047-0.66c0-0.01,0-0.01,0-0.01
			c-0.22-0.44-0.593-0.679-0.88-0.842h-0.01c-0.468-0.277-1.023-0.297-1.511-0.134l0,0h-0.01c-0.516,0.153-0.947,0.344-1.339,0.392
			c-0.01,0-0.019,0-0.029,0.01c-0.555,0.095-1.1,0.115-1.521-0.038c-0.009-0.058-0.009-0.182-0.028-0.335h0.009
			c-0.038-0.918,0.048-1.865,0.057-2.85c0,0,0,0,0-0.01c0.048-1.492,0.105-3.023-0.115-4.572c0-0.01,0-0.019,0-0.019
			c-0.488-2.611-2.162-4.859-4.285-6.351c-1.54-1.09-3.376-1.693-5.242-1.865l0,0c-0.641-0.057-1.263-0.077-1.884-0.077
			c-2.516,0.019-5.127,0.679-7.164,2.277c-1.531,1.196-2.736,2.784-3.492,4.553v0.01c-0.727,1.817-0.66,3.759-0.564,5.557l0,0
			c0.057,1.263,0.201,2.487,0.086,3.654c-0.01,0.038-0.01,0.058-0.019,0.077c-0.565,0.105-1.186,0.067-1.798-0.048h-0.01
			c-0.421-0.067-0.87-0.239-1.377-0.383c-0.01,0-0.019,0-0.029-0.01c-0.488-0.105-0.976,0.029-1.339,0.306
			c-0.01,0-0.019,0-0.019,0.01c-0.01,0.009-0.019,0.009-0.019,0.019c-0.307,0.191-0.718,0.526-0.737,1.1
			c-0.009,0.038,0,0.067,0,0.105c0.01,0,0,0.009,0.01,0.009c0.057,0.335,0.267,0.584,0.459,0.746
			c0.191,0.163,0.363,0.268,0.469,0.354c0.009,0,0.019,0.009,0.029,0.019c0.918,0.612,1.932,0.88,2.822,1.224l0,0
			c0.612,0.268,1.138,0.679,1.263,1.205c0.153,0.66-0.134,1.425-0.498,2.162v0.01c-0.994,1.951-2.468,3.654-4.285,4.906
			c-0.956,0.651-2.028,1.138-3.147,1.435c-0.01,0-0.029,0.01-0.048,0.019c-0.23,0.087-0.774,0.134-1.119,0.651
			c-0.019,0.038-0.038,0.076-0.058,0.124c-0.115,0.325,0.019,0.679,0.182,0.88c0.153,0.182,0.325,0.297,0.478,0.373
			c0.01,0,0.019,0.01,0.029,0.01c0.937,0.545,1.971,0.774,2.908,1.013c0.01,0,0.01,0.009,0.01,0.009
			c0.679,0.144,1.31,0.23,1.818,0.45c0.019,0.038,0.077,0.211,0.191,0.497c0.172,0.517,0.249,1.119,0.44,1.76
			c0.058,0.172,0.211,0.316,0.392,0.354c0.43,0.095,0.66-0.048,0.698-0.058c0.019,0,0.038,0,0.057,0
			c1.569-0.277,3.147-0.516,4.591-0.163l0,0c1.511,0.401,2.831,1.444,4.314,2.334v0.011l0,0c0.985,0.612,2.123,1.214,3.444,1.262
			l0,0c0,0,0,0,0.01,0c0.995,0.058,1.961-0.009,2.917-0.066c0.01,0,0.01,0,0.019,0c0.813-0.077,1.597-0.354,2.295-0.785
			c0.01-0.01,0.02-0.019,0.029-0.019c1.559-0.89,2.937-1.951,4.458-2.621h0.009c0.488-0.172,1.11-0.163,1.789-0.21
			c0.009,0,0.019,0,0.019,0c1.263-0.038,2.516,0.028,3.769,0.191c0.038,0.01,0.086,0.01,0.124,0c0.172-0.019,0.344-0.134,0.43-0.239
			c0.096-0.105,0.115-0.201,0.134-0.268c0.038-0.125,0.067-0.182,0.01-0.077c0.019-0.038,0.038-0.067,0.048-0.105
			c0.23-0.755,0.354-1.435,0.727-1.855c0.163-0.163,0.45-0.24,0.775-0.24c0.019,0,0.048,0,0.067,0
			c1.09-0.124,2.066-0.516,2.994-0.842c0.01-0.009,0.029-0.009,0.038-0.009c0.345-0.153,0.861-0.325,1.215-0.813c0,0,0,0,0-0.009
			l0,0C70.947,61.994,70.803,61.43,70.392,61.181L70.392,61.181z"/>
	</g>
</g>
<g id="Layer_2">
</g>
<g id="Layer_3">
</g>
</svg>
