<?xml version="1.0" encoding="utf-8"?>
<!-- Generator: Adobe Illustrator 27.9.0, SVG Export Plug-In . SVG Version: 6.00 Build 0)  -->
<svg version="1.1" xmlns="http://www.w3.org/2000/svg" xmlns:xlink="http://www.w3.org/1999/xlink" x="0px" y="0px"
	 viewBox="0 0 105.191 99.064" enable-background="new 0 0 105.191 99.064" xml:space="preserve">
<g id="OBJECTS">
	<g>
		<g>
			<path fill="#FFFFFF" d="M84.058,30.28v35.801c0,7.475-6.116,13.591-13.591,13.591H34.665c-7.475,0-13.591-6.116-13.591-13.591
				V30.28c0-7.475,6.116-13.591,13.591-13.591h35.801C77.942,16.688,84.058,22.804,84.058,30.28z"/>
		</g>
		<g>
			<g>
				<path fill="#EDEDED" d="M32.413,62.72l0.149,0.429C32.543,63.102,32.487,62.953,32.413,62.72z M38.464,52.939
					c0.27-2.322,1.184-3.618,2.9-4.951c2.462-1.8,5.529-0.783,5.529-0.783v-6.051c0.746-0.019,1.492,0.028,2.228,0.14v7.786
					c0,0-3.068-1.016-5.529,0.783c-1.716,1.333-2.629,2.629-2.9,4.951c-0.009,1.259,0.214,2.909,1.259,4.326
					c-0.261-0.14-0.522-0.298-0.793-0.476C38.874,57.06,38.455,54.645,38.464,52.939z M61.812,29.964
					c-1.688-1.93-2.331-3.888-2.564-5.259h2.126c0,0-0.42,3.599,2.667,7.133l0.047,0.047C63.248,31.344,62.483,30.692,61.812,29.964
					L61.812,29.964z M72.059,35.447v7.627c0,0-2.713-0.112-4.727-0.643c-2.807-0.746-4.606-1.893-4.606-1.893
					s-1.249-0.821-1.343-0.876v15.758c0,0.876-0.233,3.068-0.932,4.895c-0.914,2.387-2.331,3.963-2.592,4.28
					c0,0-1.725,2.126-4.755,3.552c-2.732,1.287-5.138,1.259-5.856,1.287c0,0-4.149,0.168-7.888-2.359
					c-0.811-0.559-1.566-1.193-2.256-1.893l0.019,0.019c3.739,2.536,7.888,2.359,7.888,2.359c0.718-0.028,3.124,0,5.856-1.287
					c3.03-1.427,4.755-3.553,4.755-3.553c0.261-0.317,1.678-1.893,2.592-4.28c0.699-1.828,0.932-4.019,0.932-4.895V37.797
					c0.103,0.056,1.343,0.876,1.343,0.876s1.8,1.147,4.606,1.893c2.014,0.531,4.727,0.643,4.727,0.643v-5.977
					C70.754,35.447,71.546,35.503,72.059,35.447z"/>
				<path fill="#2E3D70" d="M69.821,35.223V41.2c0,0-2.713-0.112-4.727-0.643c-2.807-0.746-4.606-1.893-4.606-1.893
					s-1.249-0.821-1.343-0.876v15.758c0,0.876-0.233,3.068-0.932,4.895c-0.914,2.387-2.331,3.963-2.592,4.28
					c0,0-1.725,2.126-4.755,3.553c-2.732,1.287-5.138,1.259-5.856,1.287c0,0-4.149,0.168-7.888-2.359l-0.019-0.019
					c-0.392-0.401-0.765-0.821-1.11-1.259c-1.193-1.52-1.921-3.31-2.107-3.823v-0.009c-0.298-0.886-0.914-3.03-0.83-5.091
					c0.149-3.646,1.38-5.893,1.706-6.452c0.858-1.529,1.986-2.9,3.31-4.047c1.175-0.988,2.508-1.781,3.935-2.331
					c1.548-0.653,3.208-0.998,4.886-1.026v6.051c0,0-3.068-1.016-5.529,0.783c-1.716,1.333-2.629,2.629-2.9,4.951
					c-0.009,1.706,0.41,4.121,2.704,5.734c0.27,0.177,0.531,0.336,0.793,0.476c0.401,0.541,0.886,1.016,1.445,1.408
					c2.247,1.483,4.121,1.585,6.527,0.625c1.604-0.643,2.807-2.089,3.366-3.702c0.354-1.007,0.345-2.014,0.345-3.058V24.705h5.594
					c0.233,1.371,0.867,3.329,2.564,5.259c0.681,0.727,1.445,1.38,2.275,1.921c0.242,0.27,1.501,1.576,3.124,2.387
					C68.031,34.692,68.917,35.009,69.821,35.223L69.821,35.223z"/>
			</g>
		</g>
	</g>
</g>
<g id="Layer_2">
</g>
<g id="Layer_3">
</g>
</svg>
