<?xml version="1.0" encoding="utf-8"?>
<!-- Generator: Adobe Illustrator 27.9.0, SVG Export Plug-In . SVG Version: 6.00 Build 0)  -->
<svg version="1.1" xmlns="http://www.w3.org/2000/svg" xmlns:xlink="http://www.w3.org/1999/xlink" x="0px" y="0px"
	 viewBox="0 0 105.191 99.064" enable-background="new 0 0 105.191 99.064" xml:space="preserve">
<g id="OBJECTS">
	<g>
		<path fill="#FFFFFF" d="M80.872,32.328v35.789c0,7.473-6.114,13.587-13.587,13.587H31.497c-7.473,0-13.587-6.114-13.587-13.587
			V32.328c0-7.473,6.114-13.587,13.587-13.587h35.789C74.758,18.742,80.872,24.856,80.872,32.328z"/>
		<g id="layer1_00000073689765169975734180000006701494818748351149_" transform="translate(52.390088,-25.058597)">
			<path id="path1009_00000092421944118508113570000004973474627943769247_" fill="#2E3D70" d="M-19.913,59.53l13.125,17.549
				l-13.207,14.268h2.973L-5.46,78.854l9.342,12.492h10.115L0.134,72.81L12.428,59.53H9.455L-1.194,71.034L-9.798,59.53H-19.913z
				 M-15.542,61.719h4.647L9.626,89.156H4.979L-15.542,61.719z"/>
		</g>
	</g>
</g>
<g id="Layer_2">
</g>
<g id="Layer_3">
</g>
</svg>
