<?xml version="1.0" encoding="utf-8"?>
<!-- Generator: Adobe Illustrator 27.9.0, SVG Export Plug-In . SVG Version: 6.00 Build 0)  -->
<svg version="1.1" xmlns="http://www.w3.org/2000/svg" xmlns:xlink="http://www.w3.org/1999/xlink" x="0px" y="0px"
	 viewBox="0 0 105.191 99.064" enable-background="new 0 0 105.191 99.064" xml:space="preserve">
<g id="OBJECTS">
	<g>
		<path fill="#FFFFFF" d="M82.507,32.322v35.801c0,7.475-6.116,13.591-13.591,13.591H33.115c-7.475,0-13.591-6.116-13.591-13.591
			V32.322c0-7.475,6.116-13.591,13.591-13.591h35.801C76.391,18.731,82.507,24.847,82.507,32.322z"/>
		<path fill="#2E3D70" d="M66.379,34.546H36.528c-5.707,0-8.025,4.625-8.025,10.334v10.93c0,5.709,2.561,10.336,8.27,10.336h29.365
			c5.705,0,7.658-4.627,7.658-10.336V44.88C73.796,39.171,72.087,34.546,66.379,34.546z M46.989,56.543V44.148l11.875,6.198
			L46.989,56.543z"/>
	</g>
</g>
<g id="Layer_2">
</g>
<g id="Layer_3">
</g>
</svg>
