<svg id="_x33_0" enable-background="new 0 0 62 62" height="512" viewBox="0 0 62 62" width="512" xmlns="http://www.w3.org/2000/svg"><g><g><path d="m5 31v14c0 1.105.895 2 2 2 1.105 0 2-.895 2-2v-6c0-1.105.895-2 2-2 1.105 0 2 .895 2 2v6c0 1.105.895 2 2 2 1.105 0 2-.895 2-2v-8c0-1.105.895-2 2-2 1.105 0 2 .895 2 2v4c0 1.105.895 2 2 2 1.105 0 2-.895 2-2v-4c0-1.105.895-2 2-2 1.105 0 2 .895 2 2v8c0 1.105.895 2 2 2 1.105 0 2-.895 2-2v-14z" fill="#f0bc5e"/></g><path d="m56 44c-.724 0-1.437.073-2.135.201-.681-4.682-3.967-8.201-7.865-8.201s-7.184 3.52-7.865 8.201c-.694-.125-1.405-.201-2.135-.201-.344 0-.677.039-1.004.095l.947-16.095h.057c1.103 0 2-.897 2-2v-4c0-1.103-.897-2-2-2h-.051c-.499-6.503-5.795-11.669-12.351-11.97l.711-2.03h13.691c1.103 0 2-.897 2-2v-2c0-1.103-.897-2-2-2h-15.581c-1.273 0-2.411.807-2.832 2.009l-2.096 5.991h-2.491c-6.831 0-12.435 5.299-12.949 12h-.051c-1.103 0-2 .897-2 2v4c0 1.103.897 2 2 2h.057l1.723 29.294c.156 2.639 2.348 4.706 4.991 4.706h20.457c2.109 0 3.912-1.326 4.642-3.199 2.141 1.979 4.992 3.199 8.13 3.199 1.536 0 2.935-.585 3.998-1.539 1.09.984 2.495 1.539 4.002 1.539 6.617 0 12-5.383 12-12 0-3.309-2.691-6-6-6zm2.019 2.567-2.334 2.333c-.384.384-.657.866-.79 1.395l-.575 2.299c-.09.358-.368.638-.727.728l-2.298.573c-.526.132-1.008.404-1.394.79l-1.933 1.933c.021-.203.032-.409.032-.618 0-1.603-.321-3.13-.894-4.529 1.7-3.329 5.136-5.471 8.894-5.471.74 0 1.424.215 2.019.567zm-6.096-1.845c-2.403.872-4.493 2.497-5.926 4.654-.301-.453-.638-.88-.997-1.287v-2.484c0-.198.058-.39.168-.555l1.328-1.991c.33-.494.504-1.069.504-1.664v-3.275c2.507.566 4.513 3.218 4.923 6.602zm-6.923-6.603v3.275c0 .198-.058.39-.168.555l-1.328 1.991c-.33.495-.504 1.07-.504 1.665v.668c-.891-.643-1.873-1.164-2.923-1.545.408-3.387 2.414-6.041 4.923-6.609zm1 17.881c0 .74-.215 1.424-.567 2.019l-3.335-3.336c-.386-.385-.867-.657-1.394-.788l-2.298-.575c-.359-.089-.637-.368-.727-.727l-.575-2.299c-.132-.528-.405-1.011-.789-1.394l-2.335-2.335c.596-.35 1.28-.565 2.02-.565 5.514 0 10 4.486 10 10zm-41.704-24h29.409l-.788 13.396.043.003c-.115.568-.475 1.042-.961 1.325-.135.079-.282.139-.434.186-.023.007-.044.015-.067.021-.159.042-.325.069-.498.069-.738 0-1.376-.405-1.723-1h-12.554c-.346.595-.984 1-1.723 1s-1.376-.405-1.723-1h-4.554c-.347.595-.985 1-1.723 1s-1.376-.405-1.723-1h-.158zm18.704-22c5.728 0 10.442 4.402 10.949 10h-14.54l3.5-10zm-7.591 10 3.5-10h1.881l-3.5 10zm22.591-16h-12.991l.7-2h12.291zm-16.525-1.331c.14-.4.52-.669.944-.669h1.172l-.7 2h-1.881zm-1.165 3.331h1.881l-.7 2h-1.881zm-5.31 4h1.791l-3.5 10h-9.24c.507-5.598 5.221-10 10.949-10zm-13 12h34l.001 4h-34.001zm31.94 6-.118 2h-29.644l-.118-2zm-4.711 32h-20.458c-1.586 0-2.902-1.24-2.995-2.823l-.539-9.177h25.124c-.226.627-.361 1.296-.361 2 0 2.592.834 4.987 2.237 6.951l-.013.226c-.094 1.583-1.41 2.823-2.995 2.823zm2.771-10c0-.74.215-1.424.567-2.019l2.335 2.336c.127.127.218.287.262.463l.575 2.299c.27 1.078 1.106 1.914 2.183 2.183l2.298.575c.175.043.336.135.464.263l3.334 3.335c-.594.35-1.279.565-2.018.565-5.514 0-10-4.486-10-10zm18 10c-.729 0-1.413-.212-2.018-.568l3.333-3.333c.129-.129.29-.221.465-.265l2.298-.573c1.077-.27 1.914-1.105 2.183-2.184l.575-2.299c.044-.176.135-.336.263-.464l2.335-2.335c.351.597.566 1.281.566 2.021 0 5.514-4.486 10-10 10z"/></g></svg>