<?xml version="1.0" encoding="iso-8859-1"?>
<!-- Generator: Adobe Illustrator 19.0.0, SVG Export Plug-In . SVG Version: 6.00 Build 0)  -->
<svg version="1.1" id="Layer_1" xmlns="http://www.w3.org/2000/svg" xmlns:xlink="http://www.w3.org/1999/xlink" x="0px" y="0px"
	 viewBox="0 0 496 496" style="enable-background:new 0 0 496 496;" xml:space="preserve">
<path style="fill:#F9BA48;" d="M120,232c-8,0-8.24,5.928-8,8l16,120c0.488,4.168,3.792,8,8,8h224c4.2,0,7.496-3.832,8-8l16-120
	c0.28-2.352,0-8-8-8H120z"/>
<g>
	
		<rect x="283.765" y="431.975" transform="matrix(-0.124 0.9923 -0.9923 -0.124 791.7686 180.964)" style="fill:#343433;" width="64.481" height="16"/>
	<path style="fill:#343433;" d="M400,64h-17.448l-6.56-32.832C375.64,12.2,363.168,0,344,0H152
		c-19.76,0-31.664,11.632-31.992,31.168L113.448,64H96c-15.248,0-24,8.752-24,24v32c0,15.248,8.752,24,24,24h3.64l11.472,82.248
		c-1.48,0.864-2.696,1.824-3.52,2.752c-3.936,4.424-3.792,9.816-3.52,12.056l15.984,119.88c0.688,5.832,4.104,10.632,8.728,13.144
		l15.232,106.576C144.32,488.216,149.904,496,160,496h176c10.096,0,15.68-7.784,15.984-15.336l15.232-106.576
		c4.616-2.512,8.024-7.28,8.712-13.032l16.016-120.104c0.536-4.512-0.72-8.872-3.464-11.96c-0.8-0.904-1.992-1.848-3.424-2.688
		L398.776,144H400c15.248,0,24-8.752,24-24V88C424,72.752,415.248,64,400,64z M336.08,478.864L336,480H160l-14.784-104h205.552
		L336.08,478.864z M360.056,359.048c-0.056,0.504-0.368,0.944-0.064,0.952l-223.52,0.112c-0.16-0.104-0.464-0.544-0.536-1.168
		L120.096,240h255.832L360.056,359.048z M369.224,224H126.952l-11.16-80H382.56L369.224,224z M408,120c0,6.504-1.496,8-8,8H96
		c-6.504,0-8-1.496-8-8V88c0-6.504,1.496-8,8-8h30.552l9.288-46.432L136,32c0-11.064,4.936-16,16-16h192c10.616,0,16,5.384,16,16
		l9.448,48H400c6.504,0,8,1.496,8,8V120z"/>
	<rect x="208" y="64" style="fill:#343433;" width="136" height="16"/>
	<rect x="176" y="64" style="fill:#343433;" width="16" height="16"/>
	<rect x="144" y="64" style="fill:#343433;" width="16" height="16"/>
	<path style="fill:#343433;" d="M248,352c26.472,0,48-21.528,48-48s-21.528-48-48-48s-48,21.528-48,48S221.528,352,248,352z
		 M248,272c17.648,0,32,14.352,32,32s-14.352,32-32,32s-32-14.352-32-32S230.352,272,248,272z"/>
</g>
<g>
</g>
<g>
</g>
<g>
</g>
<g>
</g>
<g>
</g>
<g>
</g>
<g>
</g>
<g>
</g>
<g>
</g>
<g>
</g>
<g>
</g>
<g>
</g>
<g>
</g>
<g>
</g>
<g>
</g>
</svg>
