<svg height="496pt" viewBox="-24 0 496 496" width="496pt" xmlns="http://www.w3.org/2000/svg"><path d="m448 312c0-13.128906-6.449219-24.703125-16.246094-32 9.796875-7.296875 16.246094-18.871094 16.246094-32 0-22.054688-17.945312-40-40-40v16c13.230469 0 24 10.769531 24 24s-10.769531 24-24 24h-232v7.742188c-1.199219-.964844-2.441406-1.878907-3.753906-2.703126l-8.484375 13.5625c7.308593 4.574219 12.992187 15.0625 18.484375 25.199219 3.714844 6.855469 7.675781 14.015625 12.472656 20.191407h-80.199219c4.800781-6.175782 8.761719-13.335938 12.464844-20.191407 4.679687-8.640625 9.105469-16.808593 14.574219-22.097656l-11.125-11.503906c-.875.839843-1.625 1.824219-2.441406 2.738281v-12.9375h-24v16h21.296874c-4.730468 6.089844-8.601562 13.222656-12.378906 20.191406-9.359375 17.304688-15.894531 27.808594-27.613281 27.808594-11.710937 0-18.25-10.503906-27.617187-27.808594-3.792969-7.007812-7.6875-14.113281-12.414063-20.191406h26.734375v-16h-32c-13.230469 0-24-10.769531-24-24s10.769531-24 24-24v-16c-22.054688 0-40 17.945312-40 40 0 13.128906 6.449219 24.703125 16.246094 32-9.796875 7.296875-16.246094 18.871094-16.246094 32s6.449219 24.703125 16.246094 32c-9.796875 7.296875-16.246094 18.871094-16.246094 32 0 13.832031 7 26.214844 18.257812 33.480469-.671874 2.113281-1.160156 4.296875-1.539062 6.519531h-16.71875v8c0 39.695312 32.304688 72 72 72h304c39.695312 0 72-32.304688 72-72v-8h-16.71875c-.378906-2.222656-.867188-4.40625-1.539062-6.519531 11.257812-7.265625 18.257812-19.648438 18.257812-33.480469 0-13.128906-6.449219-24.703125-16.246094-32 9.796875-7.296875 16.246094-18.871094 16.246094-32zm-45.28125-24c-4.734375 6.078125-8.628906 13.175781-12.429688 20.183594-9.386718 17.3125-15.921874 27.816406-27.648437 27.816406-11.730469 0-18.273437-10.503906-27.648437-27.816406-3.710938-6.847656-7.671876-14.015625-12.480469-20.183594zm-109.445312 0c11.726562 0 18.269531 10.503906 27.648437 27.816406 3.710937 6.847656 7.671875 14.015625 12.476563 20.183594h-80.222657c4.800781-6.175781 8.761719-13.335938 12.472657-20.183594 9.367187-17.3125 15.902343-27.816406 27.625-27.816406zm-109.378907 0h80.144531c-4.800781 6.175781-8.757812 13.335938-12.472656 20.191406-9.367187 17.304688-15.902344 27.808594-27.613281 27.808594-11.722656 0-18.265625-10.503906-27.640625-27.816406-3.792969-6.992188-7.679688-14.105469-12.417969-20.183594zm-167.894531 24c0-8.414062 4.375-15.808594 10.945312-20.089844 6.398438 4.984375 11.40625 14.203125 16.664063 23.898438 3.710937 6.855468 7.671875 14.015625 12.46875 20.191406h-16.078125c-13.230469 0-24-10.769531-24-24zm415.433594 120c-3.898438 27.105469-27.265625 48-55.433594 48h-304c-28.167969 0-51.535156-20.894531-55.433594-48zm-398.296875-16c3.574219-13.761719 16-24 30.863281-24s27.289062 10.238281 30.863281 24zm80 0c3.574219-13.761719 16-24 30.863281-24s27.289062 10.238281 30.863281 24zm80 0c3.574219-13.761719 16-24 30.863281-24s27.289062 10.238281 30.863281 24zm80 0c3.574219-13.761719 16-24 30.863281-24s27.289062 10.238281 30.863281 24zm80 0c3.574219-13.761719 16-24 30.863281-24s27.289062 10.238281 30.863281 24zm78.863281-40c0 7.769531-3.671875 14.777344-9.671875 19.222656-8.769531-11.648437-22.664063-19.222656-38.328125-19.222656-16.671875 0-31.390625 8.542969-40 21.496094-8.609375-12.953125-23.328125-21.496094-40-21.496094s-31.390625 8.542969-40 21.496094c-8.609375-12.953125-23.328125-21.496094-40-21.496094s-31.390625 8.542969-40 21.496094c-8.609375-12.953125-23.328125-21.496094-40-21.496094s-31.390625 8.542969-40 21.496094c-8.609375-12.953125-23.328125-21.496094-40-21.496094-15.664062 0-29.558594 7.574219-38.328125 19.222656-6-4.445312-9.671875-11.453125-9.671875-19.222656 0-13.230469 10.769531-24 24-24h368c13.230469 0 24 10.769531 24 24zm-24-40h-16.128906c4.800781-6.175781 8.761718-13.335938 12.480468-20.183594 5.257813-9.703125 10.273438-18.929687 16.679688-23.914062 6.585938 4.28125 10.96875 11.671875 10.96875 20.097656 0 13.230469-10.769531 24-24 24zm0 0"/><path d="m422.519531 146.71875h-.160156c-4.703125 16.847656-20.007813 29.28125-38.359375 29.28125l-16 32-64-32c-18.289062 0-33.542969-12.351562-38.3125-29.113281h-3.382812c-4.761719 16.769531-20.015626 29.113281-38.304688 29.113281-18.257812 0-33.488281-12.3125-38.28125-29.023438h-3.429688c-4.800781 16.71875-20.03125 29.023438-38.289062 29.023438-18.222656 0-33.433594-12.265625-38.257812-28.9375h-3.484376c-4.824218 16.671875-20.035156 28.9375-38.257812 28.9375-18.191406 0-33.375-12.222656-38.230469-28.855469h-1.34375c-14.839843 6.289063-24.425781 20.742188-24.425781 36.855469 0 22.054688 17.945312 40 40 40h16c4.414062 0 8 3.585938 8 8v48c0 13.230469 10.769531 24 24 24s24-10.769531 24-24v-32c0-4.414062 3.585938-8 8-8s8 3.585938 8 8v48c0 13.230469 10.769531 24 24 24s24-10.769531 24-24v-64c0-4.414062 3.585938-8 8-8h224c22.054688 0 40-17.945312 40-40 0-16.609375-10-31.238281-25.480469-37.28125zm0 0" fill="#f0bc5e"/><path d="m448 136c0-74.992188-61.007812-136-136-136h-176c-74.992188 0-136 61.007812-136 136v8h16.71875c3.824219 22.664062 23.539062 40 47.28125 40 16.671875 0 31.390625-8.542969 40-21.496094 8.609375 12.953125 23.328125 21.496094 40 21.496094s31.390625-8.542969 40-21.496094c8.609375 12.953125 23.328125 21.496094 40 21.496094s31.390625-8.542969 40-21.496094c8.222656 12.375 22.0625 20.640625 37.832031 21.351563l69.742188 34.871093 17.503906-35.007812c21.433594-2.261719 38.648437-18.695312 42.195313-39.726562h16.726562zm-312-120h176c63.480469 0 115.601562 49.550781 119.734375 112h-415.46875c4.132813-62.449219 56.253906-112 119.734375-112zm-72 152c-14.863281 0-27.289062-10.238281-30.863281-24h61.726562c-3.574219 13.761719-16 24-30.863281 24zm80 0c-14.863281 0-27.289062-10.238281-30.863281-24h61.726562c-3.574219 13.761719-16 24-30.863281 24zm80 0c-14.863281 0-27.289062-10.238281-30.863281-24h61.726562c-3.574219 13.761719-16 24-30.863281 24zm49.136719-24h61.726562c-3.574219 13.761719-16 24-30.863281 24s-27.289062-10.238281-30.863281-24zm91.289062 53.265625-37.875-18.9375c7.042969-3.769531 13.050781-9.207031 17.449219-15.824219 6.441406 9.6875 16.296875 16.902344 27.839844 19.929688zm19.574219-29.265625c-14.863281 0-27.289062-10.238281-30.863281-24h61.726562c-3.574219 13.761719-16 24-30.863281 24zm0 0"/><path d="m216 96h16v16h-16zm0 0"/><path d="m152 64h16v16h-16zm0 0"/><path d="m240 32h16v16h-16zm0 0"/><path d="m312 80h16v16h-16zm0 0"/><path d="m32 96h16v16h-16zm0 0"/><path d="m64 56h16v16h-16zm0 0"/><path d="m104 80h16v16h-16zm0 0"/><path d="m120 32h16v16h-16zm0 0"/><path d="m200 48h16v16h-16zm0 0"/><path d="m272 96h16v16h-16zm0 0"/><path d="m320 32h16v16h-16zm0 0"/><path d="m400 96h16v16h-16zm0 0"/><path d="m376 64h16v16h-16zm0 0"/><path d="m280 56h16v16h-16zm0 0"/></svg>