<svg id="_x33_0" enable-background="new 0 0 62 62.165" height="512" viewBox="0 0 62 62.165" width="512" xmlns="http://www.w3.org/2000/svg"><g><g><path d="m37 55.165c0-3.277 3.504-5.936 7.855-5.995l.003-.005c.093-.653.142-1.321.142-2v-23h-34v23c0 7.732 6.268 14 14 14h6c2.843 0 5.489-.848 7.698-2.304l.003-.005c-1.062-1.019-1.701-2.298-1.701-3.691z" fill="#f0bc5e"/></g><g><path d="m57.45 48.211c.35-.973.55-2 .55-3.045 0-2.757-2.243-5-5-5-2.826 0-5.349 1.312-7 3.356v-25.357c0-1.103-.897-2-2-2h-11.535l3.764-14.774-6.956-1.391-4.273 16.165h-9.504l8.305-8.057-.856-.712c-2.504-2.083-5.681-3.231-8.945-3.231-7.72 0-14 6.28-14 14 0 3.156 1.025 6.135 2.965 8.616l.685.877 6.35-6.161v25.668c0 8.271 6.729 15 15 15h6c2.694 0 5.306-.722 7.607-2.08 1.632 1.283 3.894 2.08 6.393 2.08 1.796 0 3.468-.416 4.874-1.124.883.711 1.978 1.124 3.126 1.124 4.962 0 9-4.038 9-9 0-2.603-2.007-4.723-4.55-4.954zm-12.45 1.954c3.38 0 6.208 1.721 6.859 4h-13.718c.651-2.279 3.479-4 6.859-4zm10.699-6.285c.188.391.301.823.301 1.285 0 1.111-.277 2.195-.777 3.175-1.431.285-2.766.915-3.906 1.847-.361-.277-.753-.528-1.169-.755zm-1.724 10.896c-.082-1.149-.518-2.224-1.231-3.161 1.217-.937 2.696-1.451 4.256-1.451.462 0 .894.113 1.285.301zm-.975-12.611c.462 0 .894.113 1.285.301l-6.147 6.147c-.657-.191-1.348-.327-2.067-.393.465-3.414 3.391-6.055 6.929-6.055zm-22.273-39.835 3.044.609-3.37 13.226h-3.331zm-3.141 24.835c.263.263.414.628.414 1s-.151.737-.414 1l-4.586 4.586c-.526.526-1.474.526-2 0l-4.586-4.586c-.263-.263-.414-.628-.414-1s.151-.737.414-1l4.586-4.586c.263-.263.628-.414 1-.414s.737.151 1 .414zm2.414-4c0-.551.449-1 1-1h6c.551 0 1 .449 1 1v12c0 .551-.449 1-1 1h-6c-.551 0-1-.449-1-1zm-.769-2.41c-.742.546-1.231 1.419-1.231 2.41v1.586l-2.531-2.531 1.072-4.055h3.35zm-14.357-10.52c1.034.112 2.026.407 2.935.901l-3.468 3.364zm-2.613 4.777-3.159-3.159c1.069-.832 2.352-1.395 3.753-1.597zm-4.573-1.745 3.159 3.159-4.756.595c.203-1.401.766-2.684 1.597-3.754zm-5.688 4.898c0-6.617 5.383-12 12-12 2.422 0 4.789.737 6.774 2.094l-1.471 1.427c-1.587-.996-3.403-1.521-5.303-1.521-5.514 0-10 4.486-10 10 0 1.79.472 3.516 1.366 5.042l-1.474 1.43c-1.241-1.928-1.892-4.144-1.892-6.472zm4.855 3.596c-.429-.85-.685-1.77-.789-2.722l3.934-.491v.163zm18.145 38.404c-7.168 0-13-5.832-13-13v-29h12.472l-.669 2.532c-1.306-.788-3.112-.637-4.217.468l-4.586 4.586c-.645.645-1 1.502-1 2.414s.355 1.77 1 2.414l4.586 4.586c.645.645 1.502 1 2.414 1s1.77-.355 2.414-1l3.586-3.586v3.586c0 1.654 1.346 3 3 3h6c1.654 0 3-1.346 3-3v-12c0-1.654-1.346-3-3-3h-5.554l.51-2h12.044v29c0 .35-.018.701-.046 1.051-4.471.405-7.954 3.365-7.954 6.949 0 1.25.429 2.422 1.17 3.439-1.888 1.021-3.998 1.561-6.17 1.561zm13.141-4h13.718c-.178.625-.524 1.206-.996 1.723l-.291.291c-1.279 1.204-3.298 1.986-5.572 1.986-3.38 0-6.208-1.721-6.859-4zm14.859 4c-.451 0-.888-.108-1.287-.299l7.987-7.987c.187.392.3.824.3 1.286 0 3.86-3.14 7-7 7z"/><path d="m25 40.165h-6c-1.654 0-3 1.346-3 3v6c0 1.654 1.346 3 3 3h6c1.654 0 3-1.346 3-3v-6c0-1.654-1.346-3-3-3zm1 9c0 .551-.449 1-1 1h-6c-.551 0-1-.449-1-1v-6c0-.551.449-1 1-1h6c.551 0 1 .449 1 1z"/><path d="m33 40.165c-1.654 0-3 1.346-3 3s1.346 3 3 3 3-1.346 3-3-1.346-3-3-3zm0 4c-.551 0-1-.449-1-1s.449-1 1-1 1 .449 1 1-.449 1-1 1z"/></g></g></svg>