<svg id="_x30_1" enable-background="new 0 0 432 496" height="512" viewBox="0 0 432 496" width="512" xmlns="http://www.w3.org/2000/svg"><g><g><g><path d="m88 151.206h-3.453l-2.368 2.508c-32.359 34.278-50.179 79.127-50.179 126.286 0 47.16 17.821 92.01 50.18 126.287l2.368 2.508h3.452z" fill="#f0bc5e"/></g><g><path d="m349.819 153.712-2.368-2.508h-3.451v257.591h3.452l2.368-2.509c32.359-34.277 50.18-79.127 50.18-126.286 0-47.16-17.821-92.009-50.181-126.288z" fill="#f0bc5e"/></g></g><path d="m432 280c0-65.617-29.115-126.536-80-167.793v-8.207h-.008c-.084-13.098-9.425-24.445-22.285-27.017l-10.054-2.011c-.897-11.002-3.553-21.716-7.939-31.949l-11.72-27.347c-4.083-9.523-13.415-15.676-23.776-15.676-3.995 0-7.995.944-11.568 2.731l-23.742 11.871c-9.24 4.62-17.713 10.869-24.907 18.314-7.137-7.405-15.538-13.629-24.907-18.314l-23.743-11.871c-3.574-1.787-7.574-2.731-11.569-2.731-10.361 0-19.693 6.153-23.777 15.678l-11.718 27.345c-4.387 10.233-7.042 20.947-7.94 31.949l-10.055 2.011c-12.859 2.572-22.2 13.919-22.284 27.017h-.008v8.208c-50.885 41.256-80 102.175-80 167.792s29.115 126.537 80 167.793v.207c0 31.513 68.417 48 136 48s136-16.487 136-48v-.207c50.885-41.257 80-102.175 80-167.793zm-96-175.824c0 5.72-3.854 10.765-9.371 12.27l-13.444 3.667c3.541-9.225 5.734-18.928 6.499-28.817l6.885 1.377c5.465 1.092 9.431 5.93 9.431 11.503zm-87.937-75.263 23.742-11.871c1.362-.681 2.889-1.042 4.412-1.042 3.953 0 7.514 2.348 9.07 5.98l11.72 27.346c4.64 10.826 6.993 22.287 6.993 34.067 0 14.806-3.8 29.337-11.013 42.227l-5.013 1.367c-.36-11.505-6.818-21.494-16.247-26.839.177-1.368.273-2.752.273-4.148 0-2.95-.41-5.805-1.161-8.52l20.131-8.052-5.941-14.855-16.955 6.782 11.353-28.383-14.855-5.942-11.847 29.617c-3.902-1.699-8.204-2.647-12.725-2.647-1.424 0-2.824.103-4.199.284-2.493-6.645-5.74-12.943-9.651-18.778 6.22-6.791 13.689-12.481 21.913-16.593zm-46.296 113.822c-5.735-2.435-9.767-8.123-9.767-14.735 0-8.822 7.178-16 16-16s16 7.178 16 16-7.178 16-16 16c-.761 0-1.505-.072-2.238-.175zm22.233-46.735c0-8.822 7.178-16 16-16s16 7.178 16 16c-9.551 0-18.132 4.211-24 10.868-2.102-2.385-4.55-4.457-7.269-6.132-.473-1.523-.731-3.104-.731-4.736zm20.298 42.899c-2.73-2.934-4.298-6.816-4.298-10.899 0-8.822 7.178-16 16-16s16 7.178 16 16c0 1.173-.124 2.324-.369 3.445zm-109.305-89.573 11.718-27.345c1.558-3.634 5.118-5.981 9.071-5.981 1.523 0 3.05.36 4.412 1.042l23.742 11.871c17.193 8.596 30.411 23.488 37.012 41.394-7.851 5.837-12.948 15.18-12.948 25.693-5.579 0-10.828 1.439-15.4 3.96l-3.72-9.301 10.71-32.129-15.18-5.06-4.73 14.189-12.252-30.631-14.855 5.942 11.353 28.383-16.955-6.782-5.941 14.855 31.102 12.441 8.102 20.255c-2.688 4.685-4.234 10.102-4.234 15.878 0 2.755.35 5.43 1.008 7.983l-37.995-10.362c-7.212-12.889-11.013-27.421-11.013-42.228 0-11.78 2.353-23.241 6.993-34.067zm-29.562 43.346 6.885-1.377c.764 9.889 2.958 19.592 6.499 28.817l-13.444-3.667c-5.518-1.504-9.371-6.55-9.371-12.27 0-5.572 3.966-10.41 9.431-11.503zm-89.431 187.328c0-56.287 23.131-108.85 64-146.657v293.313c-40.869-37.806-64-90.369-64-146.656zm111.877 188.648c-22.021-6.88-31.877-15.329-31.877-20.648v-318.102c1.635.81 3.353 1.49 5.162 1.983l95.575 26.066c1.838.694 3.757 1.218 5.737 1.565l47.631 12.99c3.471.946 5.895 4.12 5.895 7.718v25.466l-85.176-15.487c-20.236-3.68-38.622-13.313-53.167-27.857l-11.314 11.313c16.858 16.857 38.166 28.021 61.62 32.286l88.037 16.009v59.273l-110.191 18.365c-19.59 3.265-33.809 20.05-33.809 39.91 0 20.253 15.145 37.501 35.228 40.121l108.772 14.188v84.161c-12.703 1.33-26.165 2.032-40 2.032-33.403 0-64.699-4.031-88.123-11.352zm144.123-243.789 11.227 2.041c12.037 2.188 20.773 12.656 20.773 24.891 0 12.418-8.891 22.913-21.141 24.955l-10.859 1.81zm-16 152.813-106.702-13.918c-12.142-1.584-21.298-12.012-21.298-24.256 0-12.007 8.596-22.153 20.439-24.127l107.561-17.927zm48.123 90.976c-9.529 2.978-20.377 5.401-32.123 7.24v-79.797c17.643 3.697 32.703 15.204 40.845 31.486l14.311-7.156c-10.842-21.682-31.337-36.723-55.155-40.621v-85.024l13.49-2.248c19.996-3.333 34.51-20.466 34.51-40.737 0-19.972-14.262-37.061-33.912-40.633l-14.089-2.562v-28.376c0-10.793-7.272-20.314-17.686-23.154l-7.91-2.157 84.433-23.027c1.809-.493 3.527-1.173 5.162-1.983v318.101c.001 5.319-9.855 13.768-31.876 20.648zm47.877-41.992v-293.313c40.869 37.807 64 90.37 64 146.657s-23.131 108.849-64 146.656z"/></g></svg>