<svg id="_x33_0" enable-background="new 0 0 62 62" height="512" viewBox="0 0 62 62" width="512" xmlns="http://www.w3.org/2000/svg"><g><g><path d="m45.956 23.434-2.222-3.333c-.236-.059-.479-.101-.734-.101h-5.333l4 6h1.333c1.506 0 2.744-1.118 2.956-2.566z" fill="#f0bc5e"/></g><g><path d="m38.333 12h-6l4.112 6.168c.165-.11.357-.168.555-.168h2c1.003 0 1.913-.499 2.465-1.302z" fill="#f0bc5e"/></g><g><path d="m33 4h-6l4.818 7.227.26-.615c.157-.372.519-.612.922-.612h2c.595 0 1.169-.175 1.663-.505z" fill="#f0bc5e"/></g><g><path d="m25.566 26.349 4.368 6.552 3-4.5-4.368-6.552z" fill="#f0bc5e"/></g><g><path d="m17.267 13.901 3-4.5-4.267-6.401h-.202l-2.899 4.349z" fill="#f0bc5e"/></g><g><path d="m19.233 16.849 4.368 6.552 3-4.5-4.368-6.552z" fill="#f0bc5e"/></g><g><path d="m52.083 36.94-.681-1.881c-3.034 1.099-9.72 2.941-20.402 2.941s-17.368-1.842-20.402-2.94l-.681 1.88c3.158 1.143 10.095 3.06 21.083 3.06s17.925-1.917 21.083-3.06z"/><path d="m60.745 37.609-.745-.514c1.275-1.214 2-2.58 2-4.095 0-2.944-2.843-5.557-8.215-7.571l-16.363-24.114c-.559-.823-1.486-1.315-2.482-1.315h-12.94c-1.302 0-2.402.839-2.816 2h-12.184c-1.654 0-3 1.346-3 3v22.446c-3.285 2.051-4 4.137-4 5.554 0 1.516.725 2.881 2.001 4.095l-.745.514c-.787.542-1.256 1.436-1.256 2.391s.469 1.849 1.255 2.391l27.355 18.865c.706.487 1.533.744 2.39.744s1.684-.257 2.391-.744l27.353-18.865c.787-.542 1.256-1.436 1.256-2.391s-.469-1.849-1.255-2.391zm-24.977-35.171 18.142 26.737c.059.087.09.188.09.295 0 .292-.238.53-.53.53h-1.935l-18.667-28h2.071c.333 0 .643.164.829.438zm9.767 27.562-18.667-28h3.596l18.667 28zm-23.535-28h2.465l18.667 28h-2.602l-18.108-26.685c-.294-.433-.694-.767-1.148-.994.183-.195.438-.321.726-.321zm8.535 30-18.667-28h3.596l18.667 28zm6 0-18.667-28h2.071c.332 0 .642.164.828.438l18.141 26.734.001.002c.06.088.091.189.091.296 0 .292-.238.53-.53.53zm-27.07-28 18.667 28h-2.596l-18.652-27.977c.04-.004.075-.023.116-.023zm-3.465 2.303 17.132 25.697h-16.132c-.551 0-1-.448-1-1zm-2 23.58v1.117c0 1.654 1.346 3 3 3h31.47c1.213 0 2.227-.859 2.472-2h12.528c1.395 0 2.53-1.135 2.53-2.53 0-.349-.095-.68-.232-.995 2.722 1.405 4.232 2.991 4.232 4.525 0 4.257-11.91 9-29 9s-29-4.743-29-9c0-1.202.912-2.267 2-3.117zm11.271 12.657.167.116-5.138 3.543-5.138-3.544 2.996-2.066c2.102.783 4.512 1.434 7.113 1.951zm1.929 1.33 5.139 3.544-5.139 3.544-5.139-3.544zm2.689-.575c2.438.317 4.968.526 7.51.629l-3.299 2.275zm4.211 5.334 5.138 3.543-5.138 3.544-5.138-3.543zm1.762-1.215 4.952-3.415c.062 0 .124.001.186.001s.124-.001.186-.001l4.952 3.415-5.138 3.543zm8.739-3.49c2.542-.103 5.072-.312 7.51-.629l-4.211 2.904zm3.299 4.705 5.139 3.544-5.138 3.543-5.139-3.544zm1.761-1.215 5.139-3.544 5.138 3.544-5.138 3.544zm6.901-4.759.167-.116c2.601-.517 5.011-1.168 7.114-1.951l2.996 2.066-5.139 3.545zm-44.562-2.655c0-.297.146-.575.391-.744l1.259-.869c.691.455 1.463.884 2.312 1.286l-2.562 1.767-1.009-.696c-.245-.169-.391-.447-.391-.744zm30.256 19.609c-.743.512-1.771.512-2.512 0l-3.883-2.678 5.139-3.544 5.139 3.544zm27.353-18.865-1.009.696-2.562-1.767c.85-.401 1.622-.831 2.312-1.286l1.26.869c.244.169.39.447.39.744s-.146.575-.391.744z"/></g></g></svg>