<svg height="496pt" viewBox="0 -16 496.06601 496" width="496pt" xmlns="http://www.w3.org/2000/svg"><path d="m224 384.023438h32v16h-32zm0 0"/><path d="m160 320.023438h32v16h-32zm0 0"/><path d="m224 320.023438h32v16h-32zm0 0"/><path d="m224 288.023438h32v16h-32zm0 0"/><path d="m256 224.023438h-144c-13.230469 0-24 10.769531-24 24 0 13.234374 10.769531 24 24 24h72v48c0 13.234374 10.769531 24 24 24s24-10.765626 24-24v-40c0-4.414063 3.585938-8 8-8s8 3.585937 8 8v104c0 13.234374 10.769531 24 24 24s24-10.765626 24-24v-120c0-22.054688-17.945312-40-40-40zm0 0" fill="#f0bc5e"/><path d="m484.28125 96.585938c-7.136719-22.640626-29.640625-36.242188-52.28125-31.6875-22.375-4.488282-44.753906 8.824218-52.246094 31.65625-5.816406 6.644531-9.578125 14.78125-11.035156 23.476562h-66.160156l-24-120h-86.558594v16h73.449219l20.796875 104h-86.246094v60.449219c-3.0625 1.785156-5.777344 4.046875-8.089844 6.710937-9.8125-16.246094-27.589844-27.167968-47.910156-27.167968h-24v24c0 30.882812 25.128906 56 56 56h24v-4.445313c4.726562 2.75 10.144531 4.445313 16 4.445313 17.289062 0 31.320312-13.789063 31.894531-30.933594 9.234375 2.382812 16.859375 8.765625 20.90625 17.222656 7.648438 2.609375 14.214844 7.390625 19 13.710938h.199219c0-17.644532 14.351562-32 32-32 17.640625 0 31.984375 14.34375 32 31.976562l-3.398438 91.882812c-3.160156-5.28125-8.273437-9.273437-14.363281-10.929687 1.113281-2.769531 1.761719-5.769531 1.761719-8.929687 0-8.519532-4.496094-15.972657-11.207031-20.230469 1.984375-3.496094 3.207031-7.472657 3.207031-11.769531 0-13.230469-10.769531-24-24-24h-8.808594c.527344 2.585937.808594 5.265624.808594 8v8h8c4.414062 0 8 3.59375 8 8 0 4.410156-3.585938 8-8 8h-8v16h16c4.414062 0 8 3.59375 8 8 0 4.410156-3.585938 8-8 8h-16v16h32c4.414062 0 8 3.59375 8 8 0 4.410156-3.585938 8-8 8h-32v16h48c4.414062 0 8 3.59375 8 8 0 4.410156-3.585938 8-8 8h-48c0 6.167968-2.40625 11.746093-6.238281 16h78.238281v16h-352v-16h192v-16h-168c-4.414062 0-8-3.589844-8-8 0-4.40625 3.585938-8 8-8h208v-16h-192c-4.414062 0-8-3.589844-8-8 0-4.40625 3.585938-8 8-8h88v-16h-72c-4.414062 0-8-3.589844-8-8 0-4.40625 3.585938-8 8-8h112v-16h-104c-4.414062 0-8-3.589844-8-8 0-4.40625 3.585938-8 8-8h32c-10.414062 0-19.214844-6.710938-22.527344-16h-9.472656c-13.230469 0-24 10.769531-24 24 0 4.296874 1.222656 8.273437 3.207031 11.769531-6.710937 4.257812-11.207031 11.710937-11.207031 20.230469 0 3.160156.648438 6.160156 1.761719 8.929687-10.203125 2.761719-17.761719 12.007813-17.761719 23.070313 0 3.160156.648438 6.160156 1.761719 8.929687-10.203125 2.761719-17.761719 12.007813-17.761719 23.070313 0 2.816406.574219 5.488281 1.472656 8h-1.472656c-8.824219 0-16 7.175781-16 16v16c0 8.824218 7.175781 16 16 16h1.753906l7.988282 32h367.601562c12.527344 0 22.816406-9.40625 23.902344-21.886719l22.050781-250.191407c.472656.007813.949219.078126 1.414063.078126 19.28125 0 37.015624-12.65625 43.535156-32.519532 15.746094-17.984375 15.761718-44.917968.035156-62.917968zm-8.585938 47.429687-27.695312-15.992187 27.695312-15.984376c5.617188 9.792969 5.617188 22.1875 0 31.976563zm-8.039062-45.804687-27.65625 15.957031v-34.09375c11.648438-.289063 22.480469 6.710937 27.65625 18.136719zm-43.65625-18.128907v34.085938l-27.6875-15.984375c4.984375-11.277344 15.917969-18.375 27.6875-18.101563zm-35.703125 31.949219 13.847656 7.992188h-17.015625c.710938-2.796876 1.726563-5.503907 3.167969-7.992188zm-204.296875 111.992188h-8c-22.054688 0-40-17.941407-40-40v-8h8c22.054688 0 40 17.945312 40 40zm32 0c-8.824219 0-16-7.175782-16-16 0-8.824219 7.175781-16 16-16s16 7.175781 16 16c0 8.824218-7.175781 16-16 16zm104-32c-16.6875 0-31.390625 8.570312-40 21.523437-7.960938-11.992187-21.175781-20.128906-36.320312-21.289063-5.519532-9.640624-15.792969-16.234374-27.679688-16.234374v-40h208v46.945312h.03125v.351562l-1.277344 14.496094c-6.9375-3.726562-14.746094-5.792968-22.753906-5.792968-16.703125 0-31.425781 8.585937-40.023438 21.488281-8.609374-12.933594-23.304687-21.488281-39.976562-21.488281zm-285.753906 240h315.515625l-4 16h-307.515625zm367.074218 8.707031c-.367187 4.160156-3.792968 7.292969-7.96875 7.292969h-31.113281l4-16h1.761719c8.824219 0 16-7.175782 16-16v-16c0-8.824219-7.175781-16-16-16h-1.472656c.898437-2.511719 1.472656-5.183594 1.472656-8 0-5.183594-1.703125-9.925782-4.519531-13.832032l4.519531-122.167968c0-17.644532 14.351562-32 32-32 7.839844 0 15.304688 3.042968 21.128906 8.203124zm38.679688-264.761719v-34.085938l27.6875 15.980469c-4.976562 11.28125-15.917969 18.378907-27.6875 18.105469zm0 0"/></svg>