<svg id="_x30_1" enable-background="new 0 0 496 368" height="512" viewBox="0 0 496 368" width="512" xmlns="http://www.w3.org/2000/svg"><g><g><path d="m392 160c13.234 0 24-10.767 24-24s-10.766-24-24-24-24 10.767-24 24 10.766 24 24 24z" fill="#f0bc5e"/></g><g><path d="m304 176c-13.234 0-24 10.767-24 24s10.766 24 24 24 24-10.767 24-24-10.766-24-24-24z" fill="#f0bc5e"/></g><g><path d="m128 136c0-13.233-10.766-24-24-24s-24 10.767-24 24 10.766 24 24 24 24-10.767 24-24z" fill="#f0bc5e"/></g><g><path d="m216 64c-13.234 0-24 10.767-24 24s10.766 24 24 24 24-10.767 24-24-10.766-24-24-24z" fill="#f0bc5e"/></g><g><path d="m200 48c13.234 0 24-10.767 24-24s-10.766-24-24-24-24 10.767-24 24 10.766 24 24 24z" fill="#f0bc5e"/></g><g><path d="m296 48c13.234 0 24-10.767 24-24s-10.766-24-24-24-24 10.767-24 24 10.766 24 24 24z" fill="#f0bc5e"/></g><g><path d="m320 88c0-13.233-10.766-24-24-24s-24 10.767-24 24 10.766 24 24 24 24-10.767 24-24z" fill="#f0bc5e"/></g><g><path d="m120 176c-13.234 0-24 10.767-24 24s10.766 24 24 24 24-10.767 24-24-10.766-24-24-24z" fill="#f0bc5e"/></g><g><path d="m200 176c-13.234 0-24 10.767-24 24s10.766 24 24 24 24-10.767 24-24-10.766-24-24-24z" fill="#f0bc5e"/></g><g><path d="m392 176c-13.234 0-24 10.767-24 24s10.766 24 24 24 24-10.767 24-24-10.766-24-24-24z" fill="#f0bc5e"/></g><g><path d="m152.845 124.422 14.311 7.156c3.571-7.142 10.749-11.578 18.733-11.578h6.111v-16h-6.111c-14.084 0-26.746 7.825-33.044 20.422z"/><path d="m236.687 56-2.343 2.343 11.313 11.314 2.343-2.343c2.137-2.138 4.979-3.314 8-3.314s5.863 1.177 8 3.314l2.343 2.343 11.313-11.314-2.343-2.343c-5.159-5.159-12.018-8-19.313-8s-14.154 2.841-19.313 8z"/><path d="m56.845 236.422 14.311 7.156c3.57-7.141 10.748-11.578 18.733-11.578h6.111v-16h-6.111c-14.084 0-26.746 7.825-33.044 20.422z"/><path d="m470.858 237.302c6.001-9.162 9.142-19.052 9.142-29.302 0-28.145-24.419-53.794-64.307-68.183-.903 5.623-3.766 10.595-7.863 14.2 34.78 11.87 56.17 32.283 56.17 53.983 0 16.215-11.866 31.819-33.413 43.939-22.998 12.937-53.748 20.061-86.587 20.061-30.182 0-59.038-6.193-81.188-17.211 16.369-13.423 25.188-29.6 25.188-46.789 0-11.823-4.213-23.234-12.291-33.644 25.023-2.985 48.087-9.99 66.722-20.472 5.272-2.966 10.071-6.146 14.39-9.507 4.421.258 8.825.645 13.163 1.167-1.273-2.926-1.984-6.153-1.984-9.544 0-.673.036-1.337.092-1.995 10.392-11.464 15.908-24.417 15.908-38.005 0-28.145-24.419-53.794-64.307-68.183-.903 5.623-3.766 10.595-7.863 14.2 34.78 11.87 56.17 32.283 56.17 53.983 0 16.215-11.866 31.819-33.413 43.939-22.998 12.937-53.748 20.061-86.587 20.061s-63.589-7.124-86.587-20.061c-21.547-12.12-33.413-27.724-33.413-43.939 0-21.694 21.393-42.113 56.17-53.983-4.097-3.604-6.96-8.577-7.863-14.199-39.884 14.389-64.307 40.044-64.307 68.182 0 13.588 5.516 26.541 15.908 38.005.055.659.092 1.323.092 1.995 0 3.39-.71 6.616-1.984 9.542 4.334-.521 8.738-.907 13.162-1.165 4.32 3.361 9.118 6.541 14.39 9.507 25.354 14.262 58.89 22.116 94.432 22.116 2.448 0 4.885-.046 7.312-.12 8.08 7.293 16.688 18.304 16.688 32.12 0 16.215-11.866 31.819-33.413 43.939-22.998 12.937-53.748 20.061-86.587 20.061s-63.589-7.124-86.587-20.061c-21.547-12.12-33.413-27.724-33.413-43.939 0-21.694 21.393-42.113 56.17-53.983-4.097-3.604-6.96-8.577-7.863-14.199-39.884 14.389-64.307 40.044-64.307 68.182 0 10.25 3.141 20.139 9.142 29.301-16.893 7.641-25.142 16.425-25.142 26.699v48c0 17.792 25.097 31.46 76.726 41.786 45.83 9.166 106.657 14.214 171.274 14.214s125.444-5.048 171.274-14.214c51.629-10.326 76.726-23.994 76.726-41.786v-48c0-10.274-8.249-19.058-25.142-26.698zm-434.964 12.805c5.972 5.724 13.223 11.024 21.674 15.778 25.354 14.261 58.89 22.115 94.432 22.115s69.078-7.854 94.432-22.115c.531-.298 1.048-.603 1.569-.905 25.27 14.67 59.905 23.02 96 23.02 35.542 0 69.078-7.854 94.432-22.115 8.451-4.754 15.702-10.053 21.674-15.778 15.59 6.289 19.893 11.741 19.893 13.893 0 3.706-11.473 15.618-63.863 26.097-44.829 8.966-104.541 13.903-168.137 13.903s-123.308-4.938-168.137-13.903c-52.39-10.479-63.863-22.391-63.863-26.097 0-2.152 4.303-7.605 19.894-13.893zm380.243 87.99c-44.829 8.966-104.541 13.903-168.137 13.903s-123.308-4.938-168.137-13.903c-52.39-10.479-63.863-22.391-63.863-26.097v-26.044c12.626 7.671 32.782 14.241 60.726 19.831 45.83 9.165 106.657 14.213 171.274 14.213s125.444-5.048 171.274-14.214c27.944-5.589 48.099-12.159 60.726-19.831v26.045c0 3.706-11.473 15.618-63.863 26.097z"/><path d="m273.987 33.549c-1.275-2.928-1.987-6.156-1.987-9.549 0-2.317.337-4.556.952-6.678-16.407-1.749-33.5-1.747-49.904.001.615 2.122.952 4.36.952 6.677 0 3.393-.712 6.621-1.987 9.55 17.011-2.043 34.959-2.044 51.974-.001z"/><path d="m336.845 107.578 14.311-7.156c-6.22-12.441-18.651-20.213-32.525-20.404.883 2.499 1.369 5.184 1.369 7.982 0 2.811-.49 5.509-1.382 8.018 7.779.184 14.732 4.571 18.227 11.56z"/><path d="m202.376 68.257c-5.695-2.78-12.037-4.257-18.376-4.257-6.47 0-12.948 1.529-18.733 4.423l-8.844 4.422 7.154 14.311 8.846-4.422c3.575-1.789 7.578-2.734 11.577-2.734 3.02 0 6.041.541 8.88 1.575 1.523-5.472 4.938-10.163 9.496-13.318z"/><path d="m267.015 115.238c-3.444-1.147-6.235-3.568-7.859-6.816-3.535-7.07-9.612-12.341-17.11-14.839l-2.518-.839c-1.133 5.629-4.244 10.548-8.572 14.007l6.031 2.011c3.444 1.147 6.235 3.568 7.859 6.816 3.535 7.07 9.612 12.341 17.11 14.839l7.03 2.345c3.444 1.147 6.235 3.568 7.859 6.816l4 8 14.311-7.156-4-8c-3.535-7.07-9.612-12.341-17.11-14.839z"/><path d="m148.845 227.578c3.535 7.07 9.612 12.341 17.11 14.839l7.03 2.345c3.444 1.147 6.235 3.568 7.859 6.816l4 8 14.311-7.156-4-8c-3.535-7.07-9.612-12.341-17.11-14.839l-7.03-2.345c-3.444-1.147-6.235-3.568-7.859-6.816-3.535-7.07-9.612-12.341-17.11-14.839l-2.518-.839c-1.133 5.629-4.244 10.548-8.572 14.007l6.031 2.011c3.443 1.147 6.234 3.568 7.858 6.816z"/><path d="m106.376 180.257c-5.695-2.78-12.037-4.257-18.376-4.257-6.47 0-12.948 1.529-18.733 4.423l-8.844 4.422 7.154 14.311 8.846-4.422c3.575-1.789 7.578-2.734 11.577-2.734 3.02 0 6.041.541 8.88 1.575 1.523-5.472 4.938-10.163 9.496-13.318z"/><path d="m240.845 219.578 14.311-7.156c-6.22-12.441-18.651-20.213-32.525-20.404.884 2.499 1.37 5.184 1.37 7.982 0 2.811-.49 5.509-1.382 8.018 7.778.184 14.731 4.571 18.226 11.56z"/><path d="m362.045 229.583-7.03-2.345c-3.444-1.147-6.235-3.568-7.859-6.816-3.535-7.07-9.612-12.341-17.11-14.839l-2.518-.839c-1.133 5.629-4.244 10.548-8.572 14.007l6.031 2.011c3.444 1.147 6.235 3.568 7.859 6.816 3.535 7.07 9.612 12.341 17.11 14.839l7.03 2.345c3.444 1.147 6.235 3.568 7.859 6.816l4 8 14.311-7.156-4-8c-3.536-7.07-9.613-12.341-17.111-14.839z"/><path d="m432.845 219.578 14.311-7.156c-6.22-12.441-18.651-20.213-32.525-20.404.884 2.499 1.37 5.184 1.37 7.982 0 2.811-.49 5.509-1.382 8.018 7.778.184 14.731 4.571 18.226 11.56z"/></g></g></svg>