<?xml version="1.0" encoding="iso-8859-1"?>
<!-- Generator: Adobe Illustrator 19.0.0, SVG Export Plug-In . SVG Version: 6.00 Build 0)  -->
<svg version="1.1" id="Capa_1" xmlns="http://www.w3.org/2000/svg" xmlns:xlink="http://www.w3.org/1999/xlink" x="0px" y="0px"
	 viewBox="0 0 496 496" style="enable-background:new 0 0 496 496;" xml:space="preserve">
<g>
	<path style="fill:#F0BC5E;" d="M264,200L264,200L264,200z"/>
	<path style="fill:#F0BC5E;" d="M264,200L264,200L264,200z"/>
	<path style="fill:#F0BC5E;" d="M184,120v32h64c8.84,0,16,7.16,16,16v32c3.216-4.584,6.904-9,11.064-13.152
		c31.096-31.096,76.472-36.136,101.352-11.264c24.88,24.88,19.832,70.256-11.264,101.352c-20.208,20.208-46.44,29.408-69.16,26.56
		V344h160V120H184z"/>
	<path style="fill:#F0BC5E;" d="M8,272v192h224V272H8z M164.824,412.936c-31.096,31.096-76.472,36.136-101.352,11.264
		c-24.88-24.88-19.84-70.256,11.264-101.352c31.096-31.096,76.472-36.136,101.352-11.264
		C200.96,336.456,195.92,381.84,164.824,412.936z"/>
</g>
<path d="M181.744,305.928c-27.968-27.952-78.496-22.904-112.664,11.264s-39.216,84.704-11.264,112.664
	c12.16,12.152,28.568,18.064,46.056,18.064c22.744,0,47.296-10.008,66.608-29.328C204.648,384.424,209.696,333.888,181.744,305.928z
	 M80.392,328.496c16.24-16.248,36.704-24.752,55.248-24.752c13.152,0,25.312,4.328,34.36,13.144
	c-4.832,3.232-9.16,4.36-14.224,5.624c-8.08,2.016-17.224,4.304-28.216,15.296c-11,11-13.288,20.16-15.304,28.232
	c-1.816,7.224-3.24,12.936-11.104,20.8c-7.864,7.864-13.576,9.288-20.808,11.096c-5.928,1.48-12.44,3.144-19.824,8.24
	C49.8,383.624,57.128,351.76,80.392,328.496z M159.168,407.28c-27.624,27.632-67.416,32.824-89.296,11.912
	c4.888-3.312,9.256-4.44,14.368-5.72c8.08-2.024,17.232-4.312,28.232-15.312s13.288-20.152,15.304-28.232
	c1.816-7.232,3.24-12.944,11.104-20.808c7.856-7.856,13.56-9.28,20.784-11.088c5.856-1.464,12.288-3.112,19.568-8.064
	C189.68,352.512,182.288,384.152,159.168,407.28z"/>
<rect x="256" y="256" width="16" height="16"/>
<path d="M472,0H168c-13.232,0-24,10.768-24,24v32c0,13.232,10.768,24,24,24h8v64H56c-13.232,0-24,10.768-24,24v29.88l-32,56V496h304
	v-96h120c22.056,0,40-17.944,40-40V80h8c13.232,0,24-10.768,24-24V24C496,10.768,485.232,0,472,0z M16,258.128L44.64,208H224v-16H48
	v-24c0-4.408,3.584-8,8-8h192c4.416,0,8,3.592,8,8v24h-16v16h10.216L224,253.872V480H16V258.128z M359.504,271.28
	c-15.928,15.936-36.264,24.816-55.504,24.68v-26.616c2.984-2.024,5.92-4.296,8.8-7.184c11-11,13.288-20.152,15.312-28.232
	c1.808-7.232,3.232-12.936,11.104-20.808c7.856-7.856,13.56-9.28,20.784-11.088c5.856-1.464,12.288-3.112,19.568-8.064
	C390.016,216.512,382.624,248.152,359.504,271.28z M356.12,186.512c-8.08,2.016-17.224,4.304-28.216,15.296
	c-11,11-13.288,20.16-15.312,28.232c-1.76,7.056-3.208,12.688-10.616,20.272l-28.384-49.672c2.232-2.832,4.576-5.584,7.136-8.152
	c27.768-27.752,67.84-32.888,89.64-11.616C365.52,184.128,361.184,185.256,356.12,186.512z M288,480h-16V288h-16v192h-16V258.128
	l24-42l24,42V480z M480,56c0,4.408-3.584,8-8,8h-40v16h16v280c0,13.232-10.768,24-24,24H304v-72.016c0.12,0,0.24,0.024,0.368,0.024
	c23.384,0,47.64-10.608,66.448-29.416c34.168-34.168,39.216-84.704,11.264-112.664C354.824,142.656,306.104,146.88,272,178.8V168
	c0-13.232-10.768-24-24-24h-56V80h224V64H168c-4.416,0-8-3.592-8-8V24c0-4.408,3.584-8,8-8h304c4.416,0,8,3.592,8,8V56z"/>
<rect x="176" y="32" width="288" height="16"/>
<g>
</g>
<g>
</g>
<g>
</g>
<g>
</g>
<g>
</g>
<g>
</g>
<g>
</g>
<g>
</g>
<g>
</g>
<g>
</g>
<g>
</g>
<g>
</g>
<g>
</g>
<g>
</g>
<g>
</g>
</svg>
