<svg id="Layer_5" enable-background="new 0 0 61.993 62" height="512" viewBox="0 0 61.993 62" width="512" xmlns="http://www.w3.org/2000/svg"><g><g><path d="m45 57 3.826-21.043-.246.036c-1.667-.057-2.516-.449-3.495-.901-1.11-.512-2.367-1.092-4.753-1.092s-3.644.58-4.753 1.092c-1.057.487-1.969.908-3.916.908-1.946 0-2.857-.421-3.912-.908-1.097-.507-2.343-1.079-4.684-1.091-.04.218-.067.439-.067.668 0 .22.02.44.059.656l3.941 21.675z" fill="#f0bc5e"/></g><g><path d="m57.589 22.411c-5.872-5.873-15.426-5.872-21.296 0l-.707.707 6.882 6.882h-12.468v-.528c0-2.924-1.525-5.556-4-7.041v-4.431c1.103 0 2-.897 2-2 0-3.483-1.56-6.729-4.28-8.904l-.72-.576v-3.52c0-1.654-1.346-3-3-3h-10c-1.654 0-3 1.346-3 3v3.52l-.72.576c-2.72 2.175-4.28 5.421-4.28 8.904 0 1.103.897 2 2 2v4.431c-2.475 1.484-4 4.117-4 7.041v23.528c0 2.757 2.243 5 5 5h19.178c-.112.314-.178.648-.178 1 0 1.654 1.346 3 3 3h18c1.654 0 3-1.346 3-3 0-1.245-.762-2.315-1.844-2.768l3.468-19.075 7.258 7.257.707-.707c5.872-5.872 5.872-15.425 0-21.296zm-16.267 3.614c1.601-1.31 3.582-2.025 5.678-2.025 4.962 0 9 4.038 9 9 0 2.096-.715 4.077-2.025 5.678l-3.978-3.977c0-.011.003-.021.003-.032 0-2.575-2.094-4.669-4.669-4.669h-.035zm-17.322-4.025h-2v-4h2zm-12-4v4h-2v-4zm2 0h2v4h-2zm4 0h2v4h-2zm-8-16h10c.551 0 1 .449 1 1v3h-12v-3c0-.551.449-1 1-1zm-2.471 6.657.822-.657h13.299l.822.657c2.242 1.795 3.528 4.471 3.529 7.343h-22.001c0-2.872 1.286-5.548 3.529-7.343zm.471 9.343v4h-2v-4zm-6 11.472c0-2.301 1.237-4.377 3.245-5.472h19.51c2.008 1.095 3.245 3.171 3.245 5.472v.528h-1.331c-1.317 0-2.504.553-3.353 1.433-1.14-.917-2.56-1.433-4.05-1.433-.411 0-.815.042-1.21.116.906-1.307 1.981-2.116 2.944-2.116v-2c-2.381 0-4.669 2.346-5.95 5.568-.016.014-.035.023-.05.037-1.181-1.038-2.68-1.605-4.266-1.605-2.025 0-3.96.967-5.175 2.587l-.266.354c-.834 1.113-1.293 2.492-1.293 3.882v.815c0 4.341 1.913 8.424 5.248 11.203.896.747 2.033 1.159 3.2 1.159h5.104c1.167 0 2.304-.412 3.201-1.159 1.228-1.023 2.268-2.239 3.095-3.589l1.226 6.748h-20.074c-1.654 0-3-1.346-3-3zm12.041 6.455c-1.319-.19-2.041-.723-2.041-.927h-2c0 1.71 2.149 3 5 3s5-1.29 5-3h-2c0 .199-.688.712-1.947.913.096-1.095.328-2.147.66-3.104.745-.521 1.625-.809 2.553-.809 1.124 0 2.179.441 2.997 1.189-.158.468-.263.96-.263 1.48 0 .277.025.558.075.835l1.164 6.401c-.759 2.101-2.049 3.968-3.767 5.399-.538.449-1.22.696-1.92.696h-5.104c-.7 0-1.382-.247-1.92-.695-2.878-2.398-4.528-5.921-4.528-9.667v-.815c0-.961.317-1.913.894-2.682l.266-.354c.839-1.119 2.175-1.787 3.574-1.787 1.194 0 2.316.465 3.161 1.309l.47.47c-.157.698-.269 1.417-.324 2.148zm-12.041 17.073v-.026c.838.635 1.87 1.026 3 1.026h20.438l.364 2h-20.802c-1.654 0-3-1.346-3-3zm43 7h-18c-.551 0-1-.449-1-1s.449-1 1-1h1.198 15.604 1.198c.551 0 1 .449 1 1s-.449 1-1 1zm2.957-24.853-3.792 20.853h-16.33l-3.791-20.852c-.029-.158-.044-.318-.044-.479 0-1.472 1.197-2.669 2.669-2.669h18.662c1.472 0 2.669 1.197 2.669 2.669 0 .161-.015.321-.043.478zm8.899 6.412-1.461-1.461c1.684-1.984 2.605-4.467 2.605-7.098 0-6.065-4.935-11-11-11-2.631 0-5.114.921-7.098 2.605l-1.461-1.461c2.365-2.034 5.348-3.144 8.5-3.144 3.488 0 6.768 1.358 9.234 3.825s3.825 5.746 3.825 9.234c0 3.152-1.11 6.135-3.144 8.5z"/><path d="m33 48c-1.654 0-3 1.346-3 3s1.346 3 3 3 3-1.346 3-3-1.346-3-3-3zm0 4c-.551 0-1-.449-1-1s.449-1 1-1 1 .449 1 1-.449 1-1 1z"/><path d="m41 42c-1.654 0-3 1.346-3 3s1.346 3 3 3 3-1.346 3-3-1.346-3-3-3zm0 4c-.551 0-1-.449-1-1s.449-1 1-1 1 .449 1 1-.449 1-1 1z"/><path d="m32 42c0-1.654-1.346-3-3-3s-3 1.346-3 3 1.346 3 3 3 3-1.346 3-3zm-3 1c-.551 0-1-.449-1-1s.449-1 1-1 1 .449 1 1-.449 1-1 1z"/><circle cx="46" cy="27" r="1"/><circle cx="53" cy="34" r="1"/><circle cx="51" cy="29" r="1"/></g></g></svg>