<svg id="_x33_0" enable-background="new 0 0 62 62" height="512" viewBox="0 0 62 62" width="512" xmlns="http://www.w3.org/2000/svg"><g><path d="m44.873 25.468-1.873-.468-.019-.097c-.571-2.851-3.074-4.903-5.981-4.903l-.514-1.286c-.898-2.243-3.07-3.714-5.486-3.714s-4.588 1.471-5.486 3.714l-.514 1.286c-2.907 0-5.41 2.052-5.981 4.903l-.019.097-1.873.468c-1.25.313-2.127 1.436-2.127 2.724 0 1.551 1.257 2.808 2.808 2.808h4.192c1.105 0 2 .895 2 2v10c0 1.105.895 2 2 2s2-.895 2-2v-10c0-1.105.895-2 2-2s2 .895 2 2v4c0 1.105.895 2 2 2s2-.895 2-2v-4c0-1.105.895-2 2-2h6.192c1.551 0 2.808-1.257 2.808-2.808 0-1.288-.877-2.411-2.127-2.724z" fill="#f0bc5e"/><g><path d="m44.192 31h-1.329l-3.071 23.851c-2.011.751-4.112 1.149-6.264 1.149h-5.056c-2.153 0-4.254-.398-6.264-1.149l-3.071-23.851h-1.329c-.243 0-.475-.041-.7-.099l2.428 18.857c-.549-.29-1.136-.501-1.751-.624.138-.532.215-1.082.215-1.634 0-3.33-2.519-6.08-5.75-6.453-.708-2.143-1.9-4.111-3.543-5.754l-1.414 1.414c1.28 1.28 2.241 2.791 2.868 4.433-2.944.62-5.161 3.235-5.161 6.36 0 .55.076 1.098.213 1.629-2.969.599-5.213 3.228-5.213 6.371 0 3.584 2.916 6.5 6.5 6.5 1.956 0 3.777-.894 4.995-2.358 1.194 1.439 2.994 2.358 5.005 2.358 1.72 0 3.316-.682 4.504-1.827.463 1.078 1.527 1.827 2.747 1.827h14.498c1.498 0 2.776-1.119 2.974-2.607l3.669-28.491c-.225.057-.457.098-.7.098zm-33.458 12.077c.127.614.197 1.243.232 1.879-.474-.089-.911-.315-1.258-.663l-1.415 1.414c.833.834 1.941 1.293 3.121 1.293h.172c1.18 0 2.288-.459 3.122-1.293l-1.415-1.414c-.107.107-.223.2-.345.284-.033-.461-.089-.917-.165-1.368 1.854.556 3.217 2.258 3.217 4.291 0 .538-.092 1.057-.274 1.551-1.695.202-3.193 1.056-4.23 2.307-1.055-1.268-2.563-2.1-4.22-2.301-.183-.496-.276-1.017-.276-1.557 0-2.219 1.618-4.057 3.734-4.423zm-4.234 16.923c-2.481 0-4.5-2.019-4.5-4.5s2.019-4.5 4.5-4.5c1.62 0 3.104.886 3.9 2.276-.254.695-.4 1.442-.4 2.224s.146 1.529.4 2.224c-.795 1.391-2.28 2.276-3.9 2.276zm10 0c-2.481 0-4.5-2.019-4.5-4.5s2.019-4.5 4.5-4.5c1.316 0 2.54.568 3.397 1.559l.634 4.92c-.755 1.535-2.304 2.521-4.031 2.521zm21.749 0h-14.498c-.499 0-.925-.373-.991-.863l-.266-2.064c1.933.609 3.936.927 5.978.927h5.056c2.042 0 4.045-.318 5.978-.928l-.265 2.06c-.067.495-.493.868-.992.868z"/><path d="m27.586 21-.293.293 1.414 1.414.293-.293c.533-.535 1.465-.535 2 0l.293.293 1.414-1.414-.292-.293c-1.29-1.289-3.541-1.289-4.829 0z"/><path d="m23 28.414c.533-.535 1.465-.535 2 0l.293.293 1.414-1.414-.292-.293c-1.289-1.289-3.541-1.289-4.829 0l-.293.293 1.414 1.414z"/><path d="m33.586 25-.293.293 1.414 1.414.293-.293c.533-.535 1.465-.535 2 0l.293.293 1.414-1.414-.292-.293c-1.29-1.289-3.541-1.289-4.829 0z"/><path d="m18.292 52.293c-.455.456-1.061.707-1.706.707h-.172c-.645 0-1.251-.251-1.707-.707l-1.415 1.414c.834.834 1.942 1.293 3.122 1.293h.172c1.18 0 2.288-.459 3.122-1.293z"/><path d="m6.586 53h-.172c-.645 0-1.251-.251-1.707-.707l-1.415 1.414c.834.834 1.942 1.293 3.122 1.293h.172c1.18 0 2.288-.459 3.122-1.293l-1.415-1.414c-.456.456-1.062.707-1.707.707z"/><path d="m58 52h-1c0-2.206-1.794-4-4-4h-4c-2.206 0-4 1.794-4 4 0 .749.22 1.443.579 2.043-2.005.213-3.579 1.895-3.579 3.957 0 2.206 1.794 4 4 4h4c1.494 0 2.784-.833 3.471-2.05.175.024.35.05.529.05h4c2.206 0 4-1.794 4-4s-1.794-4-4-4zm-9-2h4c1.103 0 2 .897 2 2h-1c-1.468 0-2.784.814-3.479 2.053-.172-.023-.343-.053-.521-.053h-1c-1.103 0-2-.897-2-2s.897-2 2-2zm1 10h-4c-1.103 0-2-.897-2-2s.897-2 2-2h4c1.103 0 2 .897 2 2s-.897 2-2 2zm8-2h-4c0-1.305-.637-2.454-1.606-3.185.369-.498.958-.815 1.606-.815h4c1.103 0 2 .897 2 2s-.897 2-2 2z"/><path d="m15.142 27.324c.217-.667.68-1.225 1.294-1.571l-8.146-9.756c-.187-.228-.29-.516-.29-.81 0-.405.196-.784.52-1.025l9.399 11.108 1.081-.27.019-.097c.073-.366.181-.718.315-1.056l-9.172-10.84 6.824-4.777c.215-.15.469-.23.732-.23h.187c.391 0 .754.175.999.48l7.117 8.896.102-.081c.042.038.079.081.122.118l.042-.048c.185-.246.389-.473.606-.687.159-.155.333-.291.507-.427.101-.079.192-.17.298-.242l-.142-.108c-.989-.855-1.556-2.095-1.556-3.401 0-2.186 1.568-4.009 3.637-4.413.117.614.21 1.233.269 1.856-.451-.096-.866-.317-1.198-.651l-1.415 1.414c.833.835 1.941 1.294 3.121 1.294h.172c1.18 0 2.288-.459 3.122-1.293l-1.415-1.414c-.124.125-.262.23-.406.323-.049-.481-.112-.959-.192-1.435 1.899.527 3.305 2.254 3.305 4.319 0 .841-.234 1.656-.669 2.361l-.003.004c-.145.234-.312.457-.501.664l-.151.121c.105.053.198.126.299.186.209.123.414.251.606.398.109.085.208.182.312.274.167.148.339.291.49.459l.644-1.048c.003-.004.005-.009.008-.013l1.18-1.919 1.479 5.915-.189.309c.276.071.54.17.8.277.068.028.139.05.206.08.291.132.573.283.839.459l.461-.751.036-.009-.009-.035 2.481-4.042.068.108.258-.164-.544 4.897-1.615.956c.45.49.816 1.056 1.089 1.68l13.766-8.147c1.024-.578 1.659-1.665 1.659-2.837 0-.645-.189-1.269-.546-1.805l-.954-1.431c-.604-.906-1.617-1.447-2.706-1.447h-.138c-.62 0-1.224.176-1.747.509l-6.357 4.042 3.993-6.505c.298-.506.455-1.083.455-1.669v-.153c0-1.102-.547-2.124-1.463-2.734l-1.407-.939c-.542-.361-1.172-.551-1.822-.551-1.16 0-2.245.621-2.833 1.62l-5.69 9.251c-.668-2.573-2.87-4.534-5.571-4.83-.53-1.945-1.315-3.821-2.356-5.556l-1.715 1.029c.87 1.45 1.55 3.007 2.029 4.623-2.698.563-4.783 2.804-5.119 5.577l-3.587-4.483c-.626-.782-1.559-1.231-2.561-1.231h-.187c-.677 0-1.328.205-1.88.593l-8.44 5.907c-.875.613-1.398 1.618-1.398 2.687 0 .755.263 1.492.741 2.076zm23.54-15.72 1.443-2.347 1.57 5.756-1.535 2.502zm5.987-1.436-1.539 2.507-1.569-5.753 1.314-2.136zm1.142 4.588 1.824-1.16-.505 5.049-1.875 1.109zm5.359 1.5-1.903 1.126.515-5.15 1.912-1.215zm3.667-5.698.953 1.43c.138.207.21.447.21.695 0 .452-.245.87-.639 1.093l-2.055 1.216.499-4.99c.416.003.801.21 1.032.556zm-8.816-8.342 1.406.938c.359.239.573.638.573 1.07v.153c0 .229-.062.455-.178.653l-1.787 2.912-1.787-5.361c.38-.56 1.206-.742 1.773-.365z"/><path d="m23.751 20.142c.374-.078.756-.127 1.149-.133l.14-.109.359-.897-5.682-7.255c-.648-.827-1.861-.991-2.704-.361l-2.232 1.662c-.434.323-.715.817-.771 1.354s.116 1.077.474 1.483l5.631 6.391 1.501-1.322-5.64-6.303 2.166-1.672z"/></g></g></svg>