<svg id="Layer_5" enable-background="new 0 0 62 42" height="512" viewBox="0 0 62 42" width="512" xmlns="http://www.w3.org/2000/svg"><g><g><g><path d="m18 38h-14v-6h14z" fill="#f0bc5e"/></g></g><g><g><path d="m38 10h-14v-6h14z" fill="#f0bc5e"/></g></g><g><path d="m24 13h14v8h-14z" fill="#f0bc5e"/></g><g><g><path d="m58 26h-14v-6h14z" fill="#f0bc5e"/></g></g><g><path d="m8.586 0-8.586 8.586v33.414h62v-42zm31.414 2v38h-18v-38zm-32 1.414v4.586h-4.586zm-6 6.586h8v-8h10v38h-18zm58 30h-18v-38h18z"/><path d="m14 16.685v-1.685c0-1.654-1.346-3-3-3s-3 1.346-3 3v1.685c-2.361 1.127-4 3.53-4 6.315v3h14v-3c0-2.785-1.639-5.188-4-6.315zm-4-1.685c0-.552.449-1 1-1s1 .448 1 1v1.08c-.328-.047-.66-.08-1-.08s-.672.033-1 .08zm6 9h-10v-1c0-2.757 2.243-5 5-5s5 2.243 5 5z"/><path d="m4 28h14v2h-14z"/><path d="m35.721 24h-9.441l-2.667 8h2.387v6h10v-6h2.387zm-8 2h6.559l1.333 4h-9.226zm6.279 10h-6v-4h6z"/><path d="m24 12h14v2h-14z"/><path d="m24 16h14v2h-14z"/><path d="m24 20h14v2h-14z"/><path d="m51 18c3.86 0 7-3.141 7-7s-3.14-7-7-7-7 3.141-7 7 3.14 7 7 7zm-1-11.899v1.899h2v-1.899c1.956.399 3.5 1.943 3.899 3.899h-1.899v2h1.899c-.399 1.956-1.943 3.5-3.899 3.899v-1.899h-2v1.899c-1.956-.399-3.5-1.943-3.899-3.899h1.899v-2h-1.899c.399-1.956 1.943-3.5 3.899-3.899z"/><path d="m50 36v2h8v-8h-6v-2h-8v8zm6-4v4h-4v-4zm-10-2h4v4h-4z"/></g></g></svg>